<svg xmlns="http://www.w3.org/2000/svg" viewBox="0 0 940.82 936.06"><defs><style>.cls-1{fill:#f29f05;}</style></defs><g id="Layer_2" data-name="Layer 2"><g id="Layer_1-2" data-name="Layer 1"><path class="cls-1" d="M9.29,492.37c9.28-1.38,10.65-.69,21.64,3.09L34,493.4h5.15c2.75,0,11-1,13.4-1,.69-.35,12,0,13.74,0,3.1,0,2.75,0,6.53-1,4.13,1.37,4.81.68,7.22,1.37l6.87,3.44h7.21c17.53-3.44,13.06-4.47,30.58-.69,27.14,4.12,58.41,33,70.09,43.63,23.37,21,23,47.76,22.34,69.06v24.06c-2.06,30.57.34,31.95-34.36,71.12a5.46,5.46,0,0,1-5.5,3.78c-.69.69-5.15,3.78-6.53,4.81-2.06,2.06-3.78,4.12-5.84,6.18-.34.69-3.09,2.75-5.84,4.47-6.53,3.78-18.55,4.81-25.77,7.56l-5.84,2.06c-2.75.68-20.27.34-25.08.68h-12c-3.09,0-7.9-1-11.68-1l-5.5-1.72c-2.4,0-5.49-1.38-7.9.69-4.81.68-2.75.68-8.24,0-1.38,0-11-2.07-16.5-3.1-22.33,4.13-24.39,3.1-39.16,3.1,0-7.22-.69-5.84,1.71-13.06,14.09-9.62,13.4-9.62,16.15-23L21,688.55c0-1,0-4.81.69-6.53.34-3.77,1.37-2.4,1.37-6.18,0-1.72-1.37-4.47-1.37-6.18-1.72-4.47.34-3.78.34-7.91a13.25,13.25,0,0,0-2.75-8.59c-1.37-4.46-1.71-6.18-1.37-7.9l.69-1.72,1.37-1.71,1.72-1.72,2.06-1c1-4.81,1.72-7.56,1.37-10,0-4.46-3.43-8.59-3.43-10.3-1.38-2.75.34-5.84,1.72-10a41,41,0,0,0,.34-10.31c0-3.43.69-4.81-1.72-7.9-1.72-2.4-1.37-5.15-1.37-8.24a68,68,0,0,1,1.71-16.5l1.72-7.9a25.24,25.24,0,0,0-.68-7.9c0-3.09-.35-5.15.68-7.9V533.6a39.05,39.05,0,0,0-5.15-17.18c-3.09-1.72-3.78-4.81-6.87-7.9a11.45,11.45,0,0,0-8.94-3.78L1,502.33V493.4l2.06-1Zm54.29,40.54c0,1,3.43,14.09,3.43,14.43a97.41,97.41,0,0,1,0,14.09,76.33,76.33,0,0,1-3.09,14.77c0,2.75-2.41,4.12-3.44,6.87s0,4.47-.34,7.22l2.06,2.06L65,592c.69,1,.34,12.37.34,12.71v35c0,3.44-.68,6.19-3.78,10.31-4.12,6.19-4.12,4.12-4.12,10.65,1.38,1.72,2.75,1,5.84,4.13,2.06,3.09.69,3.09,1.38,5.49.34,2.07,0,6.53-.69,10.65-.69,5.85-3.44,17.53-1.38,22.68,4.13,8.93,12.37,9.28,20.62,10,19.24,1.71,42.6,6.87,62.87-20.62,9.28-12.71,21-34.7,24.4-46.73v-6.18c.34-2.41,1.37-4.13,1.72-5.84,2.06-4.47.68-7.9,3.09-12,1-3.78,2.06-19.93,1.37-23.71-3.09-5.15-3.09-5.84-3.09-10.65l-1.72-10.3c-1.37-5.5-6.53-16.15-8.93-20.62-3.78-8.24-7.56-15.46-14.09-21-3.77-2.75-6.52-3.43-10.65-6.87-3.09-1.72-3.78-2.75-9.62-7.9l-4.46-3.78c-5.16-3.44-10.66-4.12-22-5.84-1.38,1-4.81,1.72-6.88,1.72-2.75-1-3.43-1.72-6.87-1.72a15.45,15.45,0,0,1-3.43-.35l-1.72-1-2.06.35-1.72,1-1.72,1H74.57c-6.87,2.75-3.09,4.46-7.9,8.93C64.26,526,63.23,529.48,63.58,532.91Z"/><path class="cls-1" d="M345,495.46l2.75,8.59,6.53,18.55c.69,2.06,1.37,3.44,1.37,5.15l3.44,10c.68,1.72,2.4,4.81,3.09,7.56L368,561.43c.69,2.06,3.78,9.62,4.47,12l6.18,23.37c1.38,4.81,1.38,3.09,2.06,8.24l2.06,8.93c1,3.44,2.07,4.13,3.78,8.25,1,3.09,2.06,6.19,3.1,8.93l8.93,21.65.34,1.37,1,1.72c.35,2.06,0,1.38,1.38,3.44l6.87,21c2.4,7.9,1.37,4.46,6.19,12.37,1.37,2.06,3.77,9.62,6.18,12.71,1,1.72,10.31,7.9,12,9.28,5.85,6.18,3.44,5.84,3.1,12.71-10,3.09-20.28,3.78-30.24,4.12H374.84c-2.4,0-6.18-1-8.93-1h-8.59c-1.38-3.44,0-6.87,5.5-9.28,2.75-1.37,7.21-.34,11-4.81,5.84-7.55,0-21-4.47-34.7l-8.93-19.93-2.75-8.93-2.4-4.47-1-4.46c-1.72-6.19-3.44-11.68-12-15.46-4.12-1.72-40.2-1.72-45.35,1-4.12,2.4-5.84,5.84-8.25,14.08-.68,2.07-1,5.16-2.06,7.56-1.72,3.78-1.72,2.75-4.46,7.56l-2.75,11c-5.5,14.77-11.69,26.8-6.53,34.36,3.78,3.78,8.93,5.5,11,10.65,4.47,7.21,2.75,6.87,3.1,14.08H268c-15.12.35-34.36,3.44-54.29-7.21,1-3.09.69-5.16,5.15-7.9,1.72-1.38,5.85-3.44,8.25-5.16,6.53-4.46,11-8.25,15.46-14.43l2.75-5.15c5.84-9.62,2.41-5.5,9.62-16.15,3.78-5.16,10-10,12-15.81l19.93-53.6,1.71-6.18,4.47-9.62.34-1.72,1.38-2.06.34-2.06,1-2.06L312,541.15q3.6-9.27,4.12-10.3l4.12-9.28c4.81-11.68,4.13-31.61,6.19-33.67,4.12-4.46,12.71-1.37,16.83-1A25,25,0,0,1,345,495.46Zm-22.68,65.62c-5.84,18.56-14.08,29.9-12.36,48.45a177.83,177.83,0,0,0,29.2.69l2.06-2.07v-7.9c-3.78-16.83-3.09-12.37-5.5-28.52-.34-3.09-1.37-12-1.37-14.43a24.23,24.23,0,0,0,1.37-6.87c0-3.09-.34-5.15-3.43-6.18-6.19,2.06-5.5,3.43-7.56,8.24Z"/><path class="cls-1" d="M485.8,513.67c-1.72,1.37-5.15,2.06-7.56,4.81-2.75,3.78-1.37,3.44-1.72,7.56a42.67,42.67,0,0,0,1.72,15.46l3.1,7.9a74,74,0,0,1,3.43,13.06v4.81c1.72,7.56,9.28,18.21,10,23.36v12c1.37,4.46.68,6.52,3.77,11.68,2.07.69,6.88,6.53,7.91,10,.68,1.38,3.78,8.93,4.81,10.31,1.71,4.81,1,5.84,0,10.65-1,3.09-2.07,7.56,0,11l7.56,6.18,2.4-1.72c1-9.62,3.78-15.46,8.25-22,7.9-11.34,9.27-12.71,11.34-22.67,4.12-17.53-.69-21.65-11-44.33l-5.15-16.14c-1.38-3.1-5.84-7.91-7.56-11.69-1-2.06-.35-3.09-2.07-5.84a9.22,9.22,0,0,1-4.8-5.84l-.69-1.37-.69-1v-3.09c-2.4-3.78-1.72-2.41-3.09-6.19-4.13-5.84-6.53-5.15-11.68-7.21-2.75-4.13-3.44-5.84-3.44-10-.69-2.06-.69-8.93.34-10.65,8.59.69,15.12,1,23.37,1.38h7.56c17.86-1.38,13.74-2.07,31.61-1.38l20.61,2.06c3.78.35,17.18,1,21.3.69,3.78,0,4.47-2.41,10.31-2.41h10.65c3.78,2.41,3.1,5.5,4.47,8.94.69,2.4,2.06,4.81,2.06,9.27-33,12.72-38.82,27.15-45,57.38-1.37,8.25-2.06,14.78,0,20.62,1.38,2.75,4.47,6.87,5.84,10.31,1,2.06,1.72,4.46,2.41,10.65,0,1.37,0,14.43.34,16.15,0,3.43.69,5.15,4.81,7.9,1.72,1.37,5.84,3.09,5.84,7.21a15.16,15.16,0,0,1,.35,3.78c.68,1.37.68,3.09,1.37,4.47,1.72,2.4,3.09,5.49,6.18,7.56,2.75-1,2.41-3.78,2.41-6.19,0-3.43-.34-2.75,1.37-7.21,2.41-2.41,5.16-3.44,6.19-6.53.69-1,1.37-5.84,2.4-7.56,1-3.78,1-2.41,3.78-6.87l2.75-7.22c1-2.4,3.44-10.3,4.81-14.43l2.06-8.93c2.41-10.65,4.47-18.9,8.59-26.8l5.16-10c3.09-6.19,6.53-27.84,2.74-34.7-4.81-8.6-8.93-7.22-15.46-8.25-2.06-2.75-2.06-7.56-2.06-8.59,0-2.75-.68-5.84-.68-8.59,19.58-2.75,11.33.34,30.92-.69,8.59-.34,12.37-.34,15.46-.68,3.44,0,4.12-1,7.56-1a10.75,10.75,0,0,1,7.56-.34c2.06,11,3.43,17.18-3.1,25.77a56.22,56.22,0,0,1-4.12,5.5c-.69.68-4.81,3.77-4.81,3.77-6.87,4.47-3.43,4.47-7.56,10-5.15,8.93-4.12,12-6.53,20.61l-3.09,10.31c-2.4,8.94-3.43,15.46-7.21,25.08L644.54,614l-.69,4.47-2.06,4.47c-.69,2.4-1.38,6.18-2.41,9.28l-13.74,40.88c-.34,1.38-1.37,5.84-1.72,7.56,0,1.37-.69,6.53-1.37,7.9l-2.75,9.63c-3.44,5.84-2.06,4.12-3.78,10,0,1.72-2.4,7.56-3.09,9.62-2.41,6.87-2.41,13.74-11.69,15.8-4.12,1-7.21,1.38-11-3.77-1.72-2.76-1-17.19-6.87-27.49-.35-1-3.09-4.81-4.12-6.53-1.72-3.09-1.38-4.12-4.47-7.22-1-1.71-1-4.46-2.41-6.53l-2.74-7.21-7.56-12.71c0-1.72-1.72-6.88-2.41-8.94,0-1.71-2.75-7.21-4.81-9.27-3.09,0-5.15,3.43-10,11-1.38,4.47-4.12,8.94-5.5,13.4A61.35,61.35,0,0,0,535.62,681c-1,6.19.34,6.88-2.4,13.75,0,.34-1.38,3.78-4.82,9.62-1,2.06-4.81,7.56-6.18,10.31,0,2.74-1.37,6.87-2.4,9.62-1.38,4.46-3.1,7.56-7.22,9.27H505c-1.72-1.37-1-1.37-2.4-3.09L500.92,727c-3.09-3.09-2.75-2.74-4.12-6.52l-11-32c-.69-.68-4.12-12-4.12-12.71l-9.62-19.93L469.31,647a17.09,17.09,0,0,0-2.06-4.47c-.35-.68-1-3.09-1.72-4.81-1-2.4-2.75-6.18-3.09-9.27,0-2.41.69-6.19.69-9.28l-2.41-7.22c-1.72-2.4-4.81-5.84-6.53-8.59-1-1.71-2.4-6.87-3.09-8.59-.69-2.4-1.72-5.83-2.4-8.58-1.38-3.78-2.41-5.85-2.41-8.59L437,549.06c-3.43-12.37-2.75-10.31-9.62-21.65-2.4-5.49-1.37-5.84-8.24-8.93a15.16,15.16,0,0,0-5.5-2.06c-1-1-3.44-2.41-5.5-4.81-2.06-2.06-1.72-2.41-3.09-4.47-.34-1-1-3.09-1.72-4.81-1.72-2.75-4.81-5.84-4.81-8.93,1.72-2.06,7.22-2.75,11-1.72l11.33,1.72h12.37c3.44,0,7.91,1,11.68,1h10.31c3.09,0,10.65,0,13.4-1.38,7.22-.68,5.84.35,13.74,1C484.77,505.08,485.11,509.2,485.8,513.67Zm68.72,11c1.37,2.07,3.09,3.44,4.46,5.5.35,4.81.35,9.28,1.38,14.09l1.72,7.21c.68,1.38,2.06,5.5,3.78,5.84,1.71-.68,3.09-6.87,3.43-7.9,3.09-1.72,3.09-6.52,3.09-7.9,1-3.44,1.72-5.16,1.72-8.25,1.72-5.15.69-5.5,3.09-7.56a19.61,19.61,0,0,0-1.71-7.9c-1.38-3.44-1.38-4.46-4.81-7.21a22.24,22.24,0,0,0-7.22,2.4c-2.41,0-4.81.35-7.21.35l-3.44,4.81C553.49,519.85,554.18,524,554.52,524.66Z"/><path class="cls-1" d="M897,729.1a17.85,17.85,0,0,1-8.25-6.53c-1.72-2.4-1-2.06-2.06-4.47-.69-1-.69-3.09-1.38-4.81l-4.12-4.81c-2.06-3.09-1.72-2.75-3.77-4.81l-6.88-6.53-3.09-2.75-1.37-1.71-1.38-1.38L858.21,682a62.82,62.82,0,0,0-3.78-5.15l-6.18-7.21c-1.38-1.38-3.44-3.78-7.56-7.91l-3.09-3.09c-2.75-1.72-2.41-1.72-4.12-3.78L828,648c-5.16-5.15-4.47-3.09-7.22-10.31l3.1-2.06c0-2.41-2.76-4.81-6.88-7.56-2.06-1.37-4.81-3.78-9.27-8.24l-13.06-15.46c-.35-.69-3.78-3.79-4.81-4.81l-9.27-10.31c-4.47-5.5-10.66-13.06-13.75-17.53-3.43-5.15-3.78-4.46-5.5-9.27,0-2.41,0-7.22-4.12-8.93-3.09,0-7.56-1.72-7.56,4.8-1,4.81,1.37,4.81,2.75,10.31.69,2.41,1,4.81,1.38,10,.34,5.49-.35,15.8-.69,20.27v5.84c-5.15,26.11-2.75,23.71-3.44,44.66v11.34c2.75,27.15-2.75,30.93,26.11,52.57a68,68,0,0,0,9.62,5.84c4.81,2.75,5.16,2.41,5.16,8.25a9.14,9.14,0,0,1-7.22,3.44c-3.43.34-4.47-.69-7.9-1-2.06,0-5.15-.69-7.56-.69l-7.9-.69a37,37,0,0,1-10.65,2.41L738,729.1c-4.13-2.75-7.22,1-11.34,1-2.06,0-5.49-.34-11.33-2.75-1.72-.69-4.13-.69-6.53-3.09-2.41-3.1-1.72-4.12-1.72-6.88,27.48-22.67,23.36-49.13,22.33-69.06v-6.18a25.36,25.36,0,0,1,1.72-9.62V620.18l-1.38-10.65V558c.35-12.71-.34-31.61-3.77-43-1.73-2.06-2.07-3.43-6.19-6.52l-7.22-4.47c-1.37-1.37-5.49-4.81-6.52-6.53-.69-2.4-1-4.81,1.37-7.22h25.08c3.09,0,5.84,2.07,8.93,2.07h4.81c4.47.34,30.58-1.38,35,7.9.34,1-1.37,10.31-1.37,11.34-.35,6.18.34,9.28,1.37,11.34.69,1.71,15.81,21.3,17.18,23l6.87,8.58c3.44,3.44,4.81,4.82,6.19,6.88l9.27,13.74c1.38,1.37,5.15,3.78,7.56,6.18,4.81,4.82,3.78,3.78,6.87,7.91l6.87,7.21a17.2,17.2,0,0,1,6.53,6.19l4.47,5.49c5.49,6.88,14.77,21.65,22.33,27.49,3.1,2.06,4.12,1.38,7.22,4.47,3.09,2.06,3.09,3.78,4.12,6.87,0,3.78.34,2.4,3.78,7.21,1.72,1.72,5.15,4.13,7.56,3.44-.35-11.34-4.81-18.21-2.75-30.24,3.78-19.58,5.84-10.3,4.13-30.57v-5.16c-.69-3.43-1.73-5.49-1.73-6.18a33.74,33.74,0,0,1-1.72-6.87l.69-13.06v-9.28c.35-4.12-3.77-40.88-7.55-45s-10.31-4.46-14.09-6.52c-2.06-2.06-4.81-4.81-6.53-5.5-2.75-2.41-5.5-3.44-4.12-6.87,1.72-2.41,5.84-2.75,7.9-2.75l8.93-1c11.69-1.72,5.84-2.06,17.87-2.06,4.47,0,8.59,0,17.52,3.09a51,51,0,0,0,8.94,2.06l8.58,1c2.41,0,4.13,1,5.5,4.81.69,6.53-6.18,6.53-9.27,9.62-14.09,12.71-15.46,47.76-14.09,61.85V674.12c.68,11.34,5.5,33.68-1,56C905.63,731.5,902.19,731.5,897,729.1Z"/><path class="cls-1" d="M92.34,780.18c5.48,8.44,9,10.13,12.51,18.28.14.43,3.09,7.46,3.09,9.29a28,28,0,0,1-.56,4.64,22,22,0,0,0-.28,4.64v4.08c-.28,10.54-7.45,25.31-16.88,32.62-14.76,11.82-20.81,10.69-35.72,11.11H48.18c-11-.84-22.65-2.67-31.79-15.89C8.52,837.7,1.91,831.37,2.33,815.62v-3.09C2.75,802.12.08,805.35,5.42,795c1.27-2.39,9.14-15.05,11.82-17.58,8-7.59,19.68-11.11,27.7-12C54.79,764.43,79.68,761.2,92.34,780.18Zm-7.46,53.16c1.27-5.62,3.94-7,3.1-12.52l-1.69-4.92c-.14-1.54.42-1.26.56-2.39a12.2,12.2,0,0,0-.14-2.25,24.07,24.07,0,0,1,.14-4.22,19.19,19.19,0,0,1,.84-4.5c1.27-2.95,2-2.81.85-4.36-.85-3.37-4.22-5.2-6.89-7.59-2.4-2.39-2.4-1.27-3.24-4.08l-1.12-2.11c-.28-.28-1.55-1.83-1.69-2l-1.27-1.26a16.74,16.74,0,0,1-2-2.39c-.85-.85-1.69-1.69-2.26-2.4-1.68-1.54-1.26-.84-1.68-2.25a6,6,0,0,0-1.69-2.25c-.7-.56-7.73-1.68-9.85-1.68-6.46-.42-16.45,2.25-22.36,8.72-1.26,2-.56,1.4-2.39,3.23a19.27,19.27,0,0,0-2.67,3.09c-1.69,2.25-1.4,2.68-2.95,6.33a13.26,13.26,0,0,1-1.69,3.1,36.11,36.11,0,0,1-2.25,3.09c-1.69,2.81-1.55,3.8-2.39,6.33l2.11,1.69c.28,2.67-.14,8.72-.28,14.76v5.07c.28,2.95-.14,9.42.84,12.09s4.78,9,8.16,11a11.23,11.23,0,0,1,2.67,1.27l2.53.42c.85,0,1.83,1.26,2.39,2,1.27,1.26,1.55,1.26,2.53,1.26a19.94,19.94,0,0,1,5.21.71,7.06,7.06,0,0,1,5.06,2.39c9,.56,28.41-4.93,32.21-18.43Z"/><path class="cls-1" d="M155.75,767.1h9.14l6.19.28h2c.15,0,6.19-1,6.61-1a7.57,7.57,0,0,1,3.1.28,6,6,0,0,1,3.23,2.25l-1,.85c0,1.68-.28,3.37-.28,5.06,0,2-.42,2.95-1.27,5.2a3.2,3.2,0,0,0,.42,2.53v7.74a4.69,4.69,0,0,1-3.09,1.12,4.85,4.85,0,0,1-3.09-1.83l-1.41-4.36a9.61,9.61,0,0,0-1.69-2l-.28-.57-.56-.56-.14-.42-.28-.56c-2.11-3-3.66-3.66-8-5.49-4.64-1.83-15.75-3.09-20.25.42-1.69,1.27-2.67,3.1-2.95,6.47,0,1.13-.14,2.11-.14,3.24-.29,1.68-.71,1.54-1.27,3.51v2c-.42,2.67,1.13,12.8,2,15.89a37.24,37.24,0,0,0,9.56.28c2,0,2.67.57,4.78-.84.57-1,.57-1.27,2-1.83l.56-.56.43-.7c.14-.14.28-.85.56-1.27.56-1.12,1.27-1.55,2.95-1.55a8.55,8.55,0,0,1,3.24.29c1,4.5.7,6.46.28,11.11v3.37c0,1,.28,5.2.28,6.89v5.21l-1,1.12c-2.67,0-2.53.14-4.07-1.55a18.94,18.94,0,0,1-4.22-3.37c-1-2.53-.71-1.55-3.1-3.8a17.89,17.89,0,0,0-4.22-3.23c-1.54-.71-6-1.13-7.87.14-2.11,1.54-2.25,9.84-2.67,12L139,837.56c3.8,10.27-1,11.81,4.36,17.44a33.85,33.85,0,0,0,4.08,3.23c1.69,1.69,1.41,2.4,1.26,4.22a6.74,6.74,0,0,1-3.65.71h-2c-5.91-.14-7.31.28-10,0H128c-7.45.7-3.93,1-11.67-.85v-1.55a25.3,25.3,0,0,0,5.2-7c.42-.7,1.69-2.81,2-3.51a18,18,0,0,0-.28-3.8V839c.14-1-.14-5.77,0-8.3.28-3.52,1.41-7.88,1.27-8.58l-.85-8.3c0-2.53.28-6.33.57-9.14l1.4-7.59c.28-2.25-.84-10.13-1.12-12.66V780a10.62,10.62,0,0,0-2.82-6.61c-1.26-1.41-2.11-1.26-3.23-2.39s-2-1.83-1.27-3.37a21.22,21.22,0,0,1,4.36-.57c1.27,0,3-1,4.5-1h3.66c6.05.84,8.58-.56,15.19,2.39C149.28,768,151.25,767.1,155.75,767.1Z"/><path class="cls-1" d="M219.5,765.57c6.52-1,7.48-.48,15.21,2.17l2.17-1.44h3.62c1.93,0,7.73-.73,9.42-.73.48-.24,8.45,0,9.65,0a11.29,11.29,0,0,0,4.59-.72c2.9,1,3.38.48,5.07,1l4.83,2.42h5.07c12.31-2.42,9.17-3.14,21.49-.49,19.07,2.9,41,23.18,49.25,30.67C366.28,813.13,366,832,365.56,846.93v16.9c-1.45,21.49.24,22.46-24.14,50a3.83,3.83,0,0,1-3.86,2.65c-.49.49-3.63,2.66-4.59,3.38-1.45,1.45-2.66,2.9-4.11,4.35a18.61,18.61,0,0,1-4.1,3.14c-4.59,2.65-13,3.38-18.11,5.31l-4.1,1.45c-1.93.48-14.25.24-17.63.48h-8.45c-2.17,0-5.55-.72-8.2-.72l-3.87-1.21c-1.69,0-3.86-1-5.55.48-3.38.48-1.93.48-5.79,0-1,0-7.73-1.45-11.59-2.17-15.7,2.9-17.14,2.17-27.53,2.17,0-5.07-.48-4.1,1.21-9.17,9.9-6.76,9.42-6.76,11.35-16.18l1.21-4.34a16.57,16.57,0,0,1,.48-4.59c.24-2.66,1-1.69,1-4.35,0-1.2-1-3.13-1-4.34-1.21-3.14.24-2.66.24-5.55a9.3,9.3,0,0,0-1.93-6c-1-3.14-1.21-4.34-1-5.55l.49-1.21,1-1.21,1.21-1.2,1.45-.73c.72-3.38,1.2-5.31,1-7,0-3.14-2.41-6-2.41-7.24-1-1.93.24-4.11,1.21-7a28.75,28.75,0,0,0,.24-7.25c0-2.41.48-3.38-1.21-5.55-1.21-1.69-1-3.62-1-5.8a47.38,47.38,0,0,1,1.21-11.58l1.21-5.56a17.89,17.89,0,0,0-.48-5.55c0-2.17-.25-3.62.48-5.55v-6a27.41,27.41,0,0,0-3.62-12.07c-2.18-1.21-2.66-3.38-4.83-5.55a8.09,8.09,0,0,0-6.28-2.66l-1.45-1.69V766.3l1.45-.73Zm38.14,28.49c0,.73,2.42,9.9,2.42,10.14a68.13,68.13,0,0,1,0,9.9,54,54,0,0,1-2.18,10.38c0,1.93-1.69,2.9-2.41,4.83s0,3.14-.24,5.07l1.45,1.45,1.93-.24c.48.72.24,8.69.24,8.93v24.63c0,2.41-.48,4.34-2.66,7.24-2.89,4.34-2.89,2.89-2.89,7.48,1,1.21,1.93.73,4.1,2.9,1.45,2.17.48,2.17,1,3.86a29,29,0,0,1-.49,7.48c-.48,4.11-2.41,12.32-1,15.94,2.89,6.28,8.69,6.52,14.48,7,13.52,1.21,29.94,4.83,44.18-14.48,6.52-8.94,14.73-24.39,17.15-32.84v-4.34c.24-1.69,1-2.9,1.2-4.11,1.45-3.13.49-5.55,2.18-8.45.72-2.65,1.45-14,1-16.66-2.17-3.62-2.17-4.1-2.17-7.48l-1.21-7.25c-1-3.86-4.59-11.34-6.28-14.48-2.65-5.79-5.31-10.86-9.89-14.73-2.66-1.93-4.59-2.41-7.49-4.82-2.17-1.21-2.65-1.94-6.76-5.56l-3.14-2.66c-3.62-2.41-7.48-2.89-15.45-4.1a10.24,10.24,0,0,1-4.83,1.21c-1.93-.73-2.41-1.21-4.83-1.21a11.15,11.15,0,0,1-2.41-.24l-1.21-.73-1.44.25-1.21.72-1.21.72h-2.17c-4.83,1.94-2.17,3.14-5.56,6.28C258.12,789.23,257.4,791.65,257.64,794.06Z"/><path class="cls-1" d="M447.87,774.26c0,.49-.48,3.62-1.69,5.07-1,.48-7,1-8.21,1-5.55,1.93-4.1,2.65-6.52,6.52h-6a8.09,8.09,0,0,0-.49,7.72c0,.49.49,7.49.49,8.45-1.21,1.21-1.45,4.35-1.45,5.56-1,2.41-2.66,2.65-2.66,5.55,3.38,4.59,3.14,2.9,3.14,7.48.24,1.69.24,5.32.48,7.49v4.34c0,1.45-.72,3.87-.72,5.8a45.06,45.06,0,0,0-.24,6.27v5.32c0,.48-.24,2.89.24,3.86a24.86,24.86,0,0,0,.24,4.34v3.62c-.24,20.77-4.34,33.32,19.07,51.43,10.14,8,42.49,6,48.77,3.38,9.9-4.34,15.94-15,16.18-24.38,0-1-.73-10.63-.24-11.83a6.24,6.24,0,0,1,1.93-2.9l1.21-3.14a39.81,39.81,0,0,0,1.2-6c.49-4.59.24-13.28-1.93-24.39v-4.34c-.72-8.21-.24-8.45.73-16.67.72-6-1.69-9.65-1.94-16.41v-8.45c-1.69-9.42-.24-5.79-8-14l-1.94-1.69-1.2-1.93c-.24-.24-.73-2.41-2.9-3.14-1.45-.48-6-2.17-7-3.86l1.21-5.79h6.27c8.45-.73,14.25-1.93,22.46-1.45l2.89,2.41c10.39-.72,9.18-2.65,24.39-1,0,2.9.48,5.79.48,8.69-16.66,12.07-17.14,15.21-18.59,30.18-.72,5.31-.24,12.07-.72,15.93l-1.21,8c0,2.66.24,5.31.24,8v8.45c.48,5.79,1.45,8.69,1.69,13v8.46c0,2.17-.72,4.34-.72,6.76,0,1.93.24,4.58.24,7v6.27c-3.87,22.7-.24,23.18-27.77,39.11-15.45,8.94-63.49,10.63-79.18,2.66-22.7-11.59-20.53-25.35-22.22-42l-4.1-38.87a37,37,0,0,1-.24-8.69c.24-3.38,1-5.07.72-8.93V820.38c0-3.63.24-6.52,1.45-9.18.24-1.93.24-7,.24-9.17-.24-6.76-2.89-16.66-5.07-18.84-1.93-2.41-3.86-1.69-6.76-3.13-1.93-1-5.31-3.14-5.31-5.56-1.21-3.38-.72-5.31.48-6.51,1-1.21,21-1.69,22.22-1.69h18.34c12.56.72,12.8,4.58,25.84,3.13C447.63,771.37,447.87,771.85,447.87,774.26Z"/><path class="cls-1" d="M601.4,766.3l2.89.72c1.94,0,4.35.72,6.52.72a6.2,6.2,0,0,1,3.14-.48,22.48,22.48,0,0,1,3.14-1c1.69,0,4.34-.73,6.52-.73C632.54,764.85,640,767,649,768l1.69,1c10.62-1.69,16.41-4.1,23.9,4.35,2.65,2.89,3.14,8.93,3.62,14.48.48,4.59.48,6.28.24,7,0,2.17,0,5.55-4.34,7h-1.21c-8-9.66-4.11-9.91-16.66-16.42-7.48-4.11-12.31-8-20.52-7a18.17,18.17,0,0,1-4.83,2.17,9.61,9.61,0,0,1-5.07-2.42c-3.14-1.44-6-2.65-10.14-2.41-3.38.24-7.72.48-9.41,4.83-1,2.41,1.44,13.76,1.2,16.42a12.15,12.15,0,0,1-.24,4.1c-1,2.66-1.21,1.69-1.21,4.35a23.46,23.46,0,0,0-1.2,8.21l1.69,3.86c.72,3.38-1.45,17.87,2.89,21.49,1,.72,7.73,2.65,8.94,2.17,1.93-1.21,7.24-3.38,9.41-3.38l3.62-2.41c.49-1.45,1-1.69,2.9-3.38a13,13,0,0,1,5.07-7.25c2.17,0,6-1.21,7.49,3.62.24.73,1,2.66.72,7.25,0,1.2.72,3.38-2.17,7.48v3.86c1.69,2.9,1.69,1.93,1.69,5.31,0,1.94-.24,3.87-.24,5.56,0,1.2.24,10.14-.49,11.35a5.76,5.76,0,0,1-5.31,1.93,3.11,3.11,0,0,0-2.41-.49,8.12,8.12,0,0,1-2.66-2.41c-.48-1.69-1.69-2.9-2.66-5.56-5.06-5.79-5.55-1.93-10.86-4.1a25.48,25.48,0,0,1-5.55-3.86,12.54,12.54,0,0,1-5.55-2.42c-1.45-.48-6.76.25-8.21,1.69,1,8.94,1.93,7.73,2.17,13.77v7c-1.69,2.65-1.69,3.14-1.69,7v7.72c1,6.76-1.69,22,5.07,29,3.38,3.13,13.76,5.79,18.59,4.58h1l1-.72,1-.24,1-.24c1.69-1.69,1.93-1.94,4.11-1.94h8c4.83-3.62,6.28-4.82,7.73-6.51,3.38-1.93,3.86-3.87,5.31-8.21,1.45-2.42,2.9-5.8,4.59-8.45,2.65-3.14,5.31-3.14,8.45-4.11l2.65,1.69V901c0,7.49-.72,8.45-.24,14v13.52c-1,2.41-.24,2.17-3.14,4.34-4.82.72-7,1.21-9.9,1-1,0-8.69-2.18-10.14-2.18h-3.62c-4.1,0-6.27,1.45-12.55,1.45h-7.48l-1.21.73h-2.9l-1.45-1a8.35,8.35,0,0,1-5.55.24l-19.8-1.21c-.48,0-1.69-.24-2.65-.24h-1.21l-1.45,1.21h-3.38c-13.76.24-14.24.48-28.25-2.41v-4.11c18.84-11.83,17.15-16.41,17.87-36.21v-15c0-1,0-6.52.48-7.72V859c0-2.89.24-2.41,1.45-5.07L575.32,838a55.52,55.52,0,0,1,.24-7.48l1.21-7.25,2.9-10.86c.24-2.17-1.69-12.31-1.93-15-1-6.52-.73-10.14-5.31-15.21-3.14-2.42-4.11-4.83-7.73-6.28-2.9-2.17-5.31-5.07-5.31-7.72a4.26,4.26,0,0,1,2.17-1.45c1.45-.73,1.21,0,2.41-1,2.9-.72,2.18,0,5.08-.24a10.21,10.21,0,0,1,4.82-.72,5.89,5.89,0,0,1,2.66.72,3.45,3.45,0,0,1,2.41.48h4.83a12.76,12.76,0,0,1,5.07,2.18c4.83,1.45,4.83,0,9.42-1.93Z"/><path class="cls-1" d="M752.51,770.4c-15.69,14-15,16.42-15.21,34v6c-.72,8.93-1.69,11.34-4.1,21h3.62v12.8c-.24,2.17-.72,11.34-.72,14.24,0,1.93.24,4.83.24,7L739,873c.24,1.69-.24,12.55-.48,14.72-.48,6.52-1,12.32-.48,14.25.72,3.38,5.55,10.38,9.89,12.07,2.66,1,35,3.14,41.05.48,5.79-2.17,5.79-5.79,8.21-10.14a48.34,48.34,0,0,0,3.14-5.79c.24-1.21.48-4.59,2.17-5.55a61.37,61.37,0,0,1,8.45-.49l1.45,1.93-.73,5.56v4.1c.48,1.21.48,1.93.48,5.56v14c0,3.62.25,2.89-.72,5.55-3.14,3.14-5.31.24-8.69,1.69-3.14,0-6.28.72-9.42.72H785.1c-1.44-.48-1.2-.24-2.65-.24,0,0-2.17.24-2.66.24h-15c-2.66,0-5.32.24-8,.24-4.35,0-4.83,0-8.45-.24l-15.69-1.45c-2.42-.24-10.39,1.21-13,1.45H701.57l-4.82.73a4.58,4.58,0,0,1-4.59-2.66v-3.86c1.21-2.17,7.72-7.24,9.41-9.17,4.59-4.59,4.59-4.35,5.31-9.9v-8.94c.24-1.93.49-2.89,1-5.31,1.21-1.45,1-3.86,1-4.58,0-2.18.25-2.66-.72-5.32-1.45-8.44-2.65-10.62-1.21-20.76V830c0-1.69,1.21-1.69,1.93-3.38v-7.24l.25-6.76c0-.72-.48-5.79-.73-7v-9.9c0-3.87,0-9.18-.72-11.11-2.9-7-4.11-4.1-9.42-8.45-4.34-3.38-2.89-4.82-2.65-9.41,3.14-1.93,5.07-.73,7-.73.72,0,2.17-.24,3.38-.24s2.41.24,3.86.24c8,.73,8.93,1.21,14.24.73,13.76-1.69,13.28-2.66,28.49-.48Z"/><path class="cls-1" d="M933.09,787.06c3.38,5.07,4.58,7.24,4.58,11.59a57.58,57.58,0,0,1-.24,5.79c-.48,1.21.24,3.38-2.9,5.55h-2.41l-2.42-1.2a16,16,0,0,1-4.34-4.35,21.74,21.74,0,0,1-2.9-4.83c0-1.2-1-3.13-2.65-5.07-2.18-.72-6-3.38-8.21-4.59-.73-.72-2.66-2.41-3.62-3.38l-1-.72-1.21-1.21-.72-1-1.21-1c-4.34-3.14-9.42-3.86-16.42-4.34-6.51-.25-20.27,0-27.52,9.17-2.89,4.11-5.31,16.66-4.1,21.73,2.41,10.38,27,20.28,29.45,21.73l4.83,2.41a25.27,25.27,0,0,0,4.34,2.42l6.53,3.38c13.51,1.45,16.17,5.55,25.83,19.55,3.13,3.14,4.1,5.8,7.24,8.7,1.21,1.93,1.69,3.13,3.62,9.41,1.93,6.52,2.9,10.14,1,17.86-1.93,10.39-9.9,24.87-22,30.67-9.18,4.58-17.87,5.31-36.94,8.2-22.69,3.38-14.24,1.94-36.94-4.34L838,928.05c-18.83-3.38-15-12.07-15.45-30.42v-9.17l.49-4.83c2.41,0,7.72-.48,9.89,1.21a16,16,0,0,1,3.38,4.58c1,2.9,0,1.94,3.14,4.83l6.52,6c8.93,7,11.11,13.76,19.07,16.42,1.69.72,18.59,2.65,20.28,2.65,10.14-1.21,18.35-2.9,24.15-15.69,3.13-6.28.48-14.25,0-21l-2.66-3.13a40,40,0,0,0-4.59-2.42,29.2,29.2,0,0,0-5.07-2.17c-2.41-1.45-1.93-2.17-4.35-4.1a30.64,30.64,0,0,0-4.82-3.63c-11.35-7.48-12.56-4.59-16.18-13.28h-7.48L857,852.49c-7.49-.73-8.7-2.18-15.22-7.25-2.41,1-4.82-2.17-5.55-4.1l-2.41-6.76c-2.66-6-5.31-7.73-5.8-13.76-.48-2.42,1.45-18.59,2.18-20.77,0,0,12.07-21,12.55-21.48,14.25-15.7,38.15-15,58.67-14.73h4.1c7.49.24,18.83,2.9,26.8,5.31C934.53,779.57,934.29,776.68,933.09,787.06Z"/><path class="cls-1" d="M255.65,366.11h0a12.36,12.36,0,0,0-1.73.13L85.18,378.93l168.74,12.69a12.36,12.36,0,0,0,1.73.13h0a12.82,12.82,0,1,0,0-25.64Z"/><path class="cls-1" d="M672.61,391.75h0a12.36,12.36,0,0,0,1.73-.13l168.74-12.69L674.34,366.24a12.36,12.36,0,0,0-1.73-.13h0a12.82,12.82,0,0,0,0,25.64Z"/><path class="cls-1" d="M620.94,241h0a14.07,14.07,0,0,0,1.13-1.32L732.41,111.42,604.12,221.77a11.52,11.52,0,0,0-1.31,1.13h0A12.82,12.82,0,0,0,620.94,241Z"/><path class="cls-1" d="M307.34,241h0a12.46,12.46,0,0,1-1.13-1.31L195.86,111.41,324.15,221.76a12.72,12.72,0,0,1,1.32,1.13h0A12.82,12.82,0,0,1,307.34,241Z"/><path class="cls-1" d="M477,170.47h0a14.08,14.08,0,0,0-.13-1.73L464.13,0,451.44,168.74a12.36,12.36,0,0,0-.13,1.73h0a12.82,12.82,0,1,0,25.64,0Z"/><path class="cls-1" d="M348.51,100.26l22.6,89.56a12.75,12.75,0,1,0,23.35-9.44Z"/><path class="cls-1" d="M185.18,264l79.07,47.73a12.75,12.75,0,1,0,9.95-23.13Z"/><path class="cls-1" d="M579.77,100.26l-22.6,89.56a12.76,12.76,0,0,1-25.12-3.93,12.73,12.73,0,0,1,1.77-5.51Z"/><path class="cls-1" d="M743.08,264,664,311.76a12.75,12.75,0,1,1-10-23.13Z"/><path class="cls-1" d="M765.33,457.94a42.79,42.79,0,0,1-4.81.16l-97.4-2.25s-6.15-.12-24-.79-37.15.79-37.15.79-21.84-.12-31-.63-24.32.63-24.32.63-87.7,2.18-103.48.63-39.27-.44-51.38,0c-13.94.5-58.39.23-71-.63s-29.86-1-37.09-1a119.76,119.76,0,0,0-18.85,1c-5.58.84-59.59.55-63.51,0s-18.17-2.34-24.22,0-27,.86-27,.86-11.24-.86-21.42-1.74c-6.37-.55-11.39.13-14,1.12a9.23,9.23,0,0,1-5.28.39,80.24,80.24,0,0,0-16.12-1.59c-9.84,0-18.14,3.79-54.13,3.1S0,444.22,0,444.22s20-3.83,26-4.73,39.54,1.34,46,1,19.45-2,33-2,87,2.13,100.92,1.8,32.57-.48,39.54-.76,14.41-1,22.66,1.09,40.19-2.13,64.41-2.13,40.18,1.29,47.7,2.3,29.88-2.14,41.65-1.26,63.49,3.52,74.87,1.68,44.22-2.22,51-1,44.22.25,52.66.25,43.12-2,51.56-2c5.77,0,14.74,1.23,19.81,2a28,28,0,0,0,7.76.12,269.94,269.94,0,0,1,29.12-2.13c14.13,0,23.56,1.6,28.44,2,5.69.42,30.28-2,58.35-2s41.47,2.47,63.3,3.64c16,.86,37.1-1.5,47.26-2.82a47.22,47.22,0,0,1,13.38.17c10.55,1.64,27.68,5.34,19.18,11.18-11.93,8.21-57.06,6-68.81,6s-35.78-1.59-35.78-1.59-32.84-2.26-45.13.71Z"/><path class="cls-1" d="M624.5,378.93c0-88.43-71.94-160.37-160.37-160.37S303.75,290.5,303.75,378.93c0,5.15.25,10.36.75,15.48a1.23,1.23,0,0,0,0,.19,12.81,12.81,0,0,0,25.55-1.42q0-.66-.06-1.29c-.41-4.32-.62-8.67-.62-13,0-74.29,60.44-134.74,134.74-134.74s134.73,60.45,134.73,134.74c0,4.27-.2,8.6-.61,12.85,0,.47-.07.93-.07,1.4a12.82,12.82,0,0,0,25.57,1.3C624.25,389.36,624.5,384.12,624.5,378.93Z"/></g></g></svg>