<svg xmlns="http://www.w3.org/2000/svg" viewBox="0 0 2376.25 273.14"><g id="Layer_2" data-name="Layer 2"><g id="Layer_1-2" data-name="Layer 1"><path d="M9,7.51C19.18,6,20.69,6.76,32.72,10.89l3.39-2.25h5.64c3,0,12-1.13,14.67-1.13.75-.38,13.17,0,15,0,3.38,0,3,0,7.14-1.13,4.52,1.5,5.27.75,7.9,1.5L94,11.65h7.9c19.18-3.77,14.29-4.89,33.48-.76,29.71,4.52,63.94,36.11,76.73,47.77,25.58,23,25.2,52.29,24.45,75.61V160.6c-2.26,33.48.38,35-37.62,77.87a6,6,0,0,1-6,4.14c-.76.75-5.65,4.13-7.15,5.26-2.26,2.26-4.14,4.52-6.39,6.77-.38.75-3.39,3-6.4,4.89-7.15,4.14-20.31,5.27-28.21,8.28l-6.39,2.25c-3,.76-22.2.38-27.46.76H97.8c-3.38,0-8.65-1.13-12.79-1.13l-6-1.88c-2.63,0-6-1.51-8.65.75-5.27.75-3,.75-9,0-1.5,0-12-2.26-18.05-3.39-24.45,4.52-26.71,3.39-42.88,3.39,0-7.9-.76-6.39,1.88-14.29,15.42-10.54,14.67-10.54,17.68-25.21l1.88-6.77c0-1.12,0-5.26.75-7.15.38-4.13,1.5-2.63,1.5-6.77,0-1.88-1.5-4.89-1.5-6.77-1.88-4.89.38-4.13.38-8.65a14.52,14.52,0,0,0-3-9.4c-1.51-4.89-1.88-6.77-1.51-8.65l.75-1.88,1.51-1.88,1.88-1.89,2.26-1.12c1.12-5.27,1.88-8.28,1.5-10.91,0-4.89-3.76-9.41-3.76-11.29-1.51-3,.38-6.39,1.88-10.9a44.52,44.52,0,0,0,.38-11.29c0-3.76.75-5.27-1.88-8.65-1.89-2.63-1.51-5.64-1.51-9A74.12,74.12,0,0,1,23.32,88l1.88-8.65a27.64,27.64,0,0,0-.75-8.65c0-3.38-.38-5.64.75-8.65v-9.4a42.7,42.7,0,0,0-5.64-18.81C16.17,32,15.42,28.57,12,25.19a12.55,12.55,0,0,0-9.78-4.14L0,18.42V8.64L2.26,7.51ZM68.46,51.89c0,1.13,3.76,15.43,3.76,15.8a104.39,104.39,0,0,1,0,15.42,83.73,83.73,0,0,1-3.39,16.18c0,3-2.63,4.51-3.76,7.52s0,4.89-.37,7.9L67,117l3-.38c.76,1.13.38,13.55.38,13.92v38.37c0,3.76-.75,6.77-4.14,11.28-4.51,6.77-4.51,4.52-4.51,11.66,1.5,1.88,3,1.13,6.39,4.52,2.26,3.38.75,3.38,1.51,6,.37,2.25,0,7.14-.76,11.66-.75,6.39-3.76,19.18-1.5,24.82,4.51,9.78,13.54,10.16,22.57,10.91,21.07,1.88,46.64,7.52,68.84-22.57,10.15-13.92,22.94-38,26.7-51.16v-6.77c.38-2.63,1.51-4.51,1.88-6.39,2.26-4.89.76-8.65,3.39-13.17,1.13-4.13,2.26-21.81,1.5-25.95-3.38-5.64-3.38-6.39-3.38-11.66L187,100.8c-1.51-6-7.15-17.69-9.78-22.58-4.14-9-8.28-16.92-15.42-22.94-4.14-3-7.15-3.76-11.66-7.52-3.39-1.88-4.14-3-10.54-8.66L134.66,35c-5.64-3.76-11.66-4.52-24.07-6.4-1.5,1.13-5.27,1.88-7.52,1.88-3-1.13-3.76-1.88-7.53-1.88a17.55,17.55,0,0,1-3.76-.37L89.9,27.07l-2.26.37-1.88,1.13L83.88,29.7H80.5c-7.53,3-3.39,4.89-8.66,9.78C69.21,44.37,68.08,48.13,68.46,51.89Z"/><path d="M376.51,10.89l3,9.41,7.15,20.31c.75,2.26,1.5,3.76,1.5,5.64l3.76,10.91c.75,1.88,2.64,5.27,3.39,8.27l6.39,17.68c.75,2.26,4.14,10.54,4.89,13.17l6.77,25.58c1.51,5.27,1.51,3.39,2.26,9l2.26,9.78c1.12,3.76,2.25,4.51,4.13,9,1.13,3.39,2.26,6.78,3.39,9.78l9.78,23.7.38,1.51,1.12,1.88c.38,2.25,0,1.5,1.51,3.76l7.52,22.94c2.63,8.65,1.51,4.89,6.77,13.55,1.51,2.25,4.14,10.53,6.77,13.92,1.13,1.88,11.29,8.64,13.17,10.15,6.39,6.77,3.76,6.39,3.38,13.92-10.91,3.38-22.19,4.13-33.1,4.51H409.24c-2.64,0-6.78-1.13-9.78-1.13h-9.41c-1.5-3.76,0-7.52,6-10.15,3-1.51,7.9-.38,12-5.27,6.39-8.27,0-22.95-4.89-38L393.44,193l-3-9.78-2.64-4.89-1.12-4.89c-1.88-6.77-3.77-12.79-13.17-16.92-4.51-1.89-44-1.89-49.65,1.12-4.52,2.64-6.4,6.4-9,15.43-.75,2.25-1.13,5.64-2.26,8.27-1.88,4.14-1.88,3-4.89,8.28l-3,12c-6,16.18-12.79,29.35-7.14,37.62,4.13,4.14,9.78,6,12,11.66,4.89,7.9,3,7.52,3.39,15.42H292.25c-16.55.38-37.61,3.76-59.43-7.9,1.13-3.38.75-5.64,5.64-8.65,1.88-1.5,6.4-3.76,9-5.64,7.15-4.89,12-9,16.93-15.8l3-5.64c6.4-10.53,2.64-6,10.54-17.68,4.13-5.64,10.91-10.91,13.16-17.3L312.94,129l1.88-6.77,4.89-10.54.38-1.88,1.5-2.25.38-2.26,1.12-2.26L340.4,60.92q3.94-10.16,4.51-11.28l4.51-10.16c5.27-12.79,4.52-34.6,6.78-36.86,4.51-4.89,13.91-1.51,18.43-1.13A27.47,27.47,0,0,1,376.51,10.89ZM351.68,82.74c-6.39,20.31-15.42,32.73-13.54,53a194.74,194.74,0,0,0,32,.75l2.26-2.26v-8.65c-4.14-18.43-3.38-13.54-6-31.22-.37-3.39-1.5-13.17-1.5-15.8a26.78,26.78,0,0,0,1.5-7.52c0-3.39-.37-5.65-3.76-6.77-6.77,2.25-6,3.76-8.28,9Z"/><path d="M530.71,30.83c-1.88,1.5-5.64,2.26-8.27,5.27-3,4.13-1.51,3.76-1.88,8.27a46.63,46.63,0,0,0,1.88,16.93L525.82,70a79.8,79.8,0,0,1,3.76,14.29v5.27c1.88,8.28,10.16,19.94,10.91,25.58v13.16c1.51,4.89.75,7.15,4.14,12.79,2.26.76,7.52,7.15,8.65,10.91.75,1.51,4.14,9.78,5.27,11.29,1.88,5.26,1.13,6.39,0,11.66-1.13,3.38-2.26,8.27,0,12l8.27,6.77,2.64-1.88c1.12-10.53,4.13-16.92,9-24.07,8.65-12.41,10.16-13.92,12.42-24.83,4.51-19.18-.76-23.69-12-48.52l-5.64-17.68c-1.51-3.39-6.4-8.65-8.28-12.79-1.13-2.26-.37-3.39-2.26-6.39a10.15,10.15,0,0,1-5.26-6.4l-.75-1.5-.76-1.13V45.12c-2.63-4.13-1.88-2.63-3.38-6.77-4.52-6.39-7.15-5.64-12.79-7.9-3-4.51-3.76-6.39-3.76-10.9-.75-2.26-.75-9.78.37-11.67,9.41.76,16.55,1.13,25.58,1.51h8.28c19.56-1.51,15-2.26,34.6-1.51l22.57,2.26c4.14.38,18.81,1.13,23.32.75,4.14,0,4.9-2.63,11.29-2.63h11.66c4.14,2.63,3.39,6,4.89,9.78.75,2.63,2.26,5.27,2.26,10.16C644.68,42.11,638.29,57.91,631.52,91c-1.51,9-2.26,16.18,0,22.57,1.5,3,4.89,7.53,6.39,11.29,1.13,2.26,1.88,4.89,2.64,11.66,0,1.5,0,15.8.37,17.68,0,3.76.76,5.64,5.27,8.65,1.88,1.5,6.4,3.39,6.4,7.9a17.13,17.13,0,0,1,.37,4.14c.75,1.5.75,3.38,1.51,4.89,1.88,2.63,3.38,6,6.77,8.27,3-1.13,2.63-4.14,2.63-6.77,0-3.76-.37-3,1.51-7.9,2.63-2.63,5.64-3.76,6.77-7.14.75-1.13,1.5-6.4,2.63-8.28,1.13-4.14,1.13-2.63,4.14-7.52l3-7.9c1.12-2.63,3.76-11.29,5.26-15.8l2.26-9.78c2.63-11.66,4.89-20.69,9.4-29.34l5.65-10.91c3.38-6.77,7.14-30.47,3-38-5.26-9.41-9.78-7.9-16.92-9-2.26-3-2.26-8.27-2.26-9.4,0-3-.75-6.4-.75-9.41,21.44-3,12.41.38,33.85-.75,9.41-.37,13.54-.37,16.93-.75,3.76,0,4.51-1.13,8.27-1.13a11.8,11.8,0,0,1,8.28-.38c2.26,12,3.76,18.81-3.39,28.22a63.62,63.62,0,0,1-4.51,6c-.75.76-5.27,4.14-5.27,4.14-7.52,4.89-3.76,4.89-8.27,10.91-5.64,9.78-4.52,13.16-7.15,22.57L722.93,91c-2.64,9.79-3.77,16.93-7.9,27.46l-10.53,22.2-.76,4.89-2.25,4.89c-.76,2.63-1.51,6.77-2.64,10.15l-15,44.76c-.38,1.51-1.51,6.4-1.88,8.28,0,1.5-.76,7.15-1.51,8.65l-3,10.54c-3.76,6.39-2.25,4.51-4.14,10.9,0,1.88-2.63,8.28-3.38,10.54-2.63,7.52-2.63,15-12.79,17.3-4.51,1.13-7.9,1.5-12-4.14-1.88-3-1.13-18.81-7.52-30.09-.38-1.13-3.39-5.27-4.52-7.15-1.88-3.38-1.5-4.51-4.89-7.9-1.12-1.88-1.12-4.89-2.63-7.15l-3-7.89-8.27-13.92c0-1.88-1.88-7.53-2.64-9.78,0-1.88-3-7.9-5.26-10.16-3.39,0-5.64,3.76-10.91,12-1.51,4.89-4.51,9.78-6,14.67A67.94,67.94,0,0,0,585.25,214c-1.12,6.77.38,7.52-2.63,15,0,.38-1.5,4.14-5.27,10.53-1.12,2.26-5.26,8.28-6.77,11.29,0,3-1.5,7.52-2.63,10.53-1.5,4.89-3.38,8.28-7.9,10.16h-8.27c-1.88-1.51-1.13-1.51-2.64-3.39l-1.88-3.76c-3.38-3.39-3-3-4.51-7.15l-12-35c-.75-.75-4.51-13.16-4.51-13.92l-10.53-21.81-3-9.78a18.35,18.35,0,0,0-2.26-4.89c-.38-.75-1.13-3.39-1.88-5.27-1.13-2.63-3-6.77-3.39-10.15,0-2.64.76-6.78.76-10.16l-2.64-7.9c-1.88-2.63-5.26-6.39-7.14-9.4-1.13-1.88-2.64-7.53-3.39-9.41-.75-2.63-1.88-6.39-2.63-9.4-1.51-4.14-2.63-6.4-2.63-9.4L477.3,69.57c-3.76-13.54-3-11.28-10.54-23.69-2.63-6-1.5-6.4-9-9.78a16.53,16.53,0,0,0-6-2.26c-1.13-1.13-3.76-2.63-6-5.27-2.26-2.25-1.88-2.63-3.39-4.89-.37-1.13-1.12-3.38-1.88-5.26-1.88-3-5.26-6.4-5.26-9.78,1.88-2.26,7.9-3,12-1.88l12.42,1.88h13.54c3.76,0,8.65,1.13,12.79,1.13h11.29c3.38,0,11.66,0,14.67-1.51,7.89-.75,6.39.38,15,1.13C529.58,21.43,530,25.94,530.71,30.83Zm75.23,12c1.51,2.25,3.39,3.76,4.89,6,.38,5.27.38,10.16,1.51,15.43l1.88,7.9c.75,1.5,2.25,6,4.13,6.39,1.88-.75,3.39-7.52,3.77-8.65,3.38-1.88,3.38-7.15,3.38-8.65,1.13-3.76,1.88-5.65,1.88-9,1.88-5.64.75-6,3.39-8.28a21.36,21.36,0,0,0-1.88-8.65c-1.51-3.76-1.51-4.89-5.27-7.9a24.5,24.5,0,0,0-7.9,2.64c-2.63,0-5.26.37-7.9.37l-3.76,5.27C604.81,37.6,605.57,42.11,605.94,42.87Z"/><path d="M980.93,266.68a19.54,19.54,0,0,1-9-7.15c-1.88-2.63-1.13-2.26-2.25-4.89-.76-1.13-.76-3.39-1.51-5.27l-4.51-5.26c-2.26-3.38-1.88-3-4.14-5.27L952,231.69l-3.39-3-1.5-1.88-1.51-1.51-7.14-10.16c-2.64-3.76-3.76-5.26-4.14-5.64l-6.77-7.9c-1.51-1.5-3.77-4.13-8.28-8.65l-3.38-3.38c-3-1.88-2.63-1.88-4.51-4.14l-6-7.52c-5.65-5.65-4.9-3.39-7.9-11.29l3.38-2.26c0-2.63-3-5.26-7.52-8.27-2.26-1.51-5.27-4.14-10.16-9l-14.29-16.92c-.38-.76-4.14-4.14-5.27-5.27l-10.15-11.29c-4.9-6-11.66-14.29-15-19.18-3.76-5.64-4.14-4.89-6-10.16,0-2.63,0-7.9-4.51-9.78-3.39,0-8.28-1.88-8.28,5.27-1.13,5.26,1.5,5.26,3,11.28.75,2.64,1.13,5.27,1.51,10.91.37,6-.38,17.31-.76,22.2v6.39c-5.64,28.59-3,26-3.76,48.9v12.41c3,29.72-3,33.86,28.59,57.55a75.56,75.56,0,0,0,10.53,6.4c5.27,3,5.64,2.63,5.64,9a10,10,0,0,1-7.9,3.76c-3.76.37-4.89-.75-8.65-1.13-2.25,0-5.64-.75-8.27-.75l-8.66-.75a40.63,40.63,0,0,1-11.66,2.63l-12.41-1.88c-4.51-3-7.9,1.13-12.41,1.13-2.26,0-6-.38-12.41-3-1.88-.75-4.51-.75-7.15-3.39-2.63-3.38-1.88-4.51-1.88-7.52,30.09-24.83,25.58-53.79,24.45-75.61v-6.77A27.72,27.72,0,0,1,799.25,161V147.44l-1.51-11.66V79.35c.38-13.92-.37-34.6-4.13-47-1.89-2.25-2.26-3.76-6.77-7.14l-7.9-4.89c-1.5-1.51-6-5.27-7.15-7.15-.75-2.63-1.13-5.27,1.51-7.9h27.46c3.38,0,6.39,2.26,9.77,2.26h5.27c4.89.37,33.48-1.51,38.36,8.65.38,1.13-1.5,11.28-1.5,12.41-.38,6.77.38,10.16,1.5,12.42.76,1.88,17.31,23.32,18.82,25.2l7.52,9.4c3.76,3.76,5.27,5.27,6.77,7.52l10.16,15c1.5,1.51,5.64,4.14,8.27,6.77,5.27,5.27,4.14,4.14,7.53,8.65l7.52,7.9c2.26,1.51,4.14,2.26,7.14,6.77l4.9,6c6,7.53,16.17,23.7,24.44,30.09,3.39,2.26,4.52,1.51,7.9,4.89,3.39,2.26,3.39,4.14,4.52,7.53,0,4.13.37,2.63,4.14,7.9,1.88,1.88,5.64,4.51,8.27,3.76-.38-12.42-5.27-19.94-3-33.1,4.14-21.44,6.4-11.29,4.52-33.48v-5.64c-.76-3.76-1.89-6-1.89-6.77a37.1,37.1,0,0,1-1.88-7.53l.75-14.29V77.47c.38-4.51-4.13-44.76-8.27-49.27S961,23.31,956.86,21.05c-2.26-2.26-5.27-5.27-7.15-6-3-2.63-6-3.76-4.51-7.52,1.88-2.63,6.39-3,8.65-3l9.78-1.13c12.79-1.88,6.39-2.26,19.56-2.26,4.89,0,9.4,0,19.18,3.39a55.67,55.67,0,0,0,9.78,2.26l9.4,1.12c2.64,0,4.52,1.13,6,5.27.76,7.15-6.77,7.15-10.15,10.53C1002,37.6,1000.49,76,1002,91.39v115.1c.76,12.42,6,36.87-1.12,61.32C990.33,269.31,986.57,269.31,980.93,266.68Z"/><path d="M1254.12,7.5c10.16-1.5,11.66-.75,23.7,3.38l3.39-2.25h5.64c3,0,12-1.13,14.67-1.13.75-.38,13.16,0,15,0,3.39,0,3,0,7.15-1.13,4.52,1.51,5.27.75,7.9,1.51l7.53,3.76h7.9c19.18-3.76,14.29-4.89,33.47-.76,29.72,4.52,64,36.12,76.74,47.78,25.58,23,25.2,52.29,24.45,75.61V160.6c-2.25,33.48.38,35-37.62,77.87a6,6,0,0,1-6,4.13c-.76.75-5.65,4.14-7.15,5.27-2.26,2.26-4.14,4.51-6.39,6.77-.38.75-3.39,3-6.4,4.89-7.15,4.14-20.31,5.27-28.21,8.28l-6.4,2.25c-3,.76-22.19.38-27.46.76H1342.9c-3.39,0-8.66-1.13-12.79-1.13l-6-1.88c-2.64,0-6-1.51-8.65.75-5.27.75-3,.75-9,0-1.51,0-12-2.26-18.06-3.39-24.45,4.52-26.71,3.39-42.88,3.39,0-7.9-.75-6.4,1.88-14.29,15.42-10.54,14.67-10.54,17.68-25.21l1.88-6.77c0-1.13,0-5.26.75-7.14.38-4.14,1.51-2.64,1.51-6.78,0-1.88-1.51-4.88-1.51-6.77-1.88-4.89.38-4.14.38-8.65a14.54,14.54,0,0,0-3-9.41c-1.51-4.88-1.88-6.76-1.51-8.65l.76-1.88,1.5-1.88,1.88-1.88,2.26-1.13c1.13-5.26,1.88-8.27,1.51-10.9,0-4.9-3.77-9.41-3.77-11.29-1.5-3,.38-6.39,1.88-10.91a44,44,0,0,0,.38-11.29c0-3.76.75-5.26-1.88-8.65-1.88-2.63-1.51-5.64-1.51-9a74.09,74.09,0,0,1,1.88-18l1.89-8.65a27.83,27.83,0,0,0-.76-8.66c0-3.38-.37-5.64.76-8.65v-9.4a42.7,42.7,0,0,0-5.65-18.81c-3.38-1.88-4.13-5.27-7.52-8.65a12.57,12.57,0,0,0-9.78-4.14l-2.26-2.63V8.63l2.26-1.13Zm59.44,44.38c0,1.14,3.76,15.43,3.76,15.81a107.21,107.21,0,0,1,0,15.42,84.67,84.67,0,0,1-3.39,16.18c0,3-2.63,4.51-3.76,7.52s0,4.89-.38,7.9l2.26,2.26,3-.38c.75,1.12.38,13.54.38,13.92v38.37c0,3.76-.76,6.76-4.14,11.28-4.52,6.77-4.52,4.51-4.52,11.66,1.51,1.88,3,1.13,6.4,4.52,2.26,3.38.75,3.38,1.5,6,.38,2.26,0,7.15-.75,11.66-.75,6.4-3.76,19.19-1.5,24.83,4.51,9.78,13.54,10.16,22.57,10.91,21.06,1.88,46.64,7.52,68.84-22.57,10.15-13.91,22.94-38,26.7-51.16v-6.77c.38-2.63,1.51-4.51,1.88-6.39,2.26-4.89.76-8.66,3.39-13.17,1.13-4.13,2.26-21.82,1.5-26-3.38-5.64-3.38-6.39-3.38-11.66l-1.88-11.28c-1.51-6-7.15-17.68-9.78-22.57-4.14-9-8.28-16.93-15.42-22.95-4.14-3-7.15-3.76-11.67-7.52-3.38-1.88-4.14-3-10.53-8.65L1379.76,35c-5.64-3.76-11.66-4.52-24.07-6.4-1.51,1.13-5.27,1.88-7.53,1.88-3-1.12-3.76-1.88-7.52-1.88a17.55,17.55,0,0,1-3.76-.37L1335,27.06l-2.26.38-1.88,1.12L1329,29.69h-3.39c-7.52,3-3.38,4.89-8.65,9.78C1314.31,44.36,1313.18,48.12,1313.56,51.88Z"/><path d="M1610,21c0,.76-.76,5.64-2.64,7.9-1.5.75-10.91,1.5-12.79,1.5-8.65,3-6.39,4.14-10.15,10.16H1575a12.63,12.63,0,0,0-.75,12c0,.75.75,11.66.75,13.17-1.88,1.88-2.25,6.76-2.25,8.65-1.51,3.76-4.14,4.13-4.14,8.65,5.27,7.15,4.89,4.52,4.89,11.66.38,2.64.38,8.28.75,11.66v6.77c0,2.26-1.13,6-1.13,9a71,71,0,0,0-.37,9.78v8.28c0,.75-.38,4.51.37,6a38.38,38.38,0,0,0,.38,6.78v5.64c-.38,32.35-6.77,51.91,29.72,80.12,15.79,12.41,66.2,9.41,76,5.27,15.42-6.77,24.83-23.32,25.21-38,0-1.51-1.13-16.56-.38-18.44a9.83,9.83,0,0,1,3-4.51l1.88-4.89a61.18,61.18,0,0,0,1.88-9.4c.75-7.15.38-20.69-3-38v-6.77c-1.13-12.79-.38-13.16,1.13-26,1.13-9.4-2.63-15-3-25.58V59.41c-2.63-14.67-.38-9-12.42-21.82l-3-2.63-1.88-3c-.37-.37-1.12-3.76-4.51-4.89-2.26-.75-9.4-3.38-10.91-6l1.88-9h9.78c13.17-1.14,22.2-3,35-2.26l4.51,3.76c16.18-1.13,14.29-4.14,38-1.5,0,4.51.76,9,.76,13.54-26,18.8-26.71,23.69-29,47-1.13,8.28-.38,18.82-1.13,24.84l-1.88,12.41c0,4.13.38,8.27.38,12.41V135.4c.75,9,2.25,13.54,2.63,20.31v13.17c0,3.38-1.13,6.76-1.13,10.53,0,3,.38,7.15.38,10.91v9.78c-6,35.35-.38,36.11-43.26,60.93-24.07,13.93-98.93,16.56-123.38,4.14-35.36-18.06-32-39.5-34.61-65.45l-6.39-60.56a56.75,56.75,0,0,1-.38-13.55c.38-5.26,1.5-7.9,1.13-13.91V92.89c0-5.64.37-10.16,2.26-14.3.37-3,.37-10.9.37-14.29-.37-10.54-4.51-26-7.9-29.34-3-3.76-6-2.64-10.53-4.89-3-1.51-8.28-4.89-8.28-8.65-1.88-5.27-1.12-8.28.76-10.16,1.5-1.88,32.72-2.63,34.6-2.63h28.59c19.56,1.13,19.94,7.15,40.25,4.89C1609.57,16.53,1610,17.28,1610,21Z"/><path d="M1849.16,8.63l4.51,1.13c3,0,6.77,1.12,10.16,1.12,1.88-.75,2.25-.75,4.89-.75,2.63-1.13,2.63-.75,4.89-1.5,2.63,0,6.77-1.13,10.15-1.13,13.92-1.13,25.58,2.26,39.5,3.76l2.63,1.5c16.55-2.63,25.58-6.39,37.24,6.78,4.14,4.51,4.89,13.92,5.64,22.56.76,7.15.76,9.78.38,10.92,0,3.38,0,8.65-6.77,10.9h-1.88c-12.41-15-6.4-15.42-26-25.58-11.67-6.39-19.19-12.41-32-10.9,0,.37-6.4,3.38-7.52,3.38a14.86,14.86,0,0,1-7.9-3.76c-4.89-2.26-9.41-4.14-15.8-3.76-5.27.38-12,.75-14.67,7.52-1.51,3.76,2.26,21.44,1.88,25.58,0,3.38.38,2.63-.38,6.4-1.5,4.13-1.88,2.63-1.88,6.77a36.47,36.47,0,0,0-1.88,12.79l2.64,6c1.12,5.27-2.26,27.84,4.51,33.48,1.5,1.13,12,4.14,13.92,3.39,3-1.88,11.28-5.27,14.67-5.27l5.64-3.76c.75-2.26,1.5-2.63,4.51-5.26,1.51-4.52,3-7.53,7.9-11.29,3.39,0,9.41-1.88,11.67,5.64.37,1.13,1.5,4.14,1.12,11.29,0,1.88,1.13,5.26-3.38,11.66v6c2.63,4.51,2.63,3,2.63,8.27,0,3-.37,6-.37,8.66,0,1.88.37,15.8-.76,17.68-1.5,1.88-4.14,3.38-8.28,3-1.88-1.12-2.25-.75-3.76-.75a12.74,12.74,0,0,1-4.13-3.76c-.76-2.63-2.64-4.51-4.14-8.65-7.9-9-8.65-3-16.93-6.4a39.66,39.66,0,0,1-8.65-6c-1.88,0-7.15-2.25-8.65-3.76-2.26-.75-10.53.38-12.79,2.64,1.5,13.92,3,12,3.38,21.44v10.9c-2.63,4.14-2.63,4.9-2.63,10.92v12c1.51,10.54-2.63,34.24,7.9,45.14,5.27,4.89,21.44,9,29,7.15h1.51l1.5-1.13,1.51-.38,1.5-.37c2.64-2.63,3-3,6.4-3h12.41c7.53-5.64,9.78-7.52,12-10.16,5.27-3,6-6,8.28-12.78,2.25-3.77,4.51-9,7.14-13.17,4.14-4.89,8.28-4.89,13.17-6.39L1959,208v10.53c0,11.66-1.12,13.16-.37,21.82v21.06c-1.51,3.76-.38,3.39-4.89,6.77-7.52,1.13-10.91,1.88-15.42,1.51-1.51,0-13.54-3.39-15.8-3.39h-5.64c-6.4,0-9.79,2.26-19.57,2.26h-11.66l-1.88,1.13h-4.51l-2.26-1.51a13,13,0,0,1-8.65.38l-30.85-1.88c-.75,0-2.63-.38-4.13-.38h-1.89l-2.25,1.88H1824c-21.44.38-22.19.76-44-3.76V258c29.34-18.44,26.71-25.58,27.84-56.43V178.28c0-1.5,0-10.16.75-12V153.08c0-4.52.38-3.76,2.26-7.9l-2.26-24.83c0-6.4,0-9,.38-11.66l1.88-11.28,4.51-16.93c.38-3.39-2.63-19.19-3-23.33-1.5-10.15-1.13-15.8-8.27-23.69-4.89-3.77-6.4-7.53-12-9.78-4.51-3.39-8.28-7.9-8.28-12a6.78,6.78,0,0,1,3.39-2.26c2.26-1.13,1.88,0,3.76-1.5,4.51-1.13,3.39,0,7.9-.38,2.26-1.13,4.51-1.13,7.52-1.13,2.26,0,3,.75,4.14,1.13a5.34,5.34,0,0,1,3.76.75h7.52c1.51,0,6,1.88,7.9,3.39,7.53,2.26,7.53,0,14.67-3Z"/><path d="M2084.61,15c-24.45,21.82-23.33,25.58-23.7,53v9.41c-1.13,13.92-2.63,17.68-6.4,32.72h5.65v19.94c-.38,3.39-1.13,17.68-1.13,22.19,0,3,.37,7.53.37,10.91l4.14,11.66c.38,2.63-.38,19.56-.75,23C2062,208,2061.28,217,2062,220c1.12,5.27,8.65,16.18,15.42,18.81,4.14,1.51,54.54,4.89,63.95.75,9-3.38,9-9,12.79-15.8,1.13-2.25,2.63-3.76,4.89-9,.37-1.88.75-7.15,3.39-8.65a97.31,97.31,0,0,1,13.16-.75l2.26,3-1.13,8.66v6.39c.75,1.88.75,3,.75,8.65v21.82c0,5.64.38,4.51-1.13,8.65-4.89,4.89-8.27.38-13.54,2.63-4.89,0-9.78,1.13-14.67,1.13h-12.79c-2.26-.75-1.88-.37-4.14-.37,0,0-3.38.37-4.14.37h-23.32c-4.14,0-8.28.38-12.41.38-6.77,0-7.53,0-13.17-.38L2053.76,264c-3.76-.37-16.18,1.89-20.31,2.26h-28.21l-7.52,1.13c-2.26,0-5.27-.37-7.15-4.14v-6c1.88-3.38,12-11.28,14.67-14.29,7.14-7.15,7.14-6.77,8.28-15.42V213.64c.37-3,.75-4.51,1.5-8.27,1.88-2.26,1.5-6,1.5-7.15,0-3.39.38-4.14-1.12-8.28-2.26-13.16-4.14-16.55-1.88-32.35V107.93c0-2.63,1.88-2.63,3-5.26V91.39l.38-10.54c0-1.12-.75-9-1.13-10.9V54.52c0-6,0-14.3-1.13-17.3-4.51-10.91-6.39-6.4-14.67-13.17-6.77-5.27-4.51-7.52-4.14-14.67,4.89-3,7.9-1.13,10.91-1.13,1.13,0,3.39-.37,5.27-.37s3.76.37,6,.37c12.41,1.13,13.91,1.88,22.19,1.13,21.44-2.63,20.69-4.14,44.39-.75Z"/><path d="M2366,41c5.27,7.9,7.15,11.28,7.15,18.05,0,1.51,0,5.65-.37,9-.76,1.89.37,5.27-4.52,8.65h-3.76l-3.76-1.88c-.76-.37-3.39-2.26-6.78-6.77-1.12-1.13-2.63-3.76-4.51-7.52,0-1.88-1.5-4.89-4.13-7.9-3.39-1.13-9.41-5.27-12.8-7.15-1.12-1.13-4.13-3.76-5.64-5.27l-1.5-1.12-1.88-1.88-1.13-1.51-1.88-1.51c-6.77-4.88-14.67-6-25.58-6.76-10.16-.38-31.6,0-42.88,14.29-4.52,6.39-8.28,26-6.4,33.86,3.76,16.17,42.13,31.6,45.89,33.85l7.53,3.76a39.1,39.1,0,0,0,6.77,3.77l10.16,5.26c21.06,2.26,25.2,8.65,40.24,30.47,4.89,4.89,6.4,9,11.29,13.54,1.88,3,2.63,4.89,5.64,14.67,3,10.16,4.52,15.8,1.51,27.84-3,16.18-15.43,38.74-34.24,47.77-14.29,7.15-27.83,8.28-57.55,12.79-35.36,5.27-22.19,3-57.55-6.77l-7.52-1.88c-29.34-5.27-23.32-18.81-24.08-47.39V199l.76-7.53c3.76,0,12-.75,15.42,1.88a25.38,25.38,0,0,1,5.26,7.15c1.5,4.52,0,3,4.89,7.53l10.16,9.4c13.92,10.91,17.3,21.44,29.72,25.58,2.63,1.13,29,4.13,31.59,4.13,15.8-1.88,28.59-4.51,37.62-24.44,4.89-9.78.75-22.2,0-32.73l-4.14-4.89a61.94,61.94,0,0,0-7.14-3.76,46,46,0,0,0-7.9-3.39c-3.76-2.26-3-3.38-6.78-6.39a47.74,47.74,0,0,0-7.52-5.65c-17.68-11.66-19.56-7.14-25.2-20.68h-11.66l-11.29-2.26c-11.66-1.13-13.54-3.38-23.7-11.28-3.76,1.5-7.52-3.39-8.65-6.4l-3.76-10.53c-4.14-9.41-8.28-12-9-21.44-.75-3.76,2.26-29,3.39-32.36,0,0,18.8-32.72,19.56-33.47,22.19-24.46,59.43-23.32,91.41-23h6.39c11.66.38,29.34,4.51,41.76,8.27C2368.21,29.32,2367.83,24.8,2366,41Z"/><path d="M1144.93,98.14c6.3,9.69,10.34,11.63,14.38,21,.16.48,3.56,8.57,3.56,10.67a31.34,31.34,0,0,1-.65,5.33,25.46,25.46,0,0,0-.32,5.33v4.69c-.32,12.12-8.57,29.09-19.4,37.5-17,13.58-23.92,12.28-41,12.77h-7.27c-12.61-1-26-3.07-36.53-18.27-9.05-12.93-16.65-20.2-16.16-38.3v-3.56c.48-12-2.59-8.24,3.55-20.2,1.46-2.75,10.51-17.3,13.58-20.21,9.21-8.72,22.63-12.76,31.84-13.73C1101.77,80,1130.38,76.32,1144.93,98.14Zm-8.57,61.09c1.46-6.46,4.53-8.08,3.56-14.38l-1.94-5.66c-.16-1.78.48-1.45.64-2.75a14,14,0,0,0-.16-2.58,27.82,27.82,0,0,1,.16-4.85,22.4,22.4,0,0,1,1-5.17c1.46-3.4,2.27-3.24,1-5-1-3.88-4.85-6-7.92-8.73-2.74-2.75-2.74-1.46-3.71-4.69l-1.3-2.42c-.32-.33-1.77-2.1-1.94-2.27l-1.45-1.45a18.18,18.18,0,0,1-2.26-2.75c-1-1-1.94-1.94-2.59-2.75-1.94-1.78-1.45-1-1.94-2.58a6.75,6.75,0,0,0-1.94-2.59c-.81-.65-8.89-1.94-11.31-1.94-7.44-.48-18.91,2.59-25.7,10-1.46,2.27-.65,1.62-2.75,3.72a20.85,20.85,0,0,0-3.07,3.56c-1.94,2.58-1.62,3.07-3.39,7.27a15.34,15.34,0,0,1-1.94,3.55,40.41,40.41,0,0,1-2.59,3.56c-1.94,3.23-1.78,4.36-2.75,7.27l2.43,1.94c.32,3.07-.17,10-.33,17v5.82c.33,3.4-.16,10.83,1,13.9,1.3,3.07,5.5,10.35,9.38,12.61a13.68,13.68,0,0,1,3.07,1.46l2.91.48c1,0,2.1,1.45,2.75,2.26,1.45,1.46,1.77,1.46,2.9,1.46a23,23,0,0,1,6,.81,8.12,8.12,0,0,1,5.82,2.74c10.35.65,32.65-5.65,37-21.17Z"/><path d="M1217.82,83.11h10.5l7.12.32h2.26c.16,0,7.11-1.13,7.6-1.13a8.69,8.69,0,0,1,3.55.32,6.87,6.87,0,0,1,3.72,2.59l-1.13,1c0,1.94-.33,3.88-.33,5.81,0,2.27-.48,3.4-1.45,6a3.72,3.72,0,0,0,.48,2.91v8.88a5.38,5.38,0,0,1-3.55,1.3A5.62,5.62,0,0,1,1243,109l-1.61-5a11.67,11.67,0,0,0-1.94-2.27l-.33-.64-.64-.65-.17-.49-.32-.64c-2.42-3.4-4.2-4.2-9.21-6.3-5.34-2.11-18.1-3.56-23.28.48-1.94,1.45-3.07,3.56-3.39,7.44,0,1.29-.16,2.42-.16,3.71-.32,1.94-.81,1.78-1.46,4v2.27c-.48,3.07,1.3,14.7,2.27,18.26a43.68,43.68,0,0,0,11,.32c2.26,0,3.07.65,5.49-1,.65-1.13.65-1.45,2.27-2.1l.64-.64.49-.81c.16-.16.32-1,.64-1.46.65-1.29,1.46-1.78,3.4-1.78a9.9,9.9,0,0,1,3.72.33c1.13,5.17.8,7.43.32,12.77v3.88c0,1.13.32,6,.32,7.92v6l-1.13,1.29c-3.07,0-2.91.16-4.69-1.78a22.25,22.25,0,0,1-4.85-3.88c-1.13-2.91-.8-1.78-3.55-4.36a21,21,0,0,0-4.85-3.72c-1.78-.81-7-1.29-9,.16-2.43,1.78-2.59,11.32-3.07,13.74l-1.3,10c4.37,11.8-1.13,13.58,5,20a39.06,39.06,0,0,0,4.69,3.72c1.94,1.94,1.62,2.75,1.46,4.85-1.13.81-3.07.81-4.21.81h-2.26c-6.79-.16-8.4.32-11.47,0H1186c-8.57.81-4.53,1.13-13.42-1v-1.78c2.1-2.1,3.23-3.23,6-8.08.49-.81,1.94-3.23,2.26-4a20.24,20.24,0,0,0-.32-4.37V165.7c.16-1.13-.16-6.63,0-9.54.32-4,1.62-9,1.46-9.86l-1-9.53c0-2.91.32-7.28.64-10.51l1.62-8.73c.32-2.58-1-11.63-1.29-14.54V98a12.24,12.24,0,0,0-3.24-7.6c-1.45-1.62-2.42-1.46-3.71-2.75s-2.27-2.1-1.46-3.88a25.24,25.24,0,0,1,5-.64c1.46,0,3.4-1.14,5.17-1.14h4.21c6.95,1,9.86-.64,17.45,2.75C1210.38,84.08,1212.65,83.11,1217.82,83.11Z"/></g></g></svg>