<?xml version="1.0" encoding="utf-8"?>
<!-- Generator: Adobe Illustrator 26.0.1, SVG Export Plug-In . SVG Version: 6.00 Build 0)  -->
<svg version="1.1" id="Layer_1" xmlns="http://www.w3.org/2000/svg" xmlns:xlink="http://www.w3.org/1999/xlink" x="0px" y="0px"
	 viewBox="0 0 170.1 130.6" style="enable-background:new 0 0 170.1 130.6;" xml:space="preserve">
<style type="text/css">
	.st0{fill:#FFFFFF;}
</style>
<g>
	<g>
		<g>
			<path class="st0" d="M67,33.7c-0.2,0.2-0.4,0.5-0.6,0.8c-0.5-0.4-1.1-0.6-1.8-0.6H53.1c-0.8,0-1.5,0.3-2.1,0.9l-1.5,1.5l-0.3-0.7
				c-0.5-1-1.6-1.7-2.7-1.7H36.1l0.4-0.8c0.4-0.9,0.3-2-0.2-2.9s-1.5-1.4-2.5-1.4h-20c-1.4,0-2.5,0.9-2.9,2.2L3.3,59.1
				C3,60,3.2,61,3.8,61.7c0.6,0.7,1.4,1.2,2.4,1.2h8c1.4,0,2.5-0.9,2.9-2.2l2.1-7.8H25l-1.7,6.3c-0.2,0.9,0,1.9,0.5,2.6
				c0.6,0.7,1.4,1.2,2.4,1.2h4.1c0,0-0.1,0-0.1,0.1l-4.9,4.8c-0.4,0.4-0.7,0.8-0.8,1.4l-6.5,24c-0.2,0.7-0.1,1.4,0.2,2.1l2.3,4.8
				c0.5,1,1.5,1.7,2.7,1.7h18c0.2,0,0.5,0,0.7-0.1c0.2,0.1,0.4,0.1,0.7,0.1h9.6c0.2,0,0.4,0,0.6-0.1c0.2,0,0.4,0.1,0.6,0.1h15.6
				c0.2,0,0.4,0,0.7-0.1c0.2,0.1,0.5,0.1,0.7,0.1h9.6c1.4,0,2.5-0.9,2.9-2.2l0.8-2.8c0.4,0.2,0.8,0.3,1.2,0.3h9.3l-0.3,1
				c-0.2,0.9,0,1.9,0.5,2.6c0.6,0.7,1.4,1.2,2.4,1.2h9.6c0.2,0,0.4,0,0.7-0.1c0.2,0.1,0.5,0.1,0.7,0.1h17.4c1.2,0,2.2-0.7,2.7-1.8
				l4.3-9.5l-2,7.5c-0.2,0.9,0,1.9,0.5,2.6c0.6,0.7,1.4,1.2,2.4,1.2h18c0.8,0,1.5-0.3,2.1-0.9l4.9-4.8c0.4-0.4,0.7-0.8,0.8-1.4
				l2.9-10.8c0.3-1.2-0.1-2.5-1.2-3.2l-4.2-3l4.7,0c0,0,0,0,0,0c1.4,0,2.5-0.9,2.9-2.2l2.6-9.6c0.2-0.9,0.1-1.9-0.5-2.6
				c-0.6-0.7-1.4-1.2-2.4-1.2h-18c-0.8,0-1.5,0.3-2.1,0.9l-0.4,0.4c-0.2-0.3-0.5-0.6-0.9-0.8c0.8-0.4,1.4-1.1,1.6-1.9l3.8-14
				c0.2-0.9,0-1.9-0.5-2.6c-0.6-0.7-1.4-1.2-2.4-1.2l1.6,0c0,0,0,0,0,0c1.4,0,2.5-0.9,2.9-2.2l2.2-8c0.2-0.9,0.1-1.9-0.5-2.6
				s-1.4-1.2-2.4-1.2h-15.1c-0.8,0-1.5,0.3-2.1,0.9l-4.1,4c-0.2,0.2-0.4,0.5-0.6,0.8c-0.5-0.4-1.1-0.6-1.8-0.6h-11.6
				c-0.6,0-1.2,0.2-1.7,0.5l-1.8-3.8c-0.5-1-1.6-1.7-2.7-1.7h-0.9c0,0,0,0,0,0H90.3c-0.3,0-0.7,0.1-1,0.2c-0.3-0.1-0.7-0.2-1.1-0.2
				H73.2c-0.7,0-1.4,0.3-2,0.7L67,33.7z M34.9,62.1C34.9,62.1,34.9,62.1,34.9,62.1L34.9,62.1C34.9,62.1,34.9,62.1,34.9,62.1z"/>
			<path class="st0" d="M129,97.9c0,0,0.4-0.9,0.9-0.9c0.5,0,0,0,0.1,0c0.2,0,0.7,0,0.4,1c-0.3,1,0.7,0.7,0.7,0.7l1.1-3.2l0.7-5.4
				l-1.5-0.1l-2.7,3c0,0-0.3,3.6-0.3,3.6C128.4,96.7,129,97.9,129,97.9z"/>
			<path class="st0" d="M83.4,98.1"/>
			<path class="st0" d="M83.5,97.9c0,0,0.3-1,2-1c1.7,0,0.4-0.7,0.4-0.7s-3-0.5-3-0.4s-0.4,1.5-0.4,1.5L83.5,97.9z"/>
			<path class="st0" d="M94,98.2c0,0,0.2-1.2-1.2-1.2c-1.4,0-1-0.6-1-0.6l3.3,0.2l-0.3,1.6L94,98.2L94,98.2z"/>
			<path class="st0" d="M26.4,66.8c0,0,3.6-3.9,0.5-3.9c-3,0,1.6-1.6,1.6-1.6l3.8,1.2l-1.3,2l-3.7,2.6L26.4,66.8z"/>
			<path class="st0" d="M144.4,59.5c0,0,0,0.1-0.1,0.3c0,0.2-0.4,2.3,1.8,2.3c2.7,0-2.1,2.8-2.1,2.8l-2.6-1.8l0.8-2.2L144.4,59.5z"
				/>
			<polygon class="st0" points="150.2,37.8 147.3,48.7 145.4,44.6 142.9,42.8 143.5,41.2 147.9,39.3 			"/>
			<path class="st0" d="M18.6,55c0,0,0.4-2.1,2.7-2.1s2.2,0,2.2,0s1.5,0.1,1,1.9c-0.5,1.8,0.6,1.6,0.6,1.6l1-4.1l-8.3-0.6
				c0,0-0.3,3.1-0.3,3.2C17.5,54.9,18.6,55,18.6,55z"/>
		</g>
		<g>
			<g>
				<g>
					<path d="M41.4,98.8h-18L21.1,94l6.5-24l4.9-4.8h18l-2.6,9.6l-12,0L32,89.2h2.4l2-7.2h9.6L41.4,98.8z"/>
				</g>
				<g>
					<path d="M72.2,65.1l-3,33.6H53.6l4.3-9.6h2.6l1-10.6l-9,20.2h-9.6l15-33.6H72.2z"/>
				</g>
				<g>
					<path d="M84.3,83.2l-4.2,15.6h-9.6l9-33.6l9.6,0v0h3.6l0.9,14.4l8.7-14.4h3.6l9.6,0l-9,33.7H97l4.2-15.6L94.6,94H85L84.3,83.2z
						"/>
				</g>
				<g>
					<path d="M117.5,65.1h24l-4.4,9.6h-12.6l-0.7,2.4h12l-4.4,9.6h-10.2l-0.7,2.4h9.6l-4.4,9.6h-17.4L117.5,65.1z"/>
				</g>
				<g>
					<path d="M156.2,94l-4.9,4.8h-18l2.6-9.6h12l0.3-1.2l-10.1-7.2l2.9-10.8l4.9-4.8h18l-2.6,9.6l-12,0L149,76l10.1,7.2L156.2,94z"
						/>
				</g>
			</g>
			<g>
				<g>
					<g>
						<path d="M13.7,31.8h20l-3.7,8H19.6l-0.6,2h10l-3.6,8h-8.5l-2.7,10h-8L13.7,31.8z"/>
					</g>
				</g>
				<g>
					<g>
						<path d="M42,53.3l1.5,6.6h-6.6l-1.5-6.6h-0.8l-1.7,6.6h-6.6l6.2-23h14l1.6,3.3l-2.7,9.9L42,53.3z M37.3,43.5l-0.9,3.3h3.3
							l0.9-3.3H37.3z"/>
					</g>
				</g>
				<g>
					<g>
						<path d="M45.4,56.6l4.4-16.5l3.3-3.3h11.6l1.6,3.3l-4.4,16.5l-3.4,3.3H47L45.4,56.6z M55.5,43.5l-2.7,9.9h3.3l2.6-9.9H55.5z"
							/>
					</g>
				</g>
				<g>
					<g>
						<path d="M105.8,56.6l4.4-16.5l3.3-3.3h11.6l1.6,3.3l-4.4,16.5l-3.4,3.3h-11.5L105.8,56.6z M116,43.5l-2.7,9.9h3.3l2.6-9.9H116
							z"/>
					</g>
				</g>
				<g>
					<g>
						<path d="M141.2,59.9h-15l-2-4l5.4-20l4.1-4h15.1l-2.2,8l-10,0l-3.2,12h2l1.6-6h8L141.2,59.9z"/>
					</g>
				</g>
				<g>
					<path d="M107.4,31.9h-0.9l0.2,0.3l2.3,3.2c-0.3,0.2-0.9,0.5-1.6,0.7l0,0c0,0-1.9,1.1-2,1.5c-0.1,0.4-0.5,0.5-0.7,0.7
						c-0.2,0.2-0.9,0.3-1,0.3c-0.1,0-0.4,0.1-0.4,0.1s0.1-0.3,0.1-0.9c0-0.2,0.1-0.4,0.2-0.5c-0.4,0.2-1,0.5-1.3,0.5c-0.6,0-1,0-1,0
						s0.2-0.4,0.2-0.6s0-0.8,0.3-0.9c0.1,0,0.1-0.1,0.2-0.2c-0.1,0-0.3,0-0.4,0.1c-0.3,0.1-0.9-0.1-1-0.1c-0.1,0-0.6,0-0.6,0
						s0.2-0.3,0.5-0.9c0.1-0.2,0.3-0.4,0.5-0.5c-0.2,0-0.5-0.1-0.5-0.1s0.2-0.3,0.5-0.9c0.3-0.6,0.7-0.8,1.4-0.8
						c0.5,0,1.4,0.4,1.9,0.6c0.3-0.2,0.6-0.4,1.2-0.8c0.2-0.1,0.6-0.4,1-0.6H90.3l-7.5,28.1h17l4.1-4l5.4-20L107.4,31.9z M97,51.9
						h-4l3.2-12h4L97,51.9z"/>
				</g>
				<g>
					<path d="M86.1,39.8l2.2-8H73.2l-0.6,0.6c0.6,0.1,1.3,0.1,1.9-0.3c0.5-0.4,1.7-0.3,1.8,0c0.1,0.7-1.4,1-2.2,0.6
						c-0.8,0-1.1,0.1-1.2,0.2c0,0.1,0,0.3,0.1,0.3c1.6,0.4,1.7,0.8,3.3,0.9c0.4,0,0.8,0,1.2,0c0.6,0,1.1,0,1.7,0.4
						c0.3,0.3,0,0.7-0.3,0.9c-0.3,0.2-0.8,0-1.1-0.2c-0.9-0.5-0.5-0.4-1.4-0.6c-1.5-0.4-2.5-0.6-2.6-0.5c-0.1,0-0.6,0.5-0.3,0.7
						c0.7,0.5,1.2,0.9,1.9,1.4c0.1,0.1,0.3,0,0.4,0c0.2,0,0.2,0,0.4,0.1c0.4,0.1,0.6,0.3,0.7,0.6c0.1,0.5-0.1,0.6-0.3,0.7
						c-0.4,0.1-0.6,0.2-0.9,0.1c-0.6-0.2-1.1-0.2-1.1-0.9c0-0.2,0-0.4-0.2-0.5c-1.1-1-2.2-2.1-3.9-1.9c-0.1,0-0.1,0-0.1,0.1
						c0.1,0.3,0.3,1,2,1.9c0.5,0.3,0.3,1,0.1,1.1c-0.2,0.1-0.6,0.4-0.9,0c-0.3-0.3-0.5-0.6-0.5-0.9c0.1-0.1-0.6-0.9-1.3-1.5
						l-0.7,0.7l-5.4,20l2,4h15l3.8-14h-8l-1.6,6h-2l3.2-12L86.1,39.8z"/>
				</g>
			</g>
		</g>
	</g>
	<polygon class="st0" points="25.4,101.8 76.8,101.8 76.6,100.3 26.6,100.1 	"/>
	<path class="st0" d="M99.6,101.8h23.8c0,0,0.3-1.3,0.2-1.3s-25-0.4-25-0.4L99.6,101.8z"/>
	<path class="st0" d="M128.1,99.8c0,0,0.5-1.1,1.2-1.1c0.7,0,1.1,1.1,1.1,1.1s0.6,1.1,1.1,0.8c0.5-0.3-0.2-4.5-0.3-4.5
		c0-0.1-1.3-1-2.1-0.2c-0.7,0.8-1.7,0.9-2,1.5c-0.3,0.6-0.3,1.9-0.3,1.9L128.1,99.8z"/>
	<polygon class="st0" points="122.3,101.8 137.2,101.8 129.5,96.9 124.6,100.1 	"/>
	<polygon class="st0" points="10,62.9 27.1,62.9 25,60.1 25.7,52.5 19.8,51.8 17.1,54.8 15.2,59.7 13.8,62.3 	"/>
	<path class="st0" d="M72.9,101.8h26.5l-4.5-4c0,0-0.4-1.7-0.5-1.7c-0.1,0-11.1-0.9-11.1-0.9l-2.1,4.1L72.9,101.8z"/>
	<polygon class="st0" points="23.6,72.9 26.2,62.9 20.3,62.9 20.3,61.1 29.9,61.8 27.4,68 23.6,73 	"/>
	<polygon class="st0" points="160.7,88.6 165.6,70.2 163.2,75.1 154.8,77.2 159.8,82.7 159.8,88.6 	"/>
	<path class="st0" d="M22.9,62.9c1.6,0,3.2,0.6,2.4,3.7c-0.8,3.1,3.1-1.7,3.1-1.7l-0.9-3l-5.8-0.8C21.6,61.1,21.3,62.9,22.9,62.9z"
		/>
	<polygon points="72.9,32.1 69.5,35.4 70.7,38.6 73.4,38.4 77.6,38.1 80.1,35.4 79.8,33.8 76.9,31.8 73.6,31.8 	"/>
	<polygon points="107.1,31.9 105.6,31.9 104.5,32.4 100.9,32.3 98.3,35 101,38.6 103.5,40.4 108.5,36.2 109.2,35.7 107.6,32.8 	"/>
	<polygon class="st0" points="83.3,28.8 94,28.9 95.3,29.8 85.5,30.3 	"/>
	<polygon class="st0" points="39.1,33.9 57.6,33.9 51.5,36.5 48.5,37.4 	"/>
</g>
</svg>
