<svg id="Layer_1" data-name="Layer 1" xmlns="http://www.w3.org/2000/svg" viewBox="0 0 167.7 126.07"><defs><style>.cls-1{fill:#fff;}</style></defs><path class="cls-1" d="M24.34,46.78a7.74,7.74,0,0,1-.92-4.63,14,14,0,0,1-1.61-1.3c-.57-.59-1.37-1-1.7-1.78-.09-.2-.35-.33-.53-.49a5,5,0,0,1-.78-.75c.39.08.79.07,1,.43a1.18,1.18,0,0,0,1,.46c.89.08.93.19,1.1,1a2.62,2.62,0,0,0,.6,1.06,6,6,0,0,0,.89.7c.22-.59.38-1.12.6-1.62a6.06,6.06,0,0,1,1.34-2,2.18,2.18,0,0,0,.8-1.1.5.5,0,0,1,.68-.38c.58.2,1.09-.09,1.6-.15.24-.95.45-1.85.72-2.74a6.5,6.5,0,0,1,2-3.27,1.07,1.07,0,0,0,.37-1.16c-.12-.77-.17-1.55-.23-2.33a1.89,1.89,0,0,0-.72-1.61,2.49,2.49,0,0,1-.52-.76c-.18-.29-.33-.6-.52-.88s-.32-.48-.16-.8.17-.37.42-.32.39.19.32.47c0,.1,0,.2-.05.29a.72.72,0,0,0,.36.83c.8.33.84,1,1,1.73s.4,1.09.58,1.65.38,1.19.56,1.77l1.19-.39c0-.35-.65-.33-.37-.72s.47.12.73.1a.17.17,0,0,1,.14,0c.74.67,1.58.13,2.36.18a.47.47,0,0,0,.29-.2,12.88,12.88,0,0,1,6-3.89c.71-.27,1.44-.5,2.15-.77.34-.14.77-.12,1-.53.42.17.75-.11,1.11-.22s.73-.29,1.09-.44A4.67,4.67,0,0,0,50.07,21a14.29,14.29,0,0,1,5.44-3.54l.6-.24c.27-.13.26-.16.53-.3l.65-.32c.21-.09.36-.21.54-.29s.14-.07.18-.12A15.84,15.84,0,0,1,63.3,12a10.42,10.42,0,0,1,1.8-.64,1,1,0,0,0,.68-.59,6.24,6.24,0,0,1,1.36-1.9,4.79,4.79,0,0,1,4.44-1.4l.38.06c.28-.27.56-.54.85-.8a4.32,4.32,0,0,1,3.93-.9,2.65,2.65,0,0,0,1.37,0,9,9,0,0,1,4.22-.3,6,6,0,0,1,5,5.72c0,.83,0,1.66,0,2.48a12,12,0,0,0,3.54,0V12.9a9.44,9.44,0,0,1,4.71-8.4,14.57,14.57,0,0,1,7.82-2.23,16,16,0,0,1,5.24.59,15.06,15.06,0,0,1,2,.81,1,1,0,0,0,1.08,0,6.1,6.1,0,0,1,3.3-.85,4.2,4.2,0,0,1,3.85,3.77,10,10,0,0,1-.56,3.91,2.16,2.16,0,0,0-.18.56,1,1,0,0,0,.43,1.08,11.82,11.82,0,0,1,3.89,4.33,2,2,0,0,0,1.1,1,13.7,13.7,0,0,1,3.76,2,13.34,13.34,0,0,1,1.58,1.42A4.37,4.37,0,0,0,130.58,22c1.47.55,3,1,4.41,1.65a39.57,39.57,0,0,1,3.78,1.79A6.34,6.34,0,0,1,141,27.51a1.73,1.73,0,0,0,.27.3c.34-.47.85-.74.78-1.44,0-.5.56-.87,1.15-.82a.9.9,0,0,1-.21,1.07,2.48,2.48,0,0,0-.78,1.45c-.07.26-.15.52-.24.77-.22.65-.15.87.45,1.16a18.07,18.07,0,0,1,3.93,2.59c1,.87,2,1.75,2.9,2.67a10.4,10.4,0,0,1,1.19,1.46c.18.27.21.64.37.93a1.5,1.5,0,0,0,.49.51,7,7,0,0,1,3.17,4.77,5.86,5.86,0,0,0,.31.88c-.26.13-.28.45-.28.81a6.2,6.2,0,0,1-3,5.48,1.79,1.79,0,0,0-.45.46c-.13.18-.21.39-.34.57a2.81,2.81,0,0,0-.57,1.54,3.35,3.35,0,0,1-1,2.08c-.17.17-.32.35-.6.65.72,0,1.28,0,1.83,0a3,3,0,0,1,3.1,3.89c-.3,1.18-.61,2.37-.93,3.55Q152,64.91,151.44,67a3.12,3.12,0,0,1-3.17,2.45h-.86a2.13,2.13,0,0,0,.25.17,3.08,3.08,0,0,1,2.05,3.88c-.56,2.18-1.15,4.36-1.74,6.54s-1.16,4.21-1.7,6.32a4,4,0,0,1-1.5,2.66l.57.65.26-.19a3.05,3.05,0,0,1,2.26-.89c2.63,0,5.25,0,7.88,0,3.37,0,6.73,0,10.09,0a3,3,0,0,1,3,2.63,4,4,0,0,1-.12,1.38c-.81,3.09-1.64,6.16-2.48,9.24a3,3,0,0,1-3.14,2.37c-1.18,0-2.36,0-3.54,0h-.71l0,.13c.12.1.23.21.36.3l3.35,2.4A3.09,3.09,0,0,1,164,109.2a5.33,5.33,0,0,1-.14,1.59c-.45,1.78-.94,3.56-1.42,5.33-.43,1.59-.87,3.17-1.29,4.76a4.29,4.29,0,0,1-1.21,2.06c-1.52,1.46-3,3-4.52,4.44a3.13,3.13,0,0,1-2.31.94H135.71c-.22,0-.44,0-.66,0a3,3,0,0,1-2.84-3.68c.27-1.26.64-2.51,1-3.77.07-.25.11-.5.17-.79-.43,0-.46.29-.56.5-.84,1.85-1.7,3.69-2.51,5.56a3.33,3.33,0,0,1-3.33,2.19c-5.59,0-11.19,0-16.79,0H99.25a3.23,3.23,0,0,1-2.3-.8,3,3,0,0,1-.91-3c.07-.34.17-.67.27-1.09l-.83,0c-2.53,0-5,0-7.58,0-.71,0-1.41-.08-2.21-.13-.18.64-.38,1.37-.58,2.1a9.07,9.07,0,0,1-.35,1A2.9,2.9,0,0,1,82,128.31c-3.36,0-6.72,0-10.09,0-.41,0-.83,0-1.25,0H26c-.22,0-.45,0-.67,0a3,3,0,0,1-2.67-1.67q-1.2-2.4-2.37-4.82a3.23,3.23,0,0,1-.14-2.37q1.33-4.93,2.66-9.87c1.21-4.52,2.44-9,3.64-13.57A4.27,4.27,0,0,1,27.6,94c1.18-1.14,2.33-2.32,3.5-3.48l.47-.51c0-.44-.28-.5-.61-.49h-2.8a2.92,2.92,0,0,1-3-2.7,4.64,4.64,0,0,1,.2-1.52c.44-1.76.92-3.51,1.38-5.26,0-.14.07-.28.11-.48H21.13c-.23.84-.47,1.71-.7,2.58-.45,1.66-.91,3.31-1.33,5a3.11,3.11,0,0,1-3.18,2.42c-2.53,0-5.06-.07-7.58,0a3.08,3.08,0,0,1-3.12-3.89c.56-2.19,1.16-4.36,1.75-6.54,1.21-4.55,2.44-9.1,3.65-13.64a1.43,1.43,0,0,0,0-.26L10,65.11c.15-.2.22-.38.34-.44.89-.47.8-1.36,1-2.14,0-.09,0-.2,0-.27a18.93,18.93,0,0,0,1.13-3.9,3.76,3.76,0,0,1,1.68-2.57,3.24,3.24,0,0,1,1.55-.39h6c.78,0,.78,0,1.05-.74a6.79,6.79,0,0,1,.58-1.18,1,1,0,0,0,0-1.18,2.17,2.17,0,0,1-.09-2.54,2.22,2.22,0,0,0,.31-.66c.15-.48,0-.74-.5-.83a5.68,5.68,0,0,0-.59,0c-.33,0-.64-.12-.6-.57,0-.29-.23-.34-.42-.44l-.68-.33a.74.74,0,0,1,1-.36c.5.15,1,.28,1.49.41A1.26,1.26,0,0,0,24.34,46.78Zm116.74-4.65c.29.63,1,.64,1.45,1a2.61,2.61,0,0,1,.45-.31.6.6,0,0,1,.92.62,5.72,5.72,0,0,0-.11.57,4,4,0,0,0,.1,1.3,2.36,2.36,0,0,0,.73.94,5.12,5.12,0,0,0,1,.54,3.1,3.1,0,0,0-.42.55,5.25,5.25,0,0,1-1,1.66.6.6,0,0,0,0,.8,3.1,3.1,0,0,1,.27,1,2.08,2.08,0,0,1-.43,1.8,13.33,13.33,0,0,0,1.57,0c.61-.06.85-.32.92-.94a.86.86,0,0,1,.37-.59,6.93,6.93,0,0,0,2-2.87l.25-.62a1.75,1.75,0,0,0,1.8-.92c.1-.15.1-.37.19-.53a3.91,3.91,0,0,0,0-3.85,3.48,3.48,0,0,0-.28-.39c-.52.19-1,.53-1.56.43.33-.57.92-.48,1.39-.71a2.15,2.15,0,0,0-1.88-1.05c-.13-.3-.23-.57-.35-.84a7.54,7.54,0,0,0-1.9-2.93c-.44-.37-1.07-.56-1.4-1a7.07,7.07,0,0,0-1.22-1.34,17.82,17.82,0,0,0-5-2.69,16.84,16.84,0,0,0-2.43-.58c-.43-.07-.93-.23-1.32.18a.23.23,0,0,1-.2,0,1.63,1.63,0,0,0-1.75.8,8.3,8.3,0,0,0-1.45,4.4l.49-.23a.88.88,0,0,1,1,.16.61.61,0,0,1-.15,1.07.91.91,0,0,1-1-.14,5.2,5.2,0,0,1-.41-.49c0,.91,0,1.65-.06,2.38s.27.9.89.85a5.73,5.73,0,0,0,2.15-.47,1.37,1.37,0,0,0,.73-.67c.08-.21.29-.51.46-.52.66,0,.7-.59.94-1s.67-1.07,1-1.6a5.73,5.73,0,0,1-.25.91,1.93,1.93,0,0,1-.44,1c-.72.93-.57,1.46.49,2,.37.19.78.31,1.13.53a.8.8,0,0,0,1,0c0,.23-.15.4-.1.48.26.38.46.83,1,.89.12,0,.23.19.34.29A.45.45,0,0,1,141.08,42.13ZM44.14,37.76v0l-1,1.28.58.87,1.16-1L48.61,42l.57-.23.15.57L50.61,42v0a7.27,7.27,0,0,1-.57.54c-.59.46-.6.46-.15,1a3.57,3.57,0,0,1,.7-.19.51.51,0,0,0,.69.32c-.08-.59.37-.81.8-1a6.21,6.21,0,0,1,.74-.34,3.5,3.5,0,0,0,1.46-.8.51.51,0,0,1,.72,0c-.31.43-.31.42-.67.53a2,2,0,0,0-.74.3c-.59.49-1.14,1-1.73,1.55a2.63,2.63,0,0,1,2,2,3.27,3.27,0,0,1-.74,2.66c.29.49.58.92.83,1.37a3.43,3.43,0,0,1,.62,1.4,20.51,20.51,0,0,1-6.17-.46c-.7-.18-1.08.23-1.54.63a4,4,0,0,0,1.13.28,6,6,0,0,1,2.34.59,2.12,2.12,0,0,0,1.84.1c.84-.33,1.71-.59,2.63-.91a11,11,0,0,0,.44,1,2.79,2.79,0,0,1,.37,1A12.55,12.55,0,0,0,56,55.29c.18.72.33,1.44.49,2.16a1.84,1.84,0,0,0,.89,1.32A39.19,39.19,0,0,0,67,61.7a11.33,11.33,0,0,0,3.81.09,1.18,1.18,0,0,0,.47-.15,15.57,15.57,0,0,0,1.46-1.23,2,2,0,0,0,.66-1,1.35,1.35,0,0,1,.6-1.08l-.65-.07c-.86-.06-1.72-.09-2.57-.17a22.72,22.72,0,0,1-7.82-2.19,10.92,10.92,0,0,1-3-2.14,5.67,5.67,0,0,1-1.28-1.86,50.28,50.28,0,0,1-3-10.61,5.18,5.18,0,0,0-.17-.53,8.91,8.91,0,0,1-3.79.78,8.78,8.78,0,0,0,1-.78c.28-.3.85-.32.91-.91a8.4,8.4,0,0,1-.8-.36,1.22,1.22,0,0,1,0-2.26,1.2,1.2,0,0,1,.4-.18L55,36.78l.44-2.1a10.21,10.21,0,0,1,1.76,0,4.45,4.45,0,0,0,3.06-.53,23.48,23.48,0,0,0,3.16-2c2.21-1.75,4.32-3.63,6.52-5.41,1.58-1.28,3.18-2.53,4.85-3.7a11.33,11.33,0,0,1,2.57-1.25A4.17,4.17,0,0,1,79,21.62c.56,0,.78.3.79.87a4.21,4.21,0,0,1-.11,1.23c-.31,1-.68,2-1,3,0,.14-.08.28-.12.41a4.14,4.14,0,0,0,.76-.93A35.48,35.48,0,0,0,83.78,16a13.32,13.32,0,0,0,.55-4.21c-.09-1.86-1.12-3.51-3.6-3.34a6.87,6.87,0,0,0-2,.37,4,4,0,0,1-2.45,0,1.55,1.55,0,0,0-2,.77,10.85,10.85,0,0,0-.62,1.4c-.81-.17-1.65-.3-2.47-.53a1.68,1.68,0,0,0-1.6.27,6.12,6.12,0,0,0-1,1.15A7.07,7.07,0,0,0,68.1,13a1.46,1.46,0,0,1-.2,0,5.62,5.62,0,0,0-3.77,1.8,3.39,3.39,0,0,1-.51.41,14.19,14.19,0,0,0-4,3.76,1.23,1.23,0,0,1-.82.54,15.16,15.16,0,0,0-5,2.21,17.62,17.62,0,0,0-1.61,1.39,11.29,11.29,0,0,1-1.52,1.26,15.92,15.92,0,0,1-2.33,1.08c-1.78.68-3.61,1.28-5.37,2A26.28,26.28,0,0,0,40.26,29a.62.62,0,0,0-.26.81c-.67-.24-.67.26-.9.61l1.22.44a9.49,9.49,0,0,1,2.87,1.62,1.81,1.81,0,0,1,.74,1.3l-.49-.34a12,12,0,0,0-7.61-2,3.87,3.87,0,0,0-3.51,2.18,14,14,0,0,0-1,6.16,8,8,0,0,1,1.13-.35A2.12,2.12,0,0,0,34.14,37c-.07-.37-.28-.48-.63-.32-.16.08-.29.2-.45.26a.59.59,0,0,1-.76-.38c-.09-.29.08-.5.49-.59a3.24,3.24,0,0,0,.77-.21.59.59,0,0,0,.28-.45c0-.48-.05-1-.07-1.45a2.63,2.63,0,0,1,.09-.44c.09.11.15.15.14.18a2.79,2.79,0,0,0,.61,2.24.62.62,0,0,1,.12.35c0,.85-.08,1.7-.17,2.55,0,.34,0,.51.35.61a1.66,1.66,0,0,0,.42.12,2.83,2.83,0,0,1,2.29,1.11s.09,0,.14,0c.56-1.67,1.57-2.78,3.46-2.77a3.59,3.59,0,0,1,1.23-1.39c-.32.47-.1,1.22-.83,1.46l1.28.69Zm66.8-30.37a8.62,8.62,0,0,0-3.3-1.68,14,14,0,0,0-6-.29,11.22,11.22,0,0,0-4.77,1.83,6.71,6.71,0,0,0-3,5.81c0,.88,0,1.76,0,2.67a5.46,5.46,0,0,0-.88.51,2.22,2.22,0,0,1-1,.38c-1.21.26-1.6,1-1.19,2.18a2.75,2.75,0,0,1,.12,1c0,.88-.13,1.76-.09,2.64a5.79,5.79,0,0,0,4.69,5.75,13.18,13.18,0,0,0,1.88.32,1.91,1.91,0,0,1,1.22.57,14,14,0,0,0,5.1,3.28c.07,0,.13.1.23.18a6.39,6.39,0,0,0-.59.51,1.32,1.32,0,0,0-.32.62c-.11,1.29-.2,2.59-.28,3.89a1.25,1.25,0,0,0,.09.64,3.28,3.28,0,0,1-.11,3.24A14.38,14.38,0,0,1,101,43.86c-.86,1-1.84,1.91-2.75,2.87a2.19,2.19,0,0,1-1,.59,14.49,14.49,0,0,0-4.14,2.21,1,1,0,0,0-.36,1.23l.7-.5c.25.31,0,.54,0,.78s0,.42.09.46a.75.75,0,0,0,.53,0,4,4,0,0,0,.56-.44c.63.22,1.27.38,1.57,1.12a1.81,1.81,0,0,1,1.25-.44A.9.9,0,0,0,98.3,51a1.11,1.11,0,0,1,1-.79c.22,0,.43-.09.65-.11a1.12,1.12,0,0,0,1-.68,5.57,5.57,0,0,1,.58-.93c.58-.7,1.18-1.38,1.77-2.07a15.94,15.94,0,0,1,3.79-3.68c-.62-.85-1.22-1.68-1.83-2.5a1.7,1.7,0,0,0-.39-.28,1.65,1.65,0,0,0,0-.55,6.64,6.64,0,0,1-.21-3.77,6.48,6.48,0,0,1,.52-1.67,1.63,1.63,0,0,1,1.9-.94,14.27,14.27,0,0,1,1.72.53,10.56,10.56,0,0,0,2.43,5.91,2.57,2.57,0,0,0,.57.57,4.63,4.63,0,0,1,2,3.35,12.75,12.75,0,0,1-.15,4.61,27.06,27.06,0,0,1-3.1,8.53,4.84,4.84,0,0,1-.81,1c-.4.38-.53.57-.3,1a10.16,10.16,0,0,0,1,1.84,1.65,1.65,0,0,0,2.62.32,8.06,8.06,0,0,0,1.38-1.42A42,42,0,0,0,118,53.62,55.53,55.53,0,0,1,122,47c1-1.32,2-2.59,3.83-2.93-.3-1.73-.8-3.37-1.08-5.06l.14-.1L128,40.64a7.79,7.79,0,0,0,.58-.66.75.75,0,0,1,1-.3,6.36,6.36,0,0,0,1,.26,16.9,16.9,0,0,1,.12-5.33c-.68-.6-.81-.86-.54-1.38a1.58,1.58,0,0,1,.73-.67,1.15,1.15,0,0,0,.64-.64,2.75,2.75,0,0,1,2-1.64,6.42,6.42,0,0,1,1.75-.11,9.69,9.69,0,0,1,3,.76c.22.09.44.16.7.25a2.57,2.57,0,0,0-.85-2.41,7.42,7.42,0,0,0-1.86-1.3c-1.33-.62-2.72-1.11-4.08-1.66s-2.43-.94-3.62-1.45a4.88,4.88,0,0,1-1.71-1.25,9,9,0,0,0-1.4-1.29,13.08,13.08,0,0,0-4.23-2,1.18,1.18,0,0,1-.79-.67,29.79,29.79,0,0,0-1.71-2.82A5.73,5.73,0,0,0,115.36,14a.85.85,0,0,1-.21-.11,7.94,7.94,0,0,0,.08-1.45,9.6,9.6,0,0,0-.45-1.49,6.94,6.94,0,0,0,1.12-3.75c0-1.15-.77-1.68-1.87-1.32a2,2,0,0,0-.34.14ZM99,125.31h9.67c3-11.26,6-22.5,9-33.82h-.92c-3.83,0-7.66,0-11.49,0a1.35,1.35,0,0,0-1.34.74c-2.55,4.31-5.15,8.59-7.73,12.88-.13.21-.27.42-.4.64l-.16,0-.92-14.16H81.44l-9,33.28c0,.11,0,.24-.06.36s0,0,0,.06l.05.08H82c.47-1.73.92-3.44,1.38-5.14s.89-3.36,1.35-5a43.22,43.22,0,0,1,1.5-5l.67,10.36h.76c2.73,0,5.45,0,8.18,0a1.11,1.11,0,0,0,1.1-.63q2.67-4.49,5.38-9c.16-.26.32-.52.49-.78l.14.07ZM74.17,91.55H59.65l-15.1,33.81h.93c2.48,0,5,0,7.44,0,1.61,0,1.17.28,1.84-1.21q4.05-9,8.07-18.07a3.36,3.36,0,0,1,.16-.33,3.16,3.16,0,0,1,.28-.38l-1,10.33h-2.6l-4.27,9.63h15.7C72.16,114.05,73.16,102.83,74.17,91.55Zm63.19,12H125.27l.68-2.4h1c3.68,0,7.36,0,11.05,0a.81.81,0,0,0,.91-.51c1.29-2.89,2.62-5.77,3.93-8.65a3.31,3.31,0,0,0,.12-.45h-24c-3,11.25-6,22.47-9.08,33.75l.74,0c5.38,0,10.75,0,16.13,0a.87.87,0,0,0,.93-.62c1.24-2.8,2.52-5.59,3.78-8.38.09-.19.16-.4.27-.69H122l.67-2.41H133ZM43.42,125.33c1.51-5.63,3-11.22,4.51-16.84H38.27l-2,7.19a15.83,15.83,0,0,1-2.39-.08l3.89-14.48H49.9l2.57-9.57c-.26,0-.4,0-.55,0H34.84a1.16,1.16,0,0,0-.9.39c-1.34,1.33-2.68,2.66-4,4A2.31,2.31,0,0,0,29.25,97c-.7,2.65-1.42,5.3-2.13,8q-2,7.5-4,15a1.42,1.42,0,0,0,.11,1.12c.5,1,.95,1.94,1.42,2.91l.69,1.37Zm94.25-9.65c-.85,3.22-1.73,6.39-2.54,9.64.31,0,.51,0,.7,0,5.6,0,11.2,0,16.8,0a1.3,1.3,0,0,0,1-.43c1.3-1.31,2.6-2.61,3.93-3.88a2.55,2.55,0,0,0,.73-1.23c.76-2.87,1.54-5.74,2.31-8.6.14-.52.27-1,.41-1.6l-10.14-7.24.36-1.23h12a98.08,98.08,0,0,0,2.52-9.61,1.46,1.46,0,0,0-.22,0H148.17a1,1,0,0,0-.76.36c-1.38,1.36-2.76,2.73-4.15,4.08a2,2,0,0,0-.56,1l-2.58,9.6c-.07.23-.1.46-.15.7l10.12,7.23-.35,1.21Zm-30.56-53.4a5.41,5.41,0,0,1-1.51.18,7.66,7.66,0,0,0-1.51-.09s0-.06-.09-.13l.69-.58-1.1.15c.24-.41.46-.61.82-.61s.56-.25.71-.6c-.61-.1-1.18.48-1.77-.12.65-.77,1.66-.63,2.44-1-.24-.56-.86-.16-1.21-.57l1-.39,0-.13H92.14q-3.73,14-7.49,28.09c.21,0,.3,0,.4,0h16.28a1,1,0,0,0,.77-.33c1.12-1.11,2.24-2.2,3.37-3.3.11-.11.21-.24.32-.37-.54-.25-.64-.46-.37-.89a1.17,1.17,0,0,1,.51-.5c.36-.11.42-.39.49-.66q2-7.6,4.06-15.21c0-.13,0-.27.06-.42-.61,0-.31.78-.81.82a3.51,3.51,0,0,0-.12-.94,5.36,5.36,0,0,0-.57-.94c0,.14-.07.29,0,.37.24.33,0,.5-.23.47a.82.82,0,0,0-.65.26,2,2,0,0,1-1.23.4,2.29,2.29,0,0,0-.6.18l-.35.1a2.84,2.84,0,0,0,.14-1,2.19,2.19,0,0,1,.54-1.84C106.78,62.61,107,62.45,107.11,62.28ZM74.54,64l-.7-1.29A3.13,3.13,0,0,1,71.32,62a5.55,5.55,0,0,0-.41.8c-.23.75-.42,1.52-.62,2.27Q68,73.48,65.77,81.94a1.41,1.41,0,0,0,0,.78c.57,1.27,1.19,2.52,1.79,3.77H82.66l3.75-14h-8c-.55,2-1.1,4-1.63,6h-2c1.08-4.06,2.15-8,3.23-12.09H88c.72-2.68,1.42-5.3,2.11-7.91-.11-.06-.15-.09-.2-.09-3.09,0-6.18,0-9.28,0a.52.52,0,0,0-.38.13c-.4.56-.94.57-1.57.57a3.7,3.7,0,0,0-2.22.52c.34.38.58.9,1,1a8.77,8.77,0,0,0,3.43.7A2.05,2.05,0,0,1,83.61,61c.28.17.53.38.47.76s-.38.51-.69.58a3,3,0,0,1-1.67-.14,5.12,5.12,0,0,0-1.25-.37c-1-.12-2-.17-2.94-.24a.71.71,0,0,0-.35.07c-.31.2-.62.43-1,.68A5.1,5.1,0,0,0,79.09,64a2,2,0,0,1,1.45.93.58.58,0,0,1-.38,1,2.21,2.21,0,0,1-2.31-1.09,2,2,0,0,0-.93-1.06c-.49-.32-1-.65-1.45-1a.71.71,0,0,0-1,0c.39.7.79,1.37,1.13,2.07a3.05,3.05,0,0,1,.32,1.18c0,.39-.25.58-.63.52-.76-.13-1.06-.72-1.3-1.36A.79.79,0,0,1,74.54,64Zm72.51,1-.16.18c-.26-.16-.63-.26-.76-.5a1.77,1.77,0,0,0-1.33-.8c-.52-.11-.8-.41-.69-.88a1.51,1.51,0,0,0-.44-1.34,5.43,5.43,0,0,0-2-1.65c-.68-.28-1.37-.55-2.06-.81a1.31,1.31,0,0,0-.64-.1c-1.05.24-2.11.46-3.13.79a1.55,1.55,0,0,0-1.1,1c-.24.86-.26.9-1.1.9a2.14,2.14,0,0,0-2.09,2c0,.57.18.72.7.52a1.61,1.61,0,0,1,.33-.15.64.64,0,0,1,.76.52c0,.29-.17.45-.59.49a3,3,0,0,0-.79.12.65.65,0,0,0-.32.42c-.06.51-.06,1-.1,1.53a.79.79,0,0,1-.13.26,3.58,3.58,0,0,0-.59-2.53c-.1.34-.19.59-.26.84Q128.6,73,126.68,80.14a7.54,7.54,0,0,0-.54,2.34,7.83,7.83,0,0,0,1,2.28c.28.59.58,1.18.85,1.74H143.1c1.25-4.67,2.5-9.32,3.76-14h-8.05l-1.62,6a4.4,4.4,0,0,1-2-.07q1.61-6,3.21-12l.37,0a11.14,11.14,0,0,0,3.05-.18c.06,0,.14,0,.22,0a6,6,0,0,0,.85.13c1.3,0,2.6,0,3.9,0h1.68l2.13-8a76.34,76.34,0,0,0-9,.08A14.18,14.18,0,0,0,142.68,60c.84.92,1.83,1.71,2.58,2.69A13.86,13.86,0,0,0,147.05,65ZM27.35,76.48c-.24-.5-.33-1,0-1.33a2.31,2.31,0,0,0,.57-1.46,7.29,7.29,0,0,1,1-2.75,2.41,2.41,0,0,1,.72-.7c.11-.07.35,0,.55.05l.87-2c-.41.1-.65.18-.89.23s-.45.12-.52,0c-.25-.26-.55-.19-.83-.19H21l.55-2h.9c3,0,6,0,9,0a.83.83,0,0,0,.94-.58c.47-1.13,1-2.24,1.51-3.36.21-.46.4-.93.66-1.53a4.1,4.1,0,0,0-2.43,2.61,17.36,17.36,0,0,1-.8,1.84,8.35,8.35,0,0,1,.93-3.12,2.44,2.44,0,0,0-.4-.35c-.65-.28-1.32-.52-2-.8a.78.78,0,0,0-1.06.18C29,60.56,28.33,60,27.53,60c-.07-.47-.43-.64-.83-.81a3.89,3.89,0,0,1-1-.54,1.16,1.16,0,0,0-.79-.28c-1.13,0-2.27,0-3.41,0-1.76,0-3.53,0-5.3,0-.17,0-.33,0-.55,0L8.08,86.5h8c.9-3.35,1.8-6.68,2.69-10Zm7-13.09c-2.06,7.72-4.1,15.39-6.15,23.06a48.25,48.25,0,0,0,6.62,0l1.75-6.49.81,0,1.54,6.53h6.56c0-.19,0-.33-.07-.47-.42-1.84-.83-3.69-1.29-5.52a.92.92,0,0,1,.32-1Q45.73,78.25,47,77a2,2,0,0,0,.48-.79c.86-3.15,1.69-6.3,2.5-9.31-.16-.46-.26-.81-.41-1.14-.28-.63-.61-1.23-.89-1.86a.69.69,0,0,0-.78-.5,13.22,13.22,0,0,1-1.66.11c-.91,0-1.81-.06-2.71-.09a.54.54,0,0,0-.19,0l-.47.59-.65-.59H38.87l.24.51L39,64l-.37-.47L37,63.36l.17.53c-.38.27-.69.66-1.24.46a1,1,0,0,1-.61-1ZM50.47,72a2.88,2.88,0,0,0-.43.68q-1.38,5.07-2.72,10.15a1,1,0,0,0,0,.57c.47,1,1,2.07,1.45,3l.23,0H60a1,1,0,0,0,.77-.34c.87-.87,1.74-1.73,2.63-2.57a1.9,1.9,0,0,0,.54-.94c.34-1.35.72-2.7,1.08-4q1.53-5.72,3-11.44a1.2,1.2,0,0,0,0-.77c-.45-1-1-2-1.43-3l-.14-.06c-3.73,0-7.46,0-11.2,0a.72.72,0,0,0-.46.14c-.62.59-1.21,1.21-1.86,1.86l1.54,1.28a.8.8,0,0,1-.92-.15c-.29-.29-.61-.53-1-.83-.41.51-.94.77-1.1,1.37-.36,1.4-.74,2.8-1.09,4.2A3,3,0,0,0,50.47,72ZM109.22,86.5l.42,0h10.74a1.12,1.12,0,0,0,.84-.36c.88-.89,1.8-1.74,2.67-2.63a1.82,1.82,0,0,0,.43-.75c.37-1.32.72-2.64,1.07-4Q127,73,128.48,67.26a1.36,1.36,0,0,0,.05-.79c-.46-1-1-2.06-1.49-3.1h-.79c-1,0-2,.11-3.07.11-.65,0-1.31-.06-2-.11a3.1,3.1,0,0,0-2.29.53s-.13,0-.28,0l.64-.49h-.86c-.14.33-.36.65-.75.56-.23,0-.4-.33-.72-.6-.18,0-.53,0-.87,0a1.32,1.32,0,0,0-1.15.47c-.76.81-1.55,1.58-2.35,2.34a2.44,2.44,0,0,0-.69,1.18c-.6,2.32-1.23,4.64-1.85,7q-1.12,4.16-2.22,8.31a1.43,1.43,0,0,0,0,.84C108.23,84.49,108.74,85.49,109.22,86.5ZM40,51c0-.75,0-1.58,0-2.41A7,7,0,0,1,41.27,45a1.14,1.14,0,0,1,.32-.3,3.67,3.67,0,0,0,.95-5,1.93,1.93,0,0,0-3.32-.13,3.2,3.2,0,0,0-.44.76,4,4,0,0,0,.08,3.22,1.71,1.71,0,0,1,.22.75c0,.68-.08,1.37-.12,2a4.12,4.12,0,0,1-1.11,2.81A16.49,16.49,0,0,0,36.52,51a1.35,1.35,0,0,1-1.28-.83,8.07,8.07,0,0,1-1.06-3.47A2,2,0,0,0,35.32,44a3.68,3.68,0,0,0-1.22-1.8A1.89,1.89,0,0,0,31.85,42,2,2,0,0,0,31,44.13a3.07,3.07,0,0,0,1.27,1.92,1.06,1.06,0,0,1,.43.64,14.49,14.49,0,0,0,.67,2.18,3.74,3.74,0,0,1,.11,2.79,1.7,1.7,0,0,1-.63.94,2.35,2.35,0,0,0-.89,1.31c-.33,1.11-.14,1.35,1,1.38a23.31,23.31,0,0,1,2.78.16,3.7,3.7,0,0,1,3.15,2.73,8.12,8.12,0,0,0,.4,1.11c.43.92,1,1.08,1.81.45a5.74,5.74,0,0,0,1.77-2.14,1.66,1.66,0,0,1,.85-.84A6.93,6.93,0,0,1,47.55,56a1.66,1.66,0,0,1,1.23.48,3.43,3.43,0,0,0,3.77.57,1.42,1.42,0,0,0,.88-1.18,1.2,1.2,0,0,0-.82-1.2,8.25,8.25,0,0,0-1.82-.53,2.28,2.28,0,0,0-2.2.75.74.74,0,0,1-.64.24c-1.23,0-2.45,0-3.68,0h-.69a6.88,6.88,0,0,0-.15-1,1.25,1.25,0,0,1,.36-1.26,16.55,16.55,0,0,1,3.94-3.28A1.7,1.7,0,0,1,49,49.3a3.72,3.72,0,0,0,3.77-2,1.79,1.79,0,0,0-1.14-2.53,3.67,3.67,0,0,0-4.26,1.91,6.91,6.91,0,0,1-.83,1.45c-.29.43-.55.87-.84,1.3a2.37,2.37,0,0,1-.52.71c-.92.68-1.88,1.31-2.67,1.85Zm100.11,4.2a5.94,5.94,0,0,0-1.79-4.15,3.55,3.55,0,0,0-5.45-.05,3.24,3.24,0,0,0-.4.43c-.78,1.1-1.59,2.18-2.3,3.32a7.48,7.48,0,0,0-.8,2,2.53,2.53,0,0,0,.47,2.36c.58.71.82.73,1.45.06.28-.31.53-.64.82-1a16.7,16.7,0,0,1,1.2-1.18,3.84,3.84,0,0,1,4.26-.58,6.43,6.43,0,0,0,1.32.45c.69.13,1.07-.17,1.17-.87A7,7,0,0,0,140.12,55.21ZM85.85,48a1.1,1.1,0,0,0-1.38.29,2.1,2.1,0,0,1-2,.49,4.81,4.81,0,0,1-2.21-1.22,29.16,29.16,0,0,1-6-7.27,2.71,2.71,0,0,1-.36-1.25c0-.8-.11-1.61-.17-2.42a4.62,4.62,0,0,0-.13-.59l-4.54,6.37a7.88,7.88,0,0,1,4.75,2c.59.49,1.22.92,1.79,1.42a25.72,25.72,0,0,1,2.06,2,16.57,16.57,0,0,1,1.64,2.18,1.61,1.61,0,0,0,1.39.8,1,1,0,0,1,1,.6c-.36.27-.31.58,0,.91a1,1,0,0,0,1.26.28c.07-.83-.82-1.08-1.08-1.71,0,0,.07-.07.1-.08,1.27-.41,2.28.24,3.31.81a.58.58,0,0,1,.2.35c.13.53.35.71.85.59a2.6,2.6,0,0,0,.8-.35c.29-.18.51-.44.36-.8s-.51-.32-.83-.28a2.35,2.35,0,0,0-.35.11c-.12,0-.26.12-.35.08-.66-.25-1.32-.51-2-.79-.28-.12-.21-.33,0-.62.82,0,1.67,0,2.53,0a8,8,0,0,1,2.33.23,3.2,3.2,0,0,0,.88,0l.07-.83a2.16,2.16,0,0,0-1.38,0,7.21,7.21,0,0,1-.92.21,18.07,18.07,0,0,1-3.82-.1c-.11,0-.23-.13-.41-.24a3.81,3.81,0,0,1,1.42-.53C85,48.61,85.57,48.63,85.85,48Zm41.35-2.44a5.07,5.07,0,0,0,2.89,4.36,3.3,3.3,0,0,0,.63.2,1.91,1.91,0,0,0,2.43-1.93,5,5,0,0,0-3-4.63A2,2,0,0,0,127.2,45.58Zm6.48-.68a4.73,4.73,0,0,0,.76,2.88,1.51,1.51,0,0,0,2.5.14,2.24,2.24,0,0,0,.35-.46,5.63,5.63,0,0,0,.36-5.08A1.81,1.81,0,0,0,136.06,41a1.89,1.89,0,0,0-1.67,1.15A5.1,5.1,0,0,0,133.68,44.9ZM127.86,54c1.77,0,2.48-1.2,1.72-2.64a3.49,3.49,0,0,0-2.05-1.68,1.85,1.85,0,0,0-2.19.54,1.94,1.94,0,0,0,0,2.33A3,3,0,0,0,127.86,54Zm15-7.63c0-1.32-.89-1.84-1.94-1.25a2,2,0,0,0-.42.3,6.45,6.45,0,0,0-1.85,2.69,2,2,0,0,0-.07,1.37c.27.85.79,1.11,1.57.71a5.06,5.06,0,0,0,2.6-3.22A4.14,4.14,0,0,0,142.85,46.39ZM26.36,42.54a1.52,1.52,0,0,0,1.29.15c.91-.33,1.82-.69,2.72-1.06a1.34,1.34,0,0,0,.35-.3c-.19-.42-.35-.83-.57-1.21a1.45,1.45,0,0,0-2.45-.36A4,4,0,0,0,26.36,42.54ZM78.24,58.47a7.89,7.89,0,0,0-3.21.05C76.13,59.43,77.19,58.83,78.24,58.47Zm58.19-18.23c0-.5.09-1-.31-1.37a1.91,1.91,0,0,0-.53,1.37Zm7.1,3.06-.19-.1a1.53,1.53,0,0,0-1,1l.74.45Zm-16.64-1.38a1.28,1.28,0,0,0,.4,1.36l.63-.53Zm-2.51,8.5.35-.67c-.4-.15-.71-.43-1.13-.26C123.78,50,123.78,50,124.38,50.42Zm-14.72,12.1-.52-.06.19.58Z" transform="translate(-1.19 -2.26)"/><path class="cls-1" d="M154.91,40.25a8.47,8.47,0,0,1,4.14-1.39.68.68,0,0,1-.55.51c-1.13.33-2.26.64-3.39,1C155.08,40.33,155,40.29,154.91,40.25Z" transform="translate(-1.19 -2.26)"/><path class="cls-1" d="M5,42.47,1.74,41.6c-.08,0-.13-.11-.27-.24.76-.26,1.24.31,1.83.39a11.42,11.42,0,0,1,1.79.52Z" transform="translate(-1.19 -2.26)"/><path class="cls-1" d="M164.69,63.69a.52.52,0,0,1-.21,0,1.06,1.06,0,0,1-.35-.09c-.94-.43-1.87-.88-2.78-1.37a4.93,4.93,0,0,1,1.92.62l1.49.62Z" transform="translate(-1.19 -2.26)"/><path class="cls-1" d="M9.7,59a3.46,3.46,0,0,1,2.42-.63A3.59,3.59,0,0,1,9.7,59Z" transform="translate(-1.19 -2.26)"/><path class="cls-1" d="M158.51,45.05a3,3,0,0,1-2.27.3A3,3,0,0,1,158.51,45.05Z" transform="translate(-1.19 -2.26)"/><path class="cls-1" d="M21.61,34.77c.23.25.46.4.5.59s-.22.38-.44.32a.77.77,0,0,1-.45-.37C21.19,35.19,21.43,35,21.61,34.77Z" transform="translate(-1.19 -2.26)"/><path class="cls-1" d="M30.39,26.81c-.24.16-.38.31-.53.33a.39.39,0,0,1-.44-.39c0-.22.21-.48.41-.41A2.75,2.75,0,0,1,30.39,26.81Z" transform="translate(-1.19 -2.26)"/><path class="cls-1" d="M153.91,37.5a.5.5,0,0,1-.57.51.45.45,0,0,1-.31-.3c0-.23.27-.45.56-.41C153.72,37.32,153.83,37.45,153.91,37.5Z" transform="translate(-1.19 -2.26)"/><path class="cls-1" d="M162.82,81.25l-1.41-1.5.11-.1L163,81.11Z" transform="translate(-1.19 -2.26)"/><path class="cls-1" d="M7.15,64.53c-.52.55-.52.55-1,.17A.61.61,0,0,1,7.15,64.53Z" transform="translate(-1.19 -2.26)"/><path class="cls-1" d="M162.92,39.69a.65.65,0,0,1-.92.14C162.38,39.27,162.46,39.26,162.92,39.69Z" transform="translate(-1.19 -2.26)"/><path class="cls-1" d="M21.93,43c-.31.15-.46.29-.6.28s-.22-.2-.32-.3c.12-.09.24-.24.37-.25S21.64,42.85,21.93,43Z" transform="translate(-1.19 -2.26)"/><path class="cls-1" d="M34.32,26.42c-.19.15-.32.33-.42.32a.44.44,0,0,1-.3-.31c0-.12.18-.29.3-.32S34.13,26.27,34.32,26.42Z" transform="translate(-1.19 -2.26)"/><path class="cls-1" d="M152.06,52.55c-.2.11-.34.23-.47.23s-.19-.16-.29-.25a1.66,1.66,0,0,1,.42-.29C151.77,52.22,151.9,52.39,152.06,52.55Z" transform="translate(-1.19 -2.26)"/><path class="cls-1" d="M2.29,24.78a2.42,2.42,0,0,1-1.1-.9,2.44,2.44,0,0,1,1.09.92Z" transform="translate(-1.19 -2.26)"/><path class="cls-1" d="M16.19,50.63c-.2.18-.3.35-.43.37s-.23-.16-.35-.25c.09-.1.16-.27.25-.29S15.94,50.55,16.19,50.63Z" transform="translate(-1.19 -2.26)"/><path class="cls-1" d="M29.43,28.05c-.15.12-.25.26-.35.26a.39.39,0,0,1-.27-.24.4.4,0,0,1,.24-.29C29.15,27.78,29.26,27.92,29.43,28.05Z" transform="translate(-1.19 -2.26)"/><path class="cls-1" d="M12.65,50.9c.21-.37.41-.37.7-.09C13.14,51.1,12.93,51.09,12.65,50.9Z" transform="translate(-1.19 -2.26)"/><path class="cls-1" d="M5.3,67.78,6,67.47C5.77,68,5.77,68,5.3,67.78Z" transform="translate(-1.19 -2.26)"/><path class="cls-1" d="M154,52.76c.29-.3.49-.3.72,0C154.52,53,154.31,53,154,52.76Z" transform="translate(-1.19 -2.26)"/><path class="cls-1" d="M160.29,60.76l-.69-.09C160,60.27,160,60.27,160.29,60.76Z" transform="translate(-1.19 -2.26)"/><path class="cls-1" d="M163.43,36.82c.25-.31.43-.47.76-.26C164.05,36.91,163.81,36.93,163.43,36.82Z" transform="translate(-1.19 -2.26)"/><path class="cls-1" d="M24,35.88c-.2.1-.32.22-.42.2s-.17-.18-.25-.27c.09-.06.19-.18.27-.17S23.85,35.76,24,35.88Z" transform="translate(-1.19 -2.26)"/><path class="cls-1" d="M18.57,49.44c-.2.11-.31.21-.43.21s-.14-.15-.21-.24c.1-.06.19-.16.29-.17S18.4,49.34,18.57,49.44Z" transform="translate(-1.19 -2.26)"/><path class="cls-1" d="M6.91,43.79c-.26.4-.47.26-.73.07C6.49,43.63,6.49,43.63,6.91,43.79Z" transform="translate(-1.19 -2.26)"/><path class="cls-1" d="M156.36,29c0,.31-.18.4-.44.34a.21.21,0,0,1-.08-.18C155.94,28.85,156.13,28.85,156.36,29Z" transform="translate(-1.19 -2.26)"/><path class="cls-1" d="M8.21,24.1a3.77,3.77,0,0,1,.43-.1s.1.14.08.18c-.12.25-.3.17-.47.1Z" transform="translate(-1.19 -2.26)"/><path class="cls-1" d="M19.17,45.55c.39-.24.39-.24.66,0C19.65,45.79,19.46,45.76,19.17,45.55Z" transform="translate(-1.19 -2.26)"/><path class="cls-1" d="M21.56,37.59c-.14.11-.24.24-.3.22a.93.93,0,0,1-.31-.22c.07-.08.15-.24.2-.23A1.47,1.47,0,0,1,21.56,37.59Z" transform="translate(-1.19 -2.26)"/><path class="cls-1" d="M155.81,45.48l-.66.09,0-.13.64-.15Z" transform="translate(-1.19 -2.26)"/><path class="cls-1" d="M19.24,46.46c-.28.3-.46.24-.67,0C18.8,46.2,19,46.29,19.24,46.46Z" transform="translate(-1.19 -2.26)"/><path class="cls-1" d="M25.34,33.66l-.46-.14c0-.1.06-.25.13-.29C25.24,33.12,25.33,33.3,25.34,33.66Z" transform="translate(-1.19 -2.26)"/><path class="cls-1" d="M154.83,37.66c.24-.07.38-.12.52-.15s.09.14.07.17C155.31,37.88,155.16,38,154.83,37.66Z" transform="translate(-1.19 -2.26)"/><path class="cls-1" d="M155.84,79.83c-.08.35-.22.44-.41.28a.15.15,0,0,1,0-.12Z" transform="translate(-1.19 -2.26)"/><path class="cls-1" d="M145,28.36c-.14.11-.21.2-.3.23s-.13-.09-.19-.14.12-.19.21-.24S144.81,28.29,145,28.36Z" transform="translate(-1.19 -2.26)"/><path class="cls-1" d="M20.72,54.1c-.13.07-.21.14-.28.14s-.13-.09-.19-.14.14-.16.22-.18S20.6,54,20.72,54.1Z" transform="translate(-1.19 -2.26)"/><path class="cls-1" d="M22.1,51.19c-.17.06-.26.12-.32.1s-.1-.12-.15-.19.12-.09.17-.08S21.94,51.09,22.1,51.19Z" transform="translate(-1.19 -2.26)"/><path class="cls-1" d="M2.28,24.8a1,1,0,0,1,.26.07c.1.06.18.15.4.33a.74.74,0,0,1-.65-.42Z" transform="translate(-1.19 -2.26)"/><path class="cls-1" d="M23.56,37.79c-.17.06-.26.12-.32.1s-.1-.12-.14-.19.12-.09.17-.08A1,1,0,0,1,23.56,37.79Z" transform="translate(-1.19 -2.26)"/><path class="cls-1" d="M157.56,41.44l-.33.14-.06-.19.35-.08Z" transform="translate(-1.19 -2.26)"/><path class="cls-1" d="M28.85,20.1a1.85,1.85,0,0,1-.27-.19s.05-.11.06-.1L29,20Z" transform="translate(-1.19 -2.26)"/><path class="cls-1" d="M3,69l.3-.1c0,.06.06.17,0,.18l-.29.1Z" transform="translate(-1.19 -2.26)"/><path d="M110.94,7.39,113.69,6a2,2,0,0,1,.34-.14c1.1-.36,1.9.17,1.87,1.32a6.94,6.94,0,0,1-1.12,3.75,9.6,9.6,0,0,1,.45,1.49,7.94,7.94,0,0,1-.08,1.45.85.85,0,0,0,.21.11,5.73,5.73,0,0,1,3.39,2.33,29.79,29.79,0,0,1,1.71,2.82,1.18,1.18,0,0,0,.79.67,13.08,13.08,0,0,1,4.23,2,9,9,0,0,1,1.4,1.29,4.88,4.88,0,0,0,1.71,1.25c1.19.51,2.41,1,3.62,1.45s2.75,1,4.08,1.66a7.42,7.42,0,0,1,1.86,1.3,2.57,2.57,0,0,1,.85,2.41c-.26-.09-.48-.16-.7-.25a9.69,9.69,0,0,0-3-.76,6.42,6.42,0,0,0-1.75.11,2.75,2.75,0,0,0-2,1.64,1.15,1.15,0,0,1-.64.64,1.58,1.58,0,0,0-.73.67c-.27.52-.14.78.54,1.38a16.9,16.9,0,0,0-.12,5.33,6.36,6.36,0,0,1-1-.26.75.75,0,0,0-1,.3,7.79,7.79,0,0,1-.58.66l-3.15-1.74-.14.1c.28,1.69.78,3.33,1.08,5.06C124,44.4,123,45.67,122,47a55.53,55.53,0,0,0-4,6.63,42,42,0,0,1-3.51,5.78,8.06,8.06,0,0,1-1.38,1.42,1.65,1.65,0,0,1-2.62-.32,10.16,10.16,0,0,1-1-1.84c-.23-.48-.1-.67.3-1a4.84,4.84,0,0,0,.81-1,27.06,27.06,0,0,0,3.1-8.53,12.75,12.75,0,0,0,.15-4.61,4.63,4.63,0,0,0-2-3.35,2.57,2.57,0,0,1-.57-.57,10.56,10.56,0,0,1-2.43-5.91,14.27,14.27,0,0,0-1.72-.53,1.63,1.63,0,0,0-1.9.94,6.48,6.48,0,0,0-.52,1.67,6.64,6.64,0,0,0,.21,3.77,1.65,1.65,0,0,1,0,.55,1.7,1.7,0,0,1,.39.28c.61.82,1.21,1.65,1.83,2.5a15.94,15.94,0,0,0-3.79,3.68c-.59.69-1.19,1.37-1.77,2.07a5.57,5.57,0,0,0-.58.93,1.12,1.12,0,0,1-1,.68c-.22,0-.43.07-.65.11a1.11,1.11,0,0,0-1,.79.9.9,0,0,1-.89.66,1.81,1.81,0,0,0-1.25.44c-.3-.74-.94-.9-1.57-1.12a4,4,0,0,1-.56.44.75.75,0,0,1-.53,0c-.08,0-.09-.3-.09-.46s.29-.47,0-.78l-.7.5a1,1,0,0,1,.36-1.23,14.49,14.49,0,0,1,4.14-2.21,2.19,2.19,0,0,0,1-.59c.91-1,1.89-1.86,2.75-2.87a14.38,14.38,0,0,0,1.64-2.43,3.28,3.28,0,0,0,.11-3.24,1.25,1.25,0,0,1-.09-.64c.08-1.3.17-2.6.28-3.89a1.32,1.32,0,0,1,.32-.62,6.39,6.39,0,0,1,.59-.51c-.1-.08-.16-.16-.23-.18a14,14,0,0,1-5.1-3.28,1.91,1.91,0,0,0-1.22-.57,13.18,13.18,0,0,1-1.88-.32,5.79,5.79,0,0,1-4.69-5.75c0-.88.08-1.76.09-2.64a2.75,2.75,0,0,0-.12-1c-.41-1.18,0-1.92,1.19-2.18a2.22,2.22,0,0,0,1-.38,5.46,5.46,0,0,1,.88-.51c0-.91,0-1.79,0-2.67a6.71,6.71,0,0,1,3-5.81,11.22,11.22,0,0,1,4.77-1.83,14,14,0,0,1,6,.29A8.62,8.62,0,0,1,110.94,7.39Zm11.33,22.37c.1-.45.1-.45-.25-.67l.26.67,1,1.81a2.58,2.58,0,0,0-.68-1.76C122.52,29.75,122.38,29.77,122.27,29.76ZM96.23,17a1.62,1.62,0,0,0,2,.19,1.64,1.64,0,0,0-.64-3,1.49,1.49,0,0,0-1.67.85,6.55,6.55,0,0,1,.94.77.73.73,0,0,1,.11.94C96.78,16.91,96.45,16.93,96.23,17ZM129,34.68c-.44-1.59-1-2.38-1.79-2.65ZM136.16,29a.54.54,0,0,0,.56-.54.54.54,0,0,0-.48-.54.64.64,0,0,0-.62.59A.56.56,0,0,0,136.16,29Zm-11.22-1.59a3.79,3.79,0,0,0,0,1.95c0,.07.16.09.24.14Zm1.15,8.45c-.17.21-.31.32-.35.46s.21.45.41.38.36-.24.34-.3A2.45,2.45,0,0,0,126.09,35.83Zm-20.51-6.39c.23.26.45.43.75.15a.34.34,0,0,0,0-.31C106.07,29.06,105.81,29,105.58,29.44Zm12-2c.15.29.28.51.58.35a.31.31,0,0,0,.06-.3C118,27.21,117.81,27.2,117.53,27.42ZM120,27a3,3,0,0,0-.42-.28s-.13.11-.19.18a2.43,2.43,0,0,0,.34.3S119.85,27.13,120,27ZM130.22,37.2l.14-.07-.35-.71-.13.06ZM113.07,25.47c.09.43.25.59.62.51Z" transform="translate(-1.19 -2.26)"/><path d="M99,125.31l4-15.08-.14-.07c-.17.26-.33.52-.49.78q-2.7,4.47-5.38,9a1.11,1.11,0,0,1-1.1.63c-2.73,0-5.45,0-8.18,0h-.76l-.67-10.36a43.22,43.22,0,0,0-1.5,5c-.46,1.68-.9,3.36-1.35,5s-.91,3.41-1.38,5.14H72.51l-.05-.08s0,0,0-.06,0-.25.06-.36l9-33.28H94.71l.92,14.16.16,0c.13-.22.27-.43.4-.64,2.58-4.29,5.18-8.57,7.73-12.88a1.35,1.35,0,0,1,1.34-.74c3.83,0,7.66,0,11.49,0h.92c-3,11.32-6,22.56-9,33.82Z" transform="translate(-1.19 -2.26)"/><path d="M50.61,42l-1.28.36-.15-.57-.57.23L44.89,38.9l-1.16,1L43.15,39l1-1.28a2.22,2.22,0,0,0,1.22-1c-.47-.09-.78-.05-.91.42a3.46,3.46,0,0,1-.3.57l-1.24.88L41.62,38c.73-.24.51-1,.83-1.46a3.59,3.59,0,0,0-1.23,1.39c-1.89,0-2.9,1.1-3.46,2.77,0,0-.12,0-.14,0a2.83,2.83,0,0,0-2.29-1.11,1.66,1.66,0,0,1-.42-.12c-.3-.1-.39-.27-.35-.61.09-.85.12-1.7.17-2.55a.62.62,0,0,0-.12-.35A2.79,2.79,0,0,1,34,33.62s0-.07-.14-.18a2.63,2.63,0,0,0-.09.44c0,.48.08,1,.07,1.45a.59.59,0,0,1-.28.45,3.24,3.24,0,0,1-.77.21c-.41.09-.58.3-.49.59a.59.59,0,0,0,.76.38c.16-.06.29-.18.45-.26.35-.16.56-.05.63.32a2.12,2.12,0,0,1-1.72,2.39,8,8,0,0,0-1.13.35,14,14,0,0,1,1-6.16,3.87,3.87,0,0,1,3.51-2.18,12,12,0,0,1,7.61,2l.49.34a1.81,1.81,0,0,0-.74-1.3,9.49,9.49,0,0,0-2.87-1.62L39.1,30.4c.23-.35.23-.85.9-.61a.62.62,0,0,1,.26-.81A26.28,26.28,0,0,1,43,27.48c1.76-.73,3.59-1.33,5.37-2a15.92,15.92,0,0,0,2.33-1.08,11.29,11.29,0,0,0,1.52-1.26,17.62,17.62,0,0,1,1.61-1.39,15.16,15.16,0,0,1,5-2.21,1.23,1.23,0,0,0,.82-.54,14.19,14.19,0,0,1,4-3.76,3.39,3.39,0,0,0,.51-.41A5.62,5.62,0,0,1,67.9,13a1.46,1.46,0,0,0,.2,0,7.07,7.07,0,0,1,.48-1.08,6.12,6.12,0,0,1,1-1.15,1.68,1.68,0,0,1,1.6-.27c.82.23,1.66.36,2.47.53a10.85,10.85,0,0,1,.62-1.4,1.55,1.55,0,0,1,2-.77,4,4,0,0,0,2.45,0,6.87,6.87,0,0,1,2-.37c2.48-.17,3.51,1.48,3.6,3.34A13.32,13.32,0,0,1,83.78,16a35.48,35.48,0,0,1-4.45,10.21,4.14,4.14,0,0,1-.76.93c0-.13.07-.27.12-.41.34-1,.71-2,1-3a4.21,4.21,0,0,0,.11-1.23c0-.57-.23-.84-.79-.87a4.17,4.17,0,0,0-1.66.18,11.33,11.33,0,0,0-2.57,1.25c-1.67,1.17-3.27,2.42-4.85,3.7-2.2,1.78-4.31,3.66-6.52,5.41a23.48,23.48,0,0,1-3.16,2,4.45,4.45,0,0,1-3.06.53,10.21,10.21,0,0,0-1.76,0L55,36.78,53.16,37a1.2,1.2,0,0,0-.4.18,1.22,1.22,0,0,0,0,2.26,8.4,8.4,0,0,0,.8.36c-.06.59-.63.61-.91.91a8.78,8.78,0,0,1-1,.78,8.91,8.91,0,0,0,3.79-.78,5.18,5.18,0,0,1,.17.53,50.28,50.28,0,0,0,3,10.61,5.67,5.67,0,0,0,1.28,1.86,10.92,10.92,0,0,0,3,2.14,22.72,22.72,0,0,0,7.82,2.19c.85.08,1.71.11,2.57.17l.65.07a1.35,1.35,0,0,0-.6,1.08,2,2,0,0,1-.66,1,15.57,15.57,0,0,1-1.46,1.23,1.18,1.18,0,0,1-.47.15A11.33,11.33,0,0,1,67,61.7a39.19,39.19,0,0,1-9.54-2.93,1.84,1.84,0,0,1-.89-1.32c-.16-.72-.31-1.44-.49-2.16a12.55,12.55,0,0,1-.48-1.77,2.79,2.79,0,0,0-.37-1,11,11,0,0,1-.44-1c-.92.32-1.79.58-2.63.91a2.12,2.12,0,0,1-1.84-.1,6,6,0,0,0-2.34-.59,4,4,0,0,1-1.13-.28c.46-.4.84-.81,1.54-.63a20.51,20.51,0,0,0,6.17.46,3.43,3.43,0,0,0-.62-1.4c-.25-.45-.54-.88-.83-1.37a3.27,3.27,0,0,0,.74-2.66,2.63,2.63,0,0,0-2-2c.59-.53,1.14-1.06,1.73-1.55a2,2,0,0,1,.74-.3c.36-.11.36-.1.67-.53a.51.51,0,0,0-.72,0,3.5,3.5,0,0,1-1.46.8,6.21,6.21,0,0,0-.74.34c-.43.22-.88.44-.8,1a.51.51,0,0,1-.69-.32,3.57,3.57,0,0,0-.7.19c-.45-.56-.44-.56.15-1A7.27,7.27,0,0,0,50.6,42l.62-.22-.09-.16Zm27.6-28.48a3.13,3.13,0,0,0-3.85-1.67,3.36,3.36,0,0,0-2.21,3.79,3.28,3.28,0,0,0,3.21,2.62,3.18,3.18,0,0,0,3.08-2.79,5.39,5.39,0,0,1-.5.6.73.73,0,0,1-.8.21.84.84,0,0,1-.46-.78A1.87,1.87,0,0,1,78.21,13.54ZM48.5,34.48A1.52,1.52,0,0,0,50,33.65a.51.51,0,0,0-.19-.69,1.31,1.31,0,0,0-1.75.34c-.16.24-.34.53-.12.8A1.83,1.83,0,0,0,48.5,34.48ZM52,29c-.2-.14-.37-.33-.44-.29a2.85,2.85,0,0,0-.75.49s.07.39.14.4a1,1,0,0,0,.59-.08C51.72,29.39,51.82,29.19,52,29Zm-3.77,6.55a1.48,1.48,0,0,0-.47-.24c-.25,0-.64.29-.61.5s.21.35.46.35A.65.65,0,0,0,48.24,35.52Zm-1,1.27c-.11-.08-.19-.19-.25-.18a1.74,1.74,0,0,0-.49.2s0,.25,0,.25A2.39,2.39,0,0,0,47,37S47.11,36.93,47.22,36.79Zm-.49-1.22c-.43.11-.82.25-.89.79ZM44.12,32a4.44,4.44,0,0,0,.34-.48s-.15-.19-.24-.21-.47.2-.41.39S44,31.83,44.12,32Zm6.13,4.53.11-.13-.47-.59-.43.4Zm5.82-2.62c.21.17.38.24.53,0a.3.3,0,0,0-.06-.29C56.31,33.48,56.18,33.62,56.07,33.88Zm-4.84,3.93a.31.31,0,0,0,.53-.14s0-.16-.1-.18C51.39,37.41,51.24,37.51,51.23,37.81Zm-6.9-9.14c-.13-.07-.24-.17-.27-.15a3.22,3.22,0,0,0-.24.28c.08,0,.16.13.22.11S44.2,28.78,44.33,28.67Zm-1.56,2.07-.22,0a.75.75,0,0,0-.08.27c0,.07.12.19.16.18a.36.36,0,0,0,.24-.17C42.89,30.93,42.81,30.82,42.77,30.74Zm4.51,4.1a2.33,2.33,0,0,0-.19.27s.07.1.11.15a2.5,2.5,0,0,0,.24-.22S47.37,34.94,47.28,34.84Z" transform="translate(-1.19 -2.26)"/><path d="M74.17,91.55c-1,11.28-2,22.5-3,33.77H55.45l4.27-9.63h2.6l1-10.33a3.16,3.16,0,0,0-.28.38,3.36,3.36,0,0,0-.16.33q-4,9-8.07,18.07c-.67,1.49-.23,1.2-1.84,1.21-2.48,0-5,0-7.44,0h-.93l15.1-33.81Z" transform="translate(-1.19 -2.26)"/><path d="M137.36,103.57l-4.4,9.7H122.7l-.67,2.41h9.62c-.11.29-.18.5-.27.69-1.26,2.79-2.54,5.58-3.78,8.38a.87.87,0,0,1-.93.62c-5.38,0-10.75,0-16.13,0l-.74,0c3-11.28,6-22.5,9.08-33.75h24a3.31,3.31,0,0,1-.12.45c-1.31,2.88-2.64,5.76-3.93,8.65a.81.81,0,0,1-.91.51c-3.69,0-7.37,0-11.05,0h-1l-.68,2.4Z" transform="translate(-1.19 -2.26)"/><path d="M43.42,125.33H25.3L24.61,124c-.47-1-.92-1.95-1.42-2.91a1.42,1.42,0,0,1-.11-1.12q2-7.49,4-15c.71-2.65,1.43-5.3,2.13-8a2.31,2.31,0,0,1,.65-1.12c1.36-1.32,2.7-2.65,4-4a1.16,1.16,0,0,1,.9-.39H51.92c.15,0,.29,0,.55,0l-2.57,9.57H37.81L33.92,115.6a15.83,15.83,0,0,0,2.39.08l2-7.19h9.66C46.44,114.11,44.93,119.7,43.42,125.33Z" transform="translate(-1.19 -2.26)"/><path d="M137.67,115.68h12.07l.35-1.21L140,107.24c.05-.24.08-.47.15-.7l2.58-9.6a2,2,0,0,1,.56-1c1.39-1.35,2.77-2.72,4.15-4.08a1,1,0,0,1,.76-.36h17.38a1.46,1.46,0,0,1,.22,0,98.08,98.08,0,0,1-2.52,9.61h-12l-.36,1.23L161,109.62c-.14.56-.27,1.08-.41,1.6-.77,2.86-1.55,5.73-2.31,8.6a2.55,2.55,0,0,1-.73,1.23c-1.33,1.27-2.63,2.57-3.93,3.88a1.3,1.3,0,0,1-1,.43c-5.6,0-11.2,0-16.8,0-.19,0-.39,0-.7,0C135.94,122.07,136.82,118.9,137.67,115.68Z" transform="translate(-1.19 -2.26)"/><path d="M107.11,62.28c-.15.17-.33.33-.47.51a2.19,2.19,0,0,0-.54,1.84,2.84,2.84,0,0,1-.14,1l.35-.1a2.29,2.29,0,0,1,.6-.18,2,2,0,0,0,1.23-.4.82.82,0,0,1,.65-.26c.27,0,.47-.14.23-.47,0-.08,0-.23,0-.37a5.36,5.36,0,0,1,.57.94,3.51,3.51,0,0,1,.12.94c.5,0,.2-.84.81-.82,0,.15,0,.29-.06.42q-2,7.6-4.06,15.21c-.07.27-.13.55-.49.66a1.17,1.17,0,0,0-.51.5c-.27.43-.17.64.37.89-.11.13-.21.26-.32.37-1.13,1.1-2.25,2.19-3.37,3.3a1,1,0,0,1-.77.33H85.05c-.1,0-.19,0-.4,0q3.76-14.08,7.49-28.09h13.35l0,.13-1,.39c.35.41,1,0,1.21.57-.78.36-1.79.22-2.44,1,.59.6,1.16,0,1.77.12-.15.35-.31.6-.71.6s-.58.2-.82.61l1.1-.15-.69.58c0,.07.07.13.09.13a7.66,7.66,0,0,1,1.51.09A5.41,5.41,0,0,0,107.11,62.28Zm-9,4.13c-1.07,4-2.17,8-3.2,12.06h4l3.19-12.06Z" transform="translate(-1.19 -2.26)"/><path d="M74.54,64A.79.79,0,0,0,74,65.09c.24.64.54,1.23,1.3,1.36.38.06.66-.13.63-.52a3.05,3.05,0,0,0-.32-1.18c-.34-.7-.74-1.37-1.13-2.07a.71.71,0,0,1,1,0c.47.36,1,.69,1.45,1a2,2,0,0,1,.93,1.06,2.21,2.21,0,0,0,2.31,1.09.58.58,0,0,0,.38-1A2,2,0,0,0,79.09,64a5.1,5.1,0,0,1-2.87-1.68c.34-.25.65-.48,1-.68a.71.71,0,0,1,.35-.07c1,.07,2,.12,2.94.24a5.12,5.12,0,0,1,1.25.37,3,3,0,0,0,1.67.14c.31-.07.62-.2.69-.58s-.19-.59-.47-.76a2.05,2.05,0,0,0-2.73.33,8.77,8.77,0,0,1-3.43-.7c-.37-.13-.61-.65-1-1a3.7,3.7,0,0,1,2.22-.52c.63,0,1.17,0,1.57-.57a.52.52,0,0,1,.38-.13c3.1,0,6.19,0,9.28,0,0,0,.09,0,.2.09-.69,2.61-1.39,5.23-2.11,7.91H78c-1.08,4-2.15,8-3.23,12.09h2c.53-2,1.08-4,1.63-6h8l-3.75,14H67.51c-.6-1.25-1.22-2.5-1.79-3.77a1.41,1.41,0,0,1,0-.78Q68,73.48,70.29,65c.2-.75.39-1.52.62-2.27a5.55,5.55,0,0,1,.41-.8,3.13,3.13,0,0,0,2.52.72Z" transform="translate(-1.19 -2.26)"/><path d="M147.05,65a13.86,13.86,0,0,1-1.79-2.27c-.75-1-1.74-1.77-2.58-2.69a14.18,14.18,0,0,1-1.07-1.49,76.34,76.34,0,0,1,9-.08l-2.13,8H146.8c-1.3,0-2.6,0-3.9,0a6,6,0,0,1-.85-.13c-.08,0-.16-.06-.22,0a11.14,11.14,0,0,1-3.05.18l-.37,0q-1.6,6-3.21,12a4.4,4.4,0,0,0,2,.07l1.62-6h8.05c-1.26,4.69-2.51,9.34-3.76,14H128c-.27-.56-.57-1.15-.85-1.74a7.83,7.83,0,0,1-1-2.28,7.54,7.54,0,0,1,.54-2.34q1.92-7.17,3.85-14.35c.07-.25.16-.5.26-.84a3.58,3.58,0,0,1,.59,2.53.79.79,0,0,0,.13-.26c0-.51,0-1,.1-1.53a.65.65,0,0,1,.32-.42,3,3,0,0,1,.79-.12c.42,0,.62-.2.59-.49a.64.64,0,0,0-.76-.52,1.61,1.61,0,0,0-.33.15c-.52.2-.71,0-.7-.52a2.14,2.14,0,0,1,2.09-2c.84,0,.86,0,1.1-.9a1.55,1.55,0,0,1,1.1-1c1-.33,2.08-.55,3.13-.79a1.31,1.31,0,0,1,.64.1c.69.26,1.38.53,2.06.81a5.43,5.43,0,0,1,2,1.65,1.51,1.51,0,0,1,.44,1.34c-.11.47.17.77.69.88a1.77,1.77,0,0,1,1.33.8c.13.24.5.34.76.5Zm-14.17,3.09a3.75,3.75,0,0,0-.15.52c-.07.68-.12,1.36-.18,2a4.87,4.87,0,0,1-.19,1.23,2.29,2.29,0,0,0,0,1.85,7.52,7.52,0,0,1,.54,2.56,1.2,1.2,0,0,0,.55,1.05,1,1,0,0,1,.41,1.22c0,.07-.09.15-.07.2s.12.34.23.39a.46.46,0,0,0,.42-.13.67.67,0,0,0,.05-.87c-.17-.32-.3-.66-.45-1a3,3,0,0,0-.44-.9,1.77,1.77,0,0,1-.49-1.54c0-.61.08-1.21.1-1.82s0-1.37,0-2,0-1.42,0-2.13C133.27,68.44,133.27,68.17,132.88,68.05Zm9.35-6.66a2.25,2.25,0,0,0-.34-.9,1.42,1.42,0,0,0-1.61-.34.82.82,0,0,0-.41,1.3l.38.54a1.2,1.2,0,0,0,1.35.49C142.12,62.31,142.2,61.91,142.23,61.39Zm-3.13,4.16c.56-.46.62-.61.4-1s-.68-.47-1.47-.09C138.14,65.25,138.2,65.31,139.1,65.55Zm-2.21-3.87c.44-.15.9-.21,1-.71,0-.14-.27-.37-.46-.46a.63.63,0,0,0-.83.25C136.29,61.16,136.66,61.36,136.89,61.68Zm-5.54,11.11-.59-.41c-.06,0-.11-.12-.17-.12a1.39,1.39,0,0,0-.46.09s-.09.18-.07.25C130.13,72.85,130.88,73.09,131.35,72.79Zm3.22,1.39c-.19.25-.38.4-.37.52a.69.69,0,0,0,.33.46.34.34,0,0,0,.45-.32C135,74.65,134.76,74.47,134.57,74.18ZM145,59.93l.42-.33c-.12-.12-.23-.3-.37-.34a.28.28,0,0,0-.38.3C144.71,59.68,144.88,59.78,145,59.93ZM130.46,74.12c-.14.23-.27.36-.27.49s.15.2.23.3c.12-.1.31-.19.33-.3S130.61,74.35,130.46,74.12Zm5.4-.51c-.12-.15-.2-.31-.3-.32s-.22.12-.33.19c.09.12.15.28.27.34S135.7,73.7,135.86,73.61Zm8.65-9c-.11.13-.25.25-.23.28a.65.65,0,0,0,.29.28s.22-.16.21-.2S144.63,64.81,144.51,64.66ZM134.92,82c.05-.13.11-.22.09-.26a.92.92,0,0,0-.22-.22s-.1.07-.15.11Zm7.8-17.5c-.12,0-.2-.12-.27-.11s-.09.12-.13.19a.75.75,0,0,0,.24.08S142.64,64.61,142.72,64.53Z" transform="translate(-1.19 -2.26)"/><path d="M27.35,76.48H18.82c-.89,3.34-1.79,6.67-2.69,10h-8l7.54-28.11c.22,0,.38,0,.55,0,1.77,0,3.54,0,5.3,0,1.14,0,2.28-.06,3.41,0a1.16,1.16,0,0,1,.79.28,3.89,3.89,0,0,0,1,.54c.4.17.76.34.83.81.8,0,1.45.59,1.27,1.33a.78.78,0,0,1,1.06-.18c.65.28,1.32.52,2,.8a2.44,2.44,0,0,1,.4.35,8.35,8.35,0,0,0-.93,3.12,17.36,17.36,0,0,0,.8-1.84,4.1,4.1,0,0,1,2.43-2.61c-.26.6-.45,1.07-.66,1.53-.5,1.12-1,2.23-1.51,3.36a.83.83,0,0,1-.94.58c-3,0-6,0-9,0h-.9l-.55,2h7.84c.28,0,.58-.07.83.19.07.08.34,0,.52,0s.48-.13.89-.23l-.87,2c-.2,0-.44-.12-.55-.05a2.41,2.41,0,0,0-.72.7,7.29,7.29,0,0,0-1,2.75,2.31,2.31,0,0,1-.57,1.46C27,75.51,27.11,76,27.35,76.48Zm-2-15.28a4.26,4.26,0,0,1,.13-.64c.09-.21.1-.37-.12-.48a.43.43,0,0,0-.58.28,7.32,7.32,0,0,0-.14.79l.73,0c-.7.78-.6,1.21.36,1.43.14.83.64,1.12,1.27.75.44-.26.49-.61.11-.94a4.63,4.63,0,0,0-.46-.31c.34-.79.3-.86-.66-1.23.24-.22.44-.42.66-.6s.43-.33.65-.49l-.07-.14c-.12,0-.27,0-.35.08C26.41,60.21,25.91,60.71,25.4,61.2Zm4.68,3.74a.64.64,0,0,0-.71-.49.69.69,0,0,0-.63.67.56.56,0,0,0,.61.49C29.73,65.58,30.1,65.25,30.08,64.94ZM17.83,61.26c.53-.13,1.15-.11,1.46-.83A2.25,2.25,0,0,0,17.83,61.26Zm-.44,1c-.41,0-.71.21-.71.43s.17.32.38.33.62-.21.58-.42S17.44,62.29,17.39,62.22Zm-1.45,3c-.37,0-.68.24-.63.47a.44.44,0,0,0,.27.28c.26.06.6-.18.57-.42S16,65.27,15.94,65.19Zm-2.11,9.07c.21.4.39.29.54.11s0-.16,0-.25Zm11.91-.71-.15-.18a2.2,2.2,0,0,0-.28.24s.07.11.11.17ZM14.26,65.66c-.19-.13-.36-.12-.47.09a.19.19,0,0,0,.08.17C14.09,66,14.23,65.91,14.26,65.66Zm9.63-2.82a.34.34,0,0,0,.49-.21s0-.08-.05-.18Zm7.39,2.84-.1-.08-.22.28.1.08Zm-16.77-.59c-.08-.07-.14-.16-.18-.15a.65.65,0,0,0-.2.15c0,.06.11.17.16.17S14.43,65.16,14.51,65.09Z" transform="translate(-1.19 -2.26)"/><path d="M34.32,63.39h1a1,1,0,0,0,.61,1c.55.2.86-.19,1.24-.46L37,63.36l1.65.14L39,64l.09,0-.24-.51h3.34l.65.59.47-.59a.54.54,0,0,1,.19,0c.9,0,1.8.08,2.71.09a13.22,13.22,0,0,0,1.66-.11.69.69,0,0,1,.78.5c.28.63.61,1.23.89,1.86.15.33.25.68.41,1.14-.81,3-1.64,6.16-2.5,9.31A2,2,0,0,1,47,77q-1.26,1.29-2.58,2.52a.92.92,0,0,0-.32,1c.46,1.83.87,3.68,1.29,5.52,0,.14,0,.28.07.47H38.89L37.35,80l-.81,0-1.75,6.49a48.25,48.25,0,0,1-6.62,0C30.22,78.78,32.26,71.11,34.32,63.39Zm7.32,9.87L42.5,70H39.19l-.85,3.23Zm-2.49-6.53a.75.75,0,0,0-.77-.79,1.38,1.38,0,0,0-1.26,1.2.9.9,0,0,0,.94.83A1.19,1.19,0,0,0,39.15,66.73ZM42.07,68l.12-.14L40.3,65.64l-.13.11C40.72,66.56,41.08,67.53,42.07,68ZM33.8,73.08a.67.67,0,0,0,.6-.62.51.51,0,0,0-.55-.45.59.59,0,0,0-.56.56A.56.56,0,0,0,33.8,73.08Zm13.88-3-1.54-2.21A3.22,3.22,0,0,0,47.68,70.05Zm-3.2.19L45,72.18C45,70.57,44.9,70.3,44.48,70.24Zm-9.63-.46.11-.19c-.1,0-.21-.12-.31-.11s-.17.11-.25.18.1.18.17.19S34.76,69.81,34.85,69.78Z" transform="translate(-1.19 -2.26)"/><path d="M50.47,72a3,3,0,0,1,0-.78c.35-1.4.73-2.8,1.09-4.2.16-.6.69-.86,1.1-1.37.35.3.67.54,1,.83a.8.8,0,0,0,.92.15L53,65.38c.65-.65,1.24-1.27,1.86-1.86a.72.72,0,0,1,.46-.14c3.74,0,7.47,0,11.2,0l.14.06c.47,1,1,2,1.43,3a1.2,1.2,0,0,1,0,.77q-1.5,5.73-3,11.44c-.36,1.35-.74,2.7-1.08,4a1.9,1.9,0,0,1-.54.94c-.89.84-1.76,1.7-2.63,2.57a1,1,0,0,1-.77.34H49l-.23,0c-.47-1-1-2-1.45-3a1,1,0,0,1,0-.57Q48.67,77.79,50,72.71A2.88,2.88,0,0,1,50.47,72Zm4.27,7.8a11.57,11.57,0,0,0,3.34,0L60.68,70H57.37l-.59,2.11-.5,0c.44.26.37.59.26,1-.4,1.41-.77,2.83-1.15,4.25C55.17,78.17,55,79,54.74,79.83Zm9-12c-.17-.3-.41-.38-.69-.14a.36.36,0,0,0,0,.35C63.39,68.25,63.65,68.26,63.79,67.86ZM51.56,71.11c.18.36.38.49.72.17C52.1,70.91,51.9,70.78,51.56,71.11Zm4.09.42-.08.1.36.24,0-.08Z" transform="translate(-1.19 -2.26)"/><path d="M109.22,86.5c-.48-1-1-2-1.43-3a1.43,1.43,0,0,1,0-.84q1.1-4.16,2.22-8.31c.62-2.32,1.25-4.64,1.85-7a2.44,2.44,0,0,1,.69-1.18c.8-.76,1.59-1.53,2.35-2.34a1.32,1.32,0,0,1,1.15-.47c.34,0,.69,0,.87,0,.32.27.49.55.72.6.39.09.61-.23.75-.56h.86l-.64.49c.15,0,.24,0,.28,0a3.1,3.1,0,0,1,2.29-.53c.65.05,1.31.12,2,.11,1,0,2-.07,3.07-.11H127c.51,1,1,2.06,1.49,3.1a1.36,1.36,0,0,1-.05.79q-1.53,5.79-3.09,11.57c-.35,1.33-.7,2.65-1.07,4a1.82,1.82,0,0,1-.43.75c-.87.89-1.79,1.74-2.67,2.63a1.12,1.12,0,0,1-.84.36H109.64Zm9.28-6.61c.88-3.3,1.74-6.56,2.62-9.87H117.8c-.87,3.27-1.75,6.54-2.64,9.87Zm-2.6-13.53c.63,0,1.08-.14,1.34-.61a.67.67,0,0,0-.35-1,1.49,1.49,0,0,0-1.69.57.52.52,0,0,0,.13.77A3,3,0,0,0,115.9,66.36ZM114,69.63c-.1-.15-.14-.28-.2-.3a1.18,1.18,0,0,0-.62,0,1.07,1.07,0,0,0-.38.47.31.31,0,0,0,.09.25,1.43,1.43,0,0,0,.62,0A2.16,2.16,0,0,0,114,69.63Zm6.37-1.4c.23.11.38.24.45.21a1.8,1.8,0,0,0,.37-.36c-.11-.08-.24-.24-.32-.21A1.92,1.92,0,0,0,120.36,68.23Zm1.88.43c-.09.1-.21.19-.2.21a.52.52,0,0,0,.22.22s.13-.09.2-.14Zm2.6,1.8c0,.09-.1.18-.09.2a.86.86,0,0,0,.22.15s.11-.13.1-.15A1.22,1.22,0,0,0,124.84,70.46ZM118,64.23l-.07.14c.06,0,.14.07.2,0a1.38,1.38,0,0,0,.25-.17s-.08-.14-.1-.14A2.36,2.36,0,0,0,118,64.23Z" transform="translate(-1.19 -2.26)"/><path d="M141.07,42c-.11-.1-.22-.28-.34-.29-.55-.06-.75-.51-1-.89-.05-.08.05-.25.1-.48a.8.8,0,0,1-1,0c-.35-.22-.76-.34-1.13-.53-1.06-.57-1.21-1.1-.49-2a1.93,1.93,0,0,0,.44-1,5.73,5.73,0,0,0,.25-.91c-.33.53-.69,1.06-1,1.6s-.28.94-.94,1c-.17,0-.38.31-.46.52a1.37,1.37,0,0,1-.73.67,5.73,5.73,0,0,1-2.15.47c-.62,0-.89-.23-.89-.85s0-1.47.06-2.38a5.2,5.2,0,0,0,.41.49.91.91,0,0,0,1,.14.61.61,0,0,0,.15-1.07.88.88,0,0,0-1-.16l-.49.23a8.3,8.3,0,0,1,1.45-4.4,1.63,1.63,0,0,1,1.75-.8.23.23,0,0,0,.2,0c.39-.41.89-.25,1.32-.18a16.84,16.84,0,0,1,2.43.58,17.82,17.82,0,0,1,5,2.69,7.07,7.07,0,0,1,1.22,1.34c.33.43,1,.62,1.4,1a7.54,7.54,0,0,1,1.9,2.93c.12.27.22.54.35.84a2.15,2.15,0,0,1,1.88,1.05c-.47.23-1.06.14-1.39.71.61.1,1-.24,1.56-.43a3.48,3.48,0,0,1,.28.39,3.91,3.91,0,0,1,0,3.85c-.09.16-.09.38-.19.53a1.75,1.75,0,0,1-1.8.92l-.25.62a6.93,6.93,0,0,1-2,2.87.86.86,0,0,0-.37.59c-.07.62-.31.88-.92.94a13.33,13.33,0,0,1-1.57,0,2.08,2.08,0,0,0,.43-1.8,3.1,3.1,0,0,0-.27-1,.6.6,0,0,1,0-.8,5.25,5.25,0,0,0,1-1.66,3.1,3.1,0,0,1,.42-.55,5.12,5.12,0,0,1-1-.54,2.36,2.36,0,0,1-.73-.94,4,4,0,0,1-.1-1.3,5.72,5.72,0,0,1,.11-.57.6.6,0,0,0-.92-.62,2.61,2.61,0,0,0-.45.31c-.44-.4-1.16-.41-1.45-1a1.82,1.82,0,0,0,.59-.14c.54-.33,1.06-.69,1.58-1a1.86,1.86,0,0,1-.19.46c-.15.21-.21.39,0,.55a.45.45,0,0,0,.64-.28,4.87,4.87,0,0,0,.16-.6c-.2-.24-.41-.3-.65-.12l.16-.24c.57-.84.53-1-.38-1.37,0-.84-.41-1.15-1.11-.91s-.67.61-.21,1c.1.09.23.17.34.25-.44.82-.44.82.49,1.35-.25.18-.47.36-.71.52S141.32,41.88,141.07,42Zm-2.52-7.32a3.49,3.49,0,0,0,1.31-1.31.6.6,0,0,0,0-.52c-.16-.24-.4-.09-.57,0a1,1,0,0,0-.35.37C138.82,33.71,138.71,34.16,138.55,34.7Zm1.25,1.24c-.43,0-.79.27-.79.6a.61.61,0,0,0,.67.53.63.63,0,0,0,.69-.6A.51.51,0,0,0,139.8,35.94Zm4.41,3.75c.51-.12.51-.12.63-.51Zm3.41,8.88c-.12-.07-.2-.15-.27-.15s-.13.09-.2.14.14.17.22.19S147.5,48.66,147.62,48.57Zm.23-2,0,.12.45-.11,0-.15Zm-1.5-2.52c-.19-.07-.28-.14-.34-.12s-.1.12-.15.19a.48.48,0,0,0,.18.08A1.29,1.29,0,0,0,146.35,44.09Zm3.24,2.26,0,.09.34-.11-.05-.13Zm-3.8,5.1,0-.13-.32-.11s0,.11-.07.17Z" transform="translate(-1.19 -2.26)"/><path d="M40,51l2.53,1c.79-.54,1.75-1.17,2.67-1.85a2.37,2.37,0,0,0,.52-.71c.29-.43.55-.87.84-1.3a6.91,6.91,0,0,0,.83-1.45,3.67,3.67,0,0,1,4.26-1.91,1.79,1.79,0,0,1,1.14,2.53,3.72,3.72,0,0,1-3.77,2,1.7,1.7,0,0,0-1.3.29,16.55,16.55,0,0,0-3.94,3.28,1.25,1.25,0,0,0-.36,1.26,6.88,6.88,0,0,1,.15,1h.69c1.23,0,2.45,0,3.68,0a.74.74,0,0,0,.64-.24,2.28,2.28,0,0,1,2.2-.75,8.25,8.25,0,0,1,1.82.53,1.2,1.2,0,0,1,.82,1.2A1.42,1.42,0,0,1,52.55,57a3.43,3.43,0,0,1-3.77-.57A1.66,1.66,0,0,0,47.55,56a6.93,6.93,0,0,0-3.84.77,1.66,1.66,0,0,0-.85.84,5.74,5.74,0,0,1-1.77,2.14c-.78.63-1.38.47-1.81-.45a8.12,8.12,0,0,1-.4-1.11,3.7,3.7,0,0,0-3.15-2.73A23.31,23.31,0,0,0,33,55.29c-1.17,0-1.36-.27-1-1.38a2.35,2.35,0,0,1,.89-1.31,1.7,1.7,0,0,0,.63-.94,3.74,3.74,0,0,0-.11-2.79,14.49,14.49,0,0,1-.67-2.18,1.06,1.06,0,0,0-.43-.64A3.07,3.07,0,0,1,31,44.13,2,2,0,0,1,31.85,42a1.89,1.89,0,0,1,2.25.27A3.68,3.68,0,0,1,35.32,44a2,2,0,0,1-1.14,2.69,8.07,8.07,0,0,0,1.06,3.47,1.35,1.35,0,0,0,1.28.83,16.49,16.49,0,0,1,1.33-1.78A4.12,4.12,0,0,0,39,46.43c0-.68.12-1.37.12-2a1.71,1.71,0,0,0-.22-.75,4,4,0,0,1-.08-3.22,3.2,3.2,0,0,1,.44-.76,1.93,1.93,0,0,1,3.32.13,3.67,3.67,0,0,1-.95,5,1.14,1.14,0,0,0-.32.3A7,7,0,0,0,40,48.6C40,49.43,40,50.26,40,51Z" transform="translate(-1.19 -2.26)"/><path d="M140.12,55.21a7,7,0,0,1-.05.8c-.1.7-.48,1-1.17.87a6.43,6.43,0,0,1-1.32-.45,3.84,3.84,0,0,0-4.26.58,16.7,16.7,0,0,0-1.2,1.18c-.29.31-.54.64-.82,1-.63.67-.87.65-1.45-.06a2.53,2.53,0,0,1-.47-2.36,7.48,7.48,0,0,1,.8-2c.71-1.14,1.52-2.22,2.3-3.32a3.24,3.24,0,0,1,.4-.43,3.55,3.55,0,0,1,5.45.05A5.94,5.94,0,0,1,140.12,55.21Z" transform="translate(-1.19 -2.26)"/><path d="M85.85,48c-.28.61-.81.59-1.27.7a3.81,3.81,0,0,0-1.42.53c.18.11.3.23.41.24a18.07,18.07,0,0,0,3.82.1,7.21,7.21,0,0,0,.92-.21,2.16,2.16,0,0,1,1.38,0l-.07.83a3.2,3.2,0,0,1-.88,0A8,8,0,0,0,86.41,50c-.86,0-1.71,0-2.53,0-.17.29-.24.5,0,.62.66.28,1.32.54,2,.79.09,0,.23,0,.35-.08a2.35,2.35,0,0,1,.35-.11c.32,0,.67-.08.83.28s-.07.62-.36.8a2.6,2.6,0,0,1-.8.35c-.5.12-.72-.06-.85-.59a.58.58,0,0,0-.2-.35c-1-.57-2-1.22-3.31-.81,0,0-.06,0-.1.08.26.63,1.15.88,1.08,1.71a1,1,0,0,1-1.26-.28c-.29-.33-.34-.64,0-.91a1,1,0,0,0-1-.6,1.61,1.61,0,0,1-1.39-.8,16.57,16.57,0,0,0-1.64-2.18,25.72,25.72,0,0,0-2.06-2c-.57-.5-1.2-.93-1.79-1.42a7.88,7.88,0,0,0-4.75-2l4.54-6.37a4.62,4.62,0,0,1,.13.59c.06.81.14,1.62.17,2.42a2.71,2.71,0,0,0,.36,1.25,29.16,29.16,0,0,0,6,7.27,4.81,4.81,0,0,0,2.21,1.22,2.1,2.1,0,0,0,2-.49A1.1,1.1,0,0,1,85.85,48Z" transform="translate(-1.19 -2.26)"/><path d="M127.2,45.58a2,2,0,0,1,2.93-2,5,5,0,0,1,3,4.63,1.91,1.91,0,0,1-2.43,1.93,3.3,3.3,0,0,1-.63-.2A5.07,5.07,0,0,1,127.2,45.58Z" transform="translate(-1.19 -2.26)"/><path d="M133.68,44.9a5.1,5.1,0,0,1,.71-2.71A1.89,1.89,0,0,1,136.06,41a1.81,1.81,0,0,1,1.59,1.34,5.63,5.63,0,0,1-.36,5.08,2.24,2.24,0,0,1-.35.46,1.51,1.51,0,0,1-2.5-.14A4.73,4.73,0,0,1,133.68,44.9Z" transform="translate(-1.19 -2.26)"/><path d="M127.86,54a3,3,0,0,1-2.57-1.45,1.94,1.94,0,0,1,0-2.33,1.85,1.85,0,0,1,2.19-.54,3.49,3.49,0,0,1,2.05,1.68C130.34,52.82,129.63,54,127.86,54Z" transform="translate(-1.19 -2.26)"/><path d="M142.85,46.39a4.14,4.14,0,0,1-.11.6,5.06,5.06,0,0,1-2.6,3.22c-.78.4-1.3.14-1.57-.71a2,2,0,0,1,.07-1.37,6.45,6.45,0,0,1,1.85-2.69,2,2,0,0,1,.42-.3C142,44.55,142.85,45.07,142.85,46.39Z" transform="translate(-1.19 -2.26)"/><path d="M26.36,42.54a4,4,0,0,1,1.34-2.78,1.45,1.45,0,0,1,2.45.36c.22.38.38.79.57,1.21a1.34,1.34,0,0,1-.35.3c-.9.37-1.81.73-2.72,1.06A1.52,1.52,0,0,1,26.36,42.54Zm2.76-2.63c-.43.2-.87.34-.83.84,0,.14.33.32.53.38a.64.64,0,0,0,.78-.39C29.77,40.33,29.39,40.16,29.12,39.91Z" transform="translate(-1.19 -2.26)"/><path class="cls-1" d="M143.25,41c-.52.35-1,.71-1.58,1a1.82,1.82,0,0,1-.59.14.45.45,0,0,0,0-.11c.25-.14.51-.27.76-.42s.46-.34.71-.52c-.93-.53-.93-.53-.49-1.35-.11-.08-.24-.16-.34-.25-.46-.43-.38-.84.21-1s1.08.07,1.11.91c.91.38.95.53.38,1.37l-.16.24Z" transform="translate(-1.19 -2.26)"/><path d="M78.24,58.47c-1,.36-2.11,1-3.21.05A7.89,7.89,0,0,1,78.24,58.47Z" transform="translate(-1.19 -2.26)"/><path d="M136.43,40.24h-.84a1.91,1.91,0,0,1,.53-1.37C136.52,39.29,136.43,39.74,136.43,40.24Z" transform="translate(-1.19 -2.26)"/><path d="M143.53,43.3l-.4,1.32-.74-.45a1.53,1.53,0,0,1,1-1Z" transform="translate(-1.19 -2.26)"/><path d="M126.89,41.92l1,.83-.63.53A1.28,1.28,0,0,1,126.89,41.92Z" transform="translate(-1.19 -2.26)"/><path d="M124.38,50.42c-.6-.43-.6-.43-.78-.93.42-.17.73.11,1.13.26Z" transform="translate(-1.19 -2.26)"/><path d="M109.66,62.52l-.33.52-.19-.58Z" transform="translate(-1.19 -2.26)"/><path class="cls-1" d="M96.23,17c.22-.08.55-.1.7-.28a.73.73,0,0,0-.11-.94,6.55,6.55,0,0,0-.94-.77,1.49,1.49,0,0,1,1.67-.85,1.64,1.64,0,0,1,.64,3A1.62,1.62,0,0,1,96.23,17Z" transform="translate(-1.19 -2.26)"/><path class="cls-1" d="M129,34.68,127.18,32C128,32.3,128.53,33.09,129,34.68Z" transform="translate(-1.19 -2.26)"/><path class="cls-1" d="M136.16,29a.56.56,0,0,1-.54-.49.64.64,0,0,1,.62-.59.54.54,0,0,1,.48.54A.54.54,0,0,1,136.16,29Z" transform="translate(-1.19 -2.26)"/><path class="cls-1" d="M122.27,29.76c.11,0,.25,0,.33,0a2.58,2.58,0,0,1,.68,1.76l-1-1.81Z" transform="translate(-1.19 -2.26)"/><path class="cls-1" d="M124.94,27.38l.28,2.09c-.08,0-.22-.07-.24-.14A3.79,3.79,0,0,1,124.94,27.38Z" transform="translate(-1.19 -2.26)"/><path class="cls-1" d="M126.09,35.83a2.45,2.45,0,0,1,.4.54c0,.06-.2.26-.34.3s-.48-.2-.41-.38S125.92,36,126.09,35.83Z" transform="translate(-1.19 -2.26)"/><path class="cls-1" d="M105.58,29.44c.23-.41.49-.38.75-.16a.34.34,0,0,1,0,.31C106,29.87,105.81,29.7,105.58,29.44Z" transform="translate(-1.19 -2.26)"/><path class="cls-1" d="M117.53,27.42c.28-.22.49-.21.64,0a.31.31,0,0,1-.06.3C117.81,27.93,117.68,27.71,117.53,27.42Z" transform="translate(-1.19 -2.26)"/><path class="cls-1" d="M120,27c-.14.11-.25.22-.27.2a2.43,2.43,0,0,1-.34-.3c.06-.07.16-.2.19-.18A3,3,0,0,1,120,27Z" transform="translate(-1.19 -2.26)"/><path class="cls-1" d="M130.22,37.2l-.34-.72.13-.06.35.71Z" transform="translate(-1.19 -2.26)"/><path class="cls-1" d="M113.07,25.47l.62.51C113.32,26.06,113.16,25.9,113.07,25.47Z" transform="translate(-1.19 -2.26)"/><path class="cls-1" d="M122.28,29.76l-.26-.67c.35.22.35.22.25.67Z" transform="translate(-1.19 -2.26)"/><path class="cls-1" d="M78.21,13.54a1.87,1.87,0,0,0-1.53,2,.84.84,0,0,0,.46.78.73.73,0,0,0,.8-.21,5.39,5.39,0,0,0,.5-.6,3.18,3.18,0,0,1-3.08,2.79,3.28,3.28,0,0,1-3.21-2.62,3.36,3.36,0,0,1,2.21-3.79A3.13,3.13,0,0,1,78.21,13.54Z" transform="translate(-1.19 -2.26)"/><path class="cls-1" d="M48.5,34.48A1.83,1.83,0,0,1,48,34.1c-.22-.27,0-.56.12-.8A1.31,1.31,0,0,1,49.85,33a.51.51,0,0,1,.19.69A1.52,1.52,0,0,1,48.5,34.48Z" transform="translate(-1.19 -2.26)"/><path class="cls-1" d="M52,29c-.19.22-.29.42-.46.52a1,1,0,0,1-.59.08c-.07,0-.18-.36-.14-.4a2.85,2.85,0,0,1,.75-.49C51.64,28.64,51.81,28.83,52,29Z" transform="translate(-1.19 -2.26)"/><path class="cls-1" d="M48.24,35.52a.65.65,0,0,1-.62.61c-.25,0-.44-.09-.46-.35s.36-.54.61-.5A1.48,1.48,0,0,1,48.24,35.52Z" transform="translate(-1.19 -2.26)"/><path class="cls-1" d="M44.14,37.76a3.46,3.46,0,0,0,.3-.57c.13-.47.44-.51.91-.42a2.22,2.22,0,0,1-1.22,1Z" transform="translate(-1.19 -2.26)"/><path class="cls-1" d="M47.22,36.79c-.11.14-.14.23-.19.24a2.39,2.39,0,0,1-.53,0s-.06-.23,0-.25a1.74,1.74,0,0,1,.49-.2C47,36.6,47.11,36.71,47.22,36.79Z" transform="translate(-1.19 -2.26)"/><path class="cls-1" d="M46.73,35.57l-.89.79C45.91,35.82,46.3,35.68,46.73,35.57Z" transform="translate(-1.19 -2.26)"/><path class="cls-1" d="M44.12,32c-.15-.14-.27-.21-.31-.3s.18-.42.41-.39.25.18.24.21A4.44,4.44,0,0,1,44.12,32Z" transform="translate(-1.19 -2.26)"/><path class="cls-1" d="M50.25,36.5l-.79-.32.43-.4.47.59Z" transform="translate(-1.19 -2.26)"/><path class="cls-1" d="M56.07,33.88c.11-.26.24-.4.47-.27a.3.3,0,0,1,.06.29C56.45,34.12,56.28,34.05,56.07,33.88Z" transform="translate(-1.19 -2.26)"/><path class="cls-1" d="M51.23,37.81c0-.3.16-.4.43-.32.05,0,.12.14.1.18A.31.31,0,0,1,51.23,37.81Z" transform="translate(-1.19 -2.26)"/><path class="cls-1" d="M44.33,28.67c-.13.11-.2.21-.29.24s-.14-.07-.22-.11a3.22,3.22,0,0,1,.24-.28S44.2,28.6,44.33,28.67Z" transform="translate(-1.19 -2.26)"/><path class="cls-1" d="M50.61,42l.52-.4.09.16L50.6,42Z" transform="translate(-1.19 -2.26)"/><path class="cls-1" d="M42.77,30.74c0,.08.12.19.1.25a.36.36,0,0,1-.24.17s-.15-.11-.16-.18a.75.75,0,0,1,.08-.27Z" transform="translate(-1.19 -2.26)"/><path class="cls-1" d="M47.28,34.84c.09.1.17.19.16.2a2.5,2.5,0,0,1-.24.22s-.12-.12-.11-.15A2.33,2.33,0,0,1,47.28,34.84Z" transform="translate(-1.19 -2.26)"/><path class="cls-1" d="M98.09,66.41h4L98.92,78.47h-4C95.92,74.42,97,70.44,98.09,66.41Z" transform="translate(-1.19 -2.26)"/><path class="cls-1" d="M132.88,68.05c.39.12.39.39.39.62,0,.71,0,1.42,0,2.13s0,1.36,0,2-.06,1.21-.1,1.82a1.77,1.77,0,0,0,.49,1.54,3,3,0,0,1,.44.9c.15.33.28.67.45,1a.67.67,0,0,1-.05.87.46.46,0,0,1-.42.13c-.11,0-.18-.24-.23-.39s.05-.13.07-.2a1,1,0,0,0-.41-1.22,1.2,1.2,0,0,1-.55-1.05,7.52,7.52,0,0,0-.54-2.56,2.29,2.29,0,0,1,0-1.85,4.87,4.87,0,0,0,.19-1.23c.06-.67.11-1.35.18-2A3.75,3.75,0,0,1,132.88,68.05Z" transform="translate(-1.19 -2.26)"/><path class="cls-1" d="M142.23,61.39c0,.52-.11.92-.63,1.09a1.2,1.2,0,0,1-1.35-.49l-.38-.54a.82.82,0,0,1,.41-1.3,1.42,1.42,0,0,1,1.61.34A2.25,2.25,0,0,1,142.23,61.39Z" transform="translate(-1.19 -2.26)"/><path class="cls-1" d="M139.1,65.55c-.9-.24-1-.3-1.07-1.06.79-.38,1.2-.35,1.47.09S139.66,65.09,139.1,65.55Z" transform="translate(-1.19 -2.26)"/><path class="cls-1" d="M136.89,61.68c-.23-.32-.6-.52-.34-.92a.63.63,0,0,1,.83-.25c.19.09.47.32.46.46C137.79,61.47,137.33,61.53,136.89,61.68Z" transform="translate(-1.19 -2.26)"/><path class="cls-1" d="M131.35,72.79c-.47.3-1.22.06-1.29-.19,0-.07,0-.23.07-.25a1.39,1.39,0,0,1,.46-.09c.06,0,.11.08.17.12Z" transform="translate(-1.19 -2.26)"/><path class="cls-1" d="M134.57,74.18c.19.29.39.47.41.66a.34.34,0,0,1-.45.32.69.69,0,0,1-.33-.46C134.19,74.58,134.38,74.43,134.57,74.18Z" transform="translate(-1.19 -2.26)"/><path class="cls-1" d="M145,59.93c-.14-.15-.31-.25-.33-.37a.28.28,0,0,1,.38-.3c.14,0,.25.22.37.34Z" transform="translate(-1.19 -2.26)"/><path class="cls-1" d="M130.46,74.12c.15.23.31.38.29.49s-.21.2-.33.3c-.08-.1-.23-.21-.23-.3S130.32,74.35,130.46,74.12Z" transform="translate(-1.19 -2.26)"/><path class="cls-1" d="M135.86,73.61c-.16.09-.31.24-.36.21s-.18-.22-.27-.34c.11-.07.23-.21.33-.19S135.74,73.46,135.86,73.61Z" transform="translate(-1.19 -2.26)"/><path class="cls-1" d="M144.51,64.66c.12.15.24.24.27.36s-.18.21-.21.2a.65.65,0,0,1-.29-.28S144.4,64.79,144.51,64.66Z" transform="translate(-1.19 -2.26)"/><path class="cls-1" d="M134.92,82l-.28-.37c.05,0,.13-.12.15-.11a.92.92,0,0,1,.22.22S135,81.9,134.92,82Z" transform="translate(-1.19 -2.26)"/><path class="cls-1" d="M142.72,64.53c-.08.08-.12.17-.16.16a.75.75,0,0,1-.24-.08c0-.07.08-.18.13-.19S142.6,64.48,142.72,64.53Z" transform="translate(-1.19 -2.26)"/><path class="cls-1" d="M25.4,61.2c.51-.49,1-1,1.53-1.47.08-.07.23-.06.35-.08l.07.14c-.22.16-.44.31-.65.49s-.42.38-.66.6c1,.37,1,.44.66,1.23a4.63,4.63,0,0,1,.46.31c.38.33.33.68-.11.94-.63.37-1.13.08-1.27-.75-1-.22-1.06-.65-.36-1.43Z" transform="translate(-1.19 -2.26)"/><path class="cls-1" d="M30.08,64.94c0,.31-.35.64-.73.67a.56.56,0,0,1-.61-.49.69.69,0,0,1,.63-.67A.64.64,0,0,1,30.08,64.94Z" transform="translate(-1.19 -2.26)"/><path class="cls-1" d="M25.42,61.18l-.73,0a7.32,7.32,0,0,1,.14-.79.43.43,0,0,1,.58-.28c.22.11.21.27.12.48a4.26,4.26,0,0,0-.13.64Z" transform="translate(-1.19 -2.26)"/><path class="cls-1" d="M17.83,61.26a2.25,2.25,0,0,1,1.46-.83C19,61.15,18.36,61.13,17.83,61.26Z" transform="translate(-1.19 -2.26)"/><path class="cls-1" d="M17.39,62.22c.05.07.22.19.25.34s-.29.43-.58.42-.38-.08-.38-.33S17,62.21,17.39,62.22Z" transform="translate(-1.19 -2.26)"/><path class="cls-1" d="M15.94,65.19c.05.08.2.19.21.33s-.31.48-.57.42a.44.44,0,0,1-.27-.28C15.26,65.43,15.57,65.18,15.94,65.19Z" transform="translate(-1.19 -2.26)"/><path class="cls-1" d="M13.83,74.26l.54-.14c0,.09,0,.2,0,.25S14,74.66,13.83,74.26Z" transform="translate(-1.19 -2.26)"/><path class="cls-1" d="M25.74,73.55l-.32.23c0-.06-.12-.15-.11-.17a2.2,2.2,0,0,1,.28-.24Z" transform="translate(-1.19 -2.26)"/><path class="cls-1" d="M14.26,65.66c0,.25-.17.34-.39.26a.19.19,0,0,1-.08-.17C13.9,65.54,14.07,65.53,14.26,65.66Z" transform="translate(-1.19 -2.26)"/><path class="cls-1" d="M23.89,62.84l.44-.39c0,.1.06.15.05.18A.34.34,0,0,1,23.89,62.84Z" transform="translate(-1.19 -2.26)"/><path class="cls-1" d="M31.28,65.68l-.22.28-.1-.08.22-.28Z" transform="translate(-1.19 -2.26)"/><path class="cls-1" d="M14.51,65.09c-.08.07-.15.16-.22.17s-.11-.11-.16-.17a.65.65,0,0,1,.2-.15S14.43,65,14.51,65.09Z" transform="translate(-1.19 -2.26)"/><path class="cls-1" d="M41.64,73.26h-3.3L39.19,70H42.5Z" transform="translate(-1.19 -2.26)"/><path class="cls-1" d="M39.15,66.73A1.19,1.19,0,0,1,38.06,68a.9.9,0,0,1-.94-.83,1.38,1.38,0,0,1,1.26-1.2A.75.75,0,0,1,39.15,66.73Z" transform="translate(-1.19 -2.26)"/><path class="cls-1" d="M42.07,68c-1-.42-1.35-1.39-1.9-2.2l.13-.11,1.89,2.17Z" transform="translate(-1.19 -2.26)"/><path class="cls-1" d="M33.8,73.08a.56.56,0,0,1-.51-.51.59.59,0,0,1,.56-.56.51.51,0,0,1,.55.45A.67.67,0,0,1,33.8,73.08Z" transform="translate(-1.19 -2.26)"/><path class="cls-1" d="M47.68,70.05a3.22,3.22,0,0,1-1.54-2.21Z" transform="translate(-1.19 -2.26)"/><path class="cls-1" d="M44.48,70.24c.42.06.51.33.55,1.94Z" transform="translate(-1.19 -2.26)"/><path class="cls-1" d="M34.85,69.78c-.09,0-.2.09-.28.07s-.11-.12-.17-.19.16-.17.25-.18.21.07.31.11Z" transform="translate(-1.19 -2.26)"/><path class="cls-1" d="M54.74,79.83c.22-.83.43-1.66.65-2.48.38-1.42.75-2.84,1.15-4.25.11-.4.18-.73-.26-1l.5,0L57.37,70h3.31l-2.6,9.77A11.57,11.57,0,0,1,54.74,79.83Z" transform="translate(-1.19 -2.26)"/><path class="cls-1" d="M63.79,67.86c-.14.4-.4.39-.68.21a.36.36,0,0,1,0-.35C63.38,67.48,63.62,67.56,63.79,67.86Z" transform="translate(-1.19 -2.26)"/><path class="cls-1" d="M51.56,71.11c.34-.33.54-.2.72.17C51.94,71.6,51.74,71.47,51.56,71.11Z" transform="translate(-1.19 -2.26)"/><path class="cls-1" d="M55.65,71.53l.33.26,0,.08-.36-.24Z" transform="translate(-1.19 -2.26)"/><path class="cls-1" d="M118.5,79.89h-3.34c.89-3.33,1.77-6.6,2.64-9.87h3.32C120.24,73.33,119.38,76.59,118.5,79.89Z" transform="translate(-1.19 -2.26)"/><path class="cls-1" d="M115.9,66.36a3,3,0,0,1-.57-.29.52.52,0,0,1-.13-.77,1.49,1.49,0,0,1,1.69-.57.67.67,0,0,1,.35,1C117,66.22,116.53,66.32,115.9,66.36Z" transform="translate(-1.19 -2.26)"/><path class="cls-1" d="M114,69.63a2.16,2.16,0,0,1-.49.4,1.43,1.43,0,0,1-.62,0,.31.31,0,0,1-.09-.25,1.07,1.07,0,0,1,.38-.47,1.18,1.18,0,0,1,.62,0C113.85,69.35,113.89,69.48,114,69.63Z" transform="translate(-1.19 -2.26)"/><path class="cls-1" d="M120.36,68.23a1.92,1.92,0,0,1,.5-.36c.08,0,.21.13.32.21a1.8,1.8,0,0,1-.37.36C120.74,68.47,120.59,68.34,120.36,68.23Z" transform="translate(-1.19 -2.26)"/><path class="cls-1" d="M122.24,68.66l.22.29c-.07,0-.16.15-.2.14a.52.52,0,0,1-.22-.22S122.15,68.76,122.24,68.66Z" transform="translate(-1.19 -2.26)"/><path class="cls-1" d="M124.84,70.46a1.22,1.22,0,0,1,.23.2s-.09.15-.1.15a.86.86,0,0,1-.22-.15S124.8,70.55,124.84,70.46Z" transform="translate(-1.19 -2.26)"/><path class="cls-1" d="M118,64.23a2.36,2.36,0,0,1,.28-.12s.07.09.1.14a1.38,1.38,0,0,1-.25.17c-.06,0-.14,0-.2,0Z" transform="translate(-1.19 -2.26)"/><path class="cls-1" d="M138.55,34.7c.16-.54.27-1,.42-1.42a1,1,0,0,1,.35-.37c.17-.13.41-.28.57,0a.6.6,0,0,1,0,.52A3.49,3.49,0,0,1,138.55,34.7Z" transform="translate(-1.19 -2.26)"/><path class="cls-1" d="M139.8,35.94a.51.51,0,0,1,.57.53.63.63,0,0,1-.69.6.61.61,0,0,1-.67-.53C139,36.21,139.37,35.94,139.8,35.94Z" transform="translate(-1.19 -2.26)"/><path class="cls-1" d="M143.25,41h0c.24-.18.45-.12.65.12a4.87,4.87,0,0,1-.16.6.45.45,0,0,1-.64.28c-.25-.16-.19-.34,0-.55A1.86,1.86,0,0,0,143.25,41Z" transform="translate(-1.19 -2.26)"/><path class="cls-1" d="M144.21,39.69l.63-.51C144.72,39.57,144.72,39.57,144.21,39.69Z" transform="translate(-1.19 -2.26)"/><path class="cls-1" d="M147.62,48.57c-.12.09-.2.2-.25.18s-.15-.12-.22-.19.13-.14.2-.14S147.5,48.5,147.62,48.57Z" transform="translate(-1.19 -2.26)"/><path class="cls-1" d="M147.85,46.61l.44-.14,0,.15-.45.11Z" transform="translate(-1.19 -2.26)"/><path class="cls-1" d="M146.35,44.09a1.29,1.29,0,0,1-.31.15.48.48,0,0,1-.18-.08c0-.07.09-.17.15-.19S146.16,44,146.35,44.09Z" transform="translate(-1.19 -2.26)"/><path class="cls-1" d="M149.59,46.35l.33-.15.05.13-.34.11Z" transform="translate(-1.19 -2.26)"/><path class="cls-1" d="M145.79,51.45l-.35-.07c0-.06.06-.18.07-.17l.32.11Z" transform="translate(-1.19 -2.26)"/><path class="cls-1" d="M29.12,39.91c.27.25.65.42.48.83a.64.64,0,0,1-.78.39c-.2-.06-.52-.24-.53-.38C28.25,40.25,28.69,40.11,29.12,39.91Z" transform="translate(-1.19 -2.26)"/></svg>