<svg width="30" height="30" viewBox="0 0 30 30" fill="none" xmlns="http://www.w3.org/2000/svg">
<path d="M19.2109 8.81543L21.6191 11.4633L24.237 10.416L24.6857 10.101L26.4812 9.4435L25.8077 8.17189L23.6389 9.21919C23.6389 9.21919 22.7411 9.29396 22.0677 9.81735L20.497 7.87436L19.2109 6.90234V8.81543Z" fill="white"/>
<path d="M19.3008 6.27816L22.2179 3.60087C22.3901 3.7829 22.751 3.98452 23.2667 4.20831C23.5085 4.31144 23.7824 4.53988 24.0917 4.55896C24.2659 4.56933 24.4407 4.56086 24.6131 4.53369L25.5113 5.08905L26.4839 3.90047L25.6263 3.43637L24.6574 3.23011L23.6442 4.10673L24.2325 2.68506L21.9188 1.66406L19.5983 3.90047C19.5983 3.90047 19.6143 5.35616 19.3008 6.27816Z" fill="white"/>
<path d="M6.71052 3.90234C6.66847 3.90235 6.62645 3.90494 6.5847 3.91008C6.40474 3.93225 6.20982 3.95339 6.00872 3.97866L5.59619 4.95274C5.86949 4.89756 6.16341 4.86353 6.43362 4.83207C6.52386 4.82176 6.61203 4.81145 6.69712 4.80062H6.71156C6.80386 4.80062 6.97557 4.92077 7.12408 5.15126C7.42058 5.60659 7.57734 6.38884 7.26021 7.10148C7.04158 7.59393 6.69299 7.84351 6.2289 7.84351C6.1267 7.84317 6.02484 7.83159 5.92518 7.80896C5.84835 7.79143 5.17438 8.36948 5.10219 8.33854C4.95626 8.2813 5.4219 7.60373 5.31825 7.50988C4.92945 7.15614 4.64171 6.5817 4.4865 6.19753L3.82233 6.34449C3.81872 6.40276 3.51758 6.08873 3.51758 6.15215C3.51758 6.15215 3.89143 7.42737 4.71442 8.17559C5.13462 8.54028 5.672 8.74162 6.22839 8.74281C6.34699 8.74281 7.21381 7.98531 7.33137 7.96469C7.39068 7.95489 6.70124 8.6897 6.75951 8.67423C7.28187 8.53088 7.77175 8.16321 8.08062 7.46502C8.80254 5.83967 7.8527 3.90234 6.71052 3.90234Z" fill="white"/>
<path d="M3.51758 5.52937L4.21578 5.82845L4.6149 5.52937L4.81394 3.86328L3.81666 3.97157L3.51758 5.52937Z" fill="white"/>
<path d="M5.53736 3.68854L5.23828 3.00684L5.92462 2.98828L5.53736 3.68854Z" fill="white"/>
<path d="M11.6972 22.3156L14.2528 22.6982L15.0629 22.1918H19.9936C19.9936 22.1918 18.6869 20.5118 17.9387 18.9432L15.2537 16.5521L14.274 16.9894L14.8628 16.0272L14.3384 15.331L11.9009 17.3163L14.0924 14.9556L11.411 12.5228L8.05926 8.40112C8.05926 8.40112 7.91642 9.28083 6.18433 9.18389C4.36407 9.08075 3.80664 7.73438 3.80664 7.73438C4.27073 9.18389 5.62639 11.115 5.62639 11.115L6.25292 12.8848L7.79989 15.5203L10.5896 19.7487C10.5896 19.7487 11.6023 19.0144 11.6261 19.0783C11.6379 19.1103 10.7814 20.0498 10.7933 20.0818C10.983 20.5943 11.1604 21.1064 11.312 21.6189C11.3254 21.6648 14.4513 17.8113 14.4647 17.8572C14.491 17.9495 11.5255 21.7819 11.5487 21.8742C11.5817 21.9907 11.6694 22.1975 11.6972 22.3156Z" fill="white"/>
<path d="M8.80273 7.87296C8.80273 7.87296 9.35242 7.64143 9.27765 6.14912C9.20288 4.65681 8.81872 4.68363 8.81872 4.68363C8.81872 4.68363 11.0144 4.84348 12.2447 4.78057C12.3577 4.7749 10.9659 5.51538 11.0587 5.50558C11.2248 5.48805 12.8542 4.71611 12.9414 4.68363H14.1248L14.295 5.82838L14.048 6.32032L14.1233 7.46353C14.1233 7.46353 13.6148 7.65226 12.8666 7.46353C12.1184 7.2748 11.9482 7.87296 11.9482 7.87296H8.80273Z" fill="white"/>
<path d="M15.1861 3.90234C15.1861 3.90234 15.2057 4.68305 15.1902 5.57874C15.1902 5.72674 15.1113 5.87834 15.1113 6.02943C15.1113 7.02671 15.1861 8.02914 15.1861 8.17404C15.1861 8.47312 15.8595 8.74127 15.8595 8.74127H16.3082L17.3054 7.24586L16.8249 8.74127H18.1785V5.85359L18.5394 5.47922V3.90234H17.4565L16.4598 5.39826L16.5598 3.90286H15.6347C15.6347 3.90286 15.4852 4.418 15.1861 3.90234Z" fill="white"/>
<path d="M11.4946 23.6965L12.8807 24.0678L15.5106 23.8832C15.6111 23.8832 17.9795 23.8461 18.5813 23.8832C19.0346 23.9115 24.9012 24.0069 26.4791 24.0492C26.5234 23.662 25.555 21.7628 25.3849 21.7329C25.2534 21.7097 22.1362 21.8417 21.4102 21.803C21.189 21.7912 21.0291 21.6097 20.8089 21.5622C20.6542 21.5292 20.3258 21.7329 20.3258 21.7329L21.1823 22.9633L14.9212 23.1025L14.0884 23.5712L12.9565 23.0293L11.2739 22.9302L10.8985 21.7664L10.1864 21.6849L9.97757 21.8525L4.78903 21.7334C4.7389 22.0232 4.62915 22.2994 4.46674 22.5445C4.37186 22.692 4.25378 22.6961 4.13724 22.8421C3.88354 23.1592 3.63757 23.5903 3.65304 23.6965H11.4946Z" fill="white"/>
<path d="M26.4004 24.9465C25.7486 24.9289 22.4051 24.9031 21.4856 24.8768C21.3309 24.8727 18.1808 26.364 18.0271 26.3599C17.7224 26.3511 20.4187 24.8459 20.1413 24.8377L19.6128 24.8206C19.4153 24.8145 17.7404 25.5565 17.5868 25.5513C17.3289 25.542 18.6361 24.7866 18.55 24.7809C17.9828 24.7454 15.6747 24.7809 15.5272 24.7809L12.8298 24.9702L11.4257 24.5938H3.66557C3.64433 24.8185 3.5946 25.0396 3.51758 25.2517L3.53047 25.9123L5.03773 25.7163L3.54852 26.8111L3.57482 28.1461C3.86049 28.1595 5.92673 28.3972 6.84511 28.3183C7.54022 28.2585 10.4593 27.8759 10.6754 27.8862C10.8445 27.894 11.0075 28.0724 11.1761 28.0878C12.0043 28.1657 11.6026 28.0914 12.4312 28.1306C12.4735 27.878 17.5398 27.7351 17.234 28.1074C17.6094 28.125 19.5638 28.1116 19.9407 28.1074C20.2151 28.1033 20.5012 27.7707 20.7751 27.7836C21.2624 27.8063 21.7399 28.0976 22.2261 28.141C22.7263 28.1853 25.6377 27.9821 26.1384 28.0058C25.9414 27.1916 26.3313 26.0257 26.3591 25.1527C26.3612 25.1512 26.3772 25.0702 26.4004 24.9465Z" fill="white"/>
<path d="M21.8652 21.4826L22.5686 20.9747V20.2188L21.8652 20.9747V21.4826Z" fill="white"/>
</svg>
