<svg width="19" height="21" viewBox="0 0 19 21" fill="none" xmlns="http://www.w3.org/2000/svg">
<path d="M14.5 8.5V6.5C14.5 3.73858 12.2614 1.5 9.5 1.5C6.73858 1.5 4.5 3.73858 4.5 6.5V8.5M9.5 13V15M6.3 19.5H12.7C14.3802 19.5 15.2202 19.5 15.862 19.173C16.4265 18.8854 16.8854 18.4265 17.173 17.862C17.5 17.2202 17.5 16.3802 17.5 14.7V13.3C17.5 11.6198 17.5 10.7798 17.173 10.138C16.8854 9.57354 16.4265 9.1146 15.862 8.82698C15.2202 8.5 14.3802 8.5 12.7 8.5H6.3C4.61984 8.5 3.77976 8.5 3.13803 8.82698C2.57354 9.1146 2.1146 9.57354 1.82698 10.138C1.5 10.7798 1.5 11.6198 1.5 13.3V14.7C1.5 16.3802 1.5 17.2202 1.82698 17.862C2.1146 18.4265 2.57354 18.8854 3.13803 19.173C3.77976 19.5 4.61984 19.5 6.3 19.5Z" stroke="#979797" stroke-width="2" stroke-linecap="round" stroke-linejoin="round"/>
</svg>
