<svg xmlns="http://www.w3.org/2000/svg" viewBox="0 0 280 48"><defs><style>.cls-1{fill:#06c755;}.cls-2{fill:#fff;}</style></defs><g id="Layer_2" data-name="Layer 2"><g id="Layer_1-2" data-name="Layer 1"><rect class="cls-1" width="280" height="48" rx="12"/><path class="cls-2" d="M113.92,19c-4.08-2.86-9.18-2.63-11.4.53s-.7,8,3.38,10.9a11.27,11.27,0,0,0,3.91,1.76A7.14,7.14,0,0,1,108.58,34a.58.58,0,0,0,.61.95c5.47-1.66,7.81-4.67,7.81-4.67h0q.15-.18.3-.39c2.21-3.15.7-8-3.38-10.89Zm-9.11,2.13a3.31,3.31,0,0,1,.39-.44.14.14,0,0,1,.24.11c-.06,1.81,1.15,4,3.26,5.49s4.71,2,6.42,1.28a.14.14,0,0,1,.18.19,3.06,3.06,0,0,1-.29.53h0c-1.33,1.89-4.69,1.83-7.51-.15s-4-5.11-2.69-7h0Z"/><path class="cls-2" d="M120.23,25.91l0,.08a.19.19,0,0,1-.34-.11,10.34,10.34,0,0,0-.64-3.52,10.56,10.56,0,0,0-1.59-2.86,10.26,10.26,0,0,0-1.54-1.62,11.2,11.2,0,0,0-2.4-1.55,11.07,11.07,0,0,0-3.24-.94,10.44,10.44,0,0,0-4.61.45l-.17.05a.18.18,0,0,1-.21-.28l.06-.08c2.21-3.15,7.31-3.39,11.39-.53s5.57,7.76,3.34,10.91Z"/><path class="cls-2" d="M139.1,24.74a3.42,3.42,0,0,1-1.25,2.48,4.15,4.15,0,0,1-2.61.77,3.43,3.43,0,0,1-2.81-1.25,5.13,5.13,0,0,1-1-3.38,4.91,4.91,0,0,1,1-3.22,3.66,3.66,0,0,1,3-1.31,4,4,0,0,1,2.63.86,2.9,2.9,0,0,1,1.07,2.25h-1.72a1.67,1.67,0,0,0-.61-1.15,2,2,0,0,0-1.32-.46,2,2,0,0,0-1.68.83,3.62,3.62,0,0,0-.62,2.25,3.63,3.63,0,0,0,.61,2.22,1.93,1.93,0,0,0,1.63.82,2,2,0,0,0,1.37-.47,1.63,1.63,0,0,0,.6-1.24Z"/><path class="cls-2" d="M146.37,24.56a3.49,3.49,0,0,1-.86,2.54,3.16,3.16,0,0,1-2.41.9,3,3,0,0,1-2.3-.93,3.71,3.71,0,0,1-.84-2.56A3.51,3.51,0,0,1,140.8,22a3.54,3.54,0,0,1,4.73,0A3.59,3.59,0,0,1,146.37,24.56Zm-1.68,0a2.29,2.29,0,0,0-.43-1.45,1.32,1.32,0,0,0-1.09-.57,1.3,1.3,0,0,0-1.09.6,2.61,2.61,0,0,0-.42,1.53,2,2,0,0,0,.45,1.33,1.34,1.34,0,0,0,1.08.55,1.28,1.28,0,0,0,1.08-.56A2.29,2.29,0,0,0,144.69,24.56Z"/><path class="cls-2" d="M153.43,27.73h-1.68V23.26a.66.66,0,0,0-.3-.57,1.4,1.4,0,0,0-.82-.21,1.47,1.47,0,0,0-.94.3,1,1,0,0,0-.38.76v4.19h-1.68V21.22h1.68v1A1.82,1.82,0,0,1,151,21.12a2.59,2.59,0,0,1,1.75.56,1.87,1.87,0,0,1,.66,1.49Z"/><path class="cls-2" d="M160.76,27.73h-1.68V23.26a.66.66,0,0,0-.3-.57,1.4,1.4,0,0,0-.82-.21,1.47,1.47,0,0,0-.94.3,1,1,0,0,0-.38.76v4.19H155V21.22h1.68v1a1.82,1.82,0,0,1,1.71-1.07,2.57,2.57,0,0,1,1.75.56,1.87,1.87,0,0,1,.66,1.49Z"/><path class="cls-2" d="M167.85,24.49a3.89,3.89,0,0,1,0,.51h-4.31a.67.67,0,0,0,0,.23,1.39,1.39,0,0,0,.4,1,1.38,1.38,0,0,0,1,.39,1.35,1.35,0,0,0,.77-.24,1,1,0,0,0,.41-.52h1.7a3,3,0,0,1-1.18,1.52,3.27,3.27,0,0,1-1.89.58,2.77,2.77,0,0,1-2-.73,3.25,3.25,0,0,1-.95-2.51,4.15,4.15,0,0,1,.77-2.69,2.63,2.63,0,0,1,2.19-.94A2.93,2.93,0,0,1,167,22,3.48,3.48,0,0,1,167.85,24.49Zm-1.77-.62q-.08-1.35-1.26-1.35c-.8,0-1.25.45-1.34,1.35Z"/><path class="cls-2" d="M174.5,25.46A2.78,2.78,0,0,1,171.56,28a2.82,2.82,0,0,1-2.2-.85,3.57,3.57,0,0,1-.76-2.48,4.09,4.09,0,0,1,.69-2.49,2.81,2.81,0,0,1,2.39-1.05,2.75,2.75,0,0,1,2,.63,3.54,3.54,0,0,1,.83,1.9h-1.66a1.57,1.57,0,0,0-.43-.84,1.23,1.23,0,0,0-.82-.24c-.85,0-1.28.67-1.28,2s.48,2,1.42,2a.87.87,0,0,0,.68-.27,2.25,2.25,0,0,0,.44-.91Z"/><path class="cls-2" d="M178.5,27.86a4.92,4.92,0,0,1-1.07.14,1.6,1.6,0,0,1-1.09-.39,1.17,1.17,0,0,1-.46-.93V22.47h-.83V21.35h.83V19.59h1.68v1.76h.94v1.12h-.94v3.88c0,.25.19.37.56.37l.38,0Z"/></g></g></svg>