<?xml version="1.0" encoding="UTF-8"?>
<svg id="Layer_1" xmlns="http://www.w3.org/2000/svg" viewBox="0 0 1000 1000">
  <path d="M313.18,200.4l14.49,18.54c-65.71,57.38-108.4,140.44-112.43,233.54l-55.51-6.79c17.76-100.45,74.23-187.53,153.45-245.29Z"/>
  <path d="M576,127.79v11.5c-10.49-1.01-21.11-1.53-31.86-1.53-68.5,0-132.12,20.92-184.81,56.73l-12.53-16.02c57.13-33.22,123.53-52.23,194.37-52.23,11.74,0,23.35.52,34.83,1.55Z"/>
  <path d="M313.76,702.16l-72.47,56.67c-54.69-66.78-87.5-152.17-87.5-245.22,0-9.49.34-18.9,1.02-28.22l61.12,7.48c6.36,81.78,42.61,155.18,97.83,209.29Z"/>
  <path d="M576,794.65v104.78c-11.48,1.02-23.09,1.54-34.83,1.54-106.46,0-202.89-42.94-272.91-112.46l76.32-59.68c55.36,42.26,124.53,67.36,199.56,67.36,10.75,0,21.37-.52,31.86-1.54Z"/>
</svg>