<svg width="18" height="17" viewBox="0 0 18 17" fill="none" xmlns="http://www.w3.org/2000/svg">
<g clip-path="url(#clip0_1076_2805)">
<path d="M2.29266 8.13351C2.43854 8.43114 2.74103 8.61975 3.07246 8.61975L5.11878 8.61975V16.1316C5.11878 16.6112 5.50759 17 5.98717 17H10.8302C11.3098 17 11.6986 16.6112 11.6986 16.1316V8.61975H13.7448C14.0763 8.61975 14.3788 8.43108 14.5247 8.13351C14.6705 7.83589 14.6342 7.48124 14.4312 7.21934L9.09494 0.336294C8.93047 0.124119 8.67707 -5.91278e-05 8.40862 -5.91278e-05C8.14018 -5.91278e-05 7.88678 0.124119 7.72237 0.336294L2.38615 7.21934C2.18307 7.48124 2.14677 7.83589 2.29266 8.13351Z" fill="white"/>
</g>
<defs>
<clipPath id="clip0_1076_2805">
<rect width="17" height="17" fill="white" transform="matrix(-1 0 0 -1 17.4473 17)"/>
</clipPath>
</defs>
</svg>
