<svg width="76" height="76" viewBox="0 0 76 76" fill="none" xmlns="http://www.w3.org/2000/svg">
<path d="M48.5254 22.5405L54.5457 29.1603L61.0907 26.542L62.2122 25.7544L66.701 24.1107L65.0174 20.9317L59.5953 23.5499C59.5953 23.5499 57.3509 23.7369 55.6672 25.0453L51.7405 20.1878L48.5254 17.7578V22.5405Z" fill="#979797"/>
<path d="M48.75 16.2013L56.0427 9.50803C56.4732 9.9631 57.3756 10.4672 58.6648 11.0266C59.2694 11.2845 59.9539 11.8556 60.7274 11.9033C61.1629 11.9292 61.5998 11.908 62.0307 11.8401L64.2764 13.2285L66.7077 10.257L64.5639 9.0968L62.1416 8.58114L59.6084 10.7727L61.0794 7.21852L55.295 4.66602L49.4938 10.257C49.4938 10.257 49.5338 13.8963 48.75 16.2013Z" fill="#979797"/>
<path d="M17.2753 10.2617C17.1702 10.2617 17.0651 10.2682 16.9608 10.2811C16.5109 10.3365 16.0236 10.3893 15.5208 10.4525L14.4895 12.8877C15.1727 12.7498 15.9076 12.6647 16.5831 12.586C16.8087 12.5603 17.0291 12.5345 17.2418 12.5074H17.2779C17.5087 12.5074 17.938 12.8078 18.3092 13.384C19.0505 14.5223 19.4424 16.478 18.6496 18.2596C18.103 19.4907 17.2315 20.1146 16.0713 20.1146C15.8158 20.1138 15.5611 20.0848 15.312 20.0283C15.1199 19.9844 13.435 21.4296 13.2545 21.3522C12.8897 21.2091 14.0538 19.5152 13.7947 19.2806C12.8226 18.3962 12.1033 16.9601 11.7153 15.9997L10.0549 16.3671C10.0458 16.5128 9.29297 15.7277 9.29297 15.8862C9.29297 15.8862 10.2276 19.0743 12.2851 20.9448C13.3356 21.8566 14.679 22.3599 16.07 22.3629C16.3665 22.3629 18.5335 20.4691 18.8275 20.4176C18.9757 20.3931 17.2521 22.2301 17.3978 22.1914C18.7037 21.8331 19.9284 20.9139 20.7006 19.1684C22.5054 15.105 20.1308 10.2617 17.2753 10.2617Z" fill="#979797"/>
<path d="M9.29297 14.3332L11.0385 15.0809L12.0363 14.3332L12.5339 10.168L10.0407 10.4387L9.29297 14.3332Z" fill="#979797"/>
<path d="M14.3434 9.72722L13.5957 8.02297L15.3116 7.97656L14.3434 9.72722Z" fill="#979797"/>
<path d="M29.7421 56.2949L36.1311 57.2514L38.1563 55.9855H50.4831C50.4831 55.9855 47.2164 51.7854 45.3458 47.8639L38.6333 41.8861L36.1839 42.9793L37.6561 40.5738L36.3451 38.8334L30.2513 43.7966L35.7301 37.8949L29.0266 31.8128L20.6472 21.5087C20.6472 21.5087 20.2901 23.7079 15.9599 23.4656C11.4092 23.2077 10.0156 19.8418 10.0156 19.8418C11.1759 23.4656 14.565 28.2934 14.565 28.2934L16.1313 32.7177L19.9987 39.3065L26.973 49.8775C26.973 49.8775 29.5049 48.0418 29.5642 48.2016C29.5938 48.2815 27.4526 50.6304 27.4822 50.7103C27.9566 51.9917 28.4001 53.2718 28.7791 54.5532C28.8126 54.668 36.6274 45.0342 36.6609 45.1489C36.7266 45.3797 29.3128 54.9606 29.3708 55.1913C29.4533 55.4827 29.6725 55.9996 29.7421 56.2949Z" fill="#979797"/>
<path d="M22.5059 20.1922C22.5059 20.1922 23.8801 19.6133 23.6932 15.8826C23.5062 12.1518 22.5458 12.2188 22.5458 12.2188C22.5458 12.2188 28.035 12.6185 31.1109 12.4612C31.3932 12.447 27.9138 14.2982 28.1459 14.2737C28.561 14.2299 32.6346 12.3 32.8525 12.2188H35.8111L36.2365 15.0807L35.619 16.3106L35.8072 19.1686C35.8072 19.1686 34.5361 19.6404 32.6656 19.1686C30.795 18.6968 30.3696 20.1922 30.3696 20.1922H22.5059Z" fill="#979797"/>
<path d="M38.4643 10.2617C38.4643 10.2617 38.5133 12.2135 38.4746 14.4527C38.4746 14.8227 38.2773 15.2017 38.2773 15.5794C38.2773 18.0726 38.4643 20.5787 38.4643 20.941C38.4643 21.6887 40.1479 22.359 40.1479 22.359H41.2694L43.7626 18.6205L42.5612 22.359H45.9452V15.1398L46.8476 14.2039V10.2617H44.1404L41.6484 14.0015L41.8985 10.263H39.5858C39.5858 10.263 39.212 11.5509 38.4643 10.2617Z" fill="#979797"/>
<path d="M29.2366 59.7413L32.7018 60.6695L39.2764 60.208C39.5278 60.208 45.4488 60.1151 46.9532 60.208C48.0864 60.2789 62.753 60.5173 66.6977 60.6231C66.8086 59.6549 64.3876 54.907 63.9622 54.8322C63.6334 54.7742 55.8406 55.1042 54.0255 55.0076C53.4724 54.9779 53.0728 54.5241 52.5223 54.4055C52.1356 54.323 51.3144 54.8322 51.3144 54.8322L53.4557 57.9081L37.8029 58.2562L35.7209 59.428L32.8913 58.0731L28.6848 57.8256L27.7463 54.916L25.966 54.7123L25.4439 55.1313L12.4726 54.8335C12.3472 55.5579 12.0729 56.2485 11.6669 56.8613C11.4297 57.23 11.1344 57.2404 10.8431 57.6052C10.2088 58.398 9.59392 59.4757 9.63259 59.7413H29.2366Z" fill="#979797"/>
<path d="M66.4999 62.8661C64.8704 62.8223 56.5116 62.7579 54.2131 62.6921C53.8264 62.6818 45.951 66.41 45.5668 66.3997C44.805 66.3778 51.5459 62.6148 50.8523 62.5941L49.5309 62.5516C49.0372 62.5361 44.8501 64.3912 44.4659 64.3783C43.8213 64.3551 47.0893 62.4665 46.874 62.4523C45.456 62.3634 39.6858 62.4523 39.3171 62.4523L32.5736 62.9254L29.0632 61.9844H9.66295C9.60985 62.5462 9.48553 63.0989 9.29297 63.6293L9.3252 65.2807L13.0934 64.7908L9.37032 67.5277L9.43606 70.8653C10.1502 70.8988 15.3158 71.4931 17.6118 71.2958C19.3496 71.1463 26.6474 70.1898 27.1875 70.2155C27.6104 70.2349 28.0178 70.6809 28.4393 70.7196C30.5097 70.9143 29.5054 70.7286 31.5771 70.8266C31.6828 70.1949 44.3486 69.8378 43.5841 70.7686C44.5226 70.8124 49.4085 70.7789 50.3508 70.7686C51.0367 70.7583 51.7521 69.9268 52.4367 69.959C53.6549 70.0157 54.8487 70.7441 56.0643 70.8524C57.3148 70.9632 64.5933 70.4553 65.845 70.5146C65.3526 68.4791 66.3272 65.5643 66.3968 63.3818C66.4019 63.3779 66.4419 63.1755 66.4999 62.8661Z" fill="#979797"/>
<path d="M55.1621 54.2066L56.9205 52.9368V51.0469L55.1621 52.9368V54.2066Z" fill="#979797"/>
</svg>
