<svg width="30" height="30" viewBox="0 0 30 30" fill="none" xmlns="http://www.w3.org/2000/svg">
<path d="M10.648 19.6913C10.0401 19.5856 9.08579 19.3366 8.65353 18.6384C7.8374 17.3204 8.08971 15.1789 10.4624 14.8378C10.6166 14.8157 10.4718 15.0017 10.648 14.9919C12.5392 14.8871 13.267 15.7027 13.4314 16.7444C13.5489 17.4915 13.4784 18.4039 12.8714 18.948C12.3879 19.3821 11.4214 19.8257 10.648 19.6913Z" fill="white"/>
<path d="M18.8652 17.6018H19.9807V15.8906H20.5384V17.2194L22.3703 17.6018V18.1572H20.6178V19.4864H20.1399L19.9008 18.3136H18.8652V17.6018Z" fill="white"/>
<path d="M22.6976 14.856C21.881 14.2682 20.9991 14.1789 20.1863 14.2766C20.0899 14.2884 19.9946 13.1307 19.9001 13.149C19.7122 13.1814 19.5313 14.3936 19.3556 14.4387C18.5888 14.6347 17.946 14.9114 17.5701 14.9321C17.1473 14.9556 16.6037 14.8358 16.0915 14.6464C15.9323 14.5877 15.8543 16.5531 15.7063 16.4831C15.6348 16.4492 15.4868 14.3833 15.4192 14.3476C15.1778 14.2259 14.9542 14.0716 14.7548 13.889C14.2168 13.3609 13.3876 13.1514 13.3876 13.1514C13.3876 13.1514 12.8092 11.9659 10.8504 11.9688C8.89159 11.9716 7.84806 13.2157 6.30649 14.334V14.9918C6.30649 14.9918 4.96602 16.8993 6.64149 19.9294C7.85135 22.117 10.1653 22.4092 12.3962 21.9568C12.5024 21.9352 12.5404 22.4886 12.6466 22.4637C12.6997 22.4511 12.8205 21.8619 12.8736 21.8487C13.5537 21.6757 14.219 21.4485 14.8629 21.1693C17.611 19.9853 19.006 21.2976 20.9192 21.3065C22.0765 21.3121 23.0669 20.3198 23.8041 19.5963C24.5413 18.8727 24.6409 16.2552 22.6976 14.856ZM13.5779 19.6301C12.9633 20.1822 11.9221 20.6689 10.9585 20.6689C10.8098 20.6693 10.6615 20.6571 10.5149 20.6323C10.4252 20.6163 10.3373 20.5999 10.2513 20.5815C10.1949 20.5698 10.139 21.4822 10.0845 21.4695C9.97694 21.4442 9.87216 20.4913 9.77115 20.4622C8.84414 20.192 8.18776 19.7523 7.8147 19.1499C7.1649 18.1003 7.06295 16.757 7.55676 15.7285C8.03318 14.7352 9.01328 14.084 10.318 13.8961C10.407 13.881 10.4981 13.8841 10.5859 13.9051C10.6736 13.9261 10.7562 13.9646 10.8288 14.0182C10.8457 14.0314 10.8617 14.0445 10.8758 14.0586C13.5896 14.0182 14.2521 15.604 14.4057 16.577C14.6096 17.8616 14.3075 18.9747 13.5779 19.6301ZM23.0598 18.8713H21.3595V20.161H19.5449L19.3128 19.0245H18.1744V16.8754H19.255V15.2149H21.281V16.6428L23.0584 17.0144L23.0598 18.8713Z" fill="white"/>
<path d="M10.0164 10.5678C10.3923 10.5786 10.3622 10.6946 10.6935 10.751C10.9152 10.7891 11.137 10.5988 11.3513 10.6472C12.3661 10.8765 13.2462 11.3731 13.3481 11.6451C13.3481 11.6451 14.4941 11.5512 14.8046 12.1216C14.9268 12.3461 15.2172 12.6323 15.5686 12.893C15.6109 12.9245 15.7326 13.5038 15.7768 13.533C15.8656 13.5945 15.8796 13.1759 15.9731 13.2323C16.2598 13.4052 16.5595 13.478 16.8269 13.5504C16.933 13.579 17.0345 8.46943 17.1276 8.47601C17.1708 8.47836 17.2126 13.6049 17.2521 13.6006C17.6627 13.5612 18.3379 13.5537 19.1376 13.267C19.4138 13.1679 19.5684 11.6503 19.8682 11.5808C20.0185 11.546 20.3075 13.3521 20.4616 13.3305C20.6921 13.2972 20.9251 13.2838 21.1579 13.2905C21.2664 13.2938 21.3017 10.805 21.4177 10.8229C21.4774 10.8323 21.6155 13.3432 21.6766 13.3558C22.2174 13.4705 22.8127 13.7275 23.3629 14.0996C22.7822 10.8149 21.0536 7.09842 15.9534 6.98941C15.3896 6.97767 14.8502 7.06083 14.3353 7.08338C13.9246 7.10171 13.5299 6.97203 13.1527 7.00821C11.6397 7.15339 12.0462 6.90625 11.1661 7.45503C11.043 7.53209 11.3921 8.78376 11.2761 8.86739C11.0881 9.00318 9.65276 9.36684 9.16788 9.40396C8.92168 9.42275 8.7187 9.06755 8.64259 9.1493C8.4133 9.3955 8.36068 9.66003 8.15442 9.9424C7.91338 10.2713 7.60422 10.5466 7.40501 10.9225C7.20579 11.2984 7.11511 11.7739 7 12.1911C7.56711 11.6771 8.72622 10.5288 10.0164 10.5678Z" fill="white"/>
<path d="M21.6305 22.4956C18.975 23.0683 18.9228 21.3299 16.2668 22.0591C16.1385 22.0943 16.014 23.1482 15.8932 23.1867C15.8336 23.206 15.7748 22.0718 15.717 22.0915C14.7195 22.4312 13.9612 22.731 13.1535 23.066C13.0596 23.1045 12.9656 24.4314 12.8716 24.4671C12.6814 24.5385 12.4864 23.3136 12.2839 23.3695C11.4851 23.5894 10.5576 23.6679 9.28858 23.4527C8.45498 23.3185 7.66558 22.9868 6.98633 22.4853C7.41342 23.5222 8.05946 24.0264 8.91975 24.593C9.11756 24.7236 9.32711 24.687 9.54794 24.7955C9.74527 24.8932 9.95201 25.1408 10.1677 25.2259C11.5006 25.7516 13.1747 25.9264 15.1838 25.9147C15.3459 25.9147 15.5098 25.1305 15.6762 25.1272C15.7598 25.1272 15.8444 25.9048 15.9294 25.9029C16.0581 25.8995 16.188 25.8954 16.3189 25.8907C18.1786 25.8263 19.6511 25.3983 20.6951 24.7231C20.9831 24.5352 20.4282 23.5213 20.642 23.2915C20.7458 23.1806 21.6287 23.8516 21.7316 23.7491C21.8594 23.6223 22.1356 23.6528 22.2484 23.5269C22.7774 22.934 22.9771 22.4599 23.2144 21.7734C22.7666 22.0286 22.2442 22.3636 21.6305 22.4956Z" fill="white"/>
<path d="M6.07728 13.1824C6.07728 13.1824 5.14886 13.4145 4.98066 13.8665C4.88387 14.1263 5.02764 14.6929 4.94401 15.0951C4.79084 15.8234 4.29374 16.5469 4.40603 17.7206C4.47228 18.4141 4.88998 19.1189 5.10282 19.9609C5.10282 19.9609 5.48198 21.0025 6.24925 21.408C6.24925 21.408 5.15497 22.1889 4.52678 21.2168C3.8986 20.2446 3.5044 19.0865 3.58709 16.4309C3.66978 13.7753 4.7105 12.619 6.07728 13.1824Z" fill="white"/>
<path d="M24.2344 13.0459L24.5163 14.3488C24.5163 14.3488 25.6092 15.8674 25.3954 18.211C25.1816 20.5546 24.0977 21.1005 24.0977 21.1005C24.0977 21.1005 24.7132 22.0116 25.4973 21.2175C26.2815 20.4235 26.39 18.9651 26.39 16.6215C26.39 14.2779 26.0527 11.712 24.2344 13.0459Z" fill="white"/>
<path d="M2.90122 18.4419C2.90122 18.4419 2.70389 17.14 2.90122 16.4629C2.90122 16.4629 1.71674 16.1294 1.6674 17.3636C1.61807 18.5979 2.90122 18.4419 2.90122 18.4419Z" fill="white"/>
<path d="M27.1973 16.4229C27.1973 16.4229 27.3946 16.7936 27.1973 17.7225C27.1973 17.7225 28.3324 18.0627 28.3324 17.0549C28.3324 16.0471 27.6422 15.9658 27.1973 16.4229Z" fill="white"/>
<path d="M2.55809 15.5499H2.99505L3.54054 13.8951L3.40381 6.12471C3.40381 6.12471 3.1656 5.29919 2.98095 6.12471C2.7963 6.95023 2.55809 14.9926 2.55809 14.9926C2.55809 14.9926 2.31753 15.2073 2.55809 15.5499Z" fill="white"/>
<path d="M2.81968 4.65328C2.81968 4.65328 1.55109 3.51202 2.81968 2.69684C4.08826 1.88165 4.37017 3.67506 4.37017 3.67506C4.37017 3.67506 4.6051 4.73504 2.81968 4.65328Z" fill="white"/>
<path d="M25.7826 3.5952C25.5993 2.51456 27.4054 1.87227 27.6568 3.1418C27.9081 4.41133 26.8806 4.56685 26.8806 4.56685C26.8806 4.56685 26.0889 5.40741 25.7826 3.5952Z" fill="white"/>
<path d="M27.4396 6.82812L26.9284 7.1932C26.8466 7.5968 26.7531 8.09671 26.6465 8.71127L27.2051 9.18817L27.4396 6.82812Z" fill="white"/>
<path d="M27.2723 9.67655L26.6206 9.34766C26.6065 10.7069 26.4764 11.0532 26.5149 13.5223L26.9904 14.625C26.9904 14.625 26.6991 15.0836 27.2173 15.28C27.7356 15.4763 27.5876 15.233 27.5876 15.233L27.2723 9.67655Z" fill="white"/>
<path d="M27.0808 6.31209L27.0714 6.14671C27.0714 6.14671 26.8337 4.77334 26.7012 6.73684L27.0808 6.31209Z" fill="white"/>
<path d="M8.79297 8.72854L9.26282 9.11945L10.6428 8.6496L10.5648 7.34766C10.5648 7.34766 9.00064 8.33809 8.79297 8.72854Z" fill="white"/>
<path d="M8.92383 6.37995L10.3818 6.64588L10.7464 6.37995L9.28843 5.73438L8.92383 6.37995Z" fill="white"/>
<path d="M21.2559 24.1953H22.0922V24.9767H21.4696L21.2559 24.1953Z" fill="white"/>
<path d="M21.2547 25.9141L22.091 26.538L21.2547 27.5534L19.7812 26.3036L21.2547 25.9141Z" fill="white"/>
</svg>
