<svg width="30" height="30" viewBox="0 0 30 30" fill="none" xmlns="http://www.w3.org/2000/svg">
<path d="M19.2434 1.66797L11.2368 10.0569V11.5481L6.85352 15.8354H15.2471C15.2471 15.8354 14.9665 18.7252 13.1471 20.7245C12.6518 21.2693 13.04 21.8461 13.0482 22.172C13.0825 23.4769 10.3126 28.1373 10.3126 28.1373L23.5039 13.0393L20.6368 13.4409L19.7148 12.9537L15.2471 12.853L16.7738 9.03134V7.91266L18.5042 3.81162L19.2434 1.66797Z" fill="white"/>
<path d="M3.47266 20.1445L4.45339 23.1845L6.21056 24.1973H4.76536C4.76536 24.1973 4.59075 24.9836 7.4538 26.5615L9.00144 27.406L9.68708 26.0557C9.68708 26.0557 5.89917 23.0157 5.4382 21.8342L5.4964 22.8464L3.47266 20.1445Z" fill="white"/>
<path d="M14.7012 28.3331C14.7012 28.3331 18.8377 27.8262 20.3889 25.9689H21.6321L23.8258 23.7734H20.3889L17.5491 26.0539L18.1404 24.703L15.4322 26.0539L14.7012 28.3331Z" fill="white"/>
<path d="M22.2871 22.7738L24.4663 22.6184L26.2822 20.8799L27.1826 18.082L23.9075 20.487L22.2871 22.7738Z" fill="white"/>
<path d="M4.51101 16.5807L5.43354 14.064L4.51101 12.9453L3.47266 13.8772L4.51101 16.5807Z" fill="white"/>
<path d="M3.47199 18.1665L3.70248 17.418L2.89984 17.6159L2.81836 17.9802L3.47199 18.1665Z" fill="white"/>
<path d="M21.3789 10.5627L22.9201 11.4625L24.377 10.4981L24.5615 8.86719L21.3789 10.5627Z" fill="white"/>
<path d="M26.0788 7.89149L25.1562 6.95965L26.0788 6.67969V7.89149Z" fill="white"/>
</svg>
