<svg width="18" height="17" viewBox="0 0 18 17" fill="none" xmlns="http://www.w3.org/2000/svg">
<g clip-path="url(#clip0_2292_3182)">
<path d="M15.7581 8.86649C15.6122 8.56886 15.3097 8.38025 14.9783 8.38025H12.932L12.932 0.868384C12.932 0.388804 12.5432 0 12.0636 0L7.22058 0C6.741 0 6.3522 0.388804 6.3522 0.868384L6.3522 8.38025H4.30594C3.97451 8.38025 3.67202 8.56892 3.52613 8.86649C3.38024 9.16411 3.41654 9.51876 3.61963 9.78066L8.95584 16.6637C9.12032 16.8759 9.37371 17.0001 9.64216 17.0001C9.9106 17.0001 10.164 16.8759 10.3284 16.6637L15.6646 9.78066C15.8677 9.51876 15.904 9.16411 15.7581 8.86649Z" fill="white"/>
</g>
<defs>
<clipPath id="clip0_2292_3182">
<rect width="17" height="17" fill="white" transform="translate(0.603516)"/>
</clipPath>
</defs>
</svg>
