<svg width="30" height="30" viewBox="0 0 30 30" fill="none" xmlns="http://www.w3.org/2000/svg">
<path d="M28.0627 13.4583C27.0871 13.4259 23.0982 13.3255 22.1921 13.3393C22.0621 13.3393 20.0881 13.4721 19.383 13.4478C18.2184 13.4083 16.7758 13.4121 15.6116 13.3669C15.4645 13.3612 15.306 13.6407 15.1584 13.6335C14.8641 13.6197 14.2813 13.4255 13.5614 13.2588C12.6535 13.0484 13.1686 13.1907 12.2374 13.1545C12.1693 13.1517 11.8146 13.1598 11.7203 13.1641C11.7141 13.3274 11.3227 13.4869 11.2832 13.6459L16.7281 14.2044L18.3608 13.8835H18.3831L25.1403 14.0587L25.1955 14.0701L28.327 13.9616L28.0627 13.4583Z" fill="white"/>
<path d="M20.1707 14.5753L21.0277 15.987L19.3698 14.5458L18.5095 14.5144L19.1475 15.4366L17.8343 14.8372L11.3477 14.2734C11.3505 14.4015 11.3605 14.6277 11.371 14.8634H11.4291V15.8704L12.5156 17.0516L11.4291 17.1226V18.1391L11.7147 18.5676L11.4291 19.0718L11.6195 20.1193C11.6805 20.1192 11.7409 20.132 11.7966 20.1569C11.8328 20.1759 11.7628 20.235 11.6538 20.3073L11.6943 20.5268C12.009 20.4316 12.3237 20.3311 12.3237 20.3311C12.1171 20.4401 11.9169 20.5609 11.7243 20.693L11.7581 21.5024C12.1447 21.8714 12.4246 22.1614 12.277 22.7841C12.2294 22.9855 12.2713 23.2564 12.1818 23.474C12.0418 23.8073 11.839 24.0059 11.5714 24.1739C11.3496 24.3134 9.25271 25.0786 8.94657 25.0933C8.83563 25.0981 8.72469 25.2695 8.61328 25.2685L8.66089 27.2682C8.89895 27.2778 9.75074 27.4416 10.5178 27.3868C11.0977 27.3459 11.629 27.0816 11.8095 27.0887C11.9523 27.094 12.0866 27.2173 12.2275 27.2283C12.9179 27.2816 12.5832 27.2283 13.275 27.2573C13.3102 27.083 17.5372 26.9845 17.282 27.2416C17.5953 27.2535 19.2261 27.2444 19.5403 27.2416C19.7693 27.2387 20.0078 27.0092 20.2369 27.0183C20.643 27.034 21.0415 27.2349 21.4472 27.2649C21.8647 27.2959 22.2889 27.1554 22.707 27.1697C22.5427 26.6074 22.8674 25.8023 22.8912 25.1995C22.4427 25.1995 21.8914 25.0876 21.4524 25.0833C21.2381 25.0833 21.6647 24.8162 21.4524 24.8048C20.8334 24.771 20.2902 24.5305 19.9012 24.0163C19.8417 23.9373 19.9612 23.8644 19.9164 23.784C19.695 23.3855 19.4717 23.2436 19.4513 22.797C19.4394 22.5393 19.4665 22.2814 19.5317 22.0319C19.5793 21.8281 19.5917 21.5757 19.6746 21.3934C19.7574 21.211 19.7998 20.8563 19.9126 20.6887C19.9464 20.6387 19.7593 20.0659 19.795 20.0174C19.8674 19.9198 20.1654 20.0055 20.2459 19.9141C20.4192 19.7165 20.5868 20.1045 20.7911 19.926C20.931 19.8046 20.4987 19.2913 20.7306 19.1361C20.7839 19.1004 20.8487 18.8356 20.9049 18.799C21.0225 18.7228 21.1372 18.8733 21.2648 18.7947C21.3924 18.7161 21.51 18.6447 21.6352 18.57C21.8028 18.47 21.9123 18.4271 22.078 18.3319C22.3856 18.1543 22.8198 17.0897 22.8874 17.5944C22.946 18.0305 23.6683 17.433 23.694 17.422C23.7868 17.3816 23.186 16.7355 23.3502 16.656C23.4807 16.5931 24.3682 17.0992 24.512 17.0459C24.7998 16.9367 25.0953 16.8492 25.3961 16.784C28.2614 16.8102 27.9519 16.8869 28.2614 16.8102L28.3352 14.641" fill="white"/>
<path d="M10.3447 15.6484L8.86537 16.2012L8.82156 16.1888L8.75586 16.5878L9.03058 19.5874C9.07391 19.4579 9.13342 19.1589 9.18675 19.1756C9.2915 19.2075 9.93236 19.4008 10.0738 19.5831C10.2152 19.7655 9.91331 19.9383 10.0738 20.0045C10.2666 20.0826 10.5527 20.0521 10.817 20.0269L10.6265 18.9918L10.9122 18.5661L10.6294 18.0467L10.6304 16.5497L11.2017 16.535L10.3447 15.6484Z" fill="white"/>
<path d="M9.00781 15.639L10.7295 14.9329L10.6923 13.7835C10.3705 13.7735 9.8596 13.7554 9.32539 13.7188L9.00781 15.639Z" fill="white"/>
<path d="M8.47635 15.6615L8.74678 14.604L8.67441 14.5983C8.29351 14.5659 7.885 14.424 7.45935 14.4079C7.03369 14.3917 6.59185 14.5031 6.15572 14.5121C5.21681 14.5264 4.2917 14.4559 3.52896 14.4259C3.27518 14.4164 3.23376 14.5916 3.15234 14.7073L5.78816 14.9002L8.47635 15.6615Z" fill="white"/>
<path d="M8.32121 16.1081L5.66349 15.3549L2.42586 15.1168L2.57488 14.7992C2.16018 14.6764 1.70549 14.416 1.66406 14.4141C1.75119 14.5836 1.81261 14.7197 1.88879 14.8473C2.22082 15.3966 2.63364 15.8927 3.11338 16.319C3.16956 16.3695 4.05991 17.0542 4.1837 17.1427C4.72839 17.5322 4.48318 17.3551 4.57746 17.4213C5.23784 17.8859 4.8736 17.2651 5.59588 17.5693C5.76919 17.6422 6.06391 18.4582 6.15295 18.4892C6.24198 18.5201 7.68654 19.2553 8.51166 19.4552L8.23455 16.4423L8.32121 16.1081Z" fill="white"/>
<path d="M7.16196 12.6708L6.76154 12.3041L5.68408 11.9961L5.60742 12.2642L7.16196 12.6708Z" fill="white"/>
<path d="M13.1722 9.22871C13.1722 9.22871 13.1722 10.1124 13.5255 10.4666C13.8788 10.8209 14.9396 11.816 14.9396 11.816C14.9396 11.816 16.2651 11.4384 16.707 10.997C17.1488 10.5557 17.5902 9.22966 17.5902 9.22966L16.5298 8.16934L21.3325 5.4583L22.1976 5.03979L21.9281 4.29846L22.8289 4.76649L24.6182 3.57333L24.4021 2.90914L23.9521 2.60156C23.9521 2.60156 21.5287 3.81901 20.0336 4.65698C19.6352 4.88526 19.2546 5.14342 18.8952 5.42925C18.8129 5.48877 18.4162 5.60923 17.9258 5.8211C16.9588 6.23914 15.6281 6.84286 15.6281 6.84286C15.6281 6.84286 13.7907 5.8711 13.6141 5.60494C13.4374 5.33879 13.1722 4.80982 13.1722 4.80982C13.1722 4.80982 11.6296 5.07454 11.5615 5.42878C11.4934 5.78301 11.5615 6.6667 11.5615 6.6667C11.5615 6.6667 12.5537 8.69831 13.1722 9.22871Z" fill="white"/>
<path d="M12.4287 11.7703L10.3062 10.0415L11.5288 9.64104L9.32297 7.48278L9.71958 9.32585L6.11914 6.25391L7.97316 9.32585L9.84861 10.8418L8.46166 11.0261L11.416 11.876L12.4287 11.7703Z" fill="white"/>
<path d="M4.95853 8.14349L4.03152 7.96875L3.8125 9.13239L5.60748 8.86815L4.95853 8.14349Z" fill="white"/>
<path d="M2.28125 9.32375L2.78165 9.15234V9.58085L2.28125 9.32375Z" fill="white"/>
</svg>
