<svg width="38" height="38" viewBox="0 0 38 38" fill="none" xmlns="http://www.w3.org/2000/svg">
<circle cx="19" cy="19" r="19" fill="black"/>
<path d="M19.1213 14.7362C20.0663 14.7362 20.8325 13.9004 20.8325 12.8694C20.8325 11.8385 20.0663 11.0027 19.1213 11.0027C18.1762 11.0027 17.4102 11.8385 17.4102 12.8694C17.4102 13.9004 18.1762 14.7362 19.1213 14.7362Z" fill="white"/>
<path d="M19.7454 22.9146L20.6277 19.2549L21.2672 16.7139C21.8015 14.0174 16.2712 16.3074 15.4618 16.9964L15.5267 17.8051C16.2637 17.2393 19.0542 16.5146 18.4978 18.5175L18.2483 19.54L16.9759 24.7182C16.4416 27.4146 21.9719 25.1246 22.7813 24.4356L22.7164 23.6268C21.9796 24.1929 19.189 24.9176 19.7454 22.9146Z" fill="white"/>
</svg>
