<svg width="32" height="20" viewBox="0 0 32 20" fill="none" xmlns="http://www.w3.org/2000/svg">
<path d="M16.1764 4.98178C17.551 4.98178 18.6654 3.86744 18.6654 2.49284C18.6654 1.11824 17.551 0.00390625 16.1764 0.00390625C14.8018 0.00390625 13.6875 1.11824 13.6875 2.49284C13.6875 3.86744 14.8018 4.98178 16.1764 4.98178Z" fill="white"/>
<path d="M17.0842 15.8861L18.3676 11.0065L19.2978 7.6185C20.0749 4.0232 12.0308 7.07653 10.8535 7.99514L10.948 9.0735C12.0199 8.31911 16.0789 7.35274 15.2696 10.0234L14.9066 11.3867L13.0558 18.2909C12.2787 21.8862 20.3228 18.8328 21.5001 17.9142L21.4057 16.8358C20.334 17.5905 16.2749 18.5568 17.0842 15.8861Z" fill="white"/>
</svg>
