<svg width="35" height="35" viewBox="0 0 35 35" fill="none" xmlns="http://www.w3.org/2000/svg">
<rect width="35" height="35" rx="17.5" fill="#F79009"/>
<path d="M15.5002 18.5C15.9297 19.0741 16.4776 19.5491 17.1067 19.8929C17.7359 20.2367 18.4317 20.4411 19.1468 20.4923C19.862 20.5435 20.5798 20.4403 21.2515 20.1897C21.9233 19.9392 22.5333 19.547 23.0402 19.04L26.0402 16.04C26.951 15.097 27.455 13.8339 27.4436 12.523C27.4322 11.212 26.9063 9.95791 25.9793 9.03087C25.0523 8.10383 23.7982 7.57799 22.4872 7.5666C21.1762 7.5552 19.9132 8.05918 18.9702 8.96997L17.2502 10.68M19.5002 16.5C19.0707 15.9258 18.5228 15.4508 17.8936 15.107C17.2645 14.7633 16.5687 14.5588 15.8535 14.5076C15.1384 14.4564 14.4206 14.5596 13.7489 14.8102C13.0771 15.0608 12.4671 15.4529 11.9602 15.96L8.9602 18.96C8.04941 19.903 7.54544 21.166 7.55683 22.477C7.56822 23.788 8.09407 25.042 9.02111 25.9691C9.94815 26.8961 11.2022 27.4219 12.5132 27.4333C13.8242 27.4447 15.0872 26.9408 16.0302 26.03L17.7402 24.32" stroke="white" stroke-width="2" stroke-linecap="round" stroke-linejoin="round"/>
</svg>
