<svg width="30" height="30" viewBox="0 0 30 30" fill="none" xmlns="http://www.w3.org/2000/svg">
<path d="M19.0664 18.7506C19.2831 18.6869 19.4766 18.5618 19.6238 18.3905C19.7709 18.2192 19.8653 18.0089 19.8956 17.7852C19.8956 17.7852 21.6291 19.0123 21.9767 20.814C22.3242 22.6156 21.8694 22.5008 22.0518 22.8591C22.0518 22.8591 21.7461 23.1064 21.4296 23.3536C21.1244 23.5923 20.8101 23.8305 20.7522 23.8465C20.7522 23.8465 20.6589 23.632 20.9168 22.2455C21.2226 20.608 19.0664 18.7506 19.0664 18.7506Z" fill="white"/>
<path d="M20.4922 17.1168C20.4922 17.1168 22.2954 16.9817 22.9761 17.2724C24.5031 17.9246 25.3784 20.269 25.4326 21.4372L25.7313 19.9531C25.7313 19.9531 26.4592 20.3082 26.5133 20.2095C26.5133 20.2095 25.3157 17.7615 24.1689 16.884C23.0222 16.0066 20.7282 16.1632 20.7282 16.1632C20.7583 16.4985 20.6752 16.8343 20.4922 17.1168Z" fill="white"/>
<path d="M17.9404 18.4738C17.9628 18.0896 17.9412 17.7041 17.8761 17.3249C17.8675 17.275 16.79 18.5092 16.7819 18.4716C16.7519 18.3332 17.6117 16.6281 17.5714 16.4957C17.3086 15.6343 16.9927 15.1135 16.451 14.5605C16.2868 14.3939 16.1048 14.2458 15.9082 14.1191C15.8009 14.0483 15.9806 13.9335 15.8696 13.8756C15.6497 13.7618 14.7046 14.0767 14.4841 14.0434C14.364 14.0257 14.9288 13.654 14.8934 13.5639C14.8521 13.4604 14.3345 13.4642 14.2224 13.4336C13.3959 13.9759 9.49548 15.4787 9.14041 15.5898C7.84376 15.9864 6.56979 16.4538 5.32422 16.9897L7.33127 17.1838L8.51126 17.7245C8.51126 17.7245 10.1944 17.8435 11.7294 19.436C11.9901 19.7068 14.7239 18.9479 14.4648 19.1742C13.0607 20.4041 13.0703 21.3245 13.2741 21.8292C13.3476 22.0116 13.4109 22.1902 13.4661 22.3656C13.5369 22.5887 14.1951 21.9569 14.2406 22.158C14.2626 22.2535 13.6801 23.1905 13.6973 23.2795C13.8507 24.0894 13.8201 24.6354 13.8201 24.6354C13.8201 24.6354 14.4101 23.6389 15.3386 22.2127C15.441 22.0556 15.4743 21.4618 15.5853 21.2929C15.7022 21.1159 15.8969 21.3679 16.0224 21.1818C16.2337 20.8691 16.407 20.2555 16.6382 19.9241C16.8908 19.5615 17.1509 19.6114 17.4373 19.3228C17.5982 19.1587 17.7833 18.684 17.9404 18.4738Z" fill="white"/>
<path d="M28.2337 7.82736L26.645 8.84644L27.8057 7.00298C27.5638 6.63557 27.3991 6.18771 27.1084 5.99141C26.977 5.90237 26.7185 6.00696 26.5914 5.94528C26.2759 5.78887 25.9363 5.68695 25.5868 5.64385L24.6385 6.36525L25.2569 4.83984L24.3451 5.36762L23.5636 5.57465L22.7881 6.41084L21.4504 6.05738C20.567 6.52133 19.6611 8.08052 19.6128 8.39107C19.578 8.61527 17.8734 9.99425 17.1992 10.5901C18.0156 10.787 18.4328 10.5612 19.1564 10.9275C19.5646 11.134 19.7131 11.2542 20.0939 11.5411C20.1814 11.6071 21.7931 10.9554 21.8768 11.0246C21.9186 11.0589 20.6968 11.9471 20.7386 11.9825C20.971 12.1828 21.1862 12.4021 21.3823 12.638C21.4236 12.6878 21.9669 12.5307 22.005 12.5795C22.0795 12.6793 21.6446 12.9893 21.7057 13.0912C21.879 13.3649 21.9925 13.6722 22.0388 13.9928C22.0602 13.9746 22.2152 13.6919 22.2367 13.6742C23.0498 12.9984 23.5744 12.4272 24.8354 11.7342C25.2167 11.5245 25.604 11.3968 25.9553 11.2129C26.5533 10.9002 27.058 10.4807 27.4394 10.293C27.8207 10.1053 28.0771 10.1476 28.0771 10.1476C28.5368 8.75043 28.2337 7.82736 28.2337 7.82736Z" fill="white"/>
<path d="M7.06725 18.4155C7.06725 18.4155 9.76727 18.2814 11.6123 20.6488C11.6944 20.7561 12.7172 20.0347 12.6851 20.1699C12.463 21.0613 12.1707 21.4791 12.3128 21.7645C12.4249 21.9892 12.3241 21.8916 12.4201 22.1469L9.57955 25.1526C9.57955 25.1526 11.0132 23.1145 9.86543 21.2694C9.81984 21.1959 10.0102 20.7867 9.95607 20.7121C9.84397 20.5614 9.47335 20.7508 9.31995 20.6049C9.0622 20.3618 8.77814 20.1483 8.47304 19.9682C8.3588 19.8996 8.91178 19.4211 8.78413 19.3552C8.64199 19.2822 7.81868 19.6233 7.65778 19.5531C7.05199 19.2972 6.42467 19.0956 5.7832 18.9507L7.06725 18.4155Z" fill="white"/>
<path d="M6.14453 21.0979C6.397 21.0092 6.67273 21.0128 6.92279 21.1081C7.03006 21.1462 7.33203 21.0217 7.44466 21.1038C7.5573 21.1859 7.47899 21.4728 7.59055 21.6107C7.65395 21.6884 7.71235 21.7701 7.76541 21.8553C7.80188 21.9132 8.1135 21.8515 8.14568 21.9121C8.21058 22.0333 7.9896 22.2795 8.03841 22.4039C8.22936 22.9044 8.27656 23.3887 8.15748 23.5501L9.5252 22.1814C9.5252 22.1814 8.87138 20.435 7.35027 20.2344L6.14453 21.0979Z" fill="white"/>
<path d="M9.7812 22.8163L7.73285 24.6496C7.73285 24.6496 8.02785 22.767 7.14661 21.9587C7.04792 21.868 7.06669 21.6943 6.93636 21.6369C6.86824 21.6058 6.66335 21.676 6.58558 21.6551C6.50983 21.6351 6.43276 21.6206 6.35495 21.6117C4.53401 21.3971 5.32192 23.7195 5.32192 23.7195L5.54719 23.5822L5.43992 23.8236L5.51286 23.9604L6.15649 23.6777L5.71453 24.1347C5.71453 24.1347 6.36567 25.0551 7.4872 25.238L8.01337 24.9757L7.85246 25.3742C7.85246 25.3742 8.26545 25.5099 8.52934 25.26C8.86242 24.9451 9.53287 24.449 9.7812 22.8163Z" fill="white"/>
<path d="M6.67381 19.9422L5.20526 20.9683C5.20526 20.9683 4.88344 21.1142 4.81103 21.4236C4.81103 21.4236 3.75119 22.3403 4.62492 23.9933L4.82337 24.2937L5.02611 24.394L5.06902 24.6488C5.35651 25.1395 6.86636 25.8019 6.88835 25.8046L7.29866 25.6276L7.10933 25.9408C7.10933 25.9408 7.78836 26.5845 9.72086 25.9918L12.7679 22.7565C12.7679 22.7565 13.5263 25.1658 11.7944 26.2428C10.5351 27.4469 6.8921 27.3091 5.29483 25.921L5.17415 25.648L4.81264 25.7091C4.81264 25.7091 3.68361 23.9451 3.55864 23.4167C3.23682 22.0603 2.8839 21.577 3.23682 20.8519C3.61227 20.0833 4.50531 19.6987 5.22618 19.6402C5.72751 19.6028 6.22925 19.7075 6.67381 19.9422Z" fill="white"/>
<path d="M4.62238 17.5856C4.09497 17.6819 3.58599 17.8605 3.11414 18.115C3.11414 18.115 2.24953 18.8767 1.98242 19.7917C1.71531 20.7067 1.6236 21.4136 1.68367 22.2096C1.74374 23.0055 2.36323 23.669 2.36323 23.669L2.66413 23.3955C2.66413 23.3955 2.02694 22.2648 2.26186 21.3064C2.40721 20.7126 2.34822 20.0524 2.73708 19.7139C3.12594 19.3755 4.47541 18.5548 6.23789 17.6854C6.23789 17.6854 5.01016 17.5202 4.62238 17.5856Z" fill="white"/>
<path d="M14.6236 12.9891C14.6236 12.9891 15.0527 12.9746 15.6679 13.2423C15.7527 13.2793 17.4014 13.6477 17.4915 13.696C17.6911 13.8033 16.3453 13.6107 16.5668 13.7829C17.0643 14.1793 17.4946 14.6532 17.8412 15.1866C17.8412 15.1866 18.6227 16.4813 18.4918 17.8308C18.361 19.1803 19.4369 17.8764 19.4369 17.8764C19.4509 17.3287 19.4067 16.781 19.305 16.2426C19.2846 16.1327 18.8909 15.9648 18.8641 15.85C18.8104 15.6108 19.1076 15.4183 19.018 15.171C18.7203 14.3493 18.2135 13.5297 17.3612 13.017C15.1042 11.6616 13.8958 12.1518 14.6236 12.9891Z" fill="white"/>
<path d="M20.3225 15.7048C20.3419 15.037 19.9798 14.0153 19.864 13.7063C19.8896 13.7838 19.9058 13.8641 19.9122 13.9455C19.7513 13.2547 19.3351 12.4743 18.4024 11.7835C16.0521 10.0435 15.0711 10.987 15.8434 11.8301C15.8434 11.8301 18.3691 12.4523 19.4494 14.5275L19.363 15.6404L19.7266 15.9086L19.8548 17.0258C20.293 17.0183 20.2995 16.4991 20.3225 15.7048Z" fill="white"/>
<path d="M20.8561 15.6126C20.8561 15.6126 21.3554 16.2305 21.6156 15.2758C21.8757 14.3211 21.1473 13.1727 20.3696 12.513C19.5919 11.8533 18.4414 11.1641 18.4414 11.1641C19.0383 11.629 19.547 12.1972 19.9432 12.8418C20.0505 13.0188 20.5069 13.3556 20.5943 13.5557C20.6528 13.6892 20.3487 13.6678 20.3954 13.7858C20.8314 14.8821 20.8561 15.6126 20.8561 15.6126Z" fill="white"/>
<path d="M24.5664 2.93111L25.1339 3.21002L25.6493 2.41406L24.5117 2.60608L24.5664 2.93111Z" fill="white"/>
<path d="M21.0156 3.48016L23.0302 4.98518L22.9224 3.12134L22.2412 2.49219L21.0156 3.48016Z" fill="white"/>
<path d="M21.3672 25.0789L21.9888 23.7305L23.1763 24.2384L23.1281 24.3156L22.272 24.52L21.3672 25.0789Z" fill="white"/>
<path d="M20.1229 27.5846L19.7539 26.3172L20.9226 25.9766L20.1229 27.5846Z" fill="white"/>
</svg>
