<svg width="30" height="30" viewBox="0 0 30 30" fill="none" xmlns="http://www.w3.org/2000/svg">
<path d="M3.64481 3.59603C3.64481 3.59603 2.17035 4.00861 2.31013 5.41656C2.44991 6.82452 4.3099 7.43494 4.3099 7.43494C4.3099 7.43494 4.36627 7.33743 4.46885 7.18694C4.51225 7.12494 3.83476 6.64811 3.8945 6.57145C3.92719 6.53087 4.69092 6.89385 4.72812 6.84989C4.80759 6.75576 4.89721 6.656 4.99866 6.55511C5.07926 6.47451 4.4587 5.6268 4.55508 5.54733C4.66781 5.44813 5.50593 6.12054 5.64402 6.02924C5.88532 5.87082 6.14748 5.74676 6.42297 5.66062C6.42297 5.66062 5.36728 3.5143 3.64481 3.59603Z" fill="white"/>
<path d="M26.2987 21.9853C25.9076 21.8059 25.4768 21.7306 25.048 21.7666C25.048 21.7666 23.4456 22.3516 18.8801 22.975C16.3613 23.046 14.7797 23.0246 13.498 23.0934C13.3988 23.099 13.4518 23.4411 13.356 23.4479C13.1688 23.4603 12.8374 23.139 12.6599 23.1571C12.2614 23.1977 11.8809 23.2535 11.4937 23.3312C11.4221 23.3459 11.811 24.2071 11.7395 24.2229C11.5946 24.255 10.9876 23.444 10.8376 23.4834C10.3676 23.6057 9.86931 23.7652 9.30399 23.9687C9.5672 24.1288 9.69853 24.3633 9.99444 24.9269C10.6015 26.093 9.86311 27.1955 9.79435 27.3071C9.52999 27.723 9.16291 28.0637 8.72852 28.2963C8.72852 28.2963 10.1196 28.5781 14.1958 27.6199C18.272 26.6618 18.5459 27.2784 21.2728 26.4402C23.9996 25.6021 26.4379 25.8496 26.4379 25.8496C26.6543 25.7103 27.3189 25.2442 27.5009 24.4247C27.705 23.5065 27.2416 22.4368 26.2987 21.9853Z" fill="white"/>
<path d="M25.5657 8.6938C25.6063 8.39057 25.1785 8.21189 24.9756 7.90922C24.7726 7.60655 24.7946 7.1765 24.7986 6.90483C24.8025 6.64274 25.7004 6.44152 25.6869 6.19408C25.5352 3.23557 24.1944 1.3891 21.6495 1.70248C21.2894 1.74701 20.9129 1.78815 20.5223 1.82648C20.3898 1.83945 20.6023 3.18371 20.4659 3.19611C20.3977 3.20231 19.9829 1.87721 19.9141 1.88341C19.5759 1.91328 19.2287 1.93977 18.8765 1.96739C18.5434 1.99219 18.2661 2.42844 17.9256 2.45042C17.7565 2.46113 17.5221 2.05588 17.3496 2.06828C13.6375 2.28472 9.7129 2.32361 8.1336 2.3005C8.1336 2.3005 5.9219 1.96964 4.31836 2.67419C4.85441 2.8634 5.35379 3.1437 5.79452 3.50273C6.11378 3.76535 6.39491 4.07114 6.62982 4.41131C8.27789 6.82366 7.42906 9.44625 6.52724 12.2374C6.34124 12.8162 6.51202 13.421 6.30179 14.0134C6.21273 14.2665 5.82495 14.5026 5.73815 14.7579C5.67615 14.9439 5.61491 15.1386 5.55441 15.3419C5.46874 15.6299 6.9308 15.3002 6.85077 15.6164C6.81019 15.7781 5.22581 16.5745 5.18748 16.7436C5.12924 16.9976 5.07288 17.2577 5.01839 17.5237C4.95583 17.8393 5.64854 18.2068 5.59555 18.5337C5.45634 19.4541 5.68574 20.4264 5.39208 21.3389C5.26357 21.7386 4.49027 22.0936 4.45589 22.4814C4.2727 24.6745 5.05841 26.5672 6.3063 27.1906C6.41452 27.247 7.28646 27.6922 8.01467 27.3963C8.82912 27.066 9.24903 25.8954 8.86012 24.9671C8.4932 24.0929 7.46851 23.589 7.29435 23.5303C7.48769 23.4089 7.69299 23.3077 7.90702 23.2282L7.66184 23.2192L7.58237 23.2164L7.28533 22.5739L7.46062 22.5581C7.58518 22.5462 7.712 22.5468 7.8236 22.5474C7.9352 22.5479 8.11838 22.5474 8.16178 22.5226C8.51856 21.9448 8.98976 22.1568 9.36796 22.327L9.44687 22.3619C9.46378 22.1077 9.54156 21.9426 9.68359 21.8592C9.85268 21.7594 10.0872 21.7927 10.3983 21.9606C10.4599 21.9797 10.5252 21.9839 10.5888 21.973C10.665 21.9658 10.7418 21.9675 10.8176 21.9781C10.9602 22.0035 11.1085 22.0254 11.2516 22.0463C11.4393 22.0739 11.6293 22.1027 11.8153 22.1404C12.5798 22.0557 13.3499 22.0316 14.1183 22.0683L14.2039 22.0711L14.1977 22.0023L14.3274 21.9939C14.5337 21.9804 14.7433 21.977 14.9474 21.9736C15.183 21.9702 15.4265 21.9663 15.6615 21.946C15.7947 21.9315 15.9265 21.907 16.056 21.8727C16.1406 21.853 16.2251 21.8321 16.3159 21.8163C16.3559 21.809 16.4032 21.7966 16.4528 21.7836C16.6219 21.7397 16.7967 21.694 16.9139 21.7887C17.1202 21.9578 17.2915 22.0277 17.4212 22.0001C17.5717 21.9691 17.7069 21.8113 17.8721 21.4731L17.9611 21.291L18.5203 21.9984C19.1656 21.9448 19.7405 21.8761 20.245 21.8006L19.4254 21.7188L19.4773 21.1129L19.6599 21.2431C19.7828 21.3305 19.9198 21.2995 20.1334 21.2352C20.4428 21.1456 20.8622 21.0244 21.2043 21.636C22.3389 21.4133 22.9138 21.1952 22.9138 21.1952C22.4183 20.6536 21.7025 20.2737 24.1577 13.9508C24.8814 12.0869 25.3526 10.2996 25.5657 8.6938ZM19.7332 6.63597L20.1215 7.13141L18.8579 8.07211L18.4876 7.61501L19.7332 6.63597ZM14.5269 9.11596C14.5431 9.1857 14.5524 9.25688 14.5545 9.32845C14.5514 9.40991 14.5404 9.49088 14.5218 9.57025C14.5168 9.599 14.5106 9.63169 14.5038 9.66833L16.3756 9.53362L16.3193 9.47725L16.5723 9.50713L16.6659 9.33465L16.7324 9.50994L16.8722 9.4998L16.8508 9.537C17.6066 9.60407 18.3512 9.51953 18.8308 8.73157L19.0602 8.83697L18.4594 10.3932L18.2339 9.82952C18.1545 9.8532 18.0739 9.88194 17.9893 9.91182C17.6105 10.046 17.1472 10.2083 16.6879 9.8408C16.6264 9.98509 16.5616 10.1328 16.419 10.166C16.0808 10.2455 15.728 10.2979 15.3881 10.3481C15.1909 10.3774 14.9874 10.4078 14.7896 10.4428C14.5128 10.4918 14.2321 10.5555 13.9345 10.618C13.7925 10.6496 13.6443 10.6817 13.4876 10.715L13.3934 10.7347L13.3478 10.653C13.0164 10.0657 13.438 9.76922 13.7767 9.53024C13.9954 9.37636 14.2023 9.23095 14.2626 9.02296L14.4198 8.47793L14.5111 9.03762C14.5162 9.06524 14.5213 9.09173 14.5269 9.11765V9.11596ZM17.7368 17.3056L18.0186 17.0345L18.1043 17.0846C18.2001 17.141 18.2948 17.203 18.3861 17.2633C18.5924 17.3997 18.7874 17.5282 18.9937 17.5891C19.2 17.65 19.4407 17.6505 19.6875 17.6488H19.8566L19.5782 16.5317L21.0498 18.5563L20.8514 18.5878C20.67 18.6166 20.5009 18.6521 20.3374 18.687C20.0071 18.7569 19.6937 18.8229 19.3792 18.8048L19.3375 18.8015C18.9734 18.771 18.62 18.6543 18.2458 18.5309C18.0846 18.4779 17.9172 18.4227 17.7475 18.3742L17.6878 18.3573L16.9201 16.5114L17.969 17.7007L17.7368 17.3056ZM15.5228 13.0219L14.6887 13.6419L14.8155 14.1408L15.0133 14.0213C15.2174 13.8973 15.3836 13.7958 15.551 13.6972C15.812 13.5427 16.0126 13.5089 16.1643 13.594C16.3159 13.6791 16.3937 13.8866 16.3813 14.214V14.2287L16.3249 14.4141L16.308 14.4339C15.6142 15.2466 14.8025 14.8628 14.0743 14.4761L13.4211 15.4456L13.1032 15.3661L13.1144 15.2607C13.1201 15.21 13.128 15.1587 13.1364 15.108C13.1574 15.0083 13.165 14.9064 13.159 14.8047C13.1395 14.7068 13.1067 14.6119 13.0615 14.5229C13.0344 14.4603 13.0051 14.3921 12.9741 14.3138L12.938 14.2197L13.1195 14.1115L13.2745 13.7023L13.252 13.6701L13.3083 13.6166C13.3615 13.456 13.4036 13.292 13.4346 13.1257C13.5428 12.615 13.6651 12.0362 14.2767 11.9584C14.5508 11.9152 14.8212 11.8509 15.0855 11.7662C15.7618 11.5678 16.534 11.3434 17.4758 11.7724L17.7999 11.92L14.9254 12.6026L15.5228 13.0219ZM12.1072 6.67599L12.2002 7.79311C12.2611 7.78071 12.3225 7.76944 12.3823 7.75873C12.6218 7.71477 12.8478 7.67306 13.0333 7.57386C13.2187 7.47466 13.3574 7.31966 13.5118 7.15113C13.5811 7.07561 13.6533 6.99726 13.7282 6.92568L13.7987 6.85805L14.1453 7.06095L14.0371 7.54624L14.6712 6.17717L14.5308 8.0755L14.47 8.10762C14.3206 8.1854 14.1769 8.26939 14.0377 8.35055C13.7141 8.53937 13.4087 8.71747 13.0637 8.81442C12.756 8.90122 12.4167 8.89389 12.0576 8.88657C11.8885 8.88318 11.7121 8.87924 11.5267 8.88657L11.3441 8.89164L12.1072 6.67599ZM11.2618 9.92591L12.4088 10.0708L13.0958 9.57138L13.2982 9.83122L12.7272 10.7099L10.4484 10.799L11.2618 9.92591ZM9.0636 14.9716C9.52014 14.577 10.0781 14.6137 10.6226 14.6469C11.0735 14.6751 11.4996 14.7033 11.8519 14.4885L11.9956 14.4017L12.176 15.0262L9.12447 15.4991L9.00216 15.0206L9.0636 14.9716ZM7.58744 18.8877C7.74413 18.873 7.90026 18.8578 8.05695 18.842C8.41485 18.806 8.78516 18.7688 9.15265 18.7479C9.47618 18.7293 9.8059 18.7282 10.1244 18.7271C10.2658 18.7271 10.4062 18.7271 10.5493 18.7242H10.6728L10.7032 19.2963L7.55926 19.4198L7.44653 18.9023L7.58744 18.8877ZM11.6422 21.1135H9.71009L9.94287 21.7808L9.05232 20.9489L9.00103 21.1518L7.16584 21.5802L7.00408 20.9889L8.80207 20.7156L8.85054 20.7082L8.90691 20.4738L9.11432 20.6676L10.7038 20.4258L10.657 20.1491L11.8818 20.4112L11.6422 21.1135ZM11.4545 18.4644L11.6732 17.9008L13.1883 18.6166L12.9747 19.1402L11.4545 18.4644ZM18.1229 20.5949L18.1026 20.6953H17.9961C17.8326 20.6919 17.6782 20.6879 17.5299 20.684C17.2211 20.6755 16.9297 20.6671 16.6456 20.6705C16.4421 20.6705 16.2347 20.6806 16.0346 20.6885C15.8165 20.697 15.591 20.7054 15.3678 20.7065C15.0736 20.8627 14.7366 20.8131 14.4097 20.7629C14.3217 20.7505 14.2378 20.7375 14.1566 20.7296L14.1217 21.3198L13.0344 19.9231L13.2249 19.7619C13.6009 20.1142 14.0033 20.2945 14.4677 20.3165V20.2737L14.3234 20.1339L14.4734 20.117L14.479 19.953L14.6436 20.0989L16.6806 19.8656L16.6366 19.7844C16.5938 19.7125 16.557 19.637 16.5267 19.559C16.5056 19.4903 16.4914 19.4197 16.4844 19.3482C16.481 19.3217 16.4776 19.2952 16.4731 19.2693L16.3745 18.6825L16.7065 19.1847C16.8367 19.3814 17.101 19.4908 17.3535 19.5967C17.774 19.7687 18.2508 19.9676 18.1229 20.5949ZM18.7339 20.5465L17.9127 19.8092L18.0293 19.5049L18.8629 19.8662L19.9254 19.515L20.9895 20.2117L18.7339 20.5465ZM17.2853 16.6461L17.7999 15.3407L17.9397 15.4941C18.1409 15.7144 18.3754 15.9382 18.5828 15.928C18.7102 15.9218 18.8432 15.8238 18.9774 15.6372C19.0647 15.5172 19.2513 15.529 19.4317 15.5408C19.4841 15.5442 19.5337 15.5476 19.5754 15.547C19.6661 15.547 19.7574 15.5504 19.8459 15.5544C19.9814 15.564 20.1174 15.564 20.2529 15.5544C20.4873 15.5307 20.7246 15.4895 20.9546 15.4495L21.2573 15.3988L21.3768 15.3796L21.5036 15.9337L17.2853 16.6461ZM19.5528 14.1047L19.581 13.9125C19.6937 13.1583 20.1666 13.2012 20.5133 13.2327C20.7387 13.2536 20.8824 13.2604 20.9681 13.1589L21.1028 13L21.348 13.5692L19.5528 14.1047ZM23.6386 11.5683L23.549 11.5881L23.1319 11.6839C22.8501 11.7481 22.606 11.8039 22.3575 11.8575C22.2741 11.8755 22.1884 11.8958 22.1067 11.9138C21.8708 11.9789 21.6292 12.0209 21.3852 12.039C20.8216 12.0643 20.4575 12.1709 20.2878 12.6387C20.2314 12.7993 20.0719 12.925 19.8324 13.0011L19.6069 13.0727L19.9 12.0018L19.8831 11.9854L18.5868 12.9915L18.5704 12.7554C18.5631 12.6511 18.5405 12.5231 18.5186 12.3997C18.4583 12.0615 18.4058 11.7656 18.5749 11.6382C18.9047 11.3897 19.3139 11.2437 19.7095 11.1056C19.842 11.0594 19.9784 11.0109 20.108 10.9602C20.1798 10.9353 20.2544 10.9194 20.3301 10.9128C20.3908 10.9113 20.4504 10.8964 20.5048 10.8694C20.7449 10.6552 20.9557 10.5775 21.1457 10.6288C21.3181 10.6761 21.4534 10.826 21.5554 11.0859L21.6253 11.034C21.9376 10.7984 22.327 10.5059 22.8557 10.9968C22.898 11.0199 23.0812 10.985 23.2001 10.9619C23.3176 10.9371 23.4363 10.9183 23.5558 10.9055L23.713 10.8908L23.6386 11.5683ZM21.9083 9.55447L21.7899 9.36284L21.2071 10.3165L21.2144 9.64409L19.3308 9.99974L18.8737 9.37129L19.9767 8.88995L20.0206 9.16162L21.6298 9.10525H21.6524L21.7876 8.88318L21.9195 9.09567L23.7959 9.02916L23.8325 9.63451L21.9083 9.55447ZM21.1192 7.81002L20.963 7.25203L21.0989 7.22835C21.2372 7.2043 21.3752 7.17913 21.5132 7.15283C21.8226 7.09646 22.1422 7.03615 22.4617 6.99501C22.8247 6.94766 23.1945 6.91554 23.5546 6.88228C23.7119 6.86875 23.8697 6.85523 24.027 6.84057L24.1527 6.82874L24.209 7.3501L21.1192 7.81002Z" fill="white"/>
<path d="M3.59267 22.4264L4.6647 21.2918L5.0243 18.6117L4.25494 18.0391L3.39258 21.7748L3.59267 22.4264Z" fill="white"/>
<path d="M25.6387 7.49287L26.3782 8.34227L27.6965 7.28207L26.2947 7.19922L25.6387 7.49287Z" fill="white"/>
<path d="M2.48633 17.9336L2.72531 18.6883L3.10294 19.0186L3.59331 18.4166L2.48633 17.9336Z" fill="white"/>
</svg>
