<svg width="30" height="30" viewBox="0 0 30 30" fill="none" xmlns="http://www.w3.org/2000/svg">
<path d="M12.1021 9.21752L12.1387 7.29702L15.1321 6.24514L15.4393 1.30078L9.86328 8.02281C10.5055 8.13852 10.3394 7.83624 10.9152 7.87444C11.3431 7.90323 12.0805 9.21752 12.1021 9.21752Z" fill="white"/>
<path d="M23.6238 11.1469L22.1838 9.21917L21.4525 10.245L20.9786 7.60538L15.9512 1.85938L16.0541 6.4007L16.9095 8.07761L17.0617 10.2533L17.2882 9.04921L19.4905 13.136L23.6238 11.1469Z" fill="white"/>
<path d="M17.6818 22.2773C15.2033 22.573 15.6484 23.5457 15.0068 23.9493C15.2548 24.5621 14.9182 25.1838 14.968 25.79C15.0549 26.8486 15.1994 27.8606 14.968 28.6982L15.5537 28.4768C15.9324 27.2389 18.8804 23.9515 20.3968 22.3161C20.1449 22.3554 17.8745 22.3427 17.6818 22.2773Z" fill="white"/>
<path d="M13.7268 23.9336C13.5508 23.55 13.4877 23.1901 13.2158 22.8546C13.0891 22.6985 12.805 21.4706 12.805 21.4706C12.7309 21.3975 12.6539 22.2562 12.5742 22.1853C11.76 21.4601 10.6747 20.8788 9.31836 20.4414C9.69316 21.3095 10.3531 22.1665 10.9178 23.1696C11.2195 23.7055 11.3468 24.3499 11.7128 24.9119C12.5136 26.1399 13.4017 27.3089 14.3701 28.4096C13.8492 27.252 13.9826 26.405 13.9438 25.8143C13.9007 25.1903 14.0114 24.5537 13.7268 23.9336Z" fill="white"/>
<path d="M20.1085 14.308C19.1868 16.7893 17.9068 18.5747 17.8359 19.4013L18.3635 20.1763L18.2246 20.6325C18.1487 20.8855 18.5518 21.1679 18.5922 21.309C18.8197 21.2891 18.642 21.2736 18.8795 21.2653C19.0456 21.1972 20.9833 21.0965 21.2374 20.9525L21.4173 18.6495L22.2366 17.5378L23.3992 11.8555L20.1085 14.308Z" fill="white"/>
<path d="M18.8852 13.8824L17.3539 10.8862L16.8158 17.6885L16.5002 9.21812L15.2363 7.46094L12.8358 7.91158L12.2202 10.9897C12.1864 10.9897 11.6622 8.6645 10.9131 8.618C10.3789 8.58367 10.5483 8.98726 9.87618 8.87543C9.79203 8.86159 9.16866 9.18158 8.76562 9.36538C9.01531 9.74184 9.89667 12.113 10.798 16.0392C11.108 17.3906 11.9606 18.9258 12.0569 20.6271C12.1649 20.741 12.2795 20.8484 12.4001 20.9487C12.5252 21.0323 12.6459 17.3004 12.7627 17.389C12.9936 17.5634 13.209 21.5644 13.4083 21.7559C13.8179 22.1465 14.1718 22.5915 14.4601 23.0785C15.2142 22.619 14.7879 21.778 17.0239 21.4232C16.9766 21.1588 16.982 20.8877 17.04 20.6254C16.9171 20.3901 16.8689 19.8337 17.851 16.8381C18.2701 15.5665 18.7191 14.3264 18.8852 13.8824Z" fill="white"/>
<path d="M8.4707 10.2344L8.98668 19.4516C9.03705 19.4671 9.08577 19.4842 9.1367 19.4992C9.24023 19.5285 9.42127 19.5955 9.64769 19.6863C9.68811 19.7023 9.72908 16.9254 9.7717 16.9426C9.86194 16.9791 9.95717 19.8125 10.0563 19.854C10.4554 20.0201 10.5938 20.0633 11.0035 20.2504C10.9044 18.7208 10.0817 17.4873 9.79828 16.2478C9.11788 13.2704 9.00494 11.1822 8.4707 10.2344Z" fill="white"/>
<path d="M5.9706 4.70312L7.8684 5.01149L6.86358 6.52287L5.2603 6.76369L4.20898 5.39792L5.9706 4.70312Z" fill="white"/>
<path d="M1.77355 12.1348L3.00313 12.627L2.06863 10.2464C2.06863 10.2464 1.4148 9.9281 1.77355 12.1348Z" fill="white"/>
<path d="M26.5623 20.2629L28.3323 20.5724L28.025 18.5234L26.4727 19.6639L26.5623 20.2629Z" fill="white"/>
<path d="M22.1958 26.5175L25.518 27.235L25.3398 26.0464L21.7285 23.3984L22.1958 26.5175Z" fill="white"/>
</svg>
