<svg width="76" height="75" viewBox="0 0 76 75" fill="none" xmlns="http://www.w3.org/2000/svg">
<path d="M30.7572 23.0457L30.8486 18.2445L38.3321 15.6148L39.1003 3.25391L25.1602 20.059C26.7656 20.3482 26.3504 19.5926 27.7898 19.6881C28.8597 19.76 30.7033 23.0457 30.7572 23.0457Z" fill="#979797"/>
<path d="M59.5623 27.8633L55.9624 23.044L54.1341 25.6087L52.9494 19.0095L40.3809 4.64453L40.6383 15.9979L42.7766 20.1901L43.1573 25.6294L43.7233 22.6191L49.2291 32.8361L59.5623 27.8633Z" fill="#979797"/>
<path d="M44.7075 55.6953C38.5112 56.4344 39.6239 58.8662 38.0198 59.8751C38.6399 61.4073 37.7984 62.9615 37.9229 64.4771C38.1402 67.1234 38.5015 69.6534 37.9229 71.7475L39.3873 71.1938C40.334 68.0991 47.704 59.8807 51.4949 55.7922C50.8651 55.8905 45.1892 55.8586 44.7075 55.6953Z" fill="#979797"/>
<path d="M34.82 59.8321C34.3799 58.873 34.2221 57.9733 33.5425 57.1346C33.2256 56.7443 32.5155 53.6745 32.5155 53.6745C32.3301 53.4918 32.1377 55.6385 31.9384 55.4613C29.9029 53.6482 27.1897 52.195 23.7988 51.1016C24.7358 53.2717 26.3856 55.4142 27.7973 57.9221C28.5516 59.2619 28.87 60.8729 29.7848 62.2777C31.787 65.3479 34.0072 68.2702 36.4282 71.0221C35.1259 68.1281 35.4594 66.0105 35.3625 64.5337C35.2546 62.9739 35.5314 61.3822 34.82 59.8321Z" fill="#979797"/>
<path d="M50.7753 35.768C48.4708 41.9713 45.2709 46.4349 45.0938 48.5012L46.4127 50.4389L46.0653 51.5794C45.8757 52.2119 46.8833 52.9177 46.9844 53.2707C47.5532 53.2208 47.1089 53.1821 47.7027 53.1613C48.1179 52.9911 52.962 52.7392 53.5973 52.3793L54.0471 46.6217L56.0955 43.8426L59.002 29.6367L50.7753 35.768Z" fill="#979797"/>
<path d="M47.7169 34.7078L43.8887 27.2174L42.5434 44.2231L41.7545 23.0473L38.5947 18.6543L32.5935 19.7809L31.0544 27.4762C30.97 27.4762 29.6593 21.6632 27.7867 21.547C26.4511 21.4611 26.8746 22.4701 25.1944 22.1905C24.984 22.1559 23.4256 22.9559 22.418 23.4154C23.0422 24.3566 25.2456 30.2844 27.4988 40.1001C28.2739 43.4785 30.4053 47.3165 30.6461 51.5696C30.916 51.8544 31.2026 52.1229 31.5042 52.3738C31.817 52.5828 32.1187 43.2529 32.4108 43.4744C32.9879 43.9103 33.5263 53.9128 34.0246 54.3917C35.0486 55.3681 35.9334 56.4807 36.6543 57.6982C38.5393 56.5494 37.4736 54.4471 43.0638 53.5599C42.9454 52.899 42.959 52.2211 43.1039 51.5655C42.7966 50.9773 42.6762 49.5863 45.1315 42.0972C46.1792 38.9181 47.3017 35.8178 47.7169 34.7078Z" fill="#979797"/>
<path d="M21.6797 25.5938L22.9696 48.6367C23.0956 48.6755 23.2174 48.7184 23.3447 48.7557C23.6035 48.8291 24.0561 48.9966 24.6222 49.2235C24.7232 49.2637 24.8256 42.3213 24.9322 42.3642C25.1578 42.4556 25.3958 49.5391 25.6436 49.6429C26.6415 50.0581 26.9875 50.1661 28.0117 50.6339C27.7639 46.8098 25.7073 43.7261 24.9986 40.6272C23.2976 33.1839 23.0153 27.9632 21.6797 25.5938Z" fill="#979797"/>
<path d="M15.4294 11.7598L20.1739 12.5307L17.6619 16.3091L13.6537 16.9112L11.0254 13.4967L15.4294 11.7598Z" fill="#979797"/>
<path d="M4.9368 30.3449L8.01077 31.5753L5.6745 25.6239C5.6745 25.6239 4.03994 24.8281 4.9368 30.3449Z" fill="#979797"/>
<path d="M66.9078 50.6553L71.3326 51.429L70.5645 46.3066L66.6836 49.1578L66.9078 50.6553Z" fill="#979797"/>
<path d="M55.9923 66.2918L64.298 68.0856L63.8523 65.114L54.8242 58.4941L55.9923 66.2918Z" fill="#979797"/>
</svg>
