<svg width="30" height="30" viewBox="0 0 30 30" fill="none" xmlns="http://www.w3.org/2000/svg">
<path d="M17.0343 25.1101C17.0343 25.1101 14.6534 24.1397 14.0126 23.39C13.3719 22.6402 12.91 21.8683 12.4687 21.6476C12.0274 21.427 11.3883 20.545 10.7708 20.2143C10.1534 19.8836 9.66818 19.7291 9.33696 19.7508C9.00575 19.7725 8.89622 19.0233 9.24913 18.6926L9.60204 18.3614C9.60204 18.3614 10.5502 17.6116 11.4539 17.6778C12.3576 17.7439 12.9534 18.2736 13.1523 18.5381L12.8211 18.6704C12.8211 18.6704 13.5703 18.8466 13.9936 18.4921C14.4169 18.1376 14.302 17.1471 14.302 17.1471L13.9052 17.8746C13.9052 17.8746 13.4671 15.9778 13.0354 15.118C12.6036 14.2582 12.138 13.2011 11.7184 12.3624C11.2989 11.5238 10.4396 10.0688 10.5497 8.72381C10.6597 7.37884 11.8068 7.11376 12.1153 7.40106C12.4237 7.68836 13.2624 9.18784 13.6592 9.84921C14.056 10.5106 14.674 11.1508 14.9608 11.7011C15.2475 12.2513 15.7327 13.7741 16.3941 14.5021C16.3941 14.5021 16.1518 13.1127 15.8206 12.3624C15.8206 12.3624 15.7989 12.1862 16.4602 12.2085C17.1216 12.2307 17.4528 12.4947 17.6735 12.7376C17.8941 12.9804 18.6438 14.1931 18.6438 14.1931C18.6438 14.1931 18.8862 13.9064 18.401 12.9582C17.9158 12.0101 19.993 11.9862 20.456 12.7365C20.919 13.4868 21.2465 14.237 21.511 14.2815C21.511 14.2815 21.4666 13.3328 21.0259 12.8921C21.0259 12.8921 21.092 12.6714 21.7534 12.7376C22.4147 12.8037 23.6052 14.6344 23.9809 15.8032C24.3565 16.972 24.7745 18.4937 24.9513 18.8688C25.128 19.2439 25.0618 20.0376 24.8634 20.655C24.665 21.2725 24.3999 21.2947 24.9073 22.3974C25.4147 23.5 25.6793 23.6989 25.7454 24.0519C25.8116 24.4048 26.1206 25.5958 23.7602 27.1614C21.3999 28.727 19.0851 28.5069 18.1364 27.7571C17.1878 27.0074 17.8285 25.7058 17.0343 25.1101Z" fill="white"/>
<path d="M7.53886 10.4425L5.17537 10.742C5.17537 10.742 4.22934 10.9012 4.20553 10.2562C4.18119 9.57053 5.15791 9.65572 5.15791 9.65572L7.51875 9.90387C7.51875 9.90387 7.78595 9.91392 7.81346 10.1441C7.84362 10.4065 7.53886 10.4425 7.53886 10.4425Z" fill="white"/>
<path d="M8.25288 7.60712C8.25288 7.60712 6.64918 6.84786 6.26452 6.58913C5.87986 6.3304 4.94177 5.83146 5.28515 5.2849C5.65076 4.70288 6.53013 5.58701 6.86558 5.814C7.20103 6.04098 8.54018 7.15209 8.54018 7.15209C8.54018 7.15209 8.75552 7.31082 8.646 7.51664C8.52695 7.75315 8.25288 7.60712 8.25288 7.60712Z" fill="white"/>
<path d="M10.2535 5.3783C10.2535 5.3783 9.51007 3.76772 9.38202 3.32116C9.25398 2.8746 8.85292 1.89259 9.46668 1.69206C10.1191 1.48042 10.2281 2.72222 10.3397 3.11216C10.4513 3.50211 10.7672 5.21322 10.7672 5.21322C10.7672 5.21322 10.8307 5.47301 10.6169 5.56243C10.372 5.66402 10.2535 5.3783 10.2535 5.3783Z" fill="white"/>
<path d="M13.4442 5.75188C13.4442 5.75188 14.5379 4.35505 14.767 3.95294C14.9961 3.55082 15.6109 2.68309 15.0591 2.34817C14.4702 1.98944 14.0797 3.17304 13.8813 3.52648C13.6829 3.87992 12.9818 5.47304 12.9818 5.47304C12.9818 5.47304 12.8606 5.71114 13.0485 5.84712C13.2628 6.00267 13.4442 5.75188 13.4442 5.75188Z" fill="white"/>
<path d="M15.0653 7.57971L17.187 6.49611C17.187 6.49611 18.0563 6.09611 17.7124 5.54955C17.3473 4.96754 16.5886 5.58923 16.5886 5.58923L14.7775 7.12362C14.7775 7.12362 14.5622 7.28235 14.6717 7.48817C14.7913 7.72257 15.0653 7.57971 15.0653 7.57971Z" fill="white"/>
</svg>
