<svg width="30" height="30" viewBox="0 0 30 30" fill="none" xmlns="http://www.w3.org/2000/svg">
<path d="M15.1664 3.60156C13.1134 3.60156 10.6366 6.16803 8.49805 9.0553C8.17461 9.49219 7.94086 10.348 7.63588 10.7913C7.48497 11.0108 7.25439 10.8182 7.10823 11.0361C5.04514 14.1307 3.55824 17.0159 3.55824 17.0159C3.55824 17.0159 3.88802 18.0063 2.40533 19.9786C0.92265 21.951 3.5804 22.9957 5.87829 24.2583C6.30727 24.4942 6.71778 24.5422 7.1056 24.7332C7.59947 24.977 8.05536 25.3595 8.4685 25.5511C9.90528 26.218 10.7975 26.3953 10.7975 26.3953V25.3284L5.87988 22.0364C5.87988 22.0364 6.33576 20.7764 7.25703 19.0289C7.38578 18.7846 6.70089 18.5302 6.84811 18.2685C6.98318 18.0279 7.11562 16.9578 7.44065 16.7056C7.86857 16.3748 8.51072 16.8581 8.73655 16.5146C8.94761 16.198 9.16658 15.0494 9.3998 14.7254C9.70319 14.3033 10.0261 14.7027 10.3696 14.2848C10.4915 14.136 10.616 11.5194 10.7427 11.3722C10.8065 11.2989 10.8709 13.6938 10.9358 13.621C12.1304 12.2755 13.5397 11.0255 15.1664 10.1048C15.1664 10.1048 16.4623 10.9522 18.0104 12.3552C18.1687 12.4977 18.327 11.8223 18.4853 11.9758C18.5671 12.0534 18.6489 12.9557 18.7312 13.0364C18.9671 13.267 19.2061 13.5086 19.4409 13.7603C19.5696 13.8975 19.5332 14.1202 19.6604 14.2632C20.283 14.9628 20.9062 15.7205 21.4829 16.5146C21.5356 16.5859 21.4211 14.7639 21.4718 14.8357C21.4971 14.8715 21.6871 16.8001 21.7124 16.836C21.8633 17.0512 22.011 17.2692 22.1535 17.4892C22.3208 17.7472 22.0701 14.4684 22.2232 14.7312C22.2997 14.862 22.7851 18.5302 22.8563 18.6632C23.2803 19.4213 23.6247 20.2213 23.8842 21.0503L20.1812 25.4946L20.0192 26.3958C20.0192 26.3958 20.6861 26.0861 21.6428 25.6123C22.0121 25.4297 21.9308 25.14 22.3646 24.9169C22.878 24.653 23.9153 24.4488 24.4525 24.1539C26.3931 23.0891 28.2515 21.9156 28.3312 21.2935C28.3597 21.064 28.1201 20.3775 27.6774 19.4008C27.5619 19.146 27.1039 18.8732 26.963 18.5798C26.7957 18.2347 26.9403 17.8665 26.7403 17.4792C26.4412 16.8988 26.0254 16.2798 25.6639 15.6324C25.4471 15.2441 25.4677 14.8473 25.2328 14.4441C22.3266 9.45843 17.9244 3.60156 15.1664 3.60156ZM22.5677 13.3145C22.1614 12.714 21.7968 12.8617 21.7968 12.8617C21.7968 12.8617 19.7997 10.1496 18.4985 8.8701C18.1181 8.49706 19.4689 10.7812 19.2372 10.8224C19.2203 10.8224 18.7544 10.6615 18.5101 10.4921C19.0779 11.1727 20.8318 13.4184 20.5985 13.3456C20.2508 13.2401 19.2034 12.0835 18.212 11.168C17.41 10.4293 16.6164 9.89848 16.484 9.76024L16.3193 8.69281C15.6682 8.09235 15.7949 7.83433 15.5131 7.55415V4.5909C15.5131 4.5909 20.7146 8.00318 24.2657 14.9987C27.0464 20.4809 24.0388 15.4857 22.5677 13.3145Z" fill="white"/>
<path d="M10.3773 17.2475C10.3773 17.2475 10.3198 18.7392 11.7244 19.1877C13.129 19.6362 13.7663 17.9994 13.7663 17.9994C12.2742 16.7109 10.3773 17.2475 10.3773 17.2475Z" fill="white"/>
<path d="M19.7967 17.2475C19.7967 17.2475 19.8548 18.7392 18.4497 19.1877C17.0445 19.6362 16.4082 17.9994 16.4082 17.9994C17.8999 16.7109 19.7967 17.2475 19.7967 17.2475Z" fill="white"/>
<path d="M2.10742 19.4771L2.8857 18.4012L3.4144 16.3281L2.11006 18.7131L2.10742 19.4771Z" fill="white"/>
<path d="M1.66602 15.8242L1.95411 16.6452L2.15989 15.8242H1.66602Z" fill="white"/>
<path d="M23.1484 6.39062V7.7071L23.8893 9.43514H24.7119V7.91288L23.1484 6.39062Z" fill="white"/>
<path d="M20.8848 6.39092L21.9295 6.17828L21.4071 5.11719L20.8848 5.48865V6.39092Z" fill="white"/>
</svg>
