<svg width="283" height="283" viewBox="0 0 283 283" fill="none" xmlns="http://www.w3.org/2000/svg">
<path d="M102.24 31.2398C102.55 28.0098 103.52 24.8398 102.97 21.9698C101.97 16.8198 109.09 10.4298 114.62 11.3798C117.9 11.9398 119.62 14.2298 120.5 17.1498C121.38 20.0698 120.84 22.7598 118.26 24.2998C116.521 25.2154 114.531 25.5418 112.59 25.2298C111.72 25.0898 110.41 22.6798 110.69 21.6798C111.08 20.2898 112.76 19.2598 114.15 17.7898C113.04 16.6998 111.52 16.7898 109.97 18.1598C107.51 20.2798 107.88 22.2398 111.86 28.1598L102.24 31.2398Z" fill="white"/>
<path d="M265 113.321C266.24 112.321 266.3 110.731 264.83 109.091C262.57 106.551 260.27 106.971 254.83 111.031C253.7 107.531 252.61 104.121 251.73 101.391C255.04 101.611 258.24 102.071 261.43 101.971C265.82 101.831 270.88 106.361 271.65 111.541C272.21 115.311 269.7 118.541 265.38 119.641C262.52 120.391 260 119.521 258.58 117.231C257.687 115.494 257.418 113.502 257.82 111.591C257.98 110.771 260.42 109.591 261.39 109.891C262.8 110.321 263.76 112.001 265 113.321Z" fill="white"/>
<path d="M184.09 32.1005L176.75 29.6405C176.37 29.5105 176.02 29.3205 175.32 29.0205C177.41 25.9305 179.18 22.8405 181.4 20.1205C184.31 16.5605 191.11 16.1205 194.73 18.9305C195.77 19.7477 196.584 20.816 197.096 22.0347C197.609 23.2535 197.803 24.5827 197.66 25.8971C197.517 27.2115 197.041 28.4678 196.279 29.5478C195.516 30.6279 194.491 31.496 193.3 32.0705C190.59 33.3705 186.3 31.5805 185.66 28.6805C185.2 26.6805 185.98 25.0405 188.35 24.8005C189.35 24.7488 190.351 24.7488 191.35 24.8005C190.27 21.9705 188.22 22.8005 186.49 23.4305C183.53 24.5105 183 26.6505 184.09 32.1005Z" fill="white"/>
<path d="M28.9997 170.77L31.9997 180.47C28.6797 180.22 25.4597 179.82 22.2397 179.78C17.8697 179.72 13.2397 175.78 12.4297 171.02C11.6897 166.9 13.4297 163.46 17.5097 162.61C19.8622 162.171 22.2939 162.605 24.3497 163.83C25.7297 164.75 26.3497 167.44 26.3497 169.39C26.3997 170.25 24.3497 171.99 23.2797 171.94C21.6997 171.86 20.1797 170.56 18.2797 169.63C17.4297 171.05 18.7597 172.31 20.1197 173.4C22.5497 175.32 24.3497 174.77 28.9997 170.77Z" fill="white"/>
<path d="M250.9 183.001C251.71 180.541 252.4 178.401 253.13 176.281C253.33 175.691 253.63 175.141 254 174.281C257 176.281 259.95 178.011 262.66 180.091C265.94 182.611 266.86 188.091 264.99 192.201C264.278 193.726 263.085 194.974 261.595 195.754C260.104 196.535 258.399 196.804 256.74 196.521C255.383 196.417 254.091 195.899 253.038 195.037C251.984 194.175 251.221 193.011 250.85 191.701C250.587 189.763 251.042 187.796 252.13 186.171C252.74 185.171 254.86 184.731 256.2 184.881C258.11 185.091 258.59 186.771 258.2 188.601C258.16 189.03 258.16 189.462 258.2 189.891C260.2 189.011 260.63 188.041 259.95 185.891C259 182.791 256.67 182.001 250.9 183.001Z" fill="white"/>
<path d="M169.339 263.82C171.779 265.63 173.339 264.52 174.339 262.98C177.029 259.18 174.009 256.65 171.659 253.81L181.349 250.68C181.209 254.05 180.979 257.54 180.929 261.02C180.929 265.13 175.929 269.95 171.219 270.4C166.979 270.8 163.989 268.4 163.009 263.89C162.079 259.54 165.739 255.44 169.759 256.57C170.429 256.777 171.047 257.123 171.574 257.584C172.101 258.046 172.526 258.613 172.819 259.25C173.079 260.08 171.749 261.46 171.009 262.51C170.515 263.02 169.953 263.461 169.339 263.82Z" fill="white"/>
<path d="M248.509 208.201C251.309 207.761 251.169 205.821 250.969 204.021C250.629 200.941 249.039 200.021 243.039 199.561L247.589 190.561C249.759 193.081 251.759 195.731 254.089 198.051C257.869 201.821 257.499 209.921 253.209 213.111C251.67 214.235 249.758 214.726 247.867 214.483C245.977 214.239 244.252 213.279 243.049 211.801C240.739 208.921 240.699 204.991 243.269 203.161C244.269 202.441 246.269 201.981 247.169 202.491C248.069 203.001 248.249 204.871 248.609 206.171C248.674 206.848 248.641 207.532 248.509 208.201Z" fill="white"/>
<path d="M32.9992 98.7399L29.9992 107.63C26.7492 105.44 23.6292 103.73 20.9992 101.48C15.8692 97.1399 17.6492 87.4799 23.7792 85.4799C25.0641 85.0525 26.4435 84.9956 27.7593 85.3157C29.0751 85.6358 30.2741 86.32 31.2191 87.2899C32.1082 87.9987 32.771 88.9515 33.1263 90.0315C33.4815 91.1116 33.5138 92.2718 33.2192 93.3699C32.3992 96.8399 28.4892 98.6199 26.5092 96.2999C25.6192 95.2999 25.6492 93.4499 25.1592 91.5799C23.2792 91.9899 23.1091 93.4999 23.4591 95.2399C24.0891 98.8199 27.0492 99.9999 32.9992 98.7399Z" fill="white"/>
<path d="M189.299 258.281C191.859 259.151 193.039 257.851 193.819 256.121C195.029 253.451 193.819 251.121 189.299 247.681L197.299 243.551C198.139 247.371 199.299 250.851 199.579 254.411C199.959 258.691 195.259 263.801 190.979 264.411C189.722 264.581 188.442 264.441 187.251 264.003C186.06 263.566 184.994 262.844 184.145 261.901C183.297 260.958 182.691 259.822 182.382 258.591C182.072 257.361 182.068 256.073 182.369 254.841C182.589 254.085 182.957 253.38 183.453 252.768C183.948 252.155 184.56 251.648 185.254 251.276C185.948 250.903 186.709 250.673 187.493 250.598C188.277 250.524 189.068 250.606 189.819 250.841C190.268 251.007 190.674 251.271 191.007 251.615C191.34 251.959 191.591 252.374 191.742 252.828C191.893 253.283 191.939 253.765 191.878 254.24C191.817 254.714 191.65 255.169 191.389 255.571C190.859 256.511 190.129 257.271 189.299 258.281Z" fill="white"/>
<path d="M35.2398 73.4895C32.2398 73.8095 32.2398 75.8395 32.4998 77.7695C32.8298 80.6895 34.9698 81.7695 40.9598 82.0695L36.2298 91.2395C33.9998 88.6395 31.9198 85.9995 29.5998 83.6595C26.3498 80.3395 26.3498 73.0495 29.7898 69.4595C32.5398 66.5895 37.7898 66.7795 40.8398 69.8695C43.6898 72.7095 43.6298 76.4195 40.4398 78.7895C39.9142 79.1625 39.3112 79.412 38.6757 79.5193C38.0403 79.6267 37.3887 79.5891 36.7698 79.4095C35.8798 78.9695 35.4798 77.2895 35.1198 76.0795C35.0293 75.215 35.0698 74.3419 35.2398 73.4895Z" fill="white"/>
<path d="M94.519 23.6307C91.659 22.7107 90.589 24.2207 89.949 25.9707C88.439 30.1007 91.579 31.9707 94.639 34.2307L86.269 38.4007C85.539 34.4007 84.479 30.7407 84.269 27.0607C84.049 22.4807 88.869 17.7107 93.449 17.2507C97.269 16.8707 100.779 19.9207 101.449 24.1707C101.989 27.7307 100.139 30.5907 96.669 30.8507C95.8809 30.9031 95.0906 30.7905 94.3484 30.5201C93.6063 30.2498 92.9288 29.8277 92.359 29.2807C91.809 28.6007 92.859 26.5807 93.299 25.1907C93.459 24.7307 93.929 24.3807 94.519 23.6307Z" fill="white"/>
<path d="M200.6 40.0497L191.6 35.4197C194.29 33.0997 197.06 30.7697 199.77 28.4197C203.37 25.2297 210.65 25.7697 213.9 29.5097C216.62 32.6197 215.9 37.7897 212.3 40.6697C209.73 42.7397 206.13 42.5497 204.3 39.8897C203.896 39.2681 203.629 38.5671 203.519 37.834C203.409 37.1009 203.457 36.3527 203.66 35.6397C204 34.8397 206.1 34.7197 207.44 34.4397C208.136 34.4241 208.831 34.5151 209.5 34.7097C209.34 32.1997 207.84 31.5997 206.05 31.5497C203 31.3897 201.77 33.2497 200.6 40.0497Z" fill="white"/>
<path d="M24.4094 188.34C23.4594 190.93 24.8294 192.11 26.6394 192.79C30.9294 194.39 32.6394 190.86 35.0894 188.21L39.1594 196.43C35.9894 197.08 32.8794 197.61 29.8194 198.37C25.3394 199.48 19.5394 195.65 18.3194 190.63C17.2494 186.25 19.8094 182.45 24.5794 181.34C25.5496 181.1 26.5645 181.106 27.5318 181.357C28.4991 181.609 29.3882 182.098 30.1184 182.781C30.8486 183.463 31.3967 184.317 31.713 185.265C32.0292 186.214 32.1036 187.226 31.9294 188.21C31.8326 188.74 31.6067 189.238 31.2717 189.66C30.9367 190.082 30.5029 190.415 30.0086 190.629C29.5144 190.844 28.9749 190.933 28.4378 190.89C27.9008 190.846 27.3827 190.671 26.9294 190.38C26.0495 189.751 25.2079 189.07 24.4094 188.34Z" fill="white"/>
<path d="M259.319 93.6609C260.509 91.1009 259.109 89.9109 257.549 89.2209C253.179 87.3009 251.149 90.6709 248.739 93.7209C247.219 90.6609 245.829 87.8409 244.689 85.5209C247.799 84.8809 250.829 84.4509 253.739 83.6109C258.219 82.3309 263.669 85.6109 265.339 90.9309C266.659 95.0909 264.409 99.0409 259.949 100.391C256.179 101.541 252.769 99.8209 252.089 95.9909C252.005 95.2043 252.083 94.4089 252.319 93.6537C252.555 92.8986 252.943 92.1999 253.459 91.6009C254.889 90.0909 256.619 90.9609 257.929 92.3809C258.279 92.7609 258.699 93.0909 259.319 93.6609Z" fill="white"/>
<path d="M92.4304 256.851C93.0804 259.171 94.5104 259.401 96.4304 258.851C99.7904 257.851 100.36 256.661 100.14 249.931L108.55 252.731C106.2 256.101 104.27 259.441 101.78 262.271C99.2904 265.101 92.6804 265.471 89.4204 263.271C88.3763 262.546 87.5262 261.576 86.9449 260.445C86.3636 259.315 86.0689 258.059 86.0867 256.788C86.1045 255.517 86.4342 254.27 87.0469 253.156C87.6596 252.042 88.5364 251.096 89.6004 250.401C92.0604 248.851 94.7204 248.821 96.6604 251.031C97.1438 251.661 97.4836 252.39 97.6564 253.165C97.8291 253.941 97.8305 254.745 97.6604 255.521C97.3904 256.361 95.1404 256.601 93.7504 257.041C93.3028 257.054 92.8562 256.99 92.4304 256.851Z" fill="white"/>
<path d="M92.0902 246.39C89.4702 248.68 86.9102 250.72 84.5902 252.98C80.7702 256.72 72.7002 256.24 69.5902 251.98C67.4102 249.03 67.9002 244.98 70.7902 241.98C73.2102 239.5 76.2302 238.98 78.5302 241.13C79.1398 241.715 79.6255 242.417 79.9588 243.193C80.292 243.97 80.466 244.805 80.4702 245.65C80.2202 247.98 78.0102 247.89 76.0902 247.53L74.3202 247.19C74.5202 249.82 76.0302 250.36 78.0202 250.3C81.3202 250.2 82.5502 248.3 83.2602 241.94L92.0902 246.39Z" fill="white"/>
<path d="M48.0002 57.0597C46.8502 58.0597 45.2002 58.8597 45.0002 59.9497C43.8302 64.8597 48.3202 65.4297 51.2902 67.2897L45.6402 75.0797C43.6402 71.4397 41.5402 68.1997 40.0502 64.7097C39.3176 62.7264 39.1995 60.5684 39.7115 58.517C40.2234 56.4657 41.3416 54.6162 42.9202 53.2097C44.295 52.0541 46.0414 51.4347 47.837 51.466C49.6327 51.4972 51.3565 52.1769 52.6902 53.3797C53.9709 54.3903 54.8334 55.8383 55.112 57.4457C55.3907 59.0532 55.066 60.707 54.2002 62.0897C52.4302 64.9797 48.7102 65.3897 47.4502 62.5897C46.8202 61.3297 47.6702 59.4497 48.0002 57.0597Z" fill="white"/>
<path d="M249.88 76.0706C251 74.5606 249.98 73.0706 248.13 71.9306C245.52 70.3106 243.22 71.4006 239.19 76.1806C237.78 74.2806 236.42 72.4506 234.91 70.4406C240.29 67.5606 245.32 64.4406 251.41 67.8006C252.934 68.6217 254.19 69.865 255.025 71.3816C255.86 72.8981 256.241 74.6234 256.12 76.3506C255.74 79.6706 253.93 82.1806 250.66 82.7306C248.501 83.0035 246.309 82.6567 244.34 81.7306C243.833 81.5234 243.372 81.218 242.984 80.832C242.596 80.4459 242.288 79.9868 242.078 79.4811C241.867 78.9754 241.76 78.4332 241.76 77.8856C241.76 77.338 241.869 76.7959 242.08 76.2906C242.56 75.1306 244.21 73.6106 245.23 73.6906C246.78 73.8006 248.24 75.1606 249.88 76.0706Z" fill="white"/>
<path d="M134.86 16.5405C133.44 14.3405 131.86 14.2105 130.2 15.2805C127.9 16.7205 127.89 18.5005 130.12 24.8405L120.66 26.2105C121.66 22.5605 122.24 19.2105 123.39 16.0205C125.39 10.6205 131.48 7.59051 136.08 9.46051C137.583 10.08 138.849 11.1626 139.694 12.551C140.539 13.9393 140.92 15.5611 140.78 17.1805C140.681 18.5847 140.128 19.9186 139.204 20.9811C138.281 22.0435 137.037 22.7768 135.66 23.0705C132.79 23.6105 130.6 22.5305 130.32 20.3405C129.92 17.2205 131.85 16.4305 134.86 16.5405Z" fill="white"/>
<path d="M33.91 206C33.16 208 34.19 209.57 36.41 210.3C40.59 211.67 42.3 208.35 44.55 205.55L48.93 211.55C44.76 213.63 41 216.08 36.18 215.4C30.56 214.61 27.08 210.16 27.89 204.77C28.35 201.72 30.34 200.17 33.01 199.13C34.1445 198.598 35.4195 198.443 36.6485 198.687C37.8774 198.932 38.9958 199.564 39.84 200.49C41.061 201.873 41.7519 203.645 41.79 205.49C41.79 206.49 39.69 208.16 38.47 208.21C37.08 208.24 35.61 206.86 33.91 206Z" fill="white"/>
<path d="M225.76 46.9004C224.83 45.9004 224.08 44.4804 222.93 43.9804C220.58 42.9804 219.41 44.0804 215.49 50.3304L208 44.7604C211.28 42.8904 214.17 41.0504 217.23 39.5604C219.327 38.5201 221.712 38.2119 224.005 38.6849C226.298 39.158 228.366 40.385 229.88 42.1704C230.895 43.3768 231.483 44.8844 231.554 46.4592C231.624 48.0341 231.173 49.5882 230.27 50.8804C229.539 52.1622 228.402 53.1645 227.039 53.7293C225.676 54.2941 224.163 54.3895 222.74 54.0004C220.36 53.5104 218.56 52.1604 218.6 49.4004C218.6 46.4704 220.91 45.2204 223.45 46.7004C223.96 47.0004 224.45 47.3604 224.93 47.7004L225.76 46.9004Z" fill="white"/>
<path d="M75.8193 237.15C72.2593 239.15 69.2093 241.15 65.8793 242.54C64.081 243.316 62.0975 243.559 60.1651 243.24C58.2327 242.921 56.4327 242.053 54.9793 240.74C53.9167 239.899 53.1214 238.766 52.69 237.481C52.2586 236.196 52.2097 234.813 52.5493 233.5C53.2793 229.93 56.5493 227.01 59.9193 227.72C61.8842 228.291 63.613 229.48 64.8493 231.11C65.4093 231.82 64.7893 234.58 63.9793 234.98C62.6493 235.65 60.7393 235.16 58.2993 235.16C59.2193 236.16 59.8793 237.52 60.8893 237.87C63.7393 238.87 65.3293 237.28 68.0293 231.34L75.8193 237.15Z" fill="white"/>
<path d="M232.6 214.541C234.29 212.231 235.82 210.161 237.33 208.071C237.601 207.634 237.848 207.184 238.07 206.721C240.01 210.101 241.77 212.891 243.26 215.831C244.221 217.595 244.649 219.599 244.492 221.601C244.336 223.603 243.603 225.517 242.38 227.111C241.606 228.295 240.499 229.223 239.198 229.778C237.897 230.333 236.461 230.491 235.07 230.231C230.68 229.631 227.61 225.361 229.14 221.331C229.939 219.646 231.326 218.312 233.04 217.581C233.85 217.231 236.2 218.521 236.53 219.511C236.96 220.781 236.04 222.511 235.53 224.871C236.89 223.711 238.82 222.871 239.04 221.751C239.94 217.151 235.72 216.481 232.6 214.541Z" fill="white"/>
<path d="M76.9994 32.9999C74.4694 32.1699 73.2994 33.7099 72.6094 35.3699C70.8694 39.5199 74.5494 41.2099 76.9494 43.8999L71.1994 48.1899C69.7694 44.8699 68.3294 41.9099 67.1994 38.8199C65.6694 34.5499 69.5494 28.4899 74.4794 27.1499C75.5217 26.8687 76.6117 26.8104 77.6781 26.9788C78.7445 27.1473 79.7634 27.5387 80.6684 28.1275C81.5733 28.7163 82.3439 29.4893 82.9299 30.3961C83.5159 31.3028 83.9042 32.3229 84.0694 33.3899C84.7594 36.9499 81.9094 40.8899 78.3394 40.8999C77.7355 40.8143 77.1563 40.6028 76.6395 40.2789C76.1226 39.955 75.6797 39.526 75.3394 39.0199C74.905 38.0042 74.8658 36.8629 75.2294 35.8199C75.6816 34.8001 76.2776 33.8504 76.9994 32.9999Z" fill="white"/>
<path d="M16.349 148.611C14.919 149.801 15.059 151.461 16.349 152.891C19.289 156.181 22.239 153.741 25.619 152.521L26.999 162.161C23.509 161.251 20.469 160.601 17.509 159.671C15.1692 158.987 13.134 157.523 11.7422 155.521C10.3503 153.52 9.68576 151.103 9.85903 148.671C10.0095 146.935 10.7905 145.314 12.0544 144.115C13.3183 142.916 14.9776 142.22 16.719 142.161C18.2865 141.945 19.8791 142.302 21.2051 143.165C22.5311 144.028 23.5017 145.34 23.939 146.861C24.939 150.081 22.729 153.351 19.939 152.451C18.559 152.001 17.679 150.101 16.349 148.611Z" fill="white"/>
<path d="M206.47 248.71C209.24 249.88 210.57 248.25 211.19 246.71C212.82 242.52 209.48 240.52 206.63 238.11L212.63 233.76C214.05 237.1 215.54 240.08 216.63 243.21C217.9 247.03 215.12 252.13 210.99 254.11C209.354 254.979 207.459 255.228 205.653 254.813C203.848 254.398 202.252 253.346 201.16 251.85C198.16 247.77 199.95 242.05 204.51 241.42C205.26 241.367 206.013 241.467 206.723 241.715C207.433 241.963 208.085 242.352 208.64 242.86C210.05 244.33 209.33 246.03 207.76 247.29C207.289 247.725 206.858 248.2 206.47 248.71Z" fill="white"/>
<path d="M111 262.32C112 264.56 113.29 265.37 115.43 264.76C118.76 263.82 119.64 261.62 118.98 255.36L126.12 256.57C124.91 259.73 123.7 262.71 122.62 265.75C121.45 269.07 115.34 271.13 110.72 269.75C109.297 269.395 108.012 268.624 107.029 267.536C106.045 266.448 105.409 265.091 105.2 263.64C104.62 260.5 105.97 257.95 108.48 256.07C110.99 254.19 113.73 254.32 115.69 256.67C116.136 257.206 116.458 257.835 116.631 258.512C116.804 259.188 116.824 259.894 116.69 260.58C116.32 261.52 114.5 261.97 113.25 262.46C112.498 262.548 111.735 262.5 111 262.32Z" fill="white"/>
<path d="M267.3 133.611C269.3 131.681 268.54 130.071 267.3 128.781C264.3 125.611 261.36 128.371 258.18 129.211C257.73 126.161 257.29 123.211 256.75 119.561C260.97 120.831 264.95 121.561 268.55 123.231C272.15 124.901 273.99 128.361 273.95 132.461C273.948 133.706 273.632 134.931 273.031 136.023C272.43 137.114 271.564 138.036 270.513 138.704C269.461 139.372 268.258 139.764 267.015 139.844C265.772 139.923 264.528 139.688 263.4 139.161C260.23 137.781 258.84 133.431 260.9 130.681C262.03 129.171 263.71 128.601 265.21 130.421C265.964 131.445 266.662 132.51 267.3 133.611Z" fill="white"/>
<path d="M263.539 171.56C266.429 170.35 266.099 168.27 265.139 166.15C263.909 163.41 261.439 162.8 256.559 164.1C256.969 161.36 257.339 158.78 257.669 156.6C260.999 157.91 264.219 159.15 267.429 160.44C270.279 161.58 272.149 167.1 271.129 171.32C270.129 175.32 266.729 178.03 262.939 177.69C259.589 177.38 256.629 174.11 256.309 170.36C256.129 168.36 258.309 165.65 260.309 165.54C262.619 165.42 263.789 167 263.569 169.92C263.499 170.44 263.539 171 263.539 171.56Z" fill="white"/>
<path d="M163.13 255.721C162.13 259.491 161.54 262.721 160.5 265.721C159.759 267.88 158.345 269.744 156.466 271.04C154.587 272.336 152.341 272.995 150.06 272.921C148.817 272.839 147.614 272.45 146.557 271.79C145.501 271.13 144.624 270.219 144.005 269.138C143.386 268.056 143.045 266.839 143.011 265.594C142.977 264.348 143.251 263.114 143.81 262.001C144.578 260.616 145.853 259.582 147.367 259.116C148.88 258.65 150.516 258.788 151.93 259.501C152.332 259.761 152.667 260.114 152.905 260.53C153.143 260.946 153.278 261.413 153.299 261.891C153.319 262.37 153.225 262.847 153.023 263.282C152.821 263.717 152.519 264.097 152.14 264.391C151.265 264.973 150.356 265.504 149.42 265.981L149.66 267.101C151.1 266.841 152.94 267.051 153.92 266.241C157.23 263.461 154.78 260.391 153.56 257.081L163.13 255.721Z" fill="white"/>
<path d="M172.459 19.6008C171.659 16.9508 170.149 16.6008 168.249 17.1408C165.309 17.9108 164.749 19.2708 164.609 26.3708L157.609 25.3708C158.829 22.1108 159.809 18.9608 161.169 15.9808C162.779 12.4608 168.639 10.7108 173.169 12.1308C177.029 13.3308 179.079 16.8008 178.399 20.9808C177.799 24.7208 171.969 27.9808 168.849 25.9208C167.659 25.1408 166.939 22.9208 166.929 21.3708C166.929 20.6908 169.209 19.9308 170.509 19.3708C170.999 19.1908 171.599 19.4808 172.459 19.6008Z" fill="white"/>
<path d="M26.0792 125.301C22.8692 123.991 19.8792 122.661 16.8192 121.541C12.9692 120.131 11.0892 113.191 13.4192 108.541C14.1077 107.001 15.3034 105.745 16.8066 104.98C18.3098 104.216 20.0297 103.99 21.6792 104.341C24.6792 104.991 27.4592 108.071 27.2492 111.341C26.9665 113.059 26.0538 114.61 24.6892 115.691C23.9992 116.251 21.6892 115.891 21.0292 115.141C20.1392 114.051 20.1392 112.231 19.7292 110.591C17.7292 111.041 17.3292 112.501 17.8192 114.411C18.6592 117.641 20.8192 118.471 27.2792 118.031L26.0792 125.301Z" fill="white"/>
<path d="M25.2197 136.621V143.761C24.6209 143.198 23.948 142.721 23.2197 142.341C20.9297 141.571 18.4297 140.061 16.3097 140.451C12.4697 141.171 11.1197 139.121 10.0797 136.451C9.32114 134.703 9.08464 132.773 9.39872 130.894C9.71279 129.015 10.564 127.267 11.8497 125.861C13.9397 123.461 16.7597 123.271 19.6097 124.141C24.4097 125.621 26.2397 130.631 23.0997 133.901C22.2097 134.831 20.2397 135.741 19.3297 135.351C18.2197 134.881 17.6497 133.051 16.9697 131.741C16.8191 131.153 16.775 130.544 16.8397 129.941C14.3797 131.031 14.3597 132.821 15.1297 134.761C16.2897 137.691 18.4197 138.071 25.2197 136.621Z" fill="white"/>
<path d="M131.07 266.081C132.52 268.141 134.16 268.341 135.99 267.421C138.83 266.001 139.17 263.721 137.51 257.531H145.13C141.13 260.741 141.56 264.721 141.31 268.791C141.11 272.181 137.52 272.881 134.65 273.231C131.03 273.661 127.77 272.581 125.65 269.381C123.72 266.491 124.51 263.571 126.16 260.891C126.652 260.076 127.338 259.394 128.156 258.906C128.973 258.418 129.899 258.139 130.85 258.092C131.801 258.046 132.749 258.234 133.611 258.64C134.472 259.046 135.22 259.658 135.79 260.421C136.091 260.794 136.303 261.23 136.409 261.697C136.515 262.164 136.513 262.649 136.403 263.116C136.293 263.582 136.078 264.016 135.774 264.387C135.47 264.757 135.086 265.053 134.65 265.251C133.481 265.624 132.284 265.902 131.07 266.081Z" fill="white"/>
<path d="M139 24.2103C142 21.0003 143.37 17.8703 142.29 14.0003C142.17 13.2712 142.323 12.5235 142.72 11.9003C144.85 8.3803 151.87 7.5103 155.94 10.2103C159.59 12.6303 160.26 17.4703 157.46 21.2903C156.912 22.0263 156.202 22.6267 155.385 23.0453C154.569 23.4639 153.667 23.6897 152.749 23.7051C151.832 23.7206 150.923 23.5253 150.093 23.1344C149.262 22.7435 148.533 22.1674 147.96 21.4503C147.642 21.0541 147.426 20.5864 147.329 20.0878C147.232 19.5892 147.258 19.0745 147.405 18.5882C147.552 18.1019 147.815 17.6587 148.171 17.2966C148.527 16.9346 148.966 16.6647 149.45 16.5103C150.45 16.1503 151.45 15.9403 152.63 15.6103C151.15 13.6703 149.5 13.3703 147.72 14.5303C143.72 17.1303 145.29 20.6703 146.37 24.2003L139 24.2103Z" fill="white"/>
<path d="M60.9197 44.5211C57.9997 44.0811 56.9997 45.6411 56.4697 47.6411C55.6697 50.6411 57.0297 52.4011 62.5897 55.4511C61.4497 56.3611 60.4397 57.1611 59.4397 57.9711C58.7897 58.5011 58.1697 59.0611 58.2297 58.9711C56.2997 56.2611 54.2997 53.7511 52.6797 50.9711C51.8497 49.5711 51.0897 47.6511 51.3697 46.1511C52.0797 42.2211 54.9197 39.8111 58.6397 38.6711C64.0297 37.0311 69.4297 42.3511 68.1297 47.8611C67.4997 50.5411 63.0597 53.0611 60.6097 51.9111C58.9797 51.1411 57.8497 49.7211 58.8997 47.7011C59.4497 46.7411 60.1297 45.7811 60.9197 44.5211Z" fill="white"/>
<path d="M238.531 60.22C238.881 57.12 237.221 55.91 235.141 55.54C230.881 54.78 229.501 58.19 227.641 61.54L222.641 56.88C227.211 56.26 230.361 54.58 232.571 51.12C233.041 50.39 234.901 50.12 236.041 50.3C240.281 50.79 244.341 55.3 244.591 59.59C244.791 63.08 242.951 65.22 239.971 66.59C238.74 67.286 237.313 67.5555 235.914 67.3566C234.514 67.1576 233.219 66.5014 232.231 65.49C230.231 63.62 229.681 61.56 231.461 59.21C233.241 56.86 234.981 57.93 236.781 59.13C237.191 59.41 237.641 59.68 238.531 60.22Z" fill="white"/>
<path d="M223 237.121C225.56 237.861 226.66 236.461 227.22 234.631C228.63 229.971 224.84 228.571 221.63 226.541L226.63 221.951C226.56 226.621 229.11 229.281 232.2 231.741C232.9 232.301 232.99 234.211 232.69 235.311C232.253 237.214 231.291 238.956 229.914 240.339C228.538 241.723 226.801 242.694 224.9 243.141C223.692 243.416 222.436 243.397 221.237 243.084C220.038 242.772 218.931 242.176 218.011 241.347C217.09 240.517 216.383 239.479 215.948 238.319C215.512 237.159 215.362 235.911 215.51 234.681C215.92 231.591 220.17 228.751 223.05 229.841C225.05 230.601 225.74 232.261 224.8 234.291C224.263 235.273 223.662 236.218 223 237.121Z" fill="white"/>
<path d="M267.41 151.68C269.62 150.2 269.54 148.43 268.41 146.54C266.91 144 264.66 143.69 258.73 145.26V137.85C262.04 141.52 265.73 141.91 269.66 141.39C270.602 141.485 271.469 141.949 272.07 142.68C275.61 146.37 275.15 153.4 271.24 156.68C268.54 158.95 264.44 158.75 261.42 156.22C260.289 155.362 259.535 154.098 259.319 152.694C259.102 151.291 259.44 149.858 260.26 148.7C260.709 148.106 261.277 147.613 261.928 147.253C262.58 146.893 263.299 146.674 264.04 146.61C264.95 146.61 265.89 148.43 266.66 149.54C267.006 150.216 267.258 150.936 267.41 151.68Z" fill="white"/>
<path d="M45.5097 221.81C45.0097 224.58 46.3397 225.72 48.2697 226.18C52.4597 227.18 54.2697 224.29 55.9797 220.71L60.5397 225.48C58.8109 225.535 57.1175 225.984 55.5889 226.794C54.0603 227.603 52.7369 228.751 51.7197 230.15C51.1737 230.66 50.5235 231.046 49.8139 231.281C49.1044 231.516 48.3524 231.594 47.6097 231.51C45.4325 231.074 43.4488 229.962 41.942 228.331C40.4351 226.7 39.4823 224.635 39.2197 222.43C38.8997 219.43 40.7197 216.64 44.0797 215.18C45.3885 214.514 46.8842 214.312 48.3228 214.606C49.7613 214.901 51.0575 215.674 51.9997 216.8C52.8206 217.524 53.3245 218.542 53.403 219.634C53.4816 220.726 53.1285 221.805 52.4197 222.64C50.7897 224.89 48.9897 224.29 47.1497 222.9C46.7397 222.58 46.2797 222.32 45.5097 221.81Z" fill="white"/>
<path d="M81.81 164.212L77.37 159.382C85.3017 158.318 92.5201 154.243 97.53 148.002C90.74 150.842 83.53 152.792 77.96 158.322C74.8507 153.564 73.7372 147.774 74.86 142.202L71.02 139.622L76.12 135.822L71 132.382L77.53 128.382L71.69 124.112L79.54 121.572C78.83 117.792 73.69 116.272 74.76 111.492L81.54 115.272C80.77 110.852 77.47 107.272 79.41 102.212L83.33 105.432C83.6 102.912 83.91 100.552 84.11 98.1924C84.31 95.8324 85.17 94.6524 87.83 96.1924L90.16 89.1924L92.39 90.3824L95.28 83.8324L96.63 89.2424C97.8 86.7824 98.63 84.9324 99.89 82.3324L101.32 87.0224C103.02 84.2024 104.32 81.9624 105.92 79.3624L106.83 81.5924C109.48 80.1424 111.14 75.9924 115.31 78.2624C108.31 92.6624 108.31 107.442 111.87 122.452L112.87 122.802L119.52 110.452C121.35 111.342 122.85 112.232 124.52 112.832C126.333 113.483 128.244 113.822 130.17 113.832L126.17 109.832C122.231 105.904 119.915 100.637 119.682 95.0783C119.449 89.52 121.316 84.0776 124.912 79.8328C128.508 75.588 133.569 72.8518 139.09 72.168C144.611 71.4842 150.187 72.9031 154.71 76.1424C157.216 77.8936 159.326 80.1515 160.903 82.77C162.481 85.3884 163.491 88.309 163.868 91.3427C164.245 94.3763 163.981 97.4553 163.092 100.38C162.204 103.305 160.711 106.011 158.71 108.322C157.71 109.532 156.59 110.702 155.5 111.932C157 112.782 157 112.782 163.2 108.762C163.47 113.252 163.71 117.642 167.2 121.002C169.91 119.902 170.78 117.582 171.2 115.132C173.14 103.132 172.67 91.3024 168.2 79.8124C167.997 78.9479 167.916 78.0593 167.96 77.1724C168.966 77.199 169.969 77.2993 170.96 77.4724C173.181 77.9711 175.372 78.5988 177.52 79.3524C178.585 79.7947 179.509 80.5211 180.19 81.4524C180.972 82.7248 181.641 84.0633 182.19 85.4524C182.78 84.4524 183.19 83.7024 183.77 82.7624L190.05 90.3424L191.76 88.2224C195.82 90.8024 192.92 95.1024 194.46 98.4024L197.65 97.0724C199.58 100.852 197.57 104.532 197.21 108.182L204.05 106.042L203.34 111.422L208.23 110.852C207.35 113.532 206.63 115.732 205.86 118.062C206.453 118.336 207.061 118.576 207.68 118.782C210.09 119.472 210.22 121.002 208.89 122.672C207.28 124.672 206.27 126.352 209.24 128.122C209.75 128.422 209.72 130.232 209.39 131.122C209.06 132.012 208 132.972 206.95 134.262C210.7 135.562 211.22 137.722 208.84 140.612C208.52 140.992 208.7 141.802 208.7 142.402C208.772 144.104 208.604 145.808 208.2 147.462C209.38 149.882 209.15 151.672 206.31 152.882C206.021 153.086 205.79 153.362 205.643 153.684C205.495 154.005 205.436 154.36 205.47 154.712C206.47 157.362 204.67 158.182 202.55 159.072C203.88 162.072 202.62 164.232 200.62 166.502C195.86 171.922 191.35 177.562 186.44 183.502L173.44 171.502L172.49 171.372C173.59 188.372 161.82 198.312 152.49 209.572C151.23 211.102 149.05 211.872 146.72 212.462L147.82 209.142L147.22 208.802C146.61 209.682 146.01 210.572 145.41 211.462C142.88 215.132 138.55 216.842 134.63 215.072C123.34 209.962 115.8 201.072 112.02 189.582C110.54 185.092 111.58 179.782 111.48 174.852C111.48 174.022 111.48 173.202 111.48 171.502C107.91 174.652 104.82 177.272 101.84 180.012C98.86 182.752 97.96 182.932 95.25 179.912C90.62 174.762 84.45 170.912 81.72 164.142L88.3 162.142C86.72 163.932 84.45 165.532 86.84 168.562C91.65 165.062 96.57 161.642 101.27 157.932C102.12 157.262 102.04 155.422 102.39 154.122L101.5 153.912L93.12 159.322L100.65 151.992C100.102 151.894 99.5465 151.847 98.99 151.852C98.3523 151.9 97.7303 152.073 97.16 152.362C92.57 155.292 87.98 158.202 83.5 161.292C82.69 161.872 82.37 163.222 81.81 164.212ZM83.72 147.272C82.6446 147.66 81.5986 148.124 80.59 148.662C78.93 149.662 77.37 150.912 75.09 152.522C83.82 154.092 94.24 149.462 95.09 144.202L87.39 146.272L93.81 141.522L93.38 140.432C88.5 141.232 83.55 141.782 78.77 142.972C77.24 143.352 76.14 145.452 74.84 146.762L75.53 147.842L83.72 147.272ZM165.38 125.962C165.45 120.692 162.07 117.532 156.75 117.432C153.34 117.362 149.95 116.712 146.54 116.362C145.477 116.216 144.401 116.179 143.33 116.252C136.71 116.932 130.1 117.692 123.48 118.392C118.58 118.912 114.17 126.072 116.39 130.452C117.22 132.092 119.32 134.322 120.68 134.212C124.55 133.902 129.48 134.072 131.28 129.822C133.86 123.752 138.12 122.582 144 123.122C146.41 123.342 147.79 123.912 148.4 126.212C149.32 129.682 151.03 132.212 154.81 133.412C160.58 135.302 165.29 132.222 165.38 125.962ZM127.56 183.502C125.23 186.162 123.06 184.432 120.83 183.502C117.68 182.142 116.58 182.852 116.83 186.222C117.15 190.432 118.52 194.512 121.83 196.992C124.51 198.992 128.09 199.752 131.29 200.992C131.5 201.026 131.714 201.011 131.917 200.948C132.12 200.886 132.305 200.778 132.46 200.632C135.81 197.222 139.29 198.472 143.16 199.782C147.43 201.212 152.51 202.042 155.94 198.642C159.63 194.992 162.24 190.232 165.13 185.832C166 184.502 166.22 182.752 166.8 181.002C163.03 182.582 159.8 184.652 156.34 185.182C153.192 185.675 150.164 186.75 147.41 188.352C140.41 192.252 134.58 191.212 129.15 185.352C128.71 184.792 128.22 184.242 127.56 183.502ZM172.56 163.812C178.2 156.812 182.56 150.022 185.27 142.192C188.35 133.122 188.04 124.372 182.27 116.442C180.27 113.712 177.4 111.602 174.48 108.772C173.48 112.182 172.79 114.542 172 116.842C171.674 117.676 171.583 118.584 171.739 119.466C171.894 120.348 172.289 121.17 172.88 121.842C174.328 123.676 175.276 125.853 175.63 128.162C176.24 134.952 174.93 141.412 170.73 147.052C170.269 147.616 170.021 148.324 170.03 149.052C170.8 153.802 171.67 158.532 172.6 163.812H172.56ZM108.83 160.192C111.11 153.942 113.01 148.102 108.47 142.362C107.804 141.262 107.306 140.069 106.99 138.822C104.99 133.572 105.1 128.592 108.67 123.902C110.31 121.752 109.48 116.692 107.4 115.002C106.9 114.592 105.8 114.212 105.4 114.462C103.33 115.902 100.67 117.142 99.54 119.182C92.32 132.262 95.78 149.532 107.27 159.322C107.776 159.661 108.311 159.952 108.87 160.192H108.83ZM137.26 112.742H145.69C145.05 106.742 144.44 100.872 143.78 94.7424L152.19 95.4524V90.7724L145.5 91.1224C149.98 83.1224 150.18 81.3124 146.98 78.5724C145.504 77.3807 143.683 76.697 141.788 76.6232C139.893 76.5493 138.024 77.0891 136.46 78.1624C130.46 82.6924 135.92 86.6624 137.24 90.9024H130.55V95.4524L139.24 94.7324C138.6 100.932 137.97 106.692 137.3 112.742H137.26ZM160.42 176.442C167.93 171.442 169.98 164.682 166.55 155.532C164.32 157.732 161.09 159.412 160.68 161.622C159.85 166.252 160.46 171.152 160.46 176.442H160.42ZM114.67 160.202C114.67 163.202 114.6 166.002 114.67 168.782C114.81 173.242 116.33 174.502 121.02 174.182C121.14 173.894 121.22 173.592 121.26 173.282C121.26 170.912 121.26 168.542 121.26 166.162C121.24 161.522 120.12 160.452 114.71 160.202H114.67ZM121.67 142.312C116.16 142.762 112.58 145.212 112.95 148.222C113.32 151.232 118.14 154.452 121.85 154.142C121.85 150.722 121.85 147.292 121.85 143.852C121.88 143.382 121.77 142.822 121.71 142.312H121.67ZM188.75 130.202C195.2 130.802 205.26 125.482 206.59 120.902C199.54 120.382 190.71 124.842 188.79 130.202H188.75ZM207.92 129.442C204.44 127.122 192.15 130.042 189.06 133.932C195.02 136.742 204.12 134.582 207.96 129.442H207.92ZM208.37 137.062C207.14 136.522 206.18 135.722 205.23 135.742C199.75 135.872 194.23 136.202 188.62 136.472C192.99 141.812 203.22 142.232 208.41 137.062H208.37ZM88.97 172.542L90.25 173.122C94.96 169.122 99.71 165.242 104.33 161.122C104.86 160.662 104.65 159.352 104.78 158.432L103.91 157.872C99.18 161.262 94.34 164.532 89.8 168.172C88.92 168.922 89.22 171.062 88.97 172.542ZM174.32 104.632H175.67C176.13 99.1624 176.77 93.6324 176.98 88.1924C177.09 85.2924 175.65 82.9424 172.17 81.6324C172.91 89.6124 173.62 97.1224 174.32 104.632ZM104.87 111.832H106.09C105.71 103.662 105.33 95.5024 104.93 86.9824C101.12 90.5624 101.28 105.172 104.87 111.832ZM184.64 114.052C190.04 107.972 193.15 101.182 191.54 92.8624C189.12 99.8824 184.45 106.162 184.64 114.052ZM192.87 174.442C191.37 168.942 180.71 160.492 176.62 161.302C179.3 165.902 187.22 172.382 192.87 174.442ZM187.59 140.112C191.79 146.272 203.59 148.202 207.1 143.222L187.59 140.112ZM74.89 133.112C80.89 135.742 86.64 136.972 93.04 135.392C87.18 130.782 79.23 129.672 74.89 133.152V133.112ZM185.6 146.252C186.02 149.252 192.05 153.532 197.86 155.752C201.41 157.112 202.55 157.122 204.86 155.182L185.6 146.252ZM183.21 152.062C189.29 155.752 193.79 161.162 200.92 162.622C199.38 157.382 189.64 151.442 183.21 152.102V152.062ZM86.12 101.852C84.49 109.482 89.61 117.942 96.26 119.272L86.12 101.852ZM81.61 107.922C82.35 115.512 90.01 123.312 95.88 122.922L81.61 107.922ZM98.61 116.302L91.12 97.5024C88.73 104.222 92.46 113.612 98.59 116.302H98.61ZM101.42 112.302L102.94 112.102C101.933 104.856 100.933 97.609 99.94 90.3624L98.94 90.5024C96.48 98.2424 99.5 105.222 101.4 112.382L101.42 112.302ZM188.3 177.602C187.57 172.822 177.94 164.602 173.88 165.262C178.22 170.382 182.69 174.642 188.28 177.652L188.3 177.602ZM180.43 156.772L179.43 157.452C179.899 158.368 180.476 159.225 181.15 160.002C184.5 163.002 187.93 166.002 191.37 168.942C192.055 169.607 192.883 170.106 193.79 170.402C194.147 170.424 194.505 170.362 194.833 170.219C195.162 170.077 195.452 169.858 195.68 169.582C195.89 169.312 195.46 168.182 195.02 167.832C190.19 164.152 185.29 160.502 180.41 156.822L180.43 156.772ZM168.12 146.732L160.43 142.732V153.282C164.42 152.732 166.28 150.072 168.12 146.732ZM199.18 165.892C194.3 160.202 188.43 157.362 182.18 154.102C184.58 159.512 192.18 164.792 199.18 165.892ZM188.34 124.482C194.34 124.242 202.42 118.722 204.17 113.792C198.33 116.522 192.68 118.952 188.34 124.482ZM74.21 141.022L92.86 139.382C87.94 135.552 76.3 136.502 74.21 141.022ZM76.61 125.112C83.17 130.112 90.03 132.692 94.27 131.862C91.9539 129.576 89.1883 127.796 86.1484 126.634C83.1085 125.472 79.8605 124.954 76.61 125.112ZM109.12 165.602C104.45 169.472 98.26 171.802 96.04 178.132C102.12 175.742 106.9 171.992 109.12 165.602ZM186.94 121.212C194 119.372 199.34 114.492 199.53 109.832C194.94 113.112 189.06 114.732 186.94 121.212ZM195.47 100.532L185.75 116.532C192.35 114.382 197.66 105.562 195.47 100.532ZM92.88 174.682C99.41 172.602 106.34 165.962 106.63 161.742C101.92 166.252 95.68 168.642 92.88 174.682ZM206.88 149.582L186.79 143.962C190.58 149.182 200.12 152.012 206.83 149.582H206.88ZM179.12 85.9324C178.34 93.2657 177.563 100.569 176.79 107.842L178.03 107.952C179.24 100.692 182.71 93.6124 179.12 85.9324ZM79.82 116.592C81.92 122.592 90.55 128.592 94.97 126.722L79.82 116.592ZM99.58 111.242C97.85 104.712 96.27 98.7224 94.58 92.1724C92.62 97.7624 95.18 107.382 99.57 111.242H99.58ZM109.72 139.882C109.84 134.882 112.72 130.522 110.72 125.542C106.54 130.032 106.12 135.142 109.71 139.882H109.72ZM172.96 135.492C174.47 131.402 174.76 128.082 172.96 124.922C172.44 123.922 171.1 123.472 170.13 122.762C169.88 123.892 169.13 125.162 169.44 126.142C170.34 129.072 171.58 131.892 172.95 135.492H172.96ZM186.84 91.5524L182.01 108.932C186.33 105.452 188.98 95.7924 186.83 91.5524H186.84ZM110.55 81.8624C106.27 85.1024 105.03 92.1924 107.69 97.9224C108.67 92.3824 109.57 87.3224 110.54 81.8624H110.55ZM180.18 106.182L181.48 106.392C182.59 101.232 183.72 96.0724 184.75 90.8924C184.82 90.5324 184.1 90.0124 183.26 88.8924C182.12 95.2824 181.12 100.732 180.17 106.182H180.18ZM167.28 139.852L168 139.232L166.12 129.962L161.93 136.082L167.28 139.852ZM141.21 186.472V165.012C139.67 169.382 139.63 184.482 141.2 186.472H141.21ZM185.29 180.472C185.53 177.952 177.44 170.472 173.52 169.472L185.29 180.472ZM115.35 132.312C115.07 134.772 114.9 136.312 114.69 138.132L119.15 136.782C117.95 135.382 116.93 134.162 115.34 132.292L115.35 132.312Z" fill="white"/>
<path d="M230.858 86.1927C233.648 83.0327 232.858 80.9028 228.858 80.0928C225.508 79.4128 221.528 80.9427 220.348 83.5127C218.848 86.7627 220.588 89.1627 222.768 91.2627C226.256 94.5087 230.659 96.6034 235.378 97.2627C237.933 97.5938 240.432 98.2665 242.808 99.2627C247.088 101.263 248.588 105.923 246.388 109.693C245.768 110.753 244.468 111.423 243.218 112.493C243.218 109.873 243.828 107.693 243.038 106.293C242.248 104.893 240.158 104.223 238.508 103.893C235.798 103.353 233.298 104.133 232.038 106.893C230.778 109.653 231.328 112.443 233.808 114.123C238.003 116.922 242.343 119.498 246.808 121.843C250.048 123.563 252.488 125.783 253.728 129.273C255.148 133.273 253.648 135.433 248.998 135.563C249.628 132.853 249.998 129.833 246.738 128.873C244.641 128.288 242.405 128.454 240.418 129.343C237.728 130.683 237.168 133.823 237.828 136.453C238.54 139.253 239.801 141.884 241.538 144.193C243.988 147.393 247.068 150.103 249.818 153.083C251.217 154.49 252.228 156.235 252.754 158.148C253.279 160.062 253.302 162.078 252.818 164.003C252.178 166.653 250.478 168.873 247.578 169.003C246.328 169.073 244.998 167.643 244.108 167.133C245.518 165.343 247.168 164.193 247.258 162.933C247.488 159.983 244.578 157.253 241.098 156.213C240.136 155.853 239.079 155.833 238.104 156.157C237.129 156.481 236.294 157.129 235.738 157.993C234.62 159.426 233.932 161.148 233.755 162.958C233.578 164.767 233.919 166.59 234.738 168.213C237.098 173.213 239.838 177.963 242.208 182.923C244.208 187.073 242.688 191.393 238.898 193.263C236.608 194.393 235.618 194.083 233.808 191.433C236.688 191.133 238.528 189.913 237.998 186.733C237.731 185.23 236.999 183.848 235.904 182.784C234.81 181.72 233.408 181.027 231.898 180.803C230.524 180.587 229.121 180.925 227.996 181.742C226.871 182.559 226.117 183.79 225.898 185.163C225.491 187.349 225.587 189.599 226.178 191.743C227.238 195.743 228.818 199.613 230.058 203.573C230.614 205.057 230.763 206.662 230.49 208.223C230.218 209.785 229.533 211.245 228.508 212.453C226.508 214.813 224.428 216.453 221.058 214.123C221.668 213.433 222.248 212.653 222.938 212.013C225.138 210.013 225.208 207.653 223.618 205.353C222.028 203.053 219.768 201.983 216.868 203.033C212.508 204.613 209.868 209.033 209.558 214.923C209.348 219.753 209.258 224.603 208.788 229.403C208.705 230.503 208.404 231.575 207.9 232.556C207.396 233.537 206.702 234.408 205.856 235.116C205.011 235.824 204.032 236.356 202.978 236.68C201.924 237.004 200.815 237.114 199.718 237.003C196.218 236.563 195.078 234.803 196.058 230.893L198.658 232.893C201.808 231.553 202.598 229.083 202.218 226.013C201.888 223.303 200.978 220.943 198.088 220.013C195.198 219.083 192.868 220.583 190.978 222.693C187.813 226.228 185.812 230.651 185.248 235.363C184.803 238.451 183.76 241.423 182.178 244.113C181.706 244.888 181.084 245.56 180.348 246.091C179.612 246.622 178.778 247.001 177.894 247.205C177.01 247.409 176.094 247.434 175.2 247.279C174.306 247.124 173.452 246.792 172.688 246.303C171.618 245.653 170.938 244.363 169.948 243.193C172.448 243.193 174.678 243.833 175.948 243.013C177.218 242.193 178.138 240.013 178.518 238.243C179.078 235.663 178.288 233.163 175.608 232.053C172.768 230.873 169.838 231.213 168.008 233.853C165.458 237.543 163.308 241.493 161.008 245.353C159.848 247.273 158.848 249.303 157.558 251.133C155.558 253.963 152.558 254.513 149.408 253.753C147.228 253.233 145.888 251.843 146.508 249.093C147.157 249.1 147.804 249.143 148.448 249.223C151.598 249.753 153.448 248.303 154.128 245.343C154.858 242.183 153.468 239.483 150.688 238.473C146.068 236.783 141.968 238.153 138.388 241.023C135.948 243.023 134.058 245.643 131.578 247.553C128.918 249.728 125.97 251.525 122.818 252.893C119.988 254.023 117.018 253.033 114.818 250.723C112.158 247.983 112.628 245.723 116.398 243.873L117.298 246.923C121.408 247.673 127.048 242.923 126.298 239.013C126.041 238.185 125.622 237.417 125.066 236.753C124.51 236.089 123.827 235.541 123.058 235.143C118.578 232.843 114.118 233.563 109.918 236.143C106.768 238.143 103.728 240.283 100.448 242.003C96.1279 244.263 91.4479 243.003 89.1679 239.233C87.8879 237.123 87.9479 235.233 90.5179 233.703C91.5179 237.363 93.7779 238.473 97.1479 237.333C98.544 236.854 99.7334 235.91 100.518 234.66C101.302 233.41 101.634 231.928 101.458 230.463C101.19 229.064 100.434 227.806 99.3234 226.914C98.2131 226.021 96.8217 225.553 95.3979 225.593C91.9587 226.087 88.5645 226.857 85.2479 227.893C82.2479 228.673 79.248 229.843 76.188 230.393C74.407 230.625 72.5962 230.412 70.9179 229.773C66.9179 228.353 66.0179 225.323 68.0979 221.663C69.6479 222.743 71.1679 224.663 72.7579 224.663C73.791 224.682 74.8162 224.479 75.7636 224.066C76.711 223.654 77.5583 223.042 78.2479 222.273C78.752 221.386 79.0625 220.403 79.159 219.388C79.2555 218.373 79.1359 217.348 78.8079 216.383C77.2679 212.383 73.718 210.383 69.548 210.053C64.838 209.643 60.0879 209.613 55.3579 209.343C51.0979 209.093 47.3579 207.923 45.6579 203.413C43.8979 198.673 46.4579 195.413 51.0279 196.063C50.6279 197.373 49.4979 199.503 49.9279 199.893C51.3375 201.243 53.1222 202.135 55.0479 202.453C57.9379 202.743 60.7779 201.713 62.0479 198.763C63.3179 195.813 61.8579 193.273 59.5879 191.273C55.6976 187.809 50.8468 185.608 45.6779 184.963C43.023 184.584 40.4719 183.672 38.1779 182.283C37.3757 181.803 36.6798 181.164 36.1329 180.406C35.586 179.648 35.1997 178.786 34.9974 177.873C34.7952 176.96 34.7814 176.016 34.9569 175.098C35.1324 174.179 35.4934 173.307 36.0179 172.533C36.6679 171.533 38.0179 171.093 39.4679 170.683C37.9479 173.683 37.7779 176.033 40.9279 177.753C44.0779 179.473 47.7679 178.973 49.5879 176.693C51.4079 174.413 51.3779 170.523 48.9279 168.693C45.018 165.878 40.8956 163.37 36.5979 161.193C32.7279 159.193 29.5279 156.783 28.3079 152.433C27.3579 149.033 28.5679 147.293 32.4679 146.563C32.7297 147.247 32.8979 147.963 32.9679 148.693C32.8179 152.183 34.9679 153.503 37.9079 153.903C39.2655 154.013 40.6176 153.633 41.7186 152.831C42.8196 152.029 43.5964 150.859 43.9079 149.533C44.42 147.733 44.477 145.834 44.0738 144.006C43.6706 142.179 42.8198 140.48 41.5979 139.063C38.8979 135.763 35.7979 132.793 32.8679 129.673C30.2979 126.953 28.2579 123.793 29.1579 120.013C29.7688 117.711 31.1178 115.674 32.9979 114.213C35.2079 112.593 37.4579 113.523 38.3579 115.973C37.1179 116.823 35.2479 117.493 35.1879 118.293C35.135 119.882 35.6649 121.437 36.6779 122.663C38.6079 124.833 40.9479 127.203 44.2079 126.093C47.4679 124.983 48.3279 121.483 48.2079 118.563C47.9595 115.471 47.1174 112.456 45.7279 109.683C44.3079 106.683 41.9579 104.083 40.3679 101.123C38.0179 96.7427 38.9579 92.1228 42.4279 89.5928C44.6779 87.9428 46.7379 87.7027 48.4279 90.7327C45.4279 91.4527 43.1279 92.6128 44.3779 96.3228C45.5479 99.7928 48.6779 102.163 51.6379 101.623C52.3997 101.516 53.1314 101.254 53.7871 100.852C54.4428 100.45 55.0085 99.9165 55.4487 99.2857C55.8889 98.655 56.1942 97.9401 56.3455 97.186C56.4968 96.4318 56.4908 95.6545 56.3279 94.9027C55.3279 89.9027 53.8479 84.9027 52.3279 79.9727C51.0479 75.7827 51.0579 72.0427 54.5379 68.8327C56.4879 67.0327 58.4479 66.2727 61.0179 68.2927C60.4279 68.9227 59.9179 69.5928 59.2979 70.1328C56.9379 72.2028 56.8079 74.5727 58.4879 77.0427C59.1757 78.2371 60.2971 79.1207 61.6193 79.5099C62.9415 79.8991 64.3628 79.764 65.5879 79.1328C69.9279 77.2228 71.978 73.5828 72.298 69.0028C72.618 64.4228 72.6979 59.5527 73.0079 54.8427C73.2779 50.6527 74.6879 47.1727 79.1379 45.7027C83.8979 44.1527 86.7379 46.3427 86.3179 51.7027L83.4179 49.3827C80.5379 50.3827 79.5479 52.5927 79.7579 55.3827C79.9679 58.1727 80.7579 61.0327 83.7579 62.2327C86.5979 63.3627 88.8279 61.8327 90.7579 59.9727C94.7579 55.9727 96.5079 50.9727 97.3779 45.5327C97.7042 43.2052 98.4317 40.9518 99.5279 38.8727C100.393 37.1995 101.884 35.9359 103.677 35.3571C105.469 34.7783 107.418 34.9313 109.098 35.7827C110.398 36.4827 111.228 38.0427 111.958 39.4827C107.258 38.4227 105.518 38.9128 104.148 41.9228C102.778 44.9328 103.628 48.5227 106.148 50.0527C107.579 50.8933 109.282 51.1421 110.894 50.7462C112.506 50.3502 113.899 49.3408 114.778 47.9327C117.348 43.9927 119.218 39.5828 121.878 35.7228C123.616 33.0395 125.907 30.7586 128.598 29.0328C132.548 26.7428 134.958 28.4028 135.668 32.6128C133.608 33.1728 131.118 33.1727 129.778 34.4127C129.136 35.1307 128.677 35.9925 128.438 36.9254C128.2 37.8583 128.189 38.835 128.408 39.7727C129.158 41.6727 131.158 43.8627 133.038 44.3727C137.918 45.6827 141.988 43.2027 145.538 40.0027C148.708 37.1427 151.608 33.9428 154.948 31.3028C159.218 27.9328 164.758 28.3927 167.798 31.9127C170.138 34.6027 169.548 36.8328 166.008 38.3528C165.648 37.3528 165.298 36.2728 164.948 35.2628C160.728 34.6328 155.388 39.4127 156.158 43.4627C156.421 44.2839 156.846 45.0441 157.408 45.6984C157.969 46.3528 158.656 46.8881 159.428 47.2727C163.938 49.4927 168.428 48.6627 172.578 46.0727C175.638 44.1827 178.578 42.0727 181.738 40.3727C186.018 38.1227 190.338 39.1728 192.878 42.6528C194.458 44.8128 194.678 46.7227 192.268 48.2327C191.148 46.9327 190.268 45.3827 188.928 44.5627C188.088 44.0527 186.488 44.4328 185.378 44.8328C182.228 45.9628 180.228 49.2527 180.858 51.9028C181.658 55.2727 184.778 57.3027 188.748 56.4028C193.558 55.3027 198.258 53.7127 202.998 52.3427C206.658 51.2827 209.998 51.4327 213.108 54.1327C215.668 56.3827 215.898 58.6928 214.108 61.4928C213.823 61.266 213.553 61.0222 213.298 60.7628C210.298 57.0828 208.108 56.5527 205.118 58.8227C202.338 60.9327 202.118 64.4828 204.518 67.8228C207.148 71.4828 211.048 72.4528 215.198 72.6428C219.138 72.8128 223.088 72.6428 227.038 72.7728C232.038 72.9628 235.808 75.7728 236.978 79.9628C238.248 84.5228 235.638 87.2727 230.858 86.1927ZM227.168 211.393L227.908 211.523C227.988 209.873 228.428 208.143 228.088 206.583C226.768 200.583 225.018 194.673 223.788 188.663C223.296 186.669 223.589 184.562 224.608 182.779C225.626 180.996 227.291 179.672 229.258 179.083C233.128 177.973 237.088 180.083 239.008 184.383C239.608 185.713 240.168 187.073 240.748 188.383C241.278 183.453 239.148 179.653 236.288 176.113C233.138 172.213 231.288 167.813 232.038 162.713C232.548 159.173 233.788 155.903 237.418 154.363C240.658 152.993 243.468 154.473 245.748 156.523C247.348 157.963 248.358 160.073 249.578 161.923C249.961 162.656 250.295 163.415 250.578 164.193C251.498 160.103 250.648 157.193 248.158 154.623C244.968 151.303 241.908 147.843 238.928 144.323C237.649 142.815 236.725 141.04 236.223 139.127C235.721 137.215 235.654 135.214 236.028 133.273C236.301 131.545 237.082 129.938 238.272 128.656C239.461 127.373 241.006 126.474 242.708 126.073C246.368 125.303 248.708 127.073 250.528 129.983C251.07 130.713 251.651 131.414 252.268 132.083C252.008 127.163 249.208 125.313 245.908 123.473C241.009 120.77 236.283 117.764 231.758 114.473C228.628 112.193 228.448 109.193 230.348 105.803C232.248 102.413 234.868 101.253 238.518 102.203C240.518 102.713 242.428 103.323 244.838 104.013C242.718 100.263 239.578 99.6527 236.298 99.1227C233.197 98.716 230.136 98.0469 227.148 97.1227C225.309 96.4447 223.627 95.3989 222.205 94.0492C220.783 92.6996 219.651 91.0744 218.878 89.2728C217.518 86.4028 217.508 83.5627 219.558 81.0527C222.288 77.7127 226.098 78.0528 229.838 78.4628C231.388 78.6228 232.918 78.9328 234.458 79.1828C232.939 77.7077 231.129 76.5661 229.144 75.8308C227.158 75.0955 225.041 74.7828 222.928 74.9128C220.791 75.0777 218.645 75.0777 216.508 74.9128C210.318 74.3428 204.318 73.2627 201.508 66.5827C201.009 65.4272 200.806 64.1655 200.918 62.9119C201.029 61.6582 201.452 60.4522 202.147 59.4028C202.842 58.3535 203.787 57.4939 204.898 56.902C206.009 56.3101 207.249 56.0045 208.508 56.0128C209.508 56.0128 210.558 56.0128 211.588 56.0128V54.7927C209.708 54.6227 207.708 53.9627 205.978 54.3727C200.548 55.6827 195.238 57.4927 189.828 58.9127C185.528 60.0427 180.668 57.5727 179.248 53.8127C177.698 49.7027 179.668 45.7327 184.368 43.4627C185.178 43.0727 185.988 42.6528 187.198 42.0428C182.748 41.1228 179.958 43.2827 177.198 45.4827C172.948 48.8927 168.298 51.2127 162.678 50.6327C159.028 50.2527 155.678 48.8327 154.338 45.2327C152.998 41.6327 154.338 38.2328 157.158 35.8128C158.938 34.2428 161.158 33.2227 163.418 31.8627C161.85 31.4462 160.199 31.4486 158.632 31.8698C157.065 32.291 155.636 33.1161 154.488 34.2628C151.548 37.0428 148.588 39.8327 145.588 42.5527C144.162 43.9128 142.475 44.9687 140.629 45.6564C138.783 46.344 136.816 46.649 134.848 46.5527C130.458 46.3527 126.688 43.7528 125.778 40.2428C124.868 36.7328 126.598 33.6627 130.958 31.1827C131.148 31.0727 131.228 30.7628 131.408 30.4628C127.268 30.6728 125.728 32.0528 123.598 35.9528C121.058 40.8021 118.202 45.4789 115.048 49.9527C112.148 53.9527 109.198 54.2127 105.368 51.9527C102.038 50.0327 100.978 46.9027 102.248 42.6227C102.698 41.1027 103.248 39.6227 103.708 38.0727L102.778 37.5927C101.778 39.1127 100.488 40.5228 99.9179 42.1728C99.2619 44.4266 98.8167 46.7365 98.5879 49.0727C97.7879 54.6427 95.5879 59.4028 90.8079 62.6328C87.8079 64.6328 84.5979 65.2628 81.3179 63.3128C78.5179 61.6428 77.2279 57.9728 77.9179 54.1028C78.2779 52.1028 78.5879 50.1028 78.9179 48.1028L77.7879 47.7827C76.7879 50.4127 75.368 52.9727 74.978 55.6827C74.348 60.0027 74.4679 64.4327 74.2079 68.8027C74.1597 70.9466 73.6055 73.0486 72.5906 74.9376C71.5757 76.8266 70.1289 78.4491 68.368 79.6728C65.508 81.6728 62.3679 82.3228 59.1579 80.6728C56.1579 79.1128 55.0379 76.3927 55.2179 73.0827C55.2187 72.4143 55.1787 71.7463 55.0979 71.0827H54.1679C54.1679 73.2827 53.7479 75.5928 54.2479 77.6728C55.3879 82.3328 57.0879 86.8527 58.3879 91.4727C59.7979 96.5427 57.2479 101.863 52.9779 103.133C48.5279 104.463 44.2979 101.793 42.4279 96.5228C42.1579 95.7528 41.8079 95.0128 41.2179 93.5228C40.5479 98.0628 42.1479 101.043 44.2179 103.923C45.9335 106.139 47.4463 108.505 48.7379 110.993C50.9079 115.603 51.0579 120.313 48.1979 124.793C45.9179 128.343 42.0979 129.553 38.5679 127.273C36.4079 125.873 34.8479 123.513 33.1079 121.503C32.4091 120.496 31.7969 119.433 31.2779 118.323C30.8456 119.874 30.8296 121.511 31.2317 123.07C31.6337 124.629 32.4395 126.054 33.5679 127.203C36.8179 130.783 40.1579 134.303 43.1979 138.053C46.4579 142.053 46.5779 146.733 45.0879 151.463C44.6637 152.887 43.7975 154.139 42.6145 155.037C41.4316 155.936 39.9934 156.435 38.5079 156.463C37.0889 156.632 35.6525 156.355 34.3981 155.67C33.1436 154.986 32.1335 153.928 31.5079 152.643C31.1479 151.943 30.6679 151.313 29.8079 149.983C30.1379 155.283 33.1079 157.263 36.6679 159.133C41.3005 161.518 45.7524 164.238 49.9879 167.273C53.3379 169.713 53.7879 173.223 51.9879 176.503C50.1879 179.783 47.0879 181.113 43.0879 180.043C41.4179 179.603 39.788 179.043 38.148 178.483L37.6779 179.353C39.1879 180.353 40.5779 181.693 42.2279 182.243C44.6001 182.908 47.0261 183.363 49.4779 183.603C55.2379 184.433 59.9679 186.853 62.9179 192.063C66.0879 197.663 64.2379 202.573 57.9179 203.803C54.7779 204.423 51.3479 203.593 48.1579 203.423C49.5879 206.003 52.2379 207.103 55.4479 207.263C59.9479 207.493 64.4479 207.583 68.9479 207.973C72.8479 208.313 76.4079 209.673 78.9479 212.833C80.1245 214.134 80.9019 215.746 81.1874 217.476C81.4729 219.207 81.2544 220.983 80.5579 222.593C79.1079 226.023 76.1579 227.173 72.5579 226.883C72.0647 226.885 71.5727 226.932 71.0879 227.023V227.953C73.0879 227.953 75.2179 228.333 77.0879 227.883C81.9779 226.713 86.7579 225.083 91.6279 223.793C96.9479 222.373 101.758 224.723 103.158 229.233C104.448 233.383 101.498 237.903 96.3479 239.683C95.6479 239.933 94.9779 240.263 93.4179 240.933C98.8179 241.493 101.848 238.933 105.198 236.873C108.378 234.873 111.808 232.873 115.388 232.113C118.459 231.665 121.595 232.149 124.388 233.503C129.788 236.023 129.598 242.943 124.248 247.093C122.598 248.383 120.718 249.363 118.458 250.773C122.658 251.713 125.338 250.193 127.758 248.023C130.858 245.233 133.758 242.183 137.008 239.623C139.124 237.975 141.518 236.722 144.078 235.923C148.738 234.513 154.008 237.063 155.728 241.093C157.448 245.123 156.108 248.093 151.198 251.283C151.068 251.363 151.078 251.633 150.978 251.963C152.285 252.07 153.595 251.777 154.731 251.121C155.868 250.465 156.777 249.479 157.338 248.293C158.848 245.423 159.848 242.293 161.558 239.523C163.427 236.376 165.688 233.479 168.288 230.903C170.788 228.553 174.768 228.903 177.348 230.903C180.138 233.043 181.238 235.703 179.908 239.183C179.288 240.803 178.908 242.523 178.198 244.963C182.348 242.343 182.828 238.833 183.198 235.283C183.808 229.283 185.508 223.863 190.728 220.143C193.908 217.883 197.268 217.143 200.808 219.143C203.658 220.763 204.858 224.613 204.028 228.743C203.668 230.523 203.268 232.303 202.888 234.083L203.968 234.553C204.968 232.683 206.508 230.893 206.778 228.933C207.388 224.613 207.008 220.143 207.678 215.843C208.228 212.283 209.048 208.453 210.918 205.473C214.528 199.733 221.728 199.403 225.238 204.563C226.598 206.373 226.598 209.073 227.168 211.393Z" fill="white"/>
<path d="M141.362 90.0046C136.782 85.0046 136.052 83.0046 138.042 81.2446C139.047 80.4149 140.317 79.9737 141.62 80.0012C142.923 80.0287 144.173 80.5232 145.142 81.3946C146.942 83.2146 145.972 85.5046 141.362 90.0046Z" fill="white"/>
</svg>
