<svg width="283" height="283" viewBox="0 0 283 283" fill="none" xmlns="http://www.w3.org/2000/svg">
<path d="M256.91 80.1191C256.41 83.4291 256.18 85.8691 255.66 88.2491C254.56 93.3291 254.74 93.7691 259.38 96.3891C261.32 97.4791 263.17 98.7191 265.66 100.259L238.08 112.659L236.08 108.659C239.14 107.269 242.02 105.919 244.93 104.659C246.541 104.012 247.83 102.754 248.518 101.16C249.205 99.5659 249.235 97.7649 248.6 96.1491C247.799 94.6046 246.446 93.418 244.81 92.8252C243.174 92.2323 241.375 92.2766 239.77 92.9491C236.93 94.2091 234.14 95.5891 231.09 97.0291C230.35 95.6091 229.73 94.4091 228.9 92.7791L256.91 80.1191Z" fill="white"/>
<path d="M168.4 45.9986C172.08 36.3786 175.4 27.6586 179.11 18.0586L186 32.3386L200.19 26.2686L189.41 53.8486C187.01 48.6086 185.03 44.2686 182.91 39.6486L168.4 45.9986ZM179 28.5686C177.84 31.7386 176.9 34.2986 175.7 37.5686L181.82 34.5686C180.89 32.5686 180.09 30.8686 179 28.5686ZM190 42.6486L192.88 34.8086C186.91 36.2686 186.55 37.2386 190 42.6486Z" fill="white"/>
<path d="M159.51 30.9193C161.38 33.4293 162.91 35.5093 164.51 37.5693C167.02 40.9093 167.02 40.8993 163.1 43.3793L155.39 34.1093L146 41.7693L142.65 37.8993L152.08 29.9993L145.74 21.6093L157.44 12.0293L167.29 24.0293L159.51 30.9193ZM152.51 22.6193L156.03 26.5293L160.53 23.1693L156.7 19.0593L152.51 22.6193Z" fill="white"/>
<path d="M240.92 147.09L272.04 150.29L259.94 167.49C258.44 164.42 257.2 161.89 255.77 158.99L249.71 166.62L240.92 147.09ZM253.26 153.42H248.58L250.44 157.23L253.26 153.42Z" fill="white"/>
<path d="M58.8809 199.3C54.4509 203.22 51.7809 208.02 53.7309 214.71L64.5809 205.71L67.7009 209.13C60.3109 215.3 53.0009 221.34 45.6209 227.53L42.1509 224.63C49.0809 218.87 49.8009 216.99 48.2409 209.18C46.2409 210.72 44.4309 212.18 42.6209 213.59C40.8109 215 39.1509 216.43 37.4609 217.81C34.0809 214.81 34.0809 214.81 37.0009 212.38C42.6309 207.66 48.3509 203.04 53.8509 198.17C56.1009 196.17 57.4709 196.35 58.8809 199.3Z" fill="white"/>
<path d="M269.62 114.16C268.361 116.462 266.986 118.698 265.5 120.86C263.78 123.1 264.19 124.64 266.32 126.28C268.09 127.65 269.63 129.28 271.88 131.4L242.65 136C241.39 132.39 242.35 131.3 245.8 131C250.8 130.57 255.71 129.31 260.25 128.48L257.91 120.91C254.06 121.5 249.29 122.21 244.53 122.98C240.53 123.63 240.53 123.66 240.01 118.98L269.62 114.16Z" fill="white"/>
<path d="M90.3304 30.4486C93.2304 36.9586 96.1004 43.4486 99.1104 50.1986L95.0004 52.3586L82.9004 25.6086C88.7804 25.6086 94.1704 25.1086 99.3804 25.8586C101.51 26.1586 103.87 28.8586 105.02 31.0086C107.36 35.4386 108.96 40.2586 111.02 45.2786L107.15 47.3586C105.52 43.7386 103.92 40.3586 102.51 36.9786C99.5404 29.8186 98.5904 29.2486 90.3304 30.4486Z" fill="white"/>
<path d="M16.4206 168.439L13.3206 164.729L22.0906 157.729L12.3906 153.399C13.3406 149.089 13.5706 148.669 16.8106 150.539C23.7206 154.539 29.6306 153.989 34.9906 147.949C36.1096 146.946 37.3218 146.052 38.6106 145.279L41.6106 148.689C40.0406 149.909 38.5506 151.039 37.0806 152.199C35.6106 153.359 34.0806 154.619 32.1906 156.149C35.1906 157.439 37.8406 158.629 40.5506 159.709C42.0906 160.319 43.6306 161.159 42.4706 162.849C41.9906 163.323 41.4041 163.674 40.7604 163.874C40.1167 164.074 39.4344 164.117 38.7706 163.999C36.1157 163.141 33.5201 162.109 31.0006 160.909C28.1906 159.749 25.7306 160.459 23.5106 162.349C21.2906 164.239 18.9306 166.279 16.4206 168.439Z" fill="white"/>
<path d="M49.8516 95.5287L37.8516 102.129C40.4416 103.129 42.5016 103.889 44.5516 104.689C48.0916 106.069 48.1116 106.139 45.8516 109.839L18.8516 99.3887L34.0816 87.2188L36.5416 97.5887C39.3441 96.3651 42.0811 94.9966 44.7416 93.4887C47.4016 91.7987 48.8616 92.4287 49.8516 95.5287ZM32.0616 100.059C31.7916 98.1487 31.5616 96.5688 31.2816 94.5788L27.0016 98.0788L32.0616 100.059Z" fill="white"/>
<path d="M135.61 25.1997C132.8 27.3197 130.45 29.1997 127.98 30.9297C125.98 32.2897 124.8 33.7197 125.73 36.3197C126.054 37.681 126.275 39.065 126.39 40.4597C126.75 42.3097 126.08 43.3197 124.19 43.6397C121.99 44.0197 121.66 42.5697 121.43 40.9797C120.23 32.373 119.03 23.7697 117.83 15.1697C121.48 12.9897 122.15 13.3197 123.07 18.1697L131.13 12.4297C134.57 15.3697 134.58 15.3697 131.32 17.8297C129.42 19.2597 127.59 20.8297 125.6 22.0697C123.45 23.4597 123.71 25.1197 124.6 27.4097C126.11 26.2997 127.37 25.3497 128.66 24.4097C129.95 23.4697 131.3 22.5697 132.82 21.5197L135.61 25.1997Z" fill="white"/>
<path d="M167.36 246.29C166.47 247.9 165.82 249.1 165.06 250.49C163.88 249.96 162.82 249.49 161.78 249.01C160.74 248.53 159.68 248.01 158.15 247.21C159.37 255.03 160.52 262.39 161.83 270.71L145.91 262.71C146.68 260.79 146.39 258.23 149.41 259.02C151.295 259.676 153.133 260.461 154.91 261.37L151.62 239L167.36 246.29Z" fill="white"/>
<path d="M187.811 230.16C191.871 239.16 195.641 247.53 199.511 256.1C195.131 258.42 187.871 254.71 186.581 263.43C185.081 262.04 183.011 260.8 183.181 260.16C183.751 258.04 184.691 255.6 186.311 254.3C187.931 253 190.491 252.99 192.921 252.3C190.861 247.56 188.821 242.85 186.591 237.69C185.521 238.69 184.671 239.59 183.731 240.38C181.131 242.6 176.731 242.72 174.281 240.38C173.985 239.947 173.791 239.451 173.714 238.931C173.638 238.411 173.682 237.881 173.841 237.38C174.041 236.81 175.751 236.09 176.191 236.38C179.261 238.31 181.111 236.72 183.031 234.54C184.361 233.07 186.001 231.82 187.811 230.16Z" fill="white"/>
<path d="M52.1508 61.0897L41.4808 68.6297L44.6308 70.8897C47.0508 69.3197 49.5408 67.8897 51.8708 66.1597C54.2008 64.4297 55.9908 64.4397 57.5108 67.7497L48.8208 73.9097L60.2308 82.2997L57.7508 85.9997L33.5508 68.5297C38.6308 65.0497 43.1408 61.7897 47.8708 58.9097C48.4708 58.5397 50.2508 60.0797 52.1508 61.0897Z" fill="white"/>
<path d="M218.841 39.6289C219.741 44.8189 220.661 49.7289 221.371 54.6289C221.441 55.1389 220.371 56.2389 219.731 56.3589C215.601 57.1089 211.451 57.7789 207.271 58.1789C206.719 58.1212 206.19 57.9239 205.735 57.6055C205.28 57.2871 204.914 56.8581 204.671 56.3589C203.811 52.2989 203.231 48.1689 202.731 44.0389C202.651 43.3489 203.351 42.0389 203.861 41.8989C208.701 41.0589 213.581 40.3989 218.841 39.6289ZM216.201 51.9389L214.641 44.7589L208.081 45.9389C208.451 48.5089 208.801 50.9389 209.171 53.4589L216.201 51.9389Z" fill="white"/>
<path d="M254.362 184.68C253.702 182.68 252.892 181.35 252.892 179.98C252.892 178.88 253.892 177.78 254.432 176.67C255.272 177.21 256.552 177.55 256.902 178.31C258.622 182.1 260.092 186 261.812 190.26L247.912 196.56L245.912 192.87L252.392 189.25C246.962 187.11 241.912 185.11 236.852 183.13C233.192 181.7 233.182 181.71 235.302 177.55L254.362 184.68Z" fill="white"/>
<path d="M225.591 236.499L217.771 235.759C219.461 238.139 220.941 240.209 222.431 242.289C219.901 245.539 219.871 245.539 217.291 242.609C216.511 241.719 215.721 240.829 214.911 239.959C214.801 239.829 214.561 239.829 214.191 239.699C213.761 241.909 213.331 244.099 212.881 246.429H208.941C208.925 243.964 209.079 241.502 209.401 239.059C209.779 237.482 209.764 235.836 209.356 234.266C208.948 232.697 208.16 231.252 207.061 230.059C204.861 227.549 202.761 224.959 200.381 222.129L203.931 219.389C205.751 221.529 207.721 223.289 209.001 225.469C211.291 229.389 214.681 231.089 219.001 231.549C220.463 231.856 221.942 232.076 223.431 232.209C226.681 232.159 226.711 233.799 225.591 236.499Z" fill="white"/>
<path d="M72.261 227.07L78.261 219.5L82.261 222.25C80.001 225.37 77.991 228.25 75.831 231.08C74.241 233.08 73.661 235.08 74.831 237.6C75.5009 239.062 75.8422 240.652 75.831 242.26C75.831 243.07 74.751 244.51 74.131 244.53C73.5843 244.481 73.0536 244.319 72.5719 244.056C72.0901 243.793 71.6678 243.434 71.331 243C70.671 242.15 70.611 240.85 70.171 239.34C69.171 240.61 68.421 241.49 67.711 242.39C64.851 246.04 64.851 246.05 61.041 242.51C66.821 236.98 70.371 230.82 65.741 222.86C68.821 220.14 69.721 220.68 72.261 227.07Z" fill="white"/>
<path d="M24 197.74C24.6 190.74 25.13 184.66 25.72 177.74C29.07 180.47 31.79 182.55 34.35 184.83C35.0605 185.575 36.005 186.054 37.0259 186.187C38.0469 186.32 39.0825 186.099 39.96 185.56C41.88 184.56 43.96 183.96 45.82 182.84C48.82 180.99 50.33 181.97 51.05 185.66L24 197.74Z" fill="white"/>
<path d="M57.6504 41.7595L61.2104 38.6895C63.8604 44.3295 68.4104 44.1195 73.2104 43.3495C77.8704 42.5995 78.3304 43.1595 77.2104 47.7595C77.2216 47.8658 77.2216 47.9731 77.2104 48.0795C74.8004 53.1495 74.5904 57.8295 80.1104 61.4295L76.5104 64.8695C70.1704 57.1295 64.0504 49.6295 57.6504 41.7595Z" fill="white"/>
<path d="M237 201.289L245.22 220.229L240.88 222.229L236 210.889L227.89 221.449L220.41 202.779L224.64 200.939C226.15 204.499 227.58 207.939 229.16 211.649L237 201.289Z" fill="white"/>
<path d="M27.0913 129.399L39.2613 118.239C42.8713 120.629 42.9013 120.919 40.0913 123.899C35.6713 128.599 31.2813 133.319 26.5213 138.399L13.8613 119.349C16.7213 115.349 17.8613 115.349 20.4013 119.109C22.6113 122.419 24.7413 125.779 27.0913 129.399Z" fill="white"/>
<path d="M236.801 66.5388C231.351 70.8788 226.061 75.1088 220.491 79.5388L217.311 76.0888L240.741 57.2988C241.631 63.0488 242.421 68.1288 243.221 73.2988C236.941 74.5888 238.891 69.1088 236.801 66.5388Z" fill="white"/>
<path d="M101.31 233.359L105.18 234.899C103.06 240.469 101.02 245.899 98.97 251.249C98.05 253.669 96.97 256.029 96.24 258.509C95.39 261.569 93.86 261.999 91 259.999C94.37 251.279 97.8 242.409 101.31 233.359Z" fill="white"/>
<path d="M130.51 268.8L127.18 271.39L115.68 257.88L126 249.25L128.65 252.95L122.55 258.53L130.51 268.8Z" fill="white"/>
<path d="M138.1 254.22C135.26 256.39 132.74 258.22 130.36 260.22C128.19 262.02 126.56 261.3 124.67 259.22L131.21 253.39C129.16 250.84 127 248.39 125.12 245.69C124.55 244.87 124.74 243.52 124.58 242.41C125.87 242.54 127.7 242.16 128.37 242.88C131.73 246.43 134.79 250.29 138.1 254.22Z" fill="white"/>
<path d="M164.601 79.9297C167.601 85.1497 170.711 90.3597 173.721 95.6097C182.954 111.71 192.171 127.816 201.371 143.93C207.151 154.09 212.841 164.29 218.521 174.5C221.301 179.5 220.071 181.65 214.311 181.72C204.421 181.84 194.521 181.77 184.621 181.83C181.911 181.83 179.991 180.92 178.811 178.32C177.461 175.39 175.811 172.61 174.051 169.32H200.431C187.841 147.55 175.611 126.43 163.201 104.99L150.201 127.64C147.741 123.45 145.501 119.77 143.451 115.98C143.339 115.545 143.32 115.092 143.394 114.649C143.468 114.206 143.634 113.784 143.881 113.41C150.448 102.403 157.061 91.423 163.721 80.4697C163.811 80.2797 164.051 80.2297 164.601 79.9297Z" fill="white"/>
<path d="M155.321 165.419C165.471 163.789 169.211 163.499 174.431 173.119C178.581 180.789 183.231 188.189 187.631 195.729C188.361 196.989 188.971 198.329 189.871 200.099C187.771 200.199 186.291 200.339 184.801 200.339C150.801 200.339 116.801 200.309 82.8014 200.249C81.4867 200.299 80.1726 200.134 78.9114 199.759C75.2214 198.469 74.4314 196.309 76.3314 192.949C80.9314 184.819 85.5914 176.729 90.2114 168.599C91.7414 165.889 93.7814 164.399 97.1314 164.699C100.131 164.969 103.191 164.759 106.821 164.759C102.651 172.549 98.8214 179.809 94.7314 187.339H167.821L155.321 165.419Z" fill="white"/>
<path d="M94.2207 150.999H120.221C118.481 154.309 117.051 157.279 115.401 160.109C113.521 163.339 110.211 163.929 106.911 163.929C96.0907 163.929 85.2807 163.739 74.4707 163.619C73.8841 163.585 73.2999 163.518 72.7207 163.419C73.1507 162.469 73.4007 161.739 73.7807 161.079C91.6874 130.159 109.631 99.259 127.611 68.379C128.481 66.879 130.301 64.949 131.671 64.959C133.041 64.969 134.811 66.959 135.671 68.429C140.381 76.429 144.811 84.669 149.471 92.739C150.941 95.279 151.111 97.569 149.591 100.109C147.941 102.879 146.481 105.759 144.591 109.209C140.061 101.349 135.761 93.909 131.181 85.989L94.2207 150.999Z" fill="white"/>
<path d="M161.62 149.52C156.94 149.52 152.96 149.63 149 149.44C148.448 149.351 147.921 149.149 147.451 148.846C146.981 148.543 146.579 148.146 146.27 147.68C141.45 139.83 136.76 131.9 131.78 123.59C130.78 125.16 129.9 126.59 129.03 127.96C125.46 133.74 121.83 139.5 118.36 145.34C116.59 148.34 114.36 149.98 110.72 149.59C107.673 149.417 104.619 149.397 101.57 149.53L130.91 98L161.62 149.52Z" fill="white"/>
<path d="M161.001 112.129L190.231 163.179H132.061C134.381 159.319 136.391 155.619 138.811 152.179C139.431 151.319 141.391 151.179 142.741 151.129C151.101 151.039 159.451 151.129 168.381 151.129C167.561 149.489 166.921 148.129 166.251 146.899C163.051 140.699 159.951 134.449 156.591 128.329C154.721 124.929 154.591 121.929 156.971 118.739C158.425 116.605 159.77 114.399 161.001 112.129Z" fill="white"/>
<path d="M104.861 181.14L134.001 130.68C136.251 134.68 138.611 138.03 140.001 141.75C140.611 143.35 139.641 145.91 138.701 147.67C134.951 154.67 130.921 161.59 126.701 169.01C134.871 169.01 142.501 169.28 150.091 168.91C154.501 168.7 157.231 169.97 158.781 174.17C159.641 176.5 161.121 178.6 162.501 181.17L104.861 181.14Z" fill="white"/>
</svg>
