<svg xmlns="http://www.w3.org/2000/svg" viewBox="0 0 1136.81 545.67"><g id="Layer_2" data-name="Layer 2"><g id="Layer_1-2" data-name="Layer 1"><path d="M10,8.3c11.23-1.66,12.9-.83,26.21,3.75L40,9.55h6.24c3.33,0,13.32-1.25,16.23-1.25.83-.41,14.56,0,16.64,0,3.75,0,3.33,0,7.91-1.24,5,1.66,5.82.83,8.74,1.66L104,12.88h8.74c21.22-4.16,15.81-5.41,37-.83,32.87,5,70.74,40,84.89,52.85,28.3,25.38,27.88,57.84,27.05,83.64v29.13c-2.5,37,.42,38.69-41.62,86.13a6.6,6.6,0,0,1-6.65,4.58c-.83.84-6.24,4.58-7.91,5.83-2.49,2.49-4.57,5-7.07,7.49-.42.83-3.75,3.33-7.08,5.41-7.9,4.57-22.46,5.83-31.2,9.15l-7.08,2.49c-3.33.84-24.55.42-30.38.84H108.19c-3.74,0-9.57-1.25-14.15-1.25l-6.66-2.08c-2.91,0-6.65-1.67-9.57.83-5.82.84-3.33.84-10,0-1.67,0-13.32-2.5-20-3.74-27,5-29.54,3.74-47.43,3.74,0-8.73-.84-7.07,2.08-15.81,17.06-11.65,16.23-11.65,19.56-27.88l2.08-7.49c0-1.24,0-5.82.83-7.91.41-4.57,1.66-2.91,1.66-7.49,0-2.08-1.66-5.41-1.66-7.49-2.08-5.41.41-4.57.41-9.57a16,16,0,0,0-3.32-10.4c-1.67-5.41-2.08-7.49-1.67-9.57l.83-2.08,1.67-2.08L25,187.24,27.46,186c1.25-5.83,2.08-9.16,1.67-12.07,0-5.41-4.16-10.4-4.16-12.48-1.67-3.33.41-7.08,2.08-12.07a49.32,49.32,0,0,0,.41-12.48c0-4.16.83-5.83-2.08-9.57-2.08-2.92-1.66-6.25-1.66-10a81.88,81.88,0,0,1,2.08-20l2.08-9.57a31,31,0,0,0-.83-9.58c0-3.74-.42-6.24.83-9.57V58.24c-.42-7.91-3.33-16.23-6.24-20.8-3.75-2.09-4.58-5.83-8.32-9.58A13.9,13.9,0,0,0,2.5,23.29L0,20.37V9.55L2.5,8.3ZM75.73,57.41c0,1.25,4.16,17.06,4.16,17.48a115.61,115.61,0,0,1,0,17.06c-.41,6.24-2.91,15.39-3.74,17.89,0,3.33-2.91,5-4.16,8.32s0,5.41-.42,8.74l2.5,2.5L77.4,129c.83,1.25.41,15,.41,15.4v42.44c0,4.16-.83,7.49-4.57,12.48-5,7.49-5,5-5,12.9,1.67,2.08,3.33,1.25,7.08,5,2.49,3.74.83,3.74,1.66,6.66.42,2.49,0,7.9-.83,12.9-.83,7.07-4.16,21.22-1.67,27.46,5,10.82,15,11.24,25,12.07,23.3,2.08,51.6,8.32,76.15-25,11.24-15.4,25.39-42,29.55-56.59v-7.49c.41-2.92,1.66-5,2.08-7.08,2.49-5.41.83-9.57,3.74-14.56,1.25-4.58,2.5-24.14,1.67-28.71-3.75-6.24-3.75-7.08-3.75-12.9l-2.08-12.49c-1.66-6.66-7.91-19.55-10.82-25-4.58-10-9.15-18.73-17.06-25.39C174.35,57.82,171,57,166,52.83c-3.74-2.08-4.58-3.33-11.65-9.57L149,38.68c-6.24-4.16-12.9-5-26.63-7.07-1.66,1.25-5.83,2.08-8.32,2.08-3.33-1.25-4.16-2.08-8.33-2.08a18.94,18.94,0,0,1-4.16-.42l-2.08-1.25L97,30.36l-2.09,1.25-2.08,1.25H89.05c-8.32,3.33-3.75,5.41-9.57,10.82C76.56,49.09,75.32,53.25,75.73,57.41Z"/><path d="M416.51,12.05l3.33,10.4,7.91,22.48c.83,2.49,1.66,4.16,1.66,6.23l4.16,12.07c.83,2.08,2.92,5.83,3.75,9.16L444.39,92c.83,2.49,4.58,11.65,5.41,14.56l7.49,28.3c1.66,5.82,1.66,3.74,2.5,10l2.49,10.82c1.25,4.16,2.5,5,4.58,10,1.25,3.74,2.5,7.49,3.75,10.82l10.82,26.21.41,1.67,1.25,2.08c.42,2.49,0,1.66,1.66,4.16l8.33,25.38c2.91,9.57,1.66,5.41,7.49,15,1.66,2.5,4.57,11.66,7.49,15.4,1.24,2.08,12.48,9.57,14.56,11.24,7.08,7.49,4.16,7.07,3.75,15.4-12.07,3.73-24.56,4.57-36.62,5h-37c-2.92,0-7.5-1.26-10.82-1.26H431.49c-1.66-4.15,0-8.31,6.66-11.23,3.33-1.66,8.74-.41,13.32-5.82,7.07-9.16,0-25.39-5.41-42l-10.82-24.14-3.33-10.82L429,197.22l-1.24-5.4c-2.08-7.5-4.17-14.15-14.57-18.73-5-2.08-48.68-2.08-54.93,1.25-5,2.91-7.07,7.07-10,17.06-.83,2.5-1.25,6.24-2.5,9.15-2.08,4.58-2.08,3.33-5.41,9.16L337,223c-6.66,17.9-14.15,32.46-7.9,41.62,4.57,4.58,10.82,6.66,13.31,12.9,5.41,8.74,3.33,8.32,3.75,17H323.3c-18.31.43-41.61,4.16-65.74-8.73,1.24-3.74.83-6.24,6.23-9.57,2.09-1.67,7.08-4.17,10-6.25,7.91-5.4,13.32-10,18.73-17.47l3.33-6.25c7.07-11.64,2.91-6.65,11.65-19.55,4.57-6.24,12.07-12.07,14.56-19.14l24.14-64.92,2.08-7.49,5.41-11.65.42-2.08,1.66-2.5.41-2.49,1.25-2.5,19.14-46.61q4.38-11.23,5-12.48l5-11.23c5.83-14.15,5-38.29,7.49-40.78,5-5.41,15.4-1.67,20.39-1.25A30.33,30.33,0,0,1,416.51,12.05ZM389.05,91.53C382,114,372,127.73,374.07,150.2a215.47,215.47,0,0,0,35.37.83l2.49-2.49V139c-4.57-20.39-3.74-15-6.66-34.54-.41-3.75-1.66-14.56-1.66-17.48a29.27,29.27,0,0,0,1.66-8.32c0-3.74-.41-6.24-4.15-7.49-7.49,2.5-6.66,4.16-9.16,10Z"/><path d="M587.1,34.11c-2.08,1.66-6.24,2.49-9.16,5.82-3.33,4.58-1.66,4.16-2.08,9.16a51.76,51.76,0,0,0,2.08,18.72l3.75,9.57a89.34,89.34,0,0,1,4.16,15.82V99c2.08,9.15,11.23,22,12.07,28.3v14.56c1.66,5.41.83,7.9,4.57,14.15,2.5.83,8.33,7.9,9.57,12.06.84,1.67,4.58,10.82,5.83,12.49,2.08,5.83,1.25,7.07,0,12.9-1.25,3.74-2.5,9.15,0,13.31l9.16,7.49L630,212.2c1.25-11.65,4.58-18.72,10-26.63,9.57-13.73,11.24-15.39,13.74-27.46,5-21.22-.84-26.22-13.32-53.68l-6.24-19.56c-1.66-3.74-7.07-9.57-9.16-14.15-1.24-2.49-.41-3.74-2.49-7.07a11.24,11.24,0,0,1-5.83-7.08l-.83-1.66L615,53.66V49.92c-2.92-4.58-2.08-2.91-3.75-7.49-5-7.08-7.9-6.24-14.15-8.74-3.33-5-4.16-7.07-4.16-12.07-.83-2.5-.83-10.82.42-12.9,10.4.83,18.31,1.25,28.3,1.67h9.15c21.64-1.67,16.64-2.5,38.28-1.67l25,2.5c4.58.41,20.81,1.25,25.8.83,4.58,0,5.41-2.91,12.48-2.91h12.9C749.8,12.05,749,15.8,750.63,20c.83,2.91,2.5,5.82,2.5,11.23-40,15.4-47,32.88-54.51,69.49-1.67,10-2.5,17.9,0,25,1.66,3.33,5.41,8.32,7.07,12.49,1.25,2.49,2.08,5.41,2.91,12.89,0,1.67,0,17.48.42,19.56,0,4.16.83,6.24,5.83,9.57,2.08,1.67,7.07,3.75,7.07,8.74a18.53,18.53,0,0,1,.42,4.58c.83,1.66.83,3.74,1.66,5.41,2.08,2.91,3.75,6.65,7.49,9.15,3.33-1.25,2.91-4.58,2.91-7.49,0-4.16-.41-3.33,1.67-8.73,2.91-2.92,6.24-4.17,7.49-7.91.83-1.25,1.66-7.08,2.91-9.16,1.25-4.57,1.25-2.91,4.58-8.32l3.33-8.74c1.24-2.91,4.16-12.48,5.82-17.47l2.5-10.82c2.91-12.9,5.41-22.89,10.4-32.46l6.25-12.07c3.74-7.49,7.9-33.71,3.32-42-5.82-10.41-10.82-8.74-18.72-10-2.5-3.33-2.5-9.16-2.5-10.41,0-3.33-.83-7.07-.83-10.4,23.72-3.33,13.73.42,37.45-.83,10.4-.42,15-.42,18.72-.83,4.17,0,5-1.25,9.16-1.25a12.9,12.9,0,0,1,9.15-.42c2.5,13.32,4.16,20.81-3.74,31.21a70.38,70.38,0,0,1-5,6.66c-.84.83-5.83,4.57-5.83,4.57-8.32,5.41-4.16,5.41-9.16,12.07-6.24,10.82-5,14.57-7.9,25l-3.75,12.48c-2.91,10.82-4.16,18.73-8.74,30.38l-11.64,24.55-.84,5.41L776,166.43c-.84,2.91-1.67,7.49-2.92,11.24l-16.64,49.51c-.42,1.67-1.67,7.08-2.08,9.16,0,1.66-.84,7.91-1.67,9.57l-3.33,11.65c-4.16,7.08-2.49,5-4.58,12.07,0,2.08-2.91,9.15-3.74,11.65-2.91,8.32-2.91,16.65-14.15,19.14-5,1.25-8.74,1.67-13.31-4.57-2.08-3.33-1.25-20.81-8.33-33.29-.41-1.25-3.74-5.83-5-7.91-2.08-3.75-1.66-5-5.41-8.74-1.25-2.08-1.25-5.41-2.91-7.91l-3.33-8.73-9.15-15.4c0-2.08-2.08-8.33-2.92-10.82,0-2.08-3.33-8.74-5.82-11.23-3.75,0-6.24,4.15-12.07,13.31-1.67,5.41-5,10.82-6.66,16.23-2.91,7.49-4.16,12.48-4.58,15.4-1.24,7.49.42,8.32-2.91,16.64,0,.42-1.66,4.58-5.83,11.65-1.24,2.5-5.82,9.16-7.48,12.49,0,3.32-1.67,8.32-2.92,11.65-1.66,5.4-3.74,9.15-8.73,11.23H610.4c-2.08-1.67-1.25-1.67-2.91-3.75l-2.08-4.15c-3.75-3.75-3.33-3.33-5-7.91l-13.31-38.7c-.83-.83-5-14.56-5-15.4l-11.66-24.13-3.33-10.82a20.07,20.07,0,0,0-2.49-5.41c-.42-.83-1.25-3.74-2.08-5.83-1.25-2.91-3.33-7.49-3.75-11.23,0-2.91.83-7.49.83-11.24l-2.91-8.74c-2.08-2.91-5.83-7.07-7.91-10.4-1.24-2.08-2.91-8.32-3.74-10.4-.83-2.91-2.08-7.07-2.91-10.4-1.67-4.58-2.91-7.08-2.91-10.41L528,77c-4.16-15-3.33-12.49-11.65-26.22-2.92-6.66-1.67-7.07-10-10.82a18.22,18.22,0,0,0-6.66-2.49c-1.25-1.25-4.16-2.92-6.66-5.83-2.49-2.5-2.07-2.91-3.74-5.41-.41-1.25-1.25-3.75-2.08-5.83C485.15,17,481.4,13.3,481.4,9.55c2.09-2.49,8.74-3.33,13.32-2.08l13.73,2.08h15c4.16,0,9.57,1.25,14.15,1.25h12.48c3.75,0,12.9,0,16.23-1.66,8.74-.84,7.08.41,16.65,1.25C585.85,23.7,586.27,28.7,587.1,34.11Zm83.22,13.31c1.67,2.5,3.75,4.16,5.41,6.66.42,5.82.42,11.23,1.67,17.06l2.08,8.74c.83,1.66,2.49,6.66,4.57,7.07,2.08-.83,3.75-8.32,4.16-9.57C692,75.3,692,69.48,692,67.81c1.25-4.16,2.08-6.24,2.08-10,2.08-6.24.83-6.66,3.74-9.15a23.62,23.62,0,0,0-2.08-9.57c-1.66-4.16-1.66-5.41-5.82-8.74a27.34,27.34,0,0,0-8.74,2.91c-2.91,0-5.82.42-8.74.42l-4.16,5.83C669.07,41.6,669.91,46.59,670.32,47.42Z"/><path d="M1085.15,295a21.68,21.68,0,0,1-10-7.91c-2.08-2.91-1.25-2.5-2.49-5.41-.84-1.25-.84-3.75-1.67-5.83l-5-5.83c-2.5-3.74-2.08-3.32-4.58-5.82l-8.32-7.91-3.75-3.33-1.66-2.08-1.66-1.66L1038.13,238c-2.91-4.16-4.16-5.82-4.58-6.24l-7.49-8.74c-1.66-1.66-4.16-4.57-9.16-9.57-2.08-2.08-2.49-2.5-3.74-3.74-3.33-2.08-2.91-2.08-5-4.58l-6.66-8.32c-6.24-6.24-5.41-3.75-8.74-12.49l3.75-2.49c0-2.92-3.33-5.83-8.33-9.16-2.49-1.66-5.82-4.58-11.23-10L961.15,144c-.42-.83-4.58-4.58-5.83-5.82l-11.23-12.49c-5.41-6.66-12.9-15.81-16.65-21.22-4.16-6.24-4.58-5.41-6.66-11.23,0-2.92,0-8.74-5-10.82-3.75,0-9.15-2.09-9.15,5.82C905.39,94,908.3,94,910,100.68c.83,2.92,1.24,5.83,1.66,12.07.41,6.66-.42,19.14-.83,24.55v7.08c-6.24,31.62-3.33,28.71-4.16,54.09V212.2c3.33,32.88-3.33,37.46,31.62,63.67a82,82,0,0,0,11.65,7.07c5.83,3.34,6.25,2.92,6.25,10a11.08,11.08,0,0,1-8.74,4.15c-4.16.42-5.42-.83-9.58-1.24-2.49,0-6.24-.83-9.15-.83l-9.57-.84c-2.5,1.25-10,2.91-12.9,2.91L892.49,295c-5-3.34-8.74,1.24-13.74,1.24-2.49,0-6.65-.41-13.72-3.32-2.08-.84-5-.84-7.91-3.75-2.91-3.75-2.08-5-2.08-8.33,33.29-27.46,28.29-59.5,27.05-83.64v-7.49a30.75,30.75,0,0,1,2.08-11.65v-15l-1.67-12.9V87.79c.42-15.4-.41-38.29-4.57-52-2.09-2.5-2.5-4.16-7.5-7.91l-8.73-5.41c-1.66-1.66-6.66-5.82-7.91-7.9-.83-2.92-1.25-5.83,1.67-8.74h30.37c3.74,0,7.08,2.49,10.82,2.49h5.82c5.42.42,37-1.66,42.45,9.58.42,1.24-1.66,12.48-1.66,13.73-.42,7.49.41,11.24,1.66,13.73.83,2.08,19.14,25.8,20.81,27.88l8.32,10.4c4.16,4.17,5.82,5.83,7.49,8.33l11.23,16.64c1.67,1.66,6.24,4.58,9.16,7.49,5.82,5.83,4.58,4.58,8.32,9.57l8.32,8.74c2.5,1.67,4.58,2.5,7.91,7.49l5.41,6.66c6.65,8.32,17.89,26.21,27,33.29,3.75,2.49,5,1.66,8.74,5.41,3.75,2.49,3.75,4.58,5,8.32,0,4.57.41,2.91,4.58,8.74,2.08,2.08,6.24,5,9.15,4.16-.42-13.73-5.83-22.05-3.33-36.62,4.58-23.72,7.08-12.48,5-37v-6.25c-.84-4.16-2.09-6.65-2.09-7.49-.41-.41-2.08-7.07-2.08-8.32l.83-15.81V85.7c.42-5-4.57-49.51-9.15-54.51s-12.49-5.41-17.06-7.9c-2.5-2.5-5.82-5.83-7.9-6.66-3.34-2.92-6.66-4.16-5-8.33,2.08-2.91,7.08-3.32,9.57-3.32L1066,3.73c14.15-2.08,7.07-2.5,21.64-2.5,5.41,0,10.4,0,21.22,3.75a60.56,60.56,0,0,0,10.82,2.49l10.4,1.25c2.91,0,5,1.25,6.66,5.83.83,7.9-7.49,7.9-11.23,11.65-17.07,15.4-18.73,57.84-17.07,74.9V228.43c.83,13.74,6.66,40.79-1.25,67.83C1095.55,297.93,1091.39,297.93,1085.15,295Z"/><path d="M110.57,356.88c6.64,10.22,10.9,12.27,15.15,22.14.17.51,3.75,9,3.75,11.25a33.84,33.84,0,0,1-.68,5.62,26.61,26.61,0,0,0-.34,5.62v4.94c-.34,12.77-9,30.65-20.44,39.51-17.88,14.31-25.21,13-43.26,13.46H57.08c-13.28-1-27.42-3.24-38.49-19.25-9.54-13.63-17.54-21.29-17-40.37v-3.74c.51-12.61-2.73-8.69,3.75-21.29,1.53-2.9,11.07-18.23,14.3-21.3C29.32,344.28,43.46,340,53.16,339,65.09,337.81,95.24,333.89,110.57,356.88Zm-9,64.38c1.53-6.81,4.77-8.51,3.75-15.15l-2.05-6c-.17-1.87.51-1.53.68-2.89a14.78,14.78,0,0,0-.17-2.73,29.07,29.07,0,0,1,.17-5.11,23.12,23.12,0,0,1,1-5.45c1.54-3.57,2.39-3.4,1-5.28-1-4.08-5.11-6.3-8.35-9.19-2.9-2.9-2.9-1.54-3.92-4.94L92.34,362c-.34-.34-1.87-2.21-2-2.38l-1.54-1.54a19.57,19.57,0,0,1-2.38-2.89c-1-1-2-2-2.73-2.9-2-1.87-1.53-1-2-2.72a7.16,7.16,0,0,0-2-2.73c-.85-.68-9.37-2-11.93-2-7.83-.51-19.92,2.72-27.08,10.56-1.53,2.38-.68,1.7-2.89,3.92A21.78,21.78,0,0,0,34.43,363c-2,2.73-1.7,3.24-3.58,7.67a16.16,16.16,0,0,1-2,3.74,40.34,40.34,0,0,1-2.73,3.75c-2,3.41-1.87,4.6-2.89,7.67l2.56,2c.33,3.24-.18,10.56-.35,17.88v6.14c.35,3.57-.17,11.41,1,14.64,1.37,3.24,5.8,10.91,9.88,13.29a14.14,14.14,0,0,1,3.24,1.53l3.07.51c1,0,2.21,1.54,2.89,2.39,1.53,1.53,1.87,1.53,3.07,1.53a24.53,24.53,0,0,1,6.3.85,8.55,8.55,0,0,1,6.13,2.9c10.9.68,34.41-6,39-22.31Z"/><path d="M187.36,341h11.08l7.49.34h2.38c.18,0,7.5-1.19,8-1.19a9.14,9.14,0,0,1,3.75.34,7.16,7.16,0,0,1,3.91,2.73l-1.19,1c0,2-.34,4.09-.34,6.13,0,2.38-.51,3.58-1.53,6.3a3.9,3.9,0,0,0,.51,3.07v9.37a5.69,5.69,0,0,1-3.75,1.36,5.91,5.91,0,0,1-3.75-2.22l-1.7-5.28a11.85,11.85,0,0,0-2-2.38l-.34-.68-.69-.68-.16-.52-.35-.68c-2.55-3.57-4.42-4.42-9.7-6.64-5.62-2.21-19.08-3.75-24.53.51-2,1.53-3.24,3.75-3.58,7.84,0,1.36-.17,2.55-.17,3.91-.34,2.05-.85,1.88-1.53,4.26v2.39c-.51,3.23,1.36,15.5,2.38,19.24a45.75,45.75,0,0,0,11.59.34c2.38,0,3.23.69,5.79-1,.68-1.19.68-1.53,2.38-2.21L192,386l.51-.85c.18-.18.35-1,.69-1.54.68-1.36,1.53-1.87,3.57-1.87a10.52,10.52,0,0,1,3.92.34c1.19,5.45.85,7.83.34,13.46v4.08c0,1.2.34,6.3.34,8.35v6.3l-1.19,1.36c-3.24,0-3.07.17-4.94-1.87a23.17,23.17,0,0,1-5.11-4.09c-1.19-3.06-.85-1.87-3.75-4.6a22,22,0,0,0-5.11-3.91c-1.87-.86-7.32-1.37-9.53.17-2.56,1.87-2.73,11.92-3.24,14.47l-1.36,10.56c4.6,12.44-1.2,14.31,5.28,21.12a39.33,39.33,0,0,0,4.94,3.92c2,2,1.7,2.9,1.53,5.11-1.19.85-3.24.85-4.43.85H172c-7.15-.17-8.85.34-12.09,0h-6.13c-9,.85-4.77,1.19-14.14-1v-1.87c2.22-2.22,3.41-3.41,6.31-8.52.51-.85,2-3.4,2.38-4.26a21.8,21.8,0,0,0-.34-4.6v-9c.17-1.2-.17-7,0-10.05.34-4.26,1.7-9.54,1.53-10.39l-1-10.05c0-3.07.34-7.67.68-11.07l1.71-9.2c.34-2.72-1-12.26-1.37-15.33v-5.28a12.85,12.85,0,0,0-3.4-8c-1.53-1.71-2.56-1.54-3.92-2.9s-2.38-2.21-1.53-4.09A26.28,26.28,0,0,1,146,341c1.53,0,3.57-1.19,5.45-1.19h4.42c7.33,1,10.39-.68,18.4,2.89C179.53,342.06,181.91,341,187.36,341Z"/><path d="M264.57,339.19c7.9-1.17,9.07-.59,18.42,2.63l2.63-1.75H290c2.34,0,9.36-.88,11.41-.88.58-.3,10.23,0,11.69,0,2.63,0,2.34,0,5.55-.88,3.52,1.17,4.1.58,6.15,1.17l5.84,2.92h6.15c14.91-2.92,11.11-3.8,26-.58,23.1,3.51,49.7,28.07,59.65,37.13,19.88,17.84,19.59,40.65,19,58.78v20.46c-1.75,26,.3,27.2-29.24,60.53a4.64,4.64,0,0,1-4.68,3.21c-.58.59-4.38,3.22-5.55,4.1-1.76,1.75-3.22,3.51-5,5.26-.29.59-2.63,2.34-5,3.8-5.56,3.22-15.79,4.1-21.93,6.44l-5,1.75c-2.34.58-17.25.29-21.35.58H333.58c-2.63,0-6.73-.87-9.94-.87L319,541.53c-2,0-4.68-1.17-6.73.58-4.09.58-2.34.58-7,0-1.17,0-9.36-1.75-14-2.63-19,3.51-20.76,2.63-33.33,2.63,0-6.14-.59-5,1.46-11.11,12-8.19,11.4-8.19,13.74-19.59l1.46-5.26c0-.88,0-4.1.59-5.56.29-3.22,1.17-2,1.17-5.26,0-1.46-1.17-3.8-1.17-5.27-1.46-3.8.29-3.21.29-6.72a11.25,11.25,0,0,0-2.34-7.31c-1.17-3.8-1.46-5.26-1.17-6.73l.59-1.46,1.17-1.46,1.46-1.46,1.75-.88c.88-4.09,1.47-6.43,1.17-8.48,0-3.8-2.92-7.31-2.92-8.77-1.17-2.34.29-5,1.46-8.48a34.3,34.3,0,0,0,.29-8.77c0-2.93.59-4.1-1.46-6.73-1.46-2.05-1.17-4.38-1.17-7a57.66,57.66,0,0,1,1.46-14l1.47-6.73a21.51,21.51,0,0,0-.59-6.72c0-2.63-.29-4.39.59-6.72v-7.32a33.31,33.31,0,0,0-4.39-14.62c-2.63-1.46-3.22-4.09-5.85-6.72a9.76,9.76,0,0,0-7.6-3.22l-1.75-2v-7.6l1.75-.88Zm46.2,34.5c0,.88,2.92,12,2.92,12.28a80,80,0,0,1,0,12,64.63,64.63,0,0,1-2.63,12.57c0,2.34-2,3.51-2.92,5.85s0,3.8-.29,6.14l1.75,1.76,2.34-.3c.59.88.29,10.53.29,10.82v29.83c0,2.92-.58,5.26-3.21,8.77-3.51,5.26-3.51,3.5-3.51,9.06,1.17,1.47,2.34.88,5,3.51,1.75,2.63.58,2.63,1.17,4.68a35.32,35.32,0,0,1-.59,9.06c-.58,5-2.92,14.92-1.17,19.3,3.51,7.6,10.53,7.9,17.55,8.48C343.81,529,363.69,533.34,381,510c7.89-10.82,17.83-29.53,20.76-39.77v-5.26c.29-2.05,1.16-3.51,1.46-5,1.75-3.8.58-6.73,2.63-10.24.88-3.21,1.75-16.95,1.17-20.17-2.63-4.39-2.63-5-2.63-9.07l-1.47-8.77c-1.16-4.67-5.55-13.74-7.6-17.54-3.21-7-6.43-13.16-12-17.84-3.22-2.34-5.56-2.92-9.07-5.85-2.63-1.46-3.22-2.34-8.19-6.72l-3.8-3.22c-4.38-2.92-9.06-3.51-18.71-5-1.17.88-4.09,1.46-5.85,1.46-2.34-.87-2.92-1.46-5.85-1.46a13.52,13.52,0,0,1-2.92-.29l-1.46-.88-1.76.29-1.46.88-1.46.88h-2.63c-5.85,2.34-2.63,3.8-6.73,7.6C311.36,367.84,310.48,370.77,310.77,373.69Z"/><path d="M541.16,349.71c0,.59-.59,4.39-2,6.15-1.17.58-8.48,1.16-9.94,1.16-6.73,2.34-5,3.22-7.9,7.9H514a9.8,9.8,0,0,0-.58,9.35c0,.59.58,9.07.58,10.24-1.46,1.46-1.75,5.26-1.75,6.73C511,394.16,509,394.45,509,398c4.1,5.56,3.81,3.51,3.81,9.07.29,2,.29,6.43.58,9.06v5.26c0,1.76-.88,4.68-.88,7a54.74,54.74,0,0,0-.29,7.6v6.44c0,.58-.29,3.5.29,4.67a29.41,29.41,0,0,0,.3,5.27v4.38c-.3,25.15-5.27,40.35,23.1,62.28,12.28,9.65,51.46,7.31,59.06,4.09,12-5.26,19.3-18.12,19.59-29.52,0-1.18-.88-12.87-.29-14.33a7.56,7.56,0,0,1,2.33-3.51l1.47-3.81a49.09,49.09,0,0,0,1.46-7.3c.59-5.56.29-16.08-2.34-29.54v-5.26c-.88-9.94-.29-10.23.88-20.18.87-7.3-2-11.69-2.34-19.88V379.54c-2.05-11.41-.29-7-9.65-17l-2.34-2.05-1.46-2.34c-.29-.29-.88-2.92-3.51-3.8-1.75-.58-7.31-2.63-8.48-4.68l1.46-7h7.61c10.23-.88,17.24-2.34,27.19-1.76l3.51,2.92c12.57-.87,11.11-3.21,29.53-1.16,0,3.51.58,7,.58,10.52-20.17,14.62-20.76,18.42-22.51,36.55-.88,6.44-.3,14.62-.88,19.3l-1.46,9.65c0,3.22.29,6.43.29,9.65V438.6c.59,7,1.75,10.53,2,15.79v10.24c0,2.63-.88,5.26-.88,8.19,0,2.33.29,5.55.29,8.47v7.61c-4.67,27.48-.29,28.06-33.62,47.36-18.71,10.82-76.9,12.87-95.91,3.22-27.48-14-24.85-30.7-26.9-50.88l-5-47.08a44.81,44.81,0,0,1-.29-10.52c.29-4.09,1.17-6.14.87-10.82V405.56c0-4.38.3-7.89,1.76-11.11.29-2.34.29-8.48.29-11.11-.29-8.19-3.51-20.18-6.14-22.81-2.34-2.92-4.68-2-8.18-3.8-2.34-1.17-6.44-3.8-6.44-6.72-1.46-4.1-.87-6.44.59-7.9,1.17-1.46,25.44-2,26.9-2h22.22c15.2.87,15.5,5.55,31.29,3.79C540.87,346.21,541.16,346.79,541.16,349.71Z"/><path d="M727.1,340.07l3.5.87c2.34,0,5.27.88,7.9.88a7.38,7.38,0,0,1,3.8-.59,27.63,27.63,0,0,1,3.8-1.16c2,0,5.26-.88,7.9-.88,10.82-.88,19.88,1.75,30.7,2.92l2,1.17c12.87-2,19.89-5,29,5.26,3.22,3.51,3.8,10.82,4.39,17.55.58,5.55.58,7.6.29,8.48,0,2.63,0,6.72-5.26,8.48h-1.46c-9.65-11.7-5-12-20.18-19.89-9.07-5-14.91-9.65-24.85-8.48,0,.29-5,2.64-5.85,2.64a11.56,11.56,0,0,1-6.14-2.93c-3.8-1.75-7.31-3.21-12.28-2.92-4.1.29-9.36.58-11.41,5.85-1.17,2.92,1.76,16.66,1.47,19.88,0,2.63.29,2-.3,5-1.17,3.21-1.46,2-1.46,5.26a28.29,28.29,0,0,0-1.46,9.95l2,4.67c.87,4.09-1.76,21.64,3.51,26,1.16.87,9.35,3.21,10.81,2.63,2.34-1.46,8.77-4.1,11.41-4.1l4.38-2.92c.59-1.75,1.17-2,3.51-4.09a15.77,15.77,0,0,1,6.14-8.78c2.63,0,7.31-1.46,9.07,4.39.29.88,1.17,3.22.87,8.77,0,1.46.88,4.1-2.63,9.07v4.68c2.05,3.5,2.05,2.33,2.05,6.43,0,2.34-.29,4.68-.29,6.72,0,1.47.29,12.29-.59,13.75-1.17,1.46-3.21,2.63-6.43,2.33-1.46-.87-1.76-.58-2.92-.58a9.89,9.89,0,0,1-3.22-2.92c-.59-2-2-3.51-3.22-6.73-6.14-7-6.72-2.34-13.16-5a31,31,0,0,1-6.72-4.68,15.22,15.22,0,0,1-6.72-2.92c-1.76-.59-8.19.29-10,2,1.17,10.82,2.34,9.36,2.63,16.67v8.48c-2,3.22-2,3.8-2,8.48v9.36c1.17,8.18-2.05,26.61,6.14,35.09,4.09,3.79,16.66,7,22.51,5.55h1.17l1.17-.87,1.17-.3,1.17-.29c2.05-2,2.34-2.34,5-2.34h9.65c5.85-4.39,7.6-5.85,9.36-7.9,4.09-2.33,4.67-4.68,6.43-9.94,1.76-2.92,3.51-7,5.56-10.23,3.21-3.8,6.43-3.8,10.23-5l3.21,2.05v8.18c0,9.06-.87,10.23-.29,17v16.38c-1.17,2.92-.29,2.63-3.8,5.26-5.85.87-8.48,1.46-12,1.17-1.16,0-10.52-2.63-12.28-2.63h-4.38c-5,0-7.6,1.75-15.21,1.75h-9.06L754,543h-3.51l-1.76-1.17a10.13,10.13,0,0,1-6.72.29l-24-1.46c-.58,0-2-.29-3.21-.29h-1.47l-1.75,1.46h-4.1c-16.66.29-17.24.58-34.2-2.93v-5c22.8-14.32,20.76-19.88,21.63-43.86V471.93c0-1.16,0-7.89.59-9.35V452.35c0-3.51.29-2.93,1.75-6.15l-1.75-19.29a67.58,67.58,0,0,1,.29-9.07l1.46-8.77,3.51-13.16c.29-2.63-2-14.91-2.34-18.13-1.17-7.89-.88-12.28-6.43-18.42-3.8-2.92-5-5.85-9.36-7.6-3.51-2.63-6.43-6.14-6.43-9.36a5.29,5.29,0,0,1,2.63-1.75c1.76-.88,1.46,0,2.92-1.17,3.51-.88,2.64,0,6.15-.29,1.75-.88,3.5-.88,5.84-.88a7,7,0,0,1,3.22.88,4.12,4.12,0,0,1,2.92.58h5.85a15.55,15.55,0,0,1,6.14,2.63c5.85,1.76,5.85,0,11.4-2.33Z"/><path d="M910.11,345c-19,16.95-18.12,19.88-18.41,41.22v7.31c-.89,10.82-2.05,13.75-5,25.44h4.39v15.5c-.3,2.63-.88,13.74-.88,17.25,0,2.34.29,5.85.29,8.48l3.22,9.06c.29,2.05-.29,15.21-.58,17.84-.59,7.9-1.17,14.91-.59,17.25.88,4.1,6.73,12.57,12,14.62,3.22,1.17,42.39,3.8,49.71.59,7-2.64,7-7,9.94-12.29.88-1.75,2-2.92,3.8-7,.29-1.46.59-5.56,2.63-6.72a74.82,74.82,0,0,1,10.23-.59l1.76,2.34-.88,6.72v5c.58,1.47.58,2.34.58,6.73v17c0,4.38.3,3.51-.87,6.72-3.8,3.8-6.43.29-10.53,2.05-3.8,0-7.6.88-11.4.88h-9.94c-1.75-.59-1.46-.29-3.22-.29,0,0-2.63.29-3.21.29H925c-3.22,0-6.44.29-9.65.29-5.27,0-5.85,0-10.24-.29l-19-1.76c-2.93-.29-12.58,1.47-15.79,1.76H848.42l-5.85.87A5.54,5.54,0,0,1,837,538v-4.68c1.46-2.63,9.35-8.77,11.4-11.11,5.55-5.56,5.55-5.27,6.43-12V499.42c.29-2.34.59-3.51,1.17-6.43,1.47-1.76,1.17-4.68,1.17-5.56,0-2.63.3-3.21-.87-6.43-1.76-10.23-3.22-12.86-1.47-25.15V417.26c0-2.05,1.47-2.05,2.34-4.1v-8.77l.3-8.18c0-.88-.59-7-.88-8.48v-12c0-4.68,0-11.12-.88-13.45-3.51-8.48-5-5-11.4-10.24-5.27-4.09-3.51-5.84-3.22-11.4,3.8-2.34,6.14-.88,8.48-.88.88,0,2.63-.29,4.1-.29s2.92.29,4.67.29c9.65.88,10.82,1.46,17.25.88,16.67-2,16.09-3.22,34.5-.58Z"/><path d="M1128.81,365.21c4.09,6.14,5.55,8.77,5.55,14a70,70,0,0,1-.29,7c-.58,1.47.29,4.09-3.51,6.73h-2.92l-2.93-1.46c-.58-.29-2.63-1.76-5.26-5.27a26.53,26.53,0,0,1-3.51-5.85c0-1.46-1.17-3.79-3.21-6.14-2.64-.87-7.31-4.09-10-5.55-.87-.88-3.21-2.92-4.38-4.1l-1.17-.87-1.46-1.46-.88-1.17-1.46-1.18c-5.27-3.79-11.41-4.67-19.89-5.26-7.89-.29-24.56,0-33.33,11.12-3.51,5-6.43,20.17-5,26.31,2.92,12.57,32.75,24.57,35.67,26.32l5.85,2.92a30.7,30.7,0,0,0,5.26,2.93l7.9,4.09c16.37,1.75,19.59,6.72,31.29,23.68,3.79,3.8,5,7,8.77,10.53,1.46,2.34,2,3.8,4.38,11.4,2.34,7.9,3.51,12.28,1.17,21.64-2.34,12.57-12,30.12-26.61,37.13-11.11,5.56-21.63,6.44-44.73,9.94-27.49,4.1-17.25,2.35-44.74-5.26l-5.84-1.46c-22.81-4.09-18.13-14.62-18.72-36.84V488l.59-5.85c2.92,0,9.35-.59,12,1.46a19.43,19.43,0,0,1,4.1,5.56c1.16,3.5,0,2.34,3.8,5.85l7.89,7.3c10.82,8.48,13.45,16.67,23.1,19.89,2.05.87,22.51,3.21,24.56,3.21,12.28-1.46,22.22-3.51,29.24-19,3.8-7.6.59-17.25,0-25.44l-3.21-3.8a47.08,47.08,0,0,0-5.56-2.92,35.57,35.57,0,0,0-6.14-2.64c-2.92-1.75-2.34-2.63-5.26-5a38.15,38.15,0,0,0-5.85-4.39c-13.74-9.06-15.21-5.55-19.59-16.08h-9.06l-8.78-1.75c-9.06-.88-10.52-2.63-18.42-8.77-2.92,1.17-5.85-2.63-6.72-5l-2.92-8.19c-3.22-7.31-6.44-9.36-7-16.67-.58-2.92,1.76-22.51,2.64-25.14,0,0,14.62-25.44,15.2-26,17.25-19,46.2-18.12,71.06-17.83h5c9.06.29,22.8,3.51,32.45,6.43C1130.56,356.15,1130.27,352.64,1128.81,365.21Z"/></g></g></svg>