<svg xmlns="http://www.w3.org/2000/svg" viewBox="0 0 1011.02 472.69"><g id="Layer_2" data-name="Layer 2"><g id="Layer_1-2" data-name="Layer 1"><path d="M83.91,5.38h19.48l13.19.6h4.19c.3,0,13.19-2.1,14.09-2.1a16,16,0,0,1,6.59.6c1.5,0,5.7,2.69,6.9,4.79l-2.1,1.8c0,3.6-.6,7.19-.6,10.79,0,4.19-.9,6.29-2.7,11.09-.6,2.1,0,3.59.9,5.39V54.82a10,10,0,0,1-6.59,2.4,10.42,10.42,0,0,1-6.6-3.89l-3-9.29a20.91,20.91,0,0,0-3.6-4.2l-.6-1.2-1.2-1.2-.3-.9-.6-1.2c-4.49-6.29-7.79-7.79-17.08-11.68-9.89-3.9-33.56-6.6-43.15.9-3.6,2.69-5.7,6.59-6.3,13.78,0,2.4-.3,4.5-.3,6.89-.6,3.6-1.5,3.3-2.69,7.5v4.19C51,62.62,54.24,84.19,56,90.79c7.49,1.5,17.08.9,20.38.6,4.2,0,5.69,1.2,10.19-1.8,1.2-2.1,1.2-2.7,4.2-3.9L92,84.49,92.9,83c.3-.3.6-1.8,1.2-2.7,1.2-2.4,2.7-3.3,6.3-3.3,3,0,3.59-.3,6.89.6,2.1,9.59,1.5,13.79.6,23.68v7.19c0,2.1.6,11.09.6,14.68v11.09l-2.1,2.4c-5.7,0-5.4.3-8.69-3.3-5.4-3.59-7.79-5.69-9-7.19-2.1-5.39-1.5-3.3-6.6-8.09-5.39-5.1-8.39-6.59-9-6.89-3.29-1.5-12.88-2.4-16.78.3-4.49,3.29-4.79,21-5.69,25.47l-2.4,18.58c8.09,21.88-2.1,25.17,9.29,37.16,1.5,1.5,7.79,6.59,8.69,6.89,3.6,3.6,3,5.1,2.7,9-2.1,1.5-5.7,1.5-7.79,1.5h-4.2c-12.59-.3-15.58.6-21.28,0H24.87c-15.88,1.5-8.39,2.1-24.87-1.8V205c3.9-3.9,6-6,11.09-15,.9-1.49,3.59-6,4.19-7.49.3-2.1-.3-5.69-.6-8.09V158.52c.3-2.1-.3-12.29,0-17.69.6-7.49,3-16.78,2.7-18.28l-1.8-17.68c0-5.39.6-13.48,1.2-19.48l3-16.18c.6-4.8-1.8-21.58-2.4-27V33c-.6-6-2.7-10.79-6-14.09-2.7-3-4.5-2.7-6.89-5.09S.3,9.87,1.8,6.58c1.5-.6,7.49-1.2,9.29-1.2,2.7,0,6.29-2.1,9.59-2.1h7.79c12.89,1.8,18.28-1.2,32.37,5.09C70.13,7.17,74.32,5.38,83.91,5.38Z"/><path d="M335.79,33.25c11.69,18,19.18,21.57,26.68,39,.3.9,6.59,15.88,6.59,19.78a59.32,59.32,0,0,1-1.2,9.89,46.74,46.74,0,0,0-.6,9.89v8.69c-.6,22.47-15.88,53.94-36,69.52-31.47,25.18-44.35,22.78-76.12,23.68H241.69c-23.37-1.8-48.25-5.7-67.73-33.87-16.78-24-30.86-37.46-30-71v-6.59c.9-22.18-4.79-15.29,6.6-37.47,2.7-5.09,19.48-32.06,25.17-37.46,17.08-16.18,42-23.67,59-25.47C255.78-.32,308.82-7.21,335.79,33.25ZM319.91,146.53c2.7-12,8.39-15,6.59-26.67l-3.59-10.49c-.3-3.3.9-2.7,1.2-5.1a25.7,25.7,0,0,0-.3-4.79,51,51,0,0,1,.3-9c.6-5.7,1.2-7.79,1.8-9.59,2.69-6.3,4.19-6,1.79-9.29-1.79-7.2-9-11.09-14.68-16.19-5.1-5.09-5.1-2.69-6.89-8.69l-2.4-4.49c-.6-.6-3.3-3.9-3.6-4.2l-2.7-2.7c-1.49-1.19-3-3.59-4.19-5.09-1.8-1.8-3.6-3.6-4.8-5.09-3.59-3.3-2.69-1.8-3.59-4.8a12.44,12.44,0,0,0-3.6-4.79c-1.5-1.2-16.48-3.6-21-3.6-13.78-.9-35.06,4.79-47.65,18.58-2.69,4.2-1.2,3-5.09,6.89a39.1,39.1,0,0,0-5.7,6.6c-3.59,4.79-3,5.69-6.29,13.48a28,28,0,0,1-3.6,6.59,75,75,0,0,1-4.79,6.6c-3.6,6-3.3,8.09-5.09,13.48l4.49,3.6c.6,5.69-.3,18.58-.6,31.47v10.79c.6,6.29-.3,20.08,1.8,25.77,2.4,5.69,10.19,19.18,17.38,23.37a25.15,25.15,0,0,1,5.7,2.7l5.39.9c1.8,0,3.9,2.7,5.09,4.2,2.7,2.69,3.3,2.69,5.4,2.69,3,0,8.69.6,11.09,1.5,3.59,0,7.19,1.5,10.79,5.1,19.18,1.2,60.53-10.49,68.62-39.26Z"/><path d="M474.45,110.27c12.29,9.59,13.49,14.08,15.28,27.27l2.4,15.88c1.8,8.39,1.8,11.69,4.5,21,3.29,9.89,5.69,11.09,16.48,12.29,3.3,1.8,2.1,3,1.5,5.69-.3.9-2.7,5.1-3.6,6.59-3,5.7-5.09,9-9.59,12-5.09,3-11.69,4.5-17.38,1.5-11.69-6-24.87-38.66-27-54.24v-4.5c-.6-11.69,0-12.89-2.1-18-2.7-6.29-10.79-16.18-14.38-18.58-3.3-2.1-11.39-2.7-17.39-.3-5.09,2.4-5.09,2.4-5.69,7.49,0,.9,4.2,14.39,4.2,17.08-.3.9-.3,3-.6,4.2l-.9,4.79c-.3.6-.3,3-1.2,4.2-.9,1.8-2.7,2.1-3.9,3.6V160l6,1.5c0,1.5,0,20.08,2.09,26.38,2.7,7.19,3.3,6.29,9.59,10.48,3,2.1,4.5,2.7,6.6,4.5,3,2.1,4.19,3.6,3.29,7.19H429.2c-1.8.6-2.4.3-7.2.3a5.92,5.92,0,0,0-3.29.6c-1.8,0-2.4-1.5-3.9-.9H392.34c-14.09,1.5-12.59,3.6-26.68,0v-4.19c1.2-4.8,4.5-4.5,7.8-6.9,3.59-3,5.69-5.39,6.89-8.69.6-1.2,2.7-17.08,2.7-18.28v-4.19l-.6-10.49v-9c0-2.1,1.19-4.5,1.19-6.9V63.52c-.29-5.7.9-10.49-.59-24.28,0-2.1-.3-4.19-.3-6.29a13.13,13.13,0,0,1-1.2-6.3c-.6-2.09-.6-2.69-4.5-5.69l-6-3.9c-2.4-3-.9-9-.6-12.28l1.5-.6h1.2l1.19-.3a10.93,10.93,0,0,0,4.2-.6c2.7,0,5.69-.3,8.39-.3,1.8,0,4.5,0,8.69.3,4.2.6,3.9,1.2,8.69,1.2h6.9c19.78-2.1,61.13-.3,81.21,19.18,14.69,14.68,21.88,36.26,18,50.64-1.2,3.6-6.59,12.59-14.68,21.58A40.92,40.92,0,0,1,485.24,104c-2.1,1.2-7.79.6-10.79,4.8ZM421.71,59.92v5.39c.29,4.8-1.8,23.68,4.19,28.47,4.8,3.9,21.28,3,27.27,1.2a23.17,23.17,0,0,0,13.49-9.29c2.7-2.69,3.3-6.29,3.59-6.89a75.25,75.25,0,0,0,4.5-7.19c2.1-6-1.2-7.79-2.7-14.09-1.8-7.49,1.5-6.89-2.09-14.68-2.1-4.2-11.09-14.69-14.09-17.09s-10.79-3.89-17.68-5.09c-5.4-.9-7.49-2.1-12.29,3-3.9,4.49-4.19,8.69-6,18.28-.9,3.29-.9,5.69-2.1,9-.9,3.59-5.1,6-2.1,9Z"/><path d="M699.71,68.91c-1.8,2.4-5.1,3.3-9.29,1.8l-1.2-.6-.3-1.2-.9-1.2-.6-1.2c-2.7-1.5-2.1-1.2-4.2-3.59-2.69-2.7-4.49-7.8-6.59-11.39l-3.89-6.3c-.6-2.09-2.4-4.19-3-6-4.5-6.29-6-3.6-11.39-6-1.5-.6-4.5-3-6-4.2a23.37,23.37,0,0,1-6.3-1.2l-13.18-1.8c-5.4-1.19-23.38-6-29.37-3.59-7.49,3-22.18,9.89-28.47,21l-3.3,7.49c-1.5,1.5-4.49,5.09-5.39,7.79-1.5,4.2,0,3-.9,7.49,0,2.4-2.1,5.1-3.3,7.49-7.79,20.68-2.7,10.49-2.7,30.87v15.89c.3,14.68.9,48.25,21.58,61.43C593.92,190,634.67,199,647.26,193c7.79-3.3,10.19-12,11.09-19.48.9-6.29.3-14.38-5.39-18.88-4.2-3.6-3.3-.9-7.5-1.8-5.39-1.2-2.69-1.2-7.79-2.69v-6.3q1.35-2.25,5.4-3.59c.6,0,6,.3,7.19-.3l48.55,1.49a8.17,8.17,0,0,1,3.59.6c1.5-.6,1.2-.9,3.3.6a99.69,99.69,0,0,1,0,16.49c-8.09,10.19-7.79,10.78-8.09,22.17,0,9.89.6,12.29-.9,22.18L688,205l-8.39,2.4c-3.9,1.19-6.6,2.69-8.39,2.69H652.66c-3.3,0-7.5,2.7-11.09,2.7H628.38c-32.07,1.8-52.14,2.1-83.91-30.27-20.38-20.68-25.17-49.75-26.37-71.32V100.68a89.37,89.37,0,0,1,.6-11.39,9.25,9.25,0,0,1,.3-2.7,5.49,5.49,0,0,1,.59-3,5.7,5.7,0,0,1,1.5-3.29l1.5-1.2,1.2-1.5c1.2-33.56,35.06-61.14,56-68,24.28-7.79,27-9.29,47.35-7.79,31.77,2.4,18-.9,47.35,10.49l12.89,5.39,6,3c3,1.2,3.9.9,6.3,4.2Z"/><path d="M764.2,4.78l3.6.9c2.4,0,5.39.9,8.09.9a7.65,7.65,0,0,1,3.9-.6,28.18,28.18,0,0,1,3.89-1.2c2.1,0,5.4-.9,8.09-.9,11.09-.9,20.38,1.8,31.47,3l2.1,1.2C838.53,6,845.72,3,855,13.47c3.29,3.59,3.89,11.09,4.49,18,.6,5.69.6,7.79.3,8.69,0,2.7,0,6.89-5.39,8.69h-1.5c-9.89-12-5.09-12.29-20.68-20.38-9.29-5.09-15.28-9.89-25.47-8.69,0,.3-5.1,2.7-6,2.7a11.91,11.91,0,0,1-6.29-3c-3.89-1.8-7.49-3.3-12.58-3-4.2.3-9.6.6-11.69,6-1.2,3,1.8,17.08,1.5,20.38,0,2.69.3,2.09-.3,5.09-1.2,3.3-1.5,2.1-1.5,5.4a28.92,28.92,0,0,0-1.5,10.19l2.1,4.79c.9,4.2-1.8,22.18,3.59,26.67,1.2.9,9.59,3.3,11.09,2.7,2.4-1.5,9-4.2,11.69-4.2l4.49-3c.6-1.8,1.2-2.1,3.6-4.2a16.18,16.18,0,0,1,6.29-9c2.7,0,7.5-1.5,9.29,4.5.3.9,1.2,3.29.9,9,0,1.5.9,4.19-2.69,9.29v4.79c2.09,3.6,2.09,2.4,2.09,6.6,0,2.39-.3,4.79-.3,6.89,0,1.5.3,12.59-.6,14.08-1.19,1.5-3.29,2.7-6.59,2.4-1.5-.9-1.8-.6-3-.6a10.12,10.12,0,0,1-3.3-3c-.6-2.09-2.1-3.59-3.3-6.89-6.29-7.19-6.89-2.4-13.48-5.09a32,32,0,0,1-6.9-4.8,15.8,15.8,0,0,1-6.89-3c-1.8-.6-8.39.3-10.19,2.09,1.2,11.09,2.4,9.59,2.7,17.09v8.69c-2.1,3.29-2.1,3.89-2.1,8.69v9.59c1.2,8.39-2.1,27.27,6.29,36,4.2,3.9,17.09,7.19,23.08,5.69h1.2l1.2-.9,1.2-.29,1.2-.3c2.09-2.1,2.39-2.4,5.09-2.4h9.89c6-4.5,7.79-6,9.59-8.09,4.19-2.4,4.79-4.8,6.59-10.19,1.8-3,3.6-7.2,5.7-10.49,3.29-3.9,6.59-3.9,10.49-5.1l3.29,2.1V172c0,9.29-.9,10.49-.3,17.38v16.79c-1.2,3-.3,2.69-3.89,5.39-6,.9-8.69,1.5-12.29,1.2-1.2,0-10.79-2.7-12.59-2.7h-4.49c-5.1,0-7.79,1.8-15.59,1.8h-9.29l-1.5.9h-3.59l-1.8-1.2a10.37,10.37,0,0,1-6.89.3l-24.58-1.5c-.6,0-2.09-.3-3.29-.3h-1.5l-1.8,1.5h-4.2c-17.08.3-17.68.6-35.06-3v-5.09c23.38-14.69,21.28-20.38,22.18-44.95V139.94c0-1.2,0-8.1.6-9.59V119.86c0-3.6.3-3,1.8-6.3l-1.8-19.78a68.54,68.54,0,0,1,.3-9.29l1.5-9L737.23,62c.3-2.7-2.1-15.29-2.4-18.58-1.19-8.1-.9-12.59-6.59-18.88-3.89-3-5.09-6-9.59-7.8-3.6-2.69-6.59-6.29-6.59-9.59a5.46,5.46,0,0,1,2.69-1.79c1.8-.9,1.5,0,3-1.2,3.6-.9,2.7,0,6.29-.3,1.8-.9,3.6-.9,6-.9a7.29,7.29,0,0,1,3.3.9,4.25,4.25,0,0,1,3,.6h6c1.2,0,4.79,1.5,6.29,2.69,6,1.8,6,0,11.69-2.39Z"/><path d="M1002.52,30.55c4.19,6.29,5.69,9,5.69,14.38a71.19,71.19,0,0,1-.3,7.2c-.6,1.5.3,4.19-3.6,6.89h-3l-3-1.5c-.6-.3-2.7-1.8-5.39-5.39a27.48,27.48,0,0,1-3.6-6c0-1.49-1.2-3.89-3.3-6.29-2.69-.9-7.49-4.2-10.19-5.69-.9-.9-3.29-3-4.49-4.2l-1.2-.9-1.5-1.5-.9-1.2-1.5-1.19c-5.39-3.9-11.68-4.8-20.38-5.4-8.09-.3-25.17,0-34.16,11.39-3.6,5.09-6.59,20.68-5.09,27,3,12.89,33.56,25.17,36.56,27l6,3a31.25,31.25,0,0,0,5.4,3l8.09,4.19c16.78,1.8,20.08,6.9,32.06,24.28,3.9,3.89,5.1,7.19,9,10.79,1.5,2.39,2.1,3.89,4.5,11.68,2.4,8.1,3.6,12.59,1.2,22.18-2.4,12.89-12.29,30.87-27.27,38.06-11.39,5.69-22.18,6.59-45.86,10.19-28.17,4.2-17.68,2.4-45.85-5.39l-6-1.5c-23.38-4.2-18.58-15-19.18-37.76V156.42l.6-6c3,0,9.59-.59,12.29,1.5a20.23,20.23,0,0,1,4.19,5.7c1.2,3.59,0,2.39,3.9,6l8.09,7.49c11.09,8.69,13.78,17.09,23.67,20.38,2.1.9,23.08,3.3,25.18,3.3,12.58-1.5,22.77-3.6,30-19.48,3.89-7.79.6-17.68,0-26.07l-3.3-3.9a50,50,0,0,0-5.69-3,36,36,0,0,0-6.3-2.69c-3-1.8-2.4-2.7-5.39-5.1a38.05,38.05,0,0,0-6-4.49c-14.08-9.29-15.58-5.7-20.08-16.49H917.1l-9-1.79c-9.29-.9-10.78-2.7-18.88-9-3,1.2-6-2.69-6.89-5.09l-3-8.39c-3.29-7.49-6.59-9.59-7.19-17.08-.6-3,1.8-23.08,2.7-25.78,0,0,15-26.07,15.58-26.67C908.11.28,937.78,1.18,963.26,1.48h5.09c9.29.3,23.38,3.6,33.27,6.59C1004.31,21.26,1004,17.66,1002.52,30.55Z"/><path d="M85.51,257.15c5.19,8,8.52,9.59,11.85,17.31.14.4,2.93,7.06,2.93,8.79a25.84,25.84,0,0,1-.53,4.39,20.94,20.94,0,0,0-.27,4.4v3.86c-.26,10-7.06,24-16,30.89-14,11.19-19.71,10.12-33.82,10.52h-6c-10.39-.8-21.44-2.53-30.1-15C6.15,311.61-.11,305.62.29,290.71v-2.93c.4-9.86-2.13-6.79,2.93-16.65,1.19-2.26,8.65-14.25,11.18-16.64C22,247.3,33,244,40.63,243.17,50,242.23,73.53,239.17,85.51,257.15Zm-7.06,50.33c1.2-5.32,3.73-6.65,2.93-11.85L79.78,291c-.13-1.46.4-1.2.54-2.26a10.9,10.9,0,0,0-.14-2.13,22.62,22.62,0,0,1,.14-4,17.46,17.46,0,0,1,.8-4.26c1.19-2.79,1.86-2.66.8-4.13-.8-3.19-4-4.92-6.53-7.19-2.26-2.26-2.26-1.2-3.06-3.86l-1.07-2c-.26-.26-1.46-1.73-1.6-1.86l-1.19-1.2a15.07,15.07,0,0,1-1.87-2.26,29.81,29.81,0,0,1-2.13-2.27c-1.6-1.46-1.2-.8-1.6-2.13a5.53,5.53,0,0,0-1.6-2.13c-.66-.53-7.32-1.59-9.32-1.59-6.12-.4-15.58,2.13-21.17,8.25-1.2,1.87-.53,1.33-2.26,3.06A17.25,17.25,0,0,0,26,261.94c-1.6,2.13-1.33,2.53-2.8,6a12.67,12.67,0,0,1-1.6,2.93,33.11,33.11,0,0,1-2.13,2.92c-1.6,2.67-1.46,3.6-2.26,6l2,1.6c.26,2.52-.14,8.25-.27,14v4.79c.27,2.8-.13,8.92.8,11.45s4.53,8.53,7.72,10.39A11.22,11.22,0,0,1,30,323.2l2.4.4c.8,0,1.73,1.2,2.26,1.86,1.2,1.2,1.47,1.2,2.4,1.2a19.19,19.19,0,0,1,4.93.67,6.69,6.69,0,0,1,4.79,2.26c8.52.53,26.9-4.66,30.49-17.44Z"/><path d="M145.57,244.76h8.66l5.85.27H162c.13,0,5.86-.93,6.26-.93a7.12,7.12,0,0,1,2.93.27,5.6,5.6,0,0,1,3.06,2.13l-.93.8c0,1.59-.27,3.19-.27,4.79a12.11,12.11,0,0,1-1.2,4.93,3,3,0,0,0,.4,2.39v7.33a4.43,4.43,0,0,1-2.93,1.06,4.61,4.61,0,0,1-2.93-1.73L165,261.94a9.49,9.49,0,0,0-1.6-1.86l-.26-.53-.54-.54-.13-.4-.26-.53c-2-2.8-3.47-3.46-7.6-5.19-4.39-1.73-14.91-2.93-19.17.4-1.6,1.2-2.53,2.93-2.8,6.12,0,1.07-.13,2-.13,3.07-.27,1.59-.67,1.46-1.2,3.32v1.87c-.4,2.53,1.07,12.12,1.87,15.05a35.87,35.87,0,0,0,9.05.26c1.86,0,2.53.54,4.53-.8.53-.93.53-1.19,1.86-1.73l.53-.53.4-.67c.14-.13.27-.79.54-1.19.53-1.07,1.2-1.47,2.79-1.47a8.24,8.24,0,0,1,3.07.27c.93,4.26.66,6.12.26,10.52v3.19c0,.94.27,4.93.27,6.53V302l-.93,1.06c-2.53,0-2.4.13-3.86-1.46a18.12,18.12,0,0,1-4-3.2c-.93-2.4-.67-1.47-2.93-3.6a17.88,17.88,0,0,0-4-3.06c-1.47-.66-5.73-1.06-7.46.14-2,1.46-2.13,9.32-2.53,11.31l-1.07,8.26c3.6,9.72-.93,11.19,4.13,16.51a31.49,31.49,0,0,0,3.86,3.06c1.6,1.6,1.33,2.27,1.2,4a6.41,6.41,0,0,1-3.46.67h-1.87c-5.59-.14-6.92.26-9.45,0h-4.79c-7.06.66-3.73.93-11.06-.8v-1.47a23.81,23.81,0,0,0,4.93-6.66c.4-.66,1.6-2.66,1.87-3.33a17.34,17.34,0,0,0-.27-3.59v-7.06c.13-.93-.13-5.46,0-7.86.27-3.32,1.33-7.45,1.2-8.12l-.8-7.85c0-2.4.26-6,.53-8.66l1.33-7.19c.27-2.13-.8-9.59-1.06-12V257a10,10,0,0,0-2.67-6.26c-1.19-1.33-2-1.2-3.06-2.27s-1.86-1.73-1.2-3.19a20.37,20.37,0,0,1,4.13-.54c1.2,0,2.8-.93,4.26-.93h3.46c5.73.8,8.13-.53,14.39,2.27C139.44,245.56,141.31,244.76,145.57,244.76Z"/><path d="M281.07,245.79H302.3l14.36.66h4.57c.33,0,14.37-2.29,15.35-2.29a17.42,17.42,0,0,1,7.18.65c1.63,0,6.2,2.94,7.51,5.23L349,252c0,3.91-.65,7.83-.65,11.75,0,4.57-1,6.86-2.94,12.08-.65,2.28,0,3.92,1,5.88v18c-2,2-5.22,2.61-7.18,2.61A11.29,11.29,0,0,1,332,298l-3.26-10.12a22.67,22.67,0,0,0-3.92-4.57l-.65-1.31-1.31-1.3-.32-1-.66-1.31c-4.89-6.86-8.48-8.49-18.61-12.73-10.77-4.25-36.56-7.18-47,1-3.92,2.94-6.2,7.18-6.85,15,0,2.61-.33,4.89-.33,7.5-.65,3.92-1.63,3.6-2.94,8.17V302c-1,6.2,2.61,29.71,4.57,36.89,8.16,1.63,18.61,1,22.2.65,4.57,0,6.21,1.31,11.1-2,1.31-2.28,1.31-2.93,4.57-4.24l1.31-1.31,1-1.63c.33-.33.65-2,1.3-2.94,1.31-2.61,2.94-3.59,6.86-3.59,3.27,0,3.92-.32,7.51.65,2.28,10.45,1.63,15,.65,25.8v7.83c0,2.29.66,12.08.66,16v12.08l-2.29,2.61c-6.2,0-5.88.33-9.47-3.59-5.87-3.92-8.49-6.2-9.79-7.84-2.29-5.87-1.63-3.59-7.18-8.81-5.88-5.55-9.15-7.18-9.8-7.51-3.59-1.63-14-2.61-18.28.33-4.9,3.59-5.23,22.85-6.2,27.75l-2.62,20.24c8.82,23.83-2.28,27.42,10.12,40.48,1.64,1.63,8.49,7.18,9.47,7.51,3.92,3.92,3.27,5.55,2.94,9.79-2.29,1.64-6.2,1.64-8.49,1.64h-4.57c-13.71-.33-17,.65-23.18,0H216.76c-17.3,1.63-9.14,2.28-27.1-2v-3.59c4.24-4.25,6.53-6.53,12.08-16.33,1-1.63,3.92-6.53,4.57-8.16.33-2.28-.33-6.2-.65-8.81V412.62c.32-2.28-.33-13.38,0-19.26.65-8.16,3.26-18.28,2.94-19.91l-2-19.27c0-5.87.65-14.69,1.3-21.22l3.27-17.63c.65-5.22-2-23.5-2.61-29.38V275.83c-.66-6.53-2.94-11.75-6.53-15.35-2.94-3.26-4.9-2.93-7.51-5.55s-4.57-4.24-2.94-7.83c1.63-.65,8.16-1.31,10.12-1.31,2.94,0,6.86-2.28,10.45-2.28h8.49c14,2,19.91-1.31,35.26,5.55C266.06,247.75,270.63,245.79,281.07,245.79Z"/><path d="M413.14,247.1l2.61,8.16,6.2,17.63c.65,2,1.31,3.27,1.31,4.9l3.26,9.47c.66,1.63,2.29,4.57,2.94,7.18L435,309.78c.65,2,3.59,9.14,4.24,11.43l5.88,22.2c1.31,4.57,1.31,2.94,2,7.84l2,8.48c1,3.27,2,3.92,3.59,7.84,1,2.94,2,5.88,2.94,8.49l8.49,20.57.32,1.3,1,1.63c.33,2,0,1.31,1.31,3.27l6.53,19.91c2.28,7.51,1.3,4.25,5.87,11.76,1.31,2,3.6,9.14,5.88,12.08,1,1.63,9.8,7.51,11.43,8.81,5.55,5.88,3.26,5.55,2.94,12.08-9.47,2.94-19.27,3.59-28.73,3.92H441.54c-2.29,0-5.88-1-8.49-1h-8.16c-1.31-3.27,0-6.53,5.22-8.81,2.61-1.31,6.86-.33,10.45-4.58,5.55-7.18,0-19.91-4.24-33l-8.49-18.94-2.61-8.48-2.29-4.25-1-4.24c-1.63-5.88-3.26-11.1-11.43-14.69-3.91-1.64-38.19-1.64-43.09,1-3.92,2.29-5.55,5.56-7.84,13.39-.65,2-1,4.9-2,7.18-1.63,3.59-1.63,2.62-4.24,7.19l-2.61,10.44c-5.22,14-11.1,25.47-6.2,32.65,3.59,3.59,8.48,5.22,10.44,10.12,4.25,6.86,2.61,6.53,2.94,13.39H340c-14.36.32-32.64,3.26-51.58-6.86,1-2.94.65-4.9,4.9-7.51,1.63-1.3,5.55-3.26,7.83-4.9,6.21-4.24,10.45-7.83,14.7-13.71l2.61-4.89c5.55-9.15,2.28-5.23,9.14-15.35,3.59-4.9,9.47-9.47,11.43-15L358,349.61l1.63-5.87,4.25-9.14.32-1.64,1.31-2,.33-2,1-2,15-36.57q3.43-8.82,3.92-9.79l3.92-8.82c4.57-11.1,3.92-30,5.88-32,3.91-4.25,12.08-1.31,16-1A23.57,23.57,0,0,1,413.14,247.1Zm-21.55,62.36c-5.55,17.63-13.39,28.4-11.75,46a169.23,169.23,0,0,0,27.75.65l2-2v-7.51c-3.6-16-2.94-11.75-5.23-27.09-.33-2.94-1.3-11.43-1.3-13.71a23.36,23.36,0,0,0,1.3-6.53c0-2.94-.33-4.9-3.26-5.88-5.88,2-5.23,3.26-7.19,7.83Z"/><path d="M570.32,293.79V399.24c0,2.28,1,17,1,17.63v14c1,13.38,2,19.91,15,33.95v3.59c-9.47,1.31-22.2,1-29.06.33h-7.84a26.25,26.25,0,0,0-6.85,1.63c-1.64,0-4.57.33-7.18.33-2.29.32-5.56.32-13.72-.33-.32-.33-5.55-3.59-6.2-4.9a7.71,7.71,0,0,1-1-6.85c6.2-4.57,5.88-6.21,10.77-11.43,4.9-5.88,5.55-6.2,6.53-12.41,0-.32,1.64-24.48,1.64-25.14V394c0-2.28.32-4.89.32-7.51v-7.83l-1.63-20.24v-8.82c0-2.94-.33-6.2-.33-9.14l1.64-25.14c-.66-9.46.65-42.11-10.78-51.25-3.91-2.94-13.38-3.6-13.38-10.78-.33-4.24.65-3.92,4.57-6.2,11.75-7.84,24.81,1,37.22,0l10.44-2.61a43.85,43.85,0,0,1,11.43,0c1.31.65,9.47,1.3,10.77,1.3,5.88,1.64,5.88,3.92,5.88,9.14C569.34,277.79,569.66,270.93,570.32,293.79Z"/><path d="M655.94,241.22c36.57,14.37,28.08,2.29,64.65,2.29l3.91,1.3,2.61-1.3c15,.32,10.13,1.63,25.14,5.22,2.29-2.94,7.51-2,10.78-2.94h19.91v12.74c-1,7.5-1.63,4.57-4.89,11.75A33,33,0,0,0,775.43,282c0,2,.33,3.92.33,5.88,0,2.61-1,3.26-2,6.53L765,296.07l-3.27-6.86c-1.3-2.93-1.63-5.22-2.28-6.53l-1.64-5.54c-1.63-2.29-1.3-6.86-5.22-6.86-3.26-2.94-2-3.59-6.53-6.2-2-.66-6.86-2.62-8.49-2l-2,1.63h-5.55c-2.61-2.61-8.16-4.24-11.42-2.94l-2-1.3h-3.59c-2,2.28-2.29,6.2-2.29,8.48a50.68,50.68,0,0,0-.65,8.82v57.13c.32,1.63-.66,8.16-.66,9.8v9.46c0,1-.65,6.21-1,7.84,0,2.61-.66,5.55-.66,8.49.66,1.3.66,1.63.66,3.59a20.27,20.27,0,0,0,1,4.24l1,8.49v6.2c0,2.62.33,6.53.66,13.72v23.5c-.33,18.94,5.55,19.27,25.14,33.63v9.79c-2,0-4.25-.65-6.86-.65-2.29,0-6.86-.65-8.16-.65-3.27-2.29-2.61-2.61-7.51-2.61H677.49c-12.08-.33-16.65,1-24.81,2.94l-4.9-8.49c28.08-27.1,20.9-13.39,22.53-46v-44.4c0-2.61-.66-6.53-.66-9.79V343.74a25.49,25.49,0,0,1,2-7.51c0-2,.33-5.23.33-7.84a52.91,52.91,0,0,0-1-8.16c0-1-1.31-6.2-1.63-7.84V307.5c0-14.69,3.26-11.76-.33-26.77-2-7.19.65-5.88-5.88-13.39-2.61-2.94-5.22-5.22-6.2-6.2-2-1.63-4.9-2.94-6.85-2.94a24,24,0,0,1-9.47,5.55L631.46,267c-5.23,2.62-4.25,1-7.51,6.21,0,3.59-1.63,6.2-4.9,8.49-3.92,2.28-2.61,1.63-4.57,4.89-1.31,1.64-3.92,4.57-5.88,5.55-7.18,0-6.85-1-6.85-7.83,0-3.59,1-6.86,1-10.12V264.08c-.33-11.1-1-11.76-3.27-20.57,12.08-7.51,12.41-5.55,25.47-.66l5.87,2c7.19.66,4.25-2,11.76-2.93,2.61-.33,8.81.32,11.42.32Z"/><path d="M862.68,254.61c-3.59,3.26-4.57,2.61-6.86,4.9-2.61.65-3.92,3.59-4.57,5.87-.65,1-1.31,2.61-1.63,7.18-2.94,22.86,3.59,12.08-5.55,34.94l1.3,1.63,2,1.31a9.3,9.3,0,0,1,1.31,3.91c-.33,4.9,1,2.94-.65,8.17-1,7.83,0,9.79,1.3,16h9.14L863,340.8c10.45,0,18.29-.65,28.41,2.61,16,1,10.44-.33,24.48,4.24l6.21-3.91c2,0,6.85,1.63,9.46,2.61.66,0,2-1,5.23-1h1.3l1,.65,1.31-.65h1.31c1.95-1.63,3.59-1.31,5.22-3.92l2.61-5.88a41.25,41.25,0,0,1,2-5.87s1.63-2.61,2-2.94c1.3-1.31,1.63-1.31,2.28-2.94v-1.63c-7.51-18.28,0-43.42-1-46.69-2.28-7.83-6.2-11.75-16.32-18.61V251a10.34,10.34,0,0,1,7.51-2.94H957c1,0,8.49-.65,10.45-1h28.73c3.59,0,8.16.65,12.4.65v4.57c-2.61,3.92-2.28,3.92-8.49,8.49l-1.3.65-1.31.66-2.28,1.63-1.31.33h-1.3l-1.31-.66-1.31.66c0,7.83,2.29,18.93.33,26.77-2.61,13.38-1.31,17,0,27.09v5.23c1,8.49,1.63,15.67,1.31,17-.33,2.93-2,5.22-2.94,8.16-2.29,3.26-1.63,3.91-1.63,8.81,3.91,6.53,3.91,3.59,3.91,10.45v21.22c0,1,0,1-.65,2.94,0,1.63.33,1.3-.33,3.26V407.4c.66,12.73-2.28,38.85,12.08,50.93,2.29,2,5.23,1,8.17,4.9.65,2,1.63,6.53-.66,8.49h-6.53a19,19,0,0,0-7.18-2,27.73,27.73,0,0,0-7.18.32c-3.92,0-5.23,1-7.18,1.64-6.86.32-6.21-2-13.72-2.62h-7.18c-.33,0-5.88-2.28-7.18-2.28-2.94-.33-3.59,1-6.53,1h-6.86l-4.57-4.9c0-3.26,1-8.49,6.53-8.49,3.59-2.28,8.49-5.22,8.49-9.79,4.57-11.1-2.94-18.28,4.24-33.63-5.87-18.61-4.24-16-2.93-33.63-1.64-2.94-2.94-5.22-6.21-7.18-4.24-4.57-4.24-5.22-7.51-6.2-28.07,0-23.18,4.24-45.7-1.63l-2.29,1.3c-3.26,0-5.55-1.3-9.14,0l-9.14.65c-6.53,0-12.08-4.57-18.61,0-5.88,4.25-7.18,30-7.51,35.26l-3.26,4.57,3.91,1c0,6.86-.32,14.37.33,24.16s1,16.33,11.75,23.18c1,1,6.21,4.25,7.84,4.25,2,1.3,5.55,4.24,4.57,6.53l-1.63,1.63H864l-2.93-1a17.84,17.84,0,0,1-7.19,1.63c-3.59,0-4.24.33-7.51,1.63-8.16,2.62-9.46,2-14.36,1.64h-6.53c-3.59,0-7.51-1-9.14-2.62-2-1-1.63-1.3-4.57-1.3l-1.31.65-1.31,1.31a6.41,6.41,0,0,1-2.28.65c-8.49,2.29-11.1-.65-19.26-1.63-2.29-3.27-2-6.86-1-10.12,2.28-4.25,5.87-4.57,9.14-7.18,10.12-7.19,9.79-10.45,11.75-21.23,1.63-8.16,3.59-12.4,2.61-23.18V385.85c-.65-14.69-2.28-14.69-1.63-26.77l2-23.18c0-2-.65-4.9-.65-7.18V290.19c-.33-3.91-1-14.36-2-19.91-.33-2.94-.33-6.86-3.27-9.8-2.61-1.3-1.63-.65-4.57-3.59l-2.61-.65-1-1.31-1.3-.32c-4.57-3.27-5.88-7.51-2.94-11.76l7.51,1.64c3.59-1,8.81-2.94,12.4-2.61,5.23.65,7.19,3.91,13.06,3.26l11.1-2c1.63,0,5.88-.65,7.19-1.63a19.75,19.75,0,0,1,7.83,0c1.31.33,2.61.33,3.92.65l3.92,2c1,0,5.22.33,7.83,3.59C865.62,251.34,865.94,251.34,862.68,254.61Z"/></g></g></svg>