<svg width="283" height="283" viewBox="0 0 283 283" fill="none" xmlns="http://www.w3.org/2000/svg">
<path d="M68.4298 216.773L48.5798 235.593C37.5098 225.593 28.9498 213.453 21.7698 199.593L43.7698 188.283C47.4598 194.063 51.0498 199.663 54.7698 205.543L45.9498 211.663C44.3298 209.663 42.8698 207.923 41.5098 206.123C40.2998 204.523 39.3198 204.713 38.2598 206.453C40.9698 210.183 43.6398 213.983 46.4298 217.883L59.0798 206.823C54.2798 199.043 49.4898 191.283 44.5698 183.293L18.5198 194.433C16.4298 186.753 14.2298 179.393 12.4298 171.983C10.9898 165.983 10.1698 159.753 8.83983 153.673C8.22983 150.863 9.20983 149.463 11.8398 149.213C18.7298 148.583 25.6298 148.073 33.0398 147.473L36.1598 167.653L26.4298 170.203C23.7298 167.923 26.0898 162.593 20.5398 161.553C21.8398 166.713 22.9898 171.243 24.2098 176.073C28.9798 174.573 33.6798 173.203 38.2598 171.513C38.9698 171.253 39.6198 169.463 39.4698 168.513C38.3398 160.763 36.9598 153.053 35.7698 145.303C35.4698 143.383 34.7698 142.553 32.6898 142.593C25.7498 142.723 18.8098 142.593 11.8698 142.593H8.02983C7.67983 127.003 10.4298 112.293 15.2198 97.6525L38.9298 106.053C37.3998 112.153 35.9298 118.153 34.3298 124.113C34.1097 124.464 33.8069 124.756 33.4478 124.964C33.0887 125.171 32.6843 125.287 32.2698 125.303C29.3798 125.083 26.5198 124.613 23.2698 124.183L24.6798 115.773C22.5798 114.873 21.5498 115.033 21.3298 117.663C21.0198 121.593 20.2698 125.483 19.6398 129.843L36.1098 130.843C38.3298 121.243 40.5298 111.783 42.7698 102.123L17.2798 91.9125C22.7741 77.791 30.7497 64.766 40.8298 53.4525L59.8298 69.0725C55.8298 74.7425 51.9798 80.2925 47.8298 86.1825L38.8298 80.7325C39.0198 77.0925 44.1298 75.1425 41.4998 70.2025C38.4998 75.0325 35.9698 79.1325 33.2398 83.5625L48.0998 91.3325L64.5498 68.3325L45.6598 48.3925C55.7798 37.3925 68.0998 28.8525 81.7798 21.6725L93.1198 43.6725L75.8498 54.6725L69.6998 45.8925C71.6398 44.3325 73.4398 42.8925 75.2998 41.4325C76.9198 40.2025 76.6098 39.2325 74.9298 38.1925L63.4798 46.3325L74.5498 58.9825L98.1498 44.4925L86.9398 18.3925C95.4398 16.1725 103.6 13.9125 111.82 11.9325C117.06 10.6825 122.4 9.86253 127.69 8.83253C130.16 8.34253 131.95 8.69253 132.21 11.7425C132.81 18.7425 133.53 25.6425 134.21 33.0625C127.68 34.0625 121.44 34.9625 115.21 35.7325C114.63 35.8125 113.52 34.8925 113.31 34.2225C112.5 31.5825 111.94 28.8625 111.31 26.3025C113.68 23.7925 118.85 26.1025 120.04 20.5125L105.34 24.1925C106.86 28.8925 108.34 33.1925 109.64 37.6425C110.14 39.4025 110.89 39.8525 112.64 39.5625C120.4 38.2525 128.17 36.9725 135.96 35.7925C138.02 35.4725 138.85 34.6725 138.81 32.4625C138.67 25.5625 138.75 18.6625 138.76 11.7625C138.76 10.6125 138.87 9.45253 138.94 8.06253C154.52 7.52253 169.21 10.5325 184.01 15.0625C181.18 23.0625 178.43 30.7325 175.56 38.7725C169.38 37.2525 163.34 35.7725 157.35 34.2025C157.017 34.0002 156.739 33.7175 156.544 33.3803C156.348 33.0431 156.24 32.6622 156.23 32.2725C156.46 29.3925 156.93 26.5425 157.37 23.2725L165.81 24.6225L166.72 21.7625L151.72 19.5925C151.41 25.1125 151.1 30.5225 150.78 36.0325L179.43 42.7225C182.85 34.2725 186.25 25.8825 189.74 17.2425C203.866 22.7567 216.925 30.6885 228.33 40.6825C223.13 46.9925 217.96 53.2525 212.66 59.6825L195.5 47.7525L200.98 38.6725C204.46 39.1225 206.63 43.4925 210.34 42.4125L210.85 41.0125L198.13 33.1725L190.33 47.9825L213.53 64.5725L233.23 45.4625C244.52 55.7625 253.01 67.9825 260.17 81.5825L238.08 92.9125L227.08 75.6925L235.48 69.7525C238.7 70.9925 238.67 76.3925 244.13 75.6825L235.45 63.3125L222.75 74.3925L237.31 97.9025L262.99 86.9025C266.69 97.7025 270.33 108.313 271.87 119.493C272.31 122.683 272.94 125.863 273.14 129.063C273.2 129.993 272.14 131.783 271.49 131.853C264 132.643 256.49 133.173 248.75 133.793C247.75 127.493 246.85 121.583 245.87 115.683C245.58 113.893 246.39 113.163 248.01 112.823C250.53 112.283 253.01 111.643 255.89 110.953L258.36 119.723L261.16 119.013C259.97 114.403 258.8 109.883 257.57 105.093L241.93 110.093C243.49 119.593 245.01 128.893 246.59 138.523H273.71C274.39 154.073 271.27 168.653 266.71 183.473L242.89 175.083C244.57 168.453 246.2 162.083 247.89 155.543L258.49 156.933C258.06 159.763 257.65 162.463 257.2 165.403L260.05 166.103L262.2 151.313C256.93 150.953 251.9 150.553 246.87 150.373C246.35 150.373 245.47 151.553 245.29 152.313C243.29 160.433 241.44 168.583 239.48 176.713C239.04 178.543 239.65 179.363 241.39 180.033C249.12 183.033 256.8 186.133 264.47 189.193C261.28 199.803 248.83 220.113 240.9 227.603L222.09 212.103L234.01 194.983L243.42 200.653L238.61 208.603L240.94 210.133L248.61 197.583L233.79 189.833L217.17 213.063L236.49 232.573C226.003 243.578 213.683 252.676 200.08 259.463C196.29 252.093 192.59 244.893 188.76 237.463L206.03 226.523L211.91 234.803C210.83 238.213 205.01 238.033 206.19 243.433C210.52 240.383 214.38 237.683 218.43 234.843L207.32 222.193C199.91 226.753 192.7 231.283 185.39 235.643C183.58 236.723 184.16 237.773 184.73 239.103C187.643 245.803 190.533 252.509 193.4 259.223C193.82 260.223 194.19 261.163 194.68 262.373C183.77 266.083 173.12 269.733 161.85 271.233C159.28 271.573 156.74 272.073 154.17 272.433C150.9 272.883 149.91 272.003 149.6 268.793C149.06 263.223 148.41 257.673 147.87 252.103C147.74 250.853 147.87 249.573 147.87 248.103L168.13 245.103L170.7 255.283C168.15 255.963 165.85 256.463 163.7 257.283C163.02 257.523 162.62 258.533 162.09 259.193C162.85 259.543 163.71 260.313 164.35 260.193C168.35 259.273 172.25 258.193 176.55 257.003L171.55 241.463L143.12 245.983V273.083C127.52 273.763 112.81 270.643 97.9198 266.083L106.32 242.353L125.79 247.193C125.42 250.713 125.06 254.063 124.66 257.863L116.09 256.513L115.09 259.323L130.09 261.573C130.42 256.383 130.77 251.293 130.98 246.203C130.98 245.733 130.22 244.903 129.69 244.773C120.69 242.633 111.69 240.583 102.37 238.453C98.9798 246.983 95.6298 255.273 92.1498 263.983C77.9959 258.524 64.9282 250.587 53.5598 240.543L69.2398 221.543L86.4298 233.483C84.5098 236.643 82.7298 239.563 80.9998 242.433C77.4998 242.433 75.3798 237.553 71.6998 238.863L71.2298 240.323L83.8298 248.033C86.3998 243.123 88.9198 238.293 91.5898 233.203L68.4298 216.773ZM121.66 252.353C121.12 251.573 120.73 250.293 120.02 250.083C116.41 249.013 112.72 248.233 108.8 247.293C106.96 252.773 105.16 258.133 103.27 263.723C114.958 267.209 127.073 269.06 139.27 269.223V242.493L174.43 236.753C176.75 243.883 179.19 251.393 181.68 259.073C174.11 262.013 166.9 264.793 158.75 264.073C158.27 260.803 157.82 257.763 157.37 254.693L166.37 252.213C164.16 249.683 154.65 249.933 152.87 252.313C152.539 252.729 152.353 253.241 152.34 253.773C152.62 258.693 152.98 263.603 153.34 268.843C165.95 267.713 177.77 265.193 189.2 260.103C185.66 251.753 182.2 243.653 178.68 235.283L207.92 217.283L224.16 235.283L205.43 248.923L199.72 239.643L206.89 234.563L204.83 232.063L193.47 239.063C196.27 244.383 198.91 249.373 201.57 254.413C212.43 248.413 222.17 241.683 230.57 232.853L211.23 213.393C215.07 208.823 219.04 204.533 222.5 199.863C225.96 195.193 228.86 190.213 232.06 185.283L254.06 196.343L241.86 216.103L233.28 209.523L238.03 201.903L235.15 200.353L227.43 211.613L240.59 222.423C248.215 213.12 254.49 202.788 259.23 191.733L234.42 181.653L242.97 146.493L266.87 147.633C265.71 154.973 264.69 161.883 263.45 168.753C263.225 169.198 262.892 169.581 262.482 169.866C262.071 170.15 261.596 170.328 261.1 170.383C258.26 170.033 255.46 169.313 252.56 168.703C252.99 165.623 253.36 162.903 253.74 160.173L252.74 159.853C248.64 163.053 249.81 168.383 247.9 172.683L264.44 178.153C267.923 166.575 269.787 154.571 269.98 142.483H243.12L237.3 107.243L259.7 100.003C262.7 107.643 265.47 114.873 264.7 122.903L255.2 124.273C254.61 121.813 254.2 119.603 253.52 117.463C253.32 116.853 252.38 116.463 251.78 116.003C251.37 116.623 250.56 117.273 250.61 117.863C250.859 121.079 251.28 124.281 251.87 127.453C252.03 128.243 253.27 129.453 253.96 129.383C259.1 129.133 264.23 128.623 269.53 128.173C268.26 115.633 265.89 103.823 260.69 92.5525L235.85 103.033L217.85 73.8525L235.92 57.6625C240.48 63.8925 244.92 69.9725 249.56 76.2825L240.27 81.9825L235.01 74.8625L232.64 76.9825C235.06 80.8125 237.34 84.4425 239.7 88.1925L255.04 80.1925C249.04 69.3125 242.21 59.6225 233.44 51.1925L213.93 69.7925L186.05 49.1525L196.76 27.8025L216.59 39.9825L210.06 48.6125L202.57 43.9125L200.63 46.5425L212.12 54.4225L222.97 41.3225C213.646 33.6889 203.29 27.4103 192.21 22.6725C188.75 31.1525 185.43 39.2825 182.08 47.4725L146.88 38.8725C147.24 30.7925 147.59 23.1125 147.95 15.2125C154.31 16.0825 160.21 16.7725 166.06 17.7725C167.78 18.0725 170.76 19.3525 170.72 20.0425C170.362 23.0763 169.657 26.0591 168.62 28.9325C168.55 29.1525 167.25 29.1225 166.54 29.0225C164.65 28.7625 162.76 28.3925 159.76 27.8725C160.71 29.5425 161.02 30.9325 161.69 31.1325C165.39 32.2125 169.17 33.0125 173.12 33.9525C174.98 28.3625 176.74 23.0225 178.57 17.5125C166.945 14.0266 154.894 12.1656 142.76 11.9825V38.6325L107.51 44.5325L100.2 22.0825C107.05 19.3925 113.75 17.0825 120.99 16.8925C121.79 16.8925 123.19 17.6625 123.32 18.2825C123.89 20.9725 124.1 23.7425 124.43 26.4325C122 27.2325 119.92 27.8225 117.94 28.6625C117.34 28.9125 117.03 29.8625 116.59 30.4825C117.24 30.7225 117.91 31.2125 118.53 31.1525C121.549 30.9065 124.554 30.4993 127.53 29.9325C128.38 29.7525 129.64 28.4625 129.61 27.7225C129.44 22.7225 128.96 17.7225 128.56 12.2925C116.08 13.5725 104.23 15.9625 92.7598 21.1025L103.28 45.9825L73.9898 63.9825L57.7998 45.9825L76.4798 32.2925L82.1498 41.5825L75.0498 46.5825L76.9998 49.1725C80.8898 46.7325 84.6098 44.4125 88.3898 42.0625L80.3898 26.7525C69.5998 32.6925 59.7798 39.3625 51.4298 48.2925L70.2398 67.4425L49.2398 95.6125L27.8598 84.9025L40.0198 65.1325L48.6798 71.6325L43.9198 79.2625L46.6998 80.9825L54.5098 69.6225L41.3698 58.7825C33.4998 68.1525 27.6398 78.4225 22.6398 89.4525L47.5298 99.5525L38.9198 134.713L15.0998 133.553C15.8898 128.393 16.4898 123.803 17.3098 119.253C19.0498 109.513 19.0998 109.523 29.3098 112.733L28.1898 120.983L29.4198 121.333C33.2298 118.053 32.3098 112.903 34.0598 108.553L17.5898 103.043C14.0223 114.618 12.1561 126.65 12.0498 138.763H38.7698C40.7698 150.703 42.6698 162.103 44.6398 173.943L22.3498 181.153C19.3947 175.003 17.5593 168.376 16.9298 161.583C16.7198 159.363 17.0998 157.873 19.9298 157.883C22.1631 157.732 24.3824 157.418 26.5698 156.943C27.1698 159.233 27.6598 161.413 28.3698 163.523C28.5798 164.153 29.4398 164.573 29.9998 165.093C30.4098 164.453 31.2098 163.793 31.1598 163.193C30.9955 160.184 30.5875 157.195 29.9398 154.253C29.6865 153.681 29.2938 153.181 28.7976 152.801C28.3015 152.42 27.7177 152.169 27.0998 152.073C22.2598 152.143 17.4198 152.593 12.2798 152.923C13.6598 165.413 15.9698 177.293 21.1598 188.663L46.0298 178.173L64.0298 207.363L45.9598 223.553L32.3598 204.983L41.6898 199.313L46.6898 206.313L49.4198 204.583L42.2698 193.113L26.8898 201.113C32.7898 211.833 39.5398 221.593 48.3298 229.883L67.6398 211.213L95.8998 232.103L85.0898 253.413L65.2598 241.263L71.8698 232.643L79.3698 237.403L81.1398 234.633L69.7598 226.833L59.0998 239.733C65.0198 245.813 83.2398 256.633 89.9098 258.003L99.7798 233.823L129.57 240.983C134.85 242.243 134.86 242.243 134.7 247.833C134.61 250.833 134.54 253.833 134.39 256.833C134.24 259.833 134.01 262.933 133.81 266.093L110.73 262.783C111.19 252.783 112.18 251.823 121.66 252.353Z" fill="white"/>
<path d="M105.43 112.443C105.93 107.993 110.14 106.163 114.6 108.123C120.49 110.693 121.75 119.033 116.98 124.333C112.66 129.143 106.92 129.753 101.15 128.623C95.0699 127.433 91.6499 122.893 90.0099 117.193C89.3951 115.031 89.2653 112.76 89.6298 110.543C90.7998 103.833 91.9599 103.043 98.8299 103.053C107.5 103.053 116.17 102.913 124.83 103.173C126.781 103.323 128.598 104.222 129.9 105.683C136.3 113.683 145.4 113.623 151.8 105.573C153.034 104.17 154.767 103.305 156.63 103.163C166.38 102.933 176.13 103.083 185.88 103.013C186.957 102.948 188.025 103.234 188.927 103.827C189.828 104.42 190.513 105.288 190.88 106.303C192.271 109.648 192.566 113.347 191.723 116.87C190.881 120.394 188.944 123.559 186.19 125.913C181.41 129.913 172.53 130.133 167.03 126.423C165.005 125.055 163.449 123.099 162.571 120.82C161.693 118.54 161.535 116.045 162.12 113.673C163.23 109.193 168.93 106.033 173.12 107.933C174.62 108.603 175.59 110.413 176.8 111.703L176.15 112.433C175.22 112.303 174.29 112.203 173.37 112.043C171.16 111.653 169.37 112.293 168.76 114.523C167.98 117.233 169.09 119.413 171.38 120.903C171.794 121.216 172.267 121.441 172.771 121.566C173.274 121.691 173.798 121.712 174.31 121.629C174.822 121.546 175.312 121.36 175.75 121.082C176.189 120.804 176.566 120.441 176.86 120.013C177.965 118.75 178.69 117.199 178.951 115.541C179.211 113.882 178.996 112.184 178.33 110.643C177.05 107.233 174.23 105.943 170.93 105.913C167.35 105.913 164 106.913 162.26 110.433C161.525 112.101 160.906 113.819 160.41 115.573C157.67 123.883 151.64 128.393 142.75 128.993C137.216 129.532 131.674 128.039 127.16 124.793C125.522 123.657 124.142 122.19 123.108 120.486C122.074 118.782 121.411 116.88 121.16 114.903C120.23 108.233 115.07 104.833 108.62 106.223C107.218 106.426 105.918 107.072 104.911 108.067C103.903 109.062 103.24 110.354 103.02 111.753C102.42 115.123 102.65 118.443 105.72 120.843C106.424 121.453 107.335 121.77 108.266 121.727C109.197 121.685 110.075 121.286 110.72 120.613C112.61 119.003 113.9 117.153 112.85 114.423C112.04 112.313 110.58 111.713 108.51 112.023C107.59 112.163 106.66 112.283 105.43 112.443Z" fill="white"/>
<path d="M191.25 92.7734C180.02 92.7734 169.25 92.6734 158.38 92.7734C155.05 92.7734 152.76 91.9034 150.72 89.1334C149.549 87.5718 148.024 86.3101 146.272 85.4515C144.519 84.593 142.587 84.1622 140.636 84.1944C138.684 84.2266 136.768 84.7209 135.044 85.6368C133.321 86.5527 131.839 87.864 130.72 89.4634C129.974 90.5645 128.951 91.4488 127.753 92.0266C126.555 92.6044 125.226 92.8551 123.9 92.7534C113.4 92.8034 102.9 93.0534 92.4199 93.2334H90.6699V83.8734C91.9199 83.8134 93.0699 83.6934 94.2199 83.6934H186.5C191.5 83.6934 191.95 84.2334 191.5 89.3534C191.35 90.4734 191.32 91.6334 191.25 92.7734Z" fill="white"/>
<path d="M137.62 163.083H132.75C132.19 161.133 131.69 159.353 131.18 157.583L130.09 157.493L128.14 163.083H123.95L122.48 157.583L121.48 157.513C120.96 159.243 120.48 160.973 119.83 163.043H115.43C114.59 159.193 113.7 155.163 112.76 150.873H168.7C167.84 154.873 166.99 158.873 166.08 163.133H161.19C160.84 161.323 160.47 159.463 160.11 157.603L158.7 157.463L156.99 163.033H152.53L150.83 157.493L149.57 157.383C148.84 159.213 148.11 161.033 147.29 163.113H143.05C141.57 161.353 144.19 157.473 140.27 157.493C136.35 157.513 138.82 161.043 137.62 163.083Z" fill="white"/>
<path d="M140.879 109.653C139.372 109.649 137.88 109.344 136.491 108.756C135.103 108.168 133.846 107.309 132.794 106.228C131.742 105.147 130.917 103.868 130.367 102.464C129.816 101.06 129.552 99.5601 129.589 98.0527C129.589 91.5127 134.479 86.2927 140.719 86.2327C142.257 86.2222 143.782 86.5147 145.207 87.0935C146.631 87.6722 147.928 88.526 149.023 89.6059C150.118 90.6859 150.989 91.9709 151.587 93.3876C152.186 94.8043 152.499 96.3249 152.509 97.8627C152.52 99.4005 152.227 100.925 151.649 102.35C151.07 103.775 150.216 105.072 149.136 106.166C148.056 107.261 146.771 108.133 145.355 108.731C143.938 109.329 142.417 109.642 140.879 109.653Z" fill="white"/>
<path d="M111.629 135.982L121.509 122.982C136.199 134.602 147.219 134.602 160.579 122.512C161.999 125.012 163.159 127.692 164.889 129.922C166.745 132.061 168.75 134.066 170.889 135.922L111.629 135.982Z" fill="white"/>
<path d="M104.689 140.763C106.259 140.203 107.839 139.163 109.419 139.153C130.419 139.053 151.419 139.093 172.419 139.153C173.274 139.026 174.147 139.098 174.969 139.363C175.789 139.813 176.969 140.903 176.839 141.473C176.45 142.478 175.692 143.297 174.719 143.763C174.049 144.123 173.019 143.853 172.159 143.853C151.369 143.853 130.589 143.853 109.799 143.853C108.159 143.853 106.519 143.063 104.879 142.643L104.689 140.763Z" fill="white"/>
<path d="M93.8203 100.792V94.9824H128.13V100.752L93.8203 100.792Z" fill="white"/>
<path d="M153.66 100.832V95.0625H187.91V100.832H153.66Z" fill="white"/>
<path d="M148.1 203.132L142.77 203.982V170.502H148.1V203.132Z" fill="white"/>
<path d="M137.91 203.812C136.91 203.662 136.06 203.512 135.23 203.412C134.4 203.312 133.51 203.262 132.43 203.162V170.562H137.91V203.812Z" fill="white"/>
<path d="M152.02 202.373V170.533H157.57V183.283C157.57 187.793 157.57 192.283 157.57 196.813C157.57 201.823 157.57 201.823 152.02 202.373Z" fill="white"/>
<path d="M123.429 170.463H128.669V201.673C124.749 202.393 123.539 201.803 123.479 198.393C123.319 189.193 123.429 179.983 123.429 170.463Z" fill="white"/>
<path d="M161 199.893V170.543H166.62C166.62 179.213 166.77 187.793 166.55 196.373C166.43 199.583 163.43 199.273 161 199.893Z" fill="white"/>
<path d="M173.949 146.672C170.569 148.962 110.879 148.872 108.359 146.672C109.439 146.235 110.567 145.929 111.719 145.762C130.999 145.722 150.283 145.722 169.569 145.762C171.052 145.944 172.517 146.248 173.949 146.672Z" fill="white"/>
<path d="M168.43 167.533C167.089 167.932 165.713 168.203 164.32 168.343C148.713 168.389 133.11 168.389 117.51 168.343C116.093 168.212 114.691 167.955 113.32 167.573L113.25 166.573C114.202 166.135 115.213 165.835 116.25 165.683C132.61 165.616 148.967 165.616 165.32 165.683C166.389 165.835 167.435 166.124 168.43 166.543V167.533Z" fill="white"/>
<path d="M115.131 170.453H120.241V199.113C116.341 199.593 115.241 198.803 115.151 195.193C115.081 187.043 115.131 178.893 115.131 170.453Z" fill="white"/>
<path d="M111.1 202.873C103.48 207.113 96.0998 208.933 88.0098 205.013C92.7798 199.333 103.19 198.303 111.1 202.873Z" fill="white"/>
<path d="M171.25 202.922C176.57 198.332 187.64 199.122 193.56 204.512C188.64 209.092 176.96 207.382 171.25 202.922Z" fill="white"/>
<path d="M110.43 199.492C118.79 201.722 128.43 204.372 138.03 206.792C139.909 207.207 141.859 207.187 143.73 206.732C152.09 204.852 160.4 202.732 168.9 201.372L143.75 208.372C146.91 212.372 152.07 214.552 152.36 220.132C150.01 215.412 146.98 210.782 141.48 210.332C135.98 209.882 132.72 214.522 129.48 219.542C130.9 213.972 134.6 211.282 138.88 208.452C128.53 205.302 118.03 204.412 110.43 199.492Z" fill="white"/>
<path d="M198.299 83.1816C202.379 88.4716 202.419 97.7816 198.399 104.692C193.609 99.8516 193.559 89.3816 198.299 83.1816Z" fill="white"/>
<path d="M83.8497 82.9824C88.0697 90.4324 87.3997 97.5724 84.0997 104.842C79.4897 100.902 78.8397 88.4124 83.8497 82.9824Z" fill="white"/>
<path d="M98.5591 196.403C92.4491 199.833 84.1191 198.063 79.6191 192.403C84.3591 188.403 93.7891 190.413 98.5591 196.403Z" fill="white"/>
<path d="M202.27 191.983C198.48 197.913 190 199.843 183.17 196.543C185.336 193.692 188.423 191.681 191.905 190.849C195.387 190.018 199.05 190.418 202.27 191.983Z" fill="white"/>
<path d="M191.359 123.672C197.759 124.912 203.479 133.042 202.869 140.042C195.829 137.982 190.069 129.732 191.359 123.672Z" fill="white"/>
<path d="M78.0401 114.052C72.4901 109.192 70.6901 99.9324 73.9301 93.7324C79.3201 97.8524 81.1501 106.642 78.0401 114.052Z" fill="white"/>
<path d="M89.0497 186.622C85.6278 187.492 82.0136 187.197 78.7777 185.785C75.5418 184.372 72.8684 181.922 71.1797 178.822C76.1897 175.752 85.0397 179.532 89.0497 186.622Z" fill="white"/>
<path d="M195.139 139.793C201.229 144.093 203.429 153.273 200.139 160.553C195.429 154.343 192.429 147.983 195.139 139.793Z" fill="white"/>
<path d="M193.259 156.322C197.389 160.092 196.689 171.782 192.259 176.792C187.919 171.982 188.429 161.402 193.259 156.322Z" fill="white"/>
<path d="M122.92 207.342C118.24 213.342 110.09 215.342 103.82 212.202C107.65 206.332 115.37 204.302 122.92 207.342Z" fill="white"/>
<path d="M203.72 114.063C200.65 108.063 202.72 96.733 207.72 93.873C211.09 99.743 209.27 109.293 203.72 114.063Z" fill="white"/>
<path d="M207.93 128.722C205.93 120.422 208.23 112.532 213.66 108.932C216.57 115.032 213.95 124.362 207.93 128.722Z" fill="white"/>
<path d="M201.141 175.183C203.301 168.183 210.761 162.933 217.271 163.623C217.081 169.583 209.851 174.843 201.141 175.183Z" fill="white"/>
<path d="M185.84 168.713C188.77 175.043 186.75 183.363 181.12 188.653C177.76 182.983 179.98 173.193 185.84 168.713Z" fill="white"/>
<path d="M192.74 186.983C194.31 181.293 205.23 175.703 210.41 178.313C208.75 184.203 201.72 187.703 192.74 186.983Z" fill="white"/>
<path d="M96.1405 168.172C101.98 174.272 102.99 181.172 101.38 188.672C95.7305 185.982 92.8505 175.192 96.1405 168.172Z" fill="white"/>
<path d="M177.74 212.093C173.63 215.823 161.8 212.903 159 207.433C165.35 204.153 174.33 206.393 177.74 212.093Z" fill="white"/>
<path d="M64.4298 126.572C70.1298 128.692 73.8098 136.942 72.6898 145.052C67.0498 143.572 62.5798 133.572 64.4298 126.572Z" fill="white"/>
<path d="M81.2004 160.053C78.5704 152.603 80.7304 143.933 86.0104 140.053C89.3104 145.623 87.0504 155.353 81.2004 160.053Z" fill="white"/>
<path d="M206.84 162.542C206.95 153.852 211.43 146.792 217.66 145.262C218.85 151.662 213.84 159.822 206.84 162.542Z" fill="white"/>
<path d="M87.979 155.982C93.199 160.792 93.809 171.162 89.409 177.402C85.529 170.492 84.429 163.592 87.979 155.982Z" fill="white"/>
<path d="M80.6691 175.273C72.2091 174.703 66.6691 170.993 64.0391 164.273C69.4291 161.903 77.9491 167.483 80.6691 175.273Z" fill="white"/>
<path d="M217.29 126.322C219.29 132.652 215.29 142.072 209.39 145.502C207.69 137.982 210.88 129.982 217.29 126.322Z" fill="white"/>
<path d="M74.739 162.352C68.209 160.412 63.219 152.352 64.169 145.352C70.429 146.842 75.429 154.982 74.739 162.352Z" fill="white"/>
<path d="M68.1706 108.982C73.5606 112.342 75.8106 120.102 73.8406 128.462C68.1506 125.612 64.9006 114.482 68.1706 108.982Z" fill="white"/>
<path d="M78.9889 140.093C78.5189 132.853 84.0489 124.883 90.3189 123.523C91.4289 129.903 86.5089 137.203 78.9889 140.093Z" fill="white"/>
<path d="M176.059 177.312C178.059 183.812 174.999 192.002 169.059 195.992C166.429 190.032 170.779 178.793 176.059 177.312Z" fill="white"/>
<path d="M105.76 176.982C112.48 181.822 114.08 188.342 113.15 195.862C107.87 194.772 102.89 182.172 105.76 176.982Z" fill="white"/>
<path d="M87.6792 113.503C88.1292 115.743 88.5692 117.983 89.0692 120.503L81.9192 123.283L81.1992 122.593L86.6892 113.303L87.6792 113.503Z" fill="white"/>
<path d="M200.699 122.682C193.159 122.332 192.139 120.682 195.089 113.342L200.699 122.682Z" fill="white"/>
<path d="M97.4294 75.3033C97.7494 77.3033 98.0594 79.2133 98.4294 81.4533H91.8594L96.4894 74.8633L97.4294 75.3033Z" fill="white"/>
<path d="M190.21 81.6331H183.49C183.72 79.4631 183.95 77.3731 184.18 75.2831L185.18 74.9531L190.21 81.6331Z" fill="white"/>
</svg>
