<svg width="283" height="283" viewBox="0 0 283 283" fill="none" xmlns="http://www.w3.org/2000/svg">
<path d="M100.461 246.66L105.631 252.75C110.151 250.94 114.481 249.23 118.791 247.46C121.791 246.25 123.791 247.9 125.611 249.75C125.891 250.03 125.401 251.75 124.921 251.96C121.052 253.565 117.075 254.902 113.021 255.96C111.421 256.33 109.461 255.16 107.801 254.72C116.501 267.15 131.801 272.3 147.091 267.62C150.47 266.561 153.755 265.223 156.911 263.62C158.46 262.706 160.254 262.295 162.045 262.446C163.837 262.596 165.537 263.3 166.911 264.46C160.211 269.33 153.161 272.86 145.231 274.46C124.231 278.59 102.331 265.57 93.3914 246.25C91.7714 242.74 92.3914 241.25 96.2414 240.53C103.501 239.2 110.181 240.26 115.451 246.1C112.371 248.95 110.451 249.1 106.981 247.56C105.067 246.821 103.106 246.209 101.111 245.73L100.461 246.66Z" fill="white"/>
<path d="M170.881 244.97C169.501 248.19 167.441 250.21 163.561 250.18C161.56 250.335 159.649 251.08 158.071 252.32L165.181 255.6C168.501 251.55 171.591 247.71 174.751 243.94C177.071 241.18 179.891 242.94 183.091 243.03C182.694 243.862 182.236 244.664 181.721 245.43C180.371 247.12 178.911 248.72 177.571 250.43C174.891 253.8 172.201 257.11 166.981 255.59C176.701 260.59 193.171 261.06 203.751 252.37C208.181 248.73 211.811 244.04 215.381 239.5C217.851 236.36 219.671 234.97 224.051 235.25C222.821 240.68 219.781 245.03 216.291 249.07C198.221 270.07 170.141 268.21 151.671 255.82C148.381 253.62 148.391 251.82 151.351 249.14C156.811 244.22 165.311 242.39 170.881 244.97Z" fill="white"/>
<path d="M108.48 37.6612C109.84 34.2512 111.68 32.2512 115.48 32.2012C117.57 32.2012 119.64 31.0912 121.72 30.4912V29.4912L114.1 26.6612C111.34 30.1612 108.74 33.5812 106.03 36.9112C103.32 40.2412 101.47 40.6512 96.17 38.8012C98.55 35.9312 100.78 33.2812 102.96 30.5912C105.27 27.7312 107.83 25.4712 112.02 26.5912C97.48 20.4712 80.76 22.3612 69.39 35.8112C67.3931 38.2137 65.5207 40.717 63.78 43.3112C61.78 46.2212 59.1 47.5712 55.25 47.5612C55.3707 46.8397 55.5547 46.1303 55.8 45.4412C63.07 30.1412 74.47 20.0012 91.8 17.7712C104.352 16.1025 117.077 19.1412 127.52 26.3012C131.02 28.6112 131.04 30.4312 127.88 33.1612C122.25 37.9912 115.91 39.6612 108.48 37.6612Z" fill="white"/>
<path d="M36.8298 170.311C32.6498 168.891 31.5498 167.311 31.2298 163.311C31.0998 161.621 30.3798 159.961 29.6998 157.471C26.1192 162.791 23.7658 168.84 22.8098 175.181C19.8098 192.181 26.5598 204.681 40.7298 213.761C44.1698 215.961 46.9498 218.471 45.9998 223.381C33.1098 218.261 23.6598 209.711 19.0498 196.661C13.5198 181.041 16.2298 166.191 24.9498 152.361C27.9498 147.671 29.7198 147.781 33.1798 152.221C37.3998 157.661 38.9198 163.601 36.8298 170.311Z" fill="white"/>
<path d="M245.252 112.29C248.962 113.68 250.822 115.73 250.772 119.46C250.772 121.29 251.542 123.13 252.132 125.65C255.629 121.383 258.014 116.315 259.072 110.9C261.442 99.8105 260.482 89.0905 253.522 79.9005C250.212 75.5205 245.582 72.0505 241.292 68.4805C238.482 66.1405 236.292 63.8105 236.852 59.4805C241.902 60.7105 245.982 63.4205 249.732 66.5705C271.212 84.6605 269.412 113.43 255.982 131.83C253.852 134.74 252.402 134.76 249.982 132.19C244.672 126.49 243.252 119.89 245.252 112.29Z" fill="white"/>
<path d="M253.77 176.659C264.91 168.089 271.63 157.259 269.77 142.799C269.08 137.489 267.01 132.279 265.01 127.249C263.61 123.739 263.18 120.709 265.77 117.379C270.34 122.179 272.77 127.939 274.42 134.089C281.42 160.349 263.42 181.559 245.99 189.159C242.07 190.869 240.85 190.159 239.9 186.019C238.23 178.729 240.74 172.809 245.9 167.479C248.34 169.729 248.97 171.959 247.7 174.849C246.873 177.013 246.171 179.223 245.6 181.469L246.31 181.929L253.93 176.579L253.77 176.659Z" fill="white"/>
<path d="M164.63 35.9896C167.82 33.6496 170.72 32.9296 174.15 35.0696C175.68 36.0696 177.78 36.0696 180.03 36.6696C168.76 17.1696 149.76 7.12958 128.8 15.8596C126.51 16.8096 124.3 17.9696 121.99 18.8596C118.84 20.0596 117.29 19.7796 113.99 17.6496C118.99 12.8896 125.11 10.2896 131.61 8.54958C157.21 1.70958 178.97 18.7196 187.01 35.9596C188.67 39.5296 188.17 41.0196 184.72 41.7096C177.17 43.2096 170.31 41.9896 164.63 35.9896Z" fill="white"/>
<path d="M99.9897 260.08C93.6597 261.88 87.6197 260.7 81.6697 259.26C61.8097 254.44 51.4297 240.85 47.6697 221.68C46.6697 216.79 46.9997 211.62 46.9897 206.58C46.9897 203.58 48.7797 202.58 51.9897 203.58C59.2297 205.9 63.7397 210.83 65.7497 218.11C62.1597 219.32 60.0697 218.58 58.1197 215.88C56.7897 214.05 55.1797 212.43 53.6897 210.71L52.2497 211.34C53.3697 217.02 54.0397 222.84 55.7197 228.34C60.8397 245.2 72.8397 252.56 89.4597 254.41C93.6397 254.89 97.8997 255.17 99.9897 260.08Z" fill="white"/>
<path d="M35.021 100.03C33.101 101.44 31.101 102.78 29.261 104.29C20.721 111.29 13.811 119.34 12.071 130.73C10.951 138.1 12.631 145.02 15.431 151.73C16.051 153.336 16.7828 154.896 17.621 156.4C19.531 159.6 18.871 162.49 16.771 165.63C11.4215 159.384 7.90204 151.78 6.60101 143.66C3.74101 125.08 11.251 110.75 25.661 99.54C29.082 97.0805 32.6376 94.8136 36.311 92.75C38.121 91.65 39.461 92.1 40.471 94.09C43.611 100.28 41.061 110.51 35.061 114.79C32.941 112.24 32.451 109.64 33.971 106.52C34.7459 104.597 35.3613 102.614 35.811 100.59L35.021 100.03Z" fill="white"/>
<path d="M20.571 101.121C19.518 93.5869 20.1638 85.9128 22.461 78.6608C28.071 61.5608 40.691 52.5208 57.561 48.7508C62.771 47.6008 68.311 47.6608 73.681 47.5008C76.681 47.4008 77.571 48.9008 76.881 51.9408C75.251 59.1808 68.741 65.4408 62.071 66.0508C61.391 62.7808 62.221 60.2808 65.201 58.3808C66.851 57.3208 68.201 55.7308 70.131 53.9208C64.3383 52.9153 58.3802 53.5384 52.921 55.7208C37.921 61.7208 28.441 72.1908 26.621 88.7208C26.411 90.6408 26.101 92.5608 26.061 94.4908C25.991 97.9708 23.991 99.8208 20.571 101.121Z" fill="white"/>
<path d="M181.76 22.0996C188.19 20.6596 194.39 21.3696 200.47 22.8996C219.47 27.6996 231.18 40.4396 234.72 62.0496C235.225 66.2328 235.422 70.4475 235.31 74.6596C235.36 78.0096 233.98 78.9796 230.53 78.3696C224.26 77.2696 217.53 70.2196 216.65 63.5996C219.77 62.9096 222.27 63.5996 224.21 66.3496C225.502 67.988 226.891 69.5475 228.37 71.0196L229.67 70.5496C229.16 66.1596 229.04 61.6796 228.08 57.3896C224.41 41.0796 209.47 28.8396 192.56 27.8796C188.25 27.5796 183.85 27.2696 181.76 22.0996Z" fill="white"/>
<path d="M219.05 215.659C219.77 220.149 219.05 221.659 215.62 223.869C213.932 225.205 212.345 226.662 210.87 228.229C220.98 229.229 229.62 227.339 237.39 222.229C249.17 214.479 254.76 203.229 255.55 189.369C255.81 184.669 256.55 183.369 261.22 181.629C262.57 194.239 260.22 205.819 252.69 216.079C245.16 226.339 234.57 231.179 222.69 233.519C217.56 234.519 212.16 234.249 206.88 234.269C204.22 234.269 203.34 232.049 204.57 228.579C205.556 225.723 207.18 223.13 209.318 220.995C211.456 218.861 214.053 217.241 216.91 216.259C217.59 216.009 218.31 215.889 219.05 215.659Z" fill="white"/>
<path d="M257.16 166.02C255.38 163.34 254.65 160.94 256.32 158.1C257.078 156.43 257.678 154.692 258.11 152.91C254.38 152.85 251.72 154.33 249.25 156.16C243.763 160.247 239.628 165.887 237.38 172.35C234.79 179.5 232.5 186.75 230.19 193.99C228.68 198.75 227.7 199.53 222.34 199.25C225.8 183.91 229.24 168.64 240.12 156.4C244.381 151.336 249.965 147.555 256.25 145.48C261.51 143.84 263.25 145.15 263.39 150.54C263.56 153.42 263.09 156.302 262.012 158.979C260.935 161.656 259.278 164.06 257.16 166.02Z" fill="white"/>
<path d="M197.74 59.0098C183.74 56.1198 169.96 53.5498 158.13 45.3898C151.07 40.5198 145.23 34.5998 142.42 26.2498C140.8 21.4398 142.09 19.7198 147.1 19.4398C153.32 19.0898 158.74 20.6498 163.42 25.3398C160.42 26.9398 157.89 28.0398 154.82 25.9698C153.52 25.0898 151.66 25.0398 150.05 24.6098L149.11 25.5298C151.01 28.5998 152.62 31.9098 154.88 34.7098C159.27 40.1598 165.37 43.2198 171.88 45.3398C178.63 47.5298 185.44 49.5098 192.22 51.5698C196.74 52.9298 197.41 53.7598 197.74 59.0098Z" fill="white"/>
<path d="M253.971 105.75C251.171 103.98 249.261 102.16 249.541 98.6597C249.661 97.1797 248.721 95.6597 248.111 93.5997C243.601 97.2397 241.541 101.78 240.611 106.92C238.441 119.03 241.381 130.62 244.611 142.11C246.311 148.11 246.541 148.11 240.991 152.33C238.941 144.8 236.671 137.57 234.991 130.2C232.621 119.52 232.461 108.74 236.831 98.5297C238.681 94.1997 241.931 90.4197 244.931 86.6897C245.581 85.8897 248.391 85.7597 249.351 86.4697C254.101 89.9297 256.311 99.6597 253.971 105.75Z" fill="white"/>
<path d="M82.7507 223.58C94.7507 225.73 106.421 228.14 117.141 233.74C126.141 238.46 133.481 244.93 137.441 254.58C137.883 255.546 138.238 256.55 138.501 257.58C139.181 260.68 138.331 262.19 135.191 262.58C128.461 263.5 122.361 262.06 117.191 256.92C120.011 255.07 122.581 254.37 125.651 256.07C127.041 256.84 128.811 256.93 130.831 257.43C129.551 250.63 125.571 246.56 120.771 243.13C112.091 236.92 101.981 234.27 91.8407 231.72C90.4907 231.37 89.1107 231.09 87.7707 230.72C83.5007 229.66 82.6307 228.42 82.7507 223.58Z" fill="white"/>
<path d="M61.89 228.66C65.03 228.46 67.54 229.14 69.13 232.24C69.82 233.58 71.24 234.56 72.56 235.96C74.78 232.22 74.56 228.61 73.83 225.07C72.31 217.23 68.2 210.66 62.96 204.83C59.14 200.58 55.16 196.46 51.15 192.38C46.83 187.99 46.77 188.05 49.33 181.75C54.8 187.13 60.27 192.13 65.33 197.55C73.01 205.81 78.8 215.28 80.27 226.63C80.84 231.08 79.9 235.76 79.36 240.3C79.15 242.13 77.83 243.3 75.65 243C69.68 242.21 62.64 234.96 61.89 228.66Z" fill="white"/>
<path d="M24.3811 116.599C26.3811 119.599 26.9311 122.229 24.9911 125.249C24.1911 126.489 24.2211 128.249 23.7811 130.159C29.2604 129.067 34.127 125.95 37.4111 121.429C44.8511 111.579 48.3011 100.109 50.7111 88.2795C51.5711 84.0295 53.1611 82.4495 58.3211 82.4395C57.5111 86.4395 56.8311 90.4395 55.9211 94.2695C53.3111 105.209 49.7911 115.739 42.6111 124.659C37.8711 130.579 32.1611 135.189 24.7611 137.449C20.7611 138.679 18.8811 137.699 18.4711 133.599C17.8211 127.159 19.4711 121.369 24.3811 116.599Z" fill="white"/>
<path d="M177.53 253.369C179.32 250.169 181.29 248.279 184.92 248.489C186.38 248.569 187.92 247.639 189.83 247.039C185.18 241.739 179.43 240.039 173.17 239.549C161.52 238.689 150.47 241.599 139.51 244.979C134.7 246.469 133.75 246.059 130.9 241.269C147.47 235.789 163.9 229.989 181.69 234.999C187.054 236.333 191.989 239.01 196.03 242.779C198.88 245.559 198.77 247.119 195.63 249.599C190.37 253.749 184.4 254.659 177.53 253.369Z" fill="white"/>
<path d="M101.491 29.66C99.8013 32.43 97.9213 34.13 94.5813 33.93C93.0813 33.84 91.5813 34.77 89.5813 35.36C92.0037 38.3669 95.3205 40.5245 99.0513 41.52C107.721 43.99 116.401 43.07 125.051 41.23C129.599 40.3921 134.066 39.1608 138.401 37.55C142.991 35.69 146.401 35.96 149.121 40.55C136.121 45.14 123.001 49.77 108.821 49.15C99.5913 48.74 90.8913 46.44 83.9013 39.88C81.0513 37.19 81.1913 35.26 84.0713 32.58C87.3113 29.57 96.5413 26.89 101.491 29.66Z" fill="white"/>
<path d="M28.31 177.169C31.47 178.999 33.31 181.169 33.04 184.829C32.93 186.159 33.93 187.579 34.53 189.269C41.94 182.079 43.13 173.359 41.93 164.429C40.81 156.079 38.56 147.859 36.57 139.649C35.36 134.709 35.57 133.649 40.3 130.859C45.57 146.089 50.71 161.219 47.55 177.689C46.18 184.809 42.21 190.529 37.85 196.049C36.44 197.829 34.85 197.809 33.08 196.359C28.31 192.389 25.94 183.139 28.31 177.169Z" fill="white"/>
<path d="M229.59 219.311C228.12 213.241 234.54 212.541 236.51 208.561C232.11 206.481 227.77 206.911 223.35 208.241C212.86 211.401 204.96 218.391 197.31 225.661C195.51 227.371 193.84 229.221 192.12 231.001C188.75 234.501 187.61 234.671 182.85 232.251C183.259 231.56 183.735 230.91 184.27 230.311C191.84 223.311 199.02 215.731 207.15 209.411C214.83 203.473 224.348 200.413 234.05 200.761C236.633 200.826 239.183 201.354 241.58 202.321C242.209 202.708 242.734 203.242 243.109 203.879C243.483 204.515 243.697 205.233 243.73 205.971C243.15 211.771 235.71 218.561 229.59 219.311Z" fill="white"/>
<path d="M232.68 100.499C225.07 92.2693 217.45 84.8793 210.85 76.6793C202.92 66.8293 200.38 55.1794 202.36 42.6794C202.83 39.6794 204.36 38.5294 207.31 39.4294C214.16 41.5594 218.19 46.3694 220.42 53.4294C217.19 53.4294 214.72 53.0794 213.08 50.1794C212.22 48.6694 210.72 47.5094 209.22 45.8794C207.384 50.4301 207.32 55.5036 209.04 60.0993C211.5 67.6194 216.04 73.8894 221.36 79.5994C224.75 83.2294 228.36 86.6794 231.89 90.1594C235.76 93.8994 235.87 94.4693 232.68 100.499Z" fill="white"/>
<path d="M52.0004 62.3209C52.1004 65.8509 51.4304 68.4609 48.3504 70.0209C46.7948 70.9636 45.3017 72.0057 43.8804 73.1409C49.1104 75.7909 53.1404 75.2909 57.2204 74.1409C65.3404 71.8609 71.9604 67.1409 78.0704 61.5809C81.6884 58.3413 85.1363 54.9167 88.4004 51.3209C92.5004 46.7509 92.4804 46.6109 98.5604 49.3209C96.3804 51.7909 94.3104 54.2009 92.1704 56.5509C84.1704 65.2709 75.7304 73.3109 64.5204 77.9309C56.6604 81.1709 48.6104 81.5509 40.3704 80.2509C37.7504 79.8309 36.9804 77.8709 38.2104 74.7309C40.7004 68.4609 45.2304 64.3709 52.0004 62.3209Z" fill="white"/>
<path d="M253.871 176.58C253.111 176.02 251.991 175.58 251.661 174.88C250.281 171.75 249.051 168.55 247.941 165.32C246.491 161.1 247.061 159.73 251.831 156.26C253.401 163.26 258.711 169.26 253.761 176.66L253.871 176.58Z" fill="white"/>
<path d="M61.4613 54.9707C60.6313 60.1607 60.3113 65.0307 58.8913 69.5907C58.3613 71.3107 55.4013 72.3007 53.5513 73.5907C53.1313 72.8007 52.2713 71.9607 52.3713 71.2307C52.7513 68.2307 53.3713 65.3207 53.9913 62.3907C55.0313 57.3007 55.5013 56.8307 61.4613 54.9707Z" fill="white"/>
<path d="M255.43 117.47C251.67 114.32 247.6 111.47 244.31 107.89C243.07 106.54 243.65 103.53 243.4 101.28C244.24 101.28 245.4 100.84 245.85 101.28C249.07 103.96 252.55 106.49 255.11 109.73C256.47 111.45 256.17 114.47 256.61 116.91L255.43 117.47Z" fill="white"/>
<path d="M229 208.57C228.81 214.07 228.09 219.22 225.8 223.89C225.05 225.42 222.58 226.11 220.9 227.18L219.99 226.82C220.54 223.13 221.31 219.46 221.58 215.75C221.91 211.41 224.18 209.28 229 208.57Z" fill="white"/>
<path d="M54.9905 219.1C59.6005 219.95 64.2905 220.52 68.8105 221.73C71.7005 222.5 72.2505 225.42 72.9905 227.88L72.4605 228.88C67.2405 227.58 61.9305 226.54 56.8705 224.79C55.6005 224.35 55.1405 221.61 54.3105 219.93L54.9905 219.1Z" fill="white"/>
<path d="M29.1111 105.979C30.7911 110.329 32.6411 114.629 34.1111 119.049C35.2511 122.469 32.2611 124.049 30.0611 126.789C28.3111 121.449 26.3511 116.709 25.3611 111.789C25.0111 110.029 27.0011 107.789 27.9211 105.789L29.1111 105.979Z" fill="white"/>
<path d="M227 62.6606C223.18 62.0406 219.8 61.4606 216.4 60.9606C210.4 60.0906 210.25 59.9606 209.4 53.3906C214.4 54.3906 219.24 55.0906 223.99 56.2806C226.96 57.0206 227.03 59.7106 227 62.6606Z" fill="white"/>
<path d="M26.6699 165.561C30.5899 168.711 34.6099 171.731 38.3799 175.041C41.0899 177.421 38.2899 179.651 37.8299 182.951C33.6199 179.191 29.6399 176.211 26.4899 172.531C25.2999 171.151 26.0099 168.151 25.8499 165.891L26.6699 165.561Z" fill="white"/>
<path d="M153.65 30.6605C158.58 29.0205 162.87 27.0805 167.36 26.3205C169.53 25.9505 172.08 27.7705 174.46 28.6105L174.31 29.8805C169.6 31.6005 164.95 33.4905 160.17 34.9805C156.87 36.0005 155.84 32.9305 153.65 30.6605Z" fill="white"/>
<path d="M92.6699 87.2006C100.97 73.6106 125.2 70.2706 138.22 80.9706L134.83 85.5106C124.26 81.2706 113.72 78.9806 103.5 87.0506L117.5 101.951L111.85 106.951L92.6699 87.2006Z" fill="white"/>
<path d="M194.831 103.73L180.751 119.59L176.051 113.74L196.051 94.5801C209.171 103.67 212.801 124.69 200.831 138.89C196.671 137.04 196.471 136.38 197.491 132.06C198.518 128.018 199.28 123.912 199.771 119.77C200.411 113.74 198.751 108.98 194.831 103.73Z" fill="white"/>
<path d="M188.55 86.7301L158.99 117.95L154.18 112.59L177.92 87.3701C176.2 84.7001 172.87 83.6701 169.37 82.9201C168.42 82.7101 167.46 82.6001 166.5 82.4201C160.77 81.4201 160.77 81.4201 159.5 75.5001C166.31 72.3101 182.14 78.3401 188.55 86.7301Z" fill="white"/>
<path d="M105.661 171.169L85.9609 189.239C74.9609 184.719 69.1309 157.689 80.3209 144.539C80.9814 145.199 81.6792 145.82 82.4109 146.399C84.4109 147.889 84.7109 149.479 83.6809 151.889C81.0509 158.049 79.8709 164.519 82.0609 171.039C83.0609 173.869 84.9609 176.379 86.6909 179.449L101.411 165.779L105.661 171.169Z" fill="white"/>
<path d="M164.59 158.73L169.44 154.73C174.59 159.73 179.63 164.54 184.61 169.43C187.38 172.15 189.97 175.06 192.79 177.72C195.09 179.88 196.49 179.61 197.61 176.72C198.618 174.359 199.291 171.868 199.61 169.32C200.16 163.2 200.28 162.81 206.52 160.53C208.27 164.98 207.16 169.36 206.16 173.65C204.85 179.27 202.65 184.52 198.03 188.32C197.29 188.92 195.32 189.32 194.88 188.82C185.05 178.69 175.35 168.42 165.63 158.18L164.59 158.73Z" fill="white"/>
<path d="M122.531 165.41L128.171 170.66L111.751 186.86C109.521 189.06 107.251 191.21 105.061 193.45C102.381 196.19 102.571 197.37 106.281 198.72C109.786 200.073 113.394 201.14 117.071 201.91C120.731 202.59 122.651 204.28 122.681 208C112.841 210.18 97.6813 204.32 93.1113 196.45C102.831 186.2 112.601 175.9 122.531 165.41Z" fill="white"/>
<path d="M86.8609 93.0508L117.311 124.421L112.951 128.111C104.171 119.681 95.5609 111.401 86.7709 102.941C83.895 107.194 82.0276 112.047 81.3109 117.131C81.0009 119.821 80.1909 122.061 76.9809 122.741C75.1009 123.151 74.3309 122.741 74.2209 120.901C73.5609 109.511 78.3109 100.581 86.8609 93.0508Z" fill="white"/>
<path d="M179.361 195.969L164.141 182.489C165.811 180.649 167.331 178.989 169.141 177.039L188.141 197.469C179.711 210.099 157.641 212.129 144.311 202.659C144.751 201.959 145.231 201.269 145.651 200.539C146.891 198.339 148.251 197.849 150.841 199.009C159.941 203.109 168.981 203.199 177.591 197.469C178.207 197.001 178.798 196.5 179.361 195.969Z" fill="white"/>
<path d="M94.0307 124.15C92.3607 127.15 90.4607 129.25 87.0307 129.51C78.9007 130.1 74.1007 135.51 74.1407 143.51C74.1407 146.98 73.5707 150.45 73.2307 154.21C66.9807 150.71 65.2307 139.94 69.2307 132.35C73.5407 123.9 84.7807 120.07 94.0307 124.15Z" fill="white"/>
<path d="M209.86 130.781C215.66 137.081 216.06 145.221 211.03 152.391C208.527 156.013 204.853 158.663 200.626 159.894C196.399 161.125 191.877 160.863 187.82 159.151C188.37 155.801 189.17 155.031 192.29 154.491C194.72 154.071 197.29 153.891 199.5 152.951C205.82 150.281 207.86 146.101 206.6 139.231C205.97 135.731 207.21 133.021 209.86 130.781Z" fill="white"/>
<path d="M128.43 74.2411C131.07 71.0508 134.767 68.9123 138.849 68.2134C142.931 67.5144 147.128 68.3012 150.68 70.4311C157.39 74.6911 162.37 86.2811 158.23 93.9111C153.42 92.8411 152.28 91.3311 152.78 86.6411C153.45 80.2411 149.98 76.1911 143.44 75.7411C139.24 75.4511 135.04 75.1811 130.84 74.8511C130.021 74.7153 129.215 74.5112 128.43 74.2411Z" fill="white"/>
<path d="M152.471 210.66C145.471 215.66 134.731 215.47 128.331 210.47C122.821 206.16 120.421 195.11 123.851 188.08C126.801 190.17 129.271 192.08 128.771 196.5C128.061 202.69 135.281 208.33 142.651 207.94C147.391 207.72 148.751 208.09 152.471 210.66Z" fill="white"/>
<path d="M146.311 141.59L167.311 122.66L170.671 126.83L157.511 141.54L160.561 146L156.311 150.66L146.311 141.59Z" fill="white"/>
<path d="M160.55 167.661L156.07 172.471L141.07 158.531L136.49 161.761L132.08 156.761L139.54 148.311L160.55 167.661Z" fill="white"/>
<path d="M114.57 160.901L109.57 156.411L125.15 141.721C123.68 140.361 122.36 139.151 120.81 137.721C122.16 136.131 123.45 134.621 124.87 132.971L133.66 142.201L113.98 159.971L114.57 160.901Z" fill="white"/>
<path d="M141.751 125.781L145.921 122.081L149.751 127.641L141.961 134.411L122.021 115.411L126.231 111.311C131.305 116.057 136.478 120.881 141.751 125.781Z" fill="white"/>
<path d="M138.61 102.16L133.9 106.58C125.44 101.41 120.57 91.8998 122.73 84.3398C123.73 84.5098 124.73 84.7298 125.73 84.8498C127.96 85.1298 129.14 85.8498 129.56 88.5298C130.48 94.1698 134.05 98.4198 138.61 102.16Z" fill="white"/>
<path d="M174.85 134.939C180.05 128.819 185.51 123.789 193.68 123.089C194.78 122.999 196.94 123.819 196.92 124.089C196.76 125.769 196.7 128.179 195.61 128.949C190.79 132.349 185.61 135.319 180.56 138.319C180.183 138.423 179.788 138.442 179.402 138.377C179.017 138.311 178.651 138.162 178.33 137.939C177.111 137.009 175.949 136.007 174.85 134.939Z" fill="white"/>
<path d="M159.66 197.119C154.88 197.999 153.99 197.119 151.85 193.419C149.4 189.129 146.24 185.239 143.16 180.859L147.87 176.609C153.82 182.349 159.31 188.099 159.66 197.119Z" fill="white"/>
<path d="M84.4714 159.779C84.1114 156.319 85.8214 154.439 88.6514 152.779C93.3114 150.129 97.7214 147.059 102.441 144.039C103.331 145.027 104.137 146.087 104.851 147.209C105.026 147.556 105.118 147.94 105.118 148.329C105.118 148.718 105.026 149.102 104.851 149.449C99.8514 155.389 93.9714 159.929 85.6714 160.009C85.2646 159.974 84.8625 159.897 84.4714 159.779Z" fill="white"/>
<path d="M142.9 116.961L148.48 110.811L160.68 123.871L155.63 128.551L142.9 116.961Z" fill="white"/>
<path d="M89.8913 150.23C86.3813 146.43 83.0013 142.81 79.6813 139.14C78.2213 137.52 77.6013 135.71 79.6813 134.14C81.7613 132.57 83.7913 131.93 85.6813 134.31C88.6813 138.12 91.6113 141.98 94.7613 146.06L89.8913 150.23Z" fill="white"/>
<path d="M136.911 183.66L131.551 178.43L144.711 166.01L148.961 170.74L136.911 183.66Z" fill="white"/>
<path d="M101.051 121.66L106.561 127.43L92.8705 139.15L88.8105 135.46C92.9505 130.77 96.9305 126.29 101.051 121.66Z" fill="white"/>
<path d="M145.401 187.23L149.501 193.23C145.671 196.36 142.051 199.23 138.501 202.23C136.691 203.78 135.031 203.35 133.681 201.92C133.334 201.609 133.063 201.223 132.886 200.792C132.709 200.361 132.632 199.896 132.66 199.431C132.688 198.966 132.82 198.513 133.047 198.106C133.274 197.699 133.59 197.349 133.971 197.08C137.631 193.86 141.311 190.74 145.401 187.23Z" fill="white"/>
<path d="M111.761 172.66L99.0605 158.83L104.061 154.48L116.521 168.66L111.761 172.66Z" fill="white"/>
<path d="M116.4 146.321L112.22 150.941L99.5996 137.661L104.24 132.711L116.4 146.321Z" fill="white"/>
<path d="M192.711 148.181L179.981 161.661L174.701 156.901L188.221 144.471L192.711 148.181Z" fill="white"/>
<path d="M120.031 159.101L125.311 154.561L137.801 168.421L134.181 172.421L120.031 159.101Z" fill="white"/>
<path d="M142.551 94.3006L147.311 90.3906L160.661 101.961L155.811 106.401L142.551 94.3006Z" fill="white"/>
<path d="M114.95 117.981L111.17 113.241L123.17 99.5508L127.67 104.421L114.95 117.981Z" fill="white"/>
<path d="M153.711 178.66L167.361 166.43L170.711 170.43L158.131 183.57L153.711 178.66Z" fill="white"/>
<path d="M164.951 115.749C169.791 111.099 168.951 112.009 172.571 115.219C175.761 118.079 178.911 120.999 182.161 123.969L177.671 129.059L164.951 115.749Z" fill="white"/>
<path d="M190.251 133.211L202.961 146.601C202.811 147.091 202.811 147.231 202.741 147.281C197.901 150.991 197.901 150.981 194.061 146.411C191.591 143.461 189.061 140.531 186.521 137.491L190.251 133.211Z" fill="white"/>
<path d="M132.311 111.891L144.581 100.281L148.881 103.821L136.991 116.241L132.311 111.891Z" fill="white"/>
<path d="M164.43 136.961L168.68 133.141C172.93 137.681 177.04 142.071 181.37 146.681L178.57 149.681L164.43 136.961Z" fill="white"/>
<path d="M167.311 143.66L171.211 147.47L156.731 160.01L157.731 161.18L153.781 157.91C158.311 153.09 162.761 148.46 167.311 143.66Z" fill="white"/>
<path d="M137.851 190.78C136.851 191.73 135.851 192.61 134.721 193.7L121.311 181.43L125.221 176.74L137.851 190.78Z" fill="white"/>
<path d="M113.96 138.601L110.83 135.831L123.83 122.561L126.41 125.561L113.96 138.601Z" fill="white"/>
</svg>
