<?xml version="1.0" encoding="utf-8"?>
<svg xmlns="http://www.w3.org/2000/svg" viewBox="0 0 1256.7 479.26">
  <g id="Layer_2" data-name="Layer 2">
    <g id="Layer_1-2" data-name="Layer 1">
      <path d="M106.66,109.17c12,9.4,13.22,13.81,15,26.74L124,151.48c1.76,8.23,1.76,11.46,4.4,20.57,3.24,9.7,5.59,10.87,16.16,12,3.24,1.76,2.06,2.94,1.47,5.58-.29.88-2.64,5-3.52,6.47-2.94,5.58-5,8.81-9.4,11.75-5,2.94-11.46,4.41-17.05,1.47-11.46-5.88-24.38-37.91-26.44-53.19v-4.4c-.59-11.46,0-12.64-2.06-17.63C84.92,128,77,118.28,73.46,115.93c-3.23-2.06-11.17-2.64-17-.29-5,2.35-5,2.35-5.59,7.34,0,.88,4.12,14.11,4.12,16.75-.3.88-.3,2.94-.59,4.11l-.88,4.7c-.3.59-.3,2.94-1.18,4.12-.88,1.76-2.64,2.06-3.82,3.52V158l5.88,1.47c0,1.47,0,19.68,2.06,25.85,2.64,7.06,3.23,6.17,9.4,10.29,2.94,2.05,4.41,2.64,6.46,4.41,2.94,2.05,4.12,3.52,3.23,7.05H62.29c-1.76.58-2.35.29-7,.29a5.79,5.79,0,0,0-3.23.59c-1.77,0-2.35-1.47-3.82-.88h-22c-13.81,1.47-12.34,3.52-26.15,0V202.9c1.18-4.7,4.41-4.4,7.64-6.75,3.53-2.94,5.58-5.29,6.76-8.53C15,186.45,17,170.88,17,169.7v-4.11l-.59-10.29v-8.81c0-2.06,1.18-4.41,1.18-6.76V63.33c-.29-5.58.88-10.28-.59-23.8,0-2.05-.29-4.11-.29-6.17a12.86,12.86,0,0,1-1.18-6.17c-.58-2.05-.58-2.64-4.4-5.58L5.29,17.79C2.94,14.85,4.41,9,4.7,5.74l1.47-.58H7.35l1.17-.3a10.62,10.62,0,0,0,4.11-.59c2.65,0,5.59-.29,8.23-.29,1.77,0,4.41,0,8.52.29,4.12.59,3.82,1.18,8.52,1.18h6.76c19.4-2.06,59.94-.29,79.63,18.8,14.4,14.4,21.45,35.56,17.63,49.66-1.18,3.53-6.46,12.34-14.4,21.16A40.43,40.43,0,0,1,117.24,103c-2.06,1.18-7.64.59-10.58,4.7ZM55,59.81V65.1c.29,4.7-1.77,23.21,4.11,27.91,4.7,3.82,20.86,2.94,26.74,1.18A22.76,22.76,0,0,0,99,85.08c2.65-2.65,3.23-6.17,3.53-6.76a73.6,73.6,0,0,0,4.4-7c2.06-5.88-1.17-7.64-2.64-13.81-1.76-7.35,1.47-6.76-2.06-14.4-2-4.11-10.87-14.4-13.81-16.75s-10.58-3.82-17.33-5c-5.29-.89-7.35-2.06-12,2.93-3.82,4.41-4.11,8.53-5.88,17.93-.88,3.23-.88,5.58-2,8.81-.89,3.53-5,5.88-2.06,8.82Z" style="fill: rgb(245, 245, 245);"/>
      <path d="M212.14,5.74l3.53.88c2.35,0,5.29.89,7.93.89a7.48,7.48,0,0,1,3.82-.59,28.16,28.16,0,0,1,3.82-1.18c2.06,0,5.29-.88,7.94-.88C250.05,4,259.16,6.62,270,7.8L272.09,9c12.92-2.06,20-5,29.08,5.28,3.24,3.53,3.82,10.88,4.41,17.63.59,5.59.59,7.64.3,8.53,0,2.64,0,6.75-5.29,8.52h-1.47c-9.7-11.76-5-12-20.28-20-9.11-5-15-9.7-25-8.53,0,.3-5,2.65-5.88,2.65a11.69,11.69,0,0,1-6.17-2.94c-3.82-1.76-7.34-3.23-12.34-2.94-4.11.3-9.4.59-11.46,5.88-1.17,2.94,1.76,16.75,1.47,20,0,2.64.29,2.06-.29,5-1.18,3.24-1.47,2.06-1.47,5.29a28.36,28.36,0,0,0-1.47,10L218.31,68c.89,4.11-1.76,21.74,3.53,26.15,1.18.88,9.4,3.23,10.87,2.64,2.35-1.47,8.82-4.11,11.46-4.11l4.41-2.94c.59-1.76,1.17-2.06,3.53-4.11a15.78,15.78,0,0,1,6.17-8.82c2.64,0,7.34-1.47,9.1,4.41.3.88,1.18,3.23.89,8.81,0,1.47.88,4.12-2.65,9.11v4.7c2.06,3.53,2.06,2.35,2.06,6.47,0,2.35-.3,4.7-.3,6.76,0,1.46.3,12.34-.58,13.81-1.18,1.46-3.24,2.64-6.47,2.35-1.47-.89-1.76-.59-2.94-.59a9.9,9.9,0,0,1-3.23-2.94c-.59-2.06-2-3.53-3.23-6.76-6.17-7-6.76-2.35-13.22-5a31.1,31.1,0,0,1-6.76-4.7,15.46,15.46,0,0,1-6.76-2.94c-1.76-.59-8.23.29-10,2.05,1.18,10.88,2.35,9.41,2.65,16.75v8.52c-2.06,3.24-2.06,3.82-2.06,8.52v9.41c1.17,8.22-2.06,26.74,6.17,35.26,4.11,3.82,16.75,7,22.62,5.58h1.18l1.17-.88,1.18-.3,1.18-.29c2.05-2.06,2.35-2.35,5-2.35H263c5.87-4.41,7.64-5.88,9.4-7.93,4.11-2.35,4.7-4.7,6.46-10,1.77-2.94,3.53-7.06,5.59-10.29,3.23-3.82,6.46-3.82,10.28-5l3.23,2.05v8.23c0,9.11-.88,10.29-.29,17V203.2c-1.18,2.94-.29,2.64-3.82,5.29-5.88.88-8.52,1.47-12.05,1.17-1.17,0-10.58-2.64-12.34-2.64H265c-5,0-7.64,1.76-15.28,1.76h-9.1l-1.47.88h-3.53l-1.76-1.17a10.25,10.25,0,0,1-6.76.29L203,207.31c-.59,0-2.06-.29-3.24-.29h-1.47l-1.76,1.47h-4.11c-16.75.29-17.34.58-34.38-2.94v-5c22.92-14.39,20.86-20,21.74-44.07V138.26c0-1.17,0-7.93.59-9.4V118.57c0-3.52.29-2.93,1.76-6.17L180.41,93a68.2,68.2,0,0,1,.29-9.11l1.47-8.81,3.53-13.23c.29-2.64-2.06-15-2.35-18.21-1.18-7.94-.88-12.34-6.47-18.51-3.82-2.94-5-5.88-9.4-7.64C164,14.85,161,11.33,161,8.09a5.27,5.27,0,0,1,2.64-1.76c1.77-.88,1.47,0,2.94-1.17,3.53-.89,2.65,0,6.17-.3C174.53,4,176.3,4,178.65,4a7.19,7.19,0,0,1,3.23.88,4.2,4.2,0,0,1,2.94.59h5.88a15.75,15.75,0,0,1,6.17,2.64c5.87,1.77,5.87,0,11.45-2.35Z" style="fill: rgb(245, 245, 245);"/>
      <path d="M501.27,187.62c1.76,0,5.29-.29,7.05-1.76,4.41-4.41,2.06-3.23,6.17-5,5.88-3.24,10-4.7,13.52-2.94,10.58,5.58,8.81,22.92,7.93,32-1.17,2-6.46,5-8.52,5-2.06.59-4.41.88-9.11.88H509.2c-5.58.3-7.05.3-9.4,0l-5.88-1.76c-4.7-.88-20.27-4.11-26.73-4.11l-20.28,1.46c-27,1.18-64.64-2.35-89-35-.59-1.47-2.64-2.94-5.29-7.05-.59-1.77-3.52-5.29-5.29-6.76-.58-1.18-2.05-3.53-4.11-7.05l-2.94-7.35c-9.4-16.45-14.1-11.46-17-28.79-1.76-10.29-5.29-53.78,17.33-79.93,22.92-27.62,48.78-37.31,80.81-37.31h9.11c3.23,0,7.34.58,10.57-.59,4.71-1.47,5-2.64,10.88-.29,4.11,1.17,17.63,8.52,21.45,10.28l10.57,4.11C497.74,21,512.14,36.6,521.84,48.35s7.93,27.91,8.81,42.9v9.11c.3,4.4.59,26.74,0,32-.58,9.7-1.17,5.59-5.87,16.16-1.47,3.24-4.12,12.35-7.64,15.58-5,4.7-6.17,2.94-11.17,4.11-5.88,1.18-5.88,1.47-10.87,6.76-3.23,3.23-6.76,7.35-7.93,9.7-1.47,2.35-3.53,7.64-.59,10C493,191.15,492.46,191.74,501.27,187.62ZM451.91,22.49c-2.06-1.17-2.06-2.35-2.65-3.82-1.47-2.06-1.76-2.35-3.52-3.23-.89-.88-7.35-2.64-7.94-2.64-3.82-2.65-4.11-2.94-7.05-2.06-2.06.59-2.94,1.47-3.23,2.06l-2.06.58H424c-1.17.59-6.46.3-7.05.3a29.52,29.52,0,0,0-6.76,2.05c-5,1.77-7.05,3.53-7.64,4.12-3.23,3.23-2.64,3.82-6.46,6.46-7.64,5.88-6.76,2.35-13.81,10.87-7,7.94-8.52,14.11-15,28.21L362,68.92v5l2.06,2.94V95.36c0,2.65-.88,5.58-.88,8.23v8.23c0,1.47-1.76,10-1.76,11.16l4.11,2.65c1.76,7.93,2.06,12.34,4.11,20a26.17,26.17,0,0,0,5,9.69c1.47,1.47,3.23,3.53,4.41,4.7a11.07,11.07,0,0,0,1.17,4.71c4.7,10,9.4,10,17.93,15.86,7.34,5.59,12.63,12.05,20.27,14.11,14.1,3.52,35.26-2.06,50.24-15.28,2.94-2.65,16.17-27,17.63-30.27,4.41-8.81,3.82-24.38,6.47-30.85l4.11-6.46c2.65-6.47-3.52-13.81-5-20.28-1.77-7.93-2.35-19.1-2.65-20.27-.29-1.77-1.17-4.7-3.52-10.58-1.18-2.94-2.94-7.35-6.47-10-6.76-6.46-.29-3.82-4.11-10.58-4.7-3.23-7.05-1.76-10.29-5.29,0-3.52-2.35-5.29-5-7.64C458.08,26,453.08,23.08,451.91,22.49Z" style="fill: rgb(245, 245, 245);"/>
      <path d="M631.44,15.44c0,.59-.59,4.41-2.06,6.17-1.18.59-8.52,1.18-10,1.18-6.76,2.35-5,3.23-7.93,7.93h-7.35a9.84,9.84,0,0,0-.59,9.4c0,.59.59,9.11.59,10.29-1.47,1.46-1.76,5.28-1.76,6.75-1.18,2.94-3.23,3.24-3.23,6.76,4.11,5.58,3.82,3.53,3.82,9.11.29,2.06.29,6.47.58,9.11v5.29c0,1.76-.88,4.7-.88,7a55.3,55.3,0,0,0-.29,7.64v6.46c0,.59-.3,3.53.29,4.71a29.46,29.46,0,0,0,.3,5.28V123c-.3,25.27-5.29,40.55,23.21,62.59,12.34,9.69,51.71,7.34,59.35,4.11,12-5.29,19.39-18.22,19.69-29.68,0-1.17-.88-12.92-.3-14.39a7.78,7.78,0,0,1,2.35-3.53l1.47-3.82a46.6,46.6,0,0,0,1.47-7.34c.59-5.59.3-16.17-2.35-29.68V96c-.88-10-.29-10.28.88-20.27.89-7.35-2.05-11.76-2.35-20V45.41c-2.05-11.46-.29-7-9.69-17l-2.35-2.06L692.85,24c-.3-.29-.88-2.94-3.53-3.82-1.76-.59-7.34-2.64-8.52-4.7l1.47-7h7.64c10.28-.88,17.33-2.35,27.33-1.77l3.52,2.94c12.64-.88,11.17-3.23,29.68-1.17,0,3.52.59,7,.59,10.58-20.28,14.69-20.87,18.51-22.63,36.72-.88,6.47-.29,14.7-.88,19.4l-1.47,9.69c0,3.24.29,6.47.29,9.7v10.28c.59,7.06,1.77,10.58,2.06,15.87v10.29c0,2.64-.88,5.28-.88,8.22,0,2.35.29,5.58.29,8.52v7.64c-4.7,27.62-.29,28.21-33.79,47.6-18.8,10.88-77.27,12.93-96.37,3.24-27.62-14.11-25-30.86-27-51.13l-5-47.31a44.22,44.22,0,0,1-.29-10.58c.29-4.11,1.17-6.17.88-10.87V71.56c0-4.41.29-7.93,1.76-11.16.29-2.36.29-8.53.29-11.17C568,41,564.74,29,562.09,26.31c-2.35-2.94-4.7-2.06-8.22-3.82-2.36-1.17-6.47-3.82-6.47-6.76-1.47-4.11-.88-6.46.59-7.93,1.17-1.47,25.56-2.06,27-2.06h22.33c15.28.88,15.58,5.59,31.44,3.82C631.14,11.91,631.44,12.5,631.44,15.44Z" style="fill: rgb(245, 245, 245);"/>
      <path d="M819.78,49.52v94.91c0,2.06.88,15.28.88,15.87v12.63c.88,12,1.76,17.93,13.52,30.56v3.23A131.27,131.27,0,0,1,808,207H801a23.56,23.56,0,0,0-6.17,1.47c-1.47,0-4.11.29-6.46.29-2.06.29-5,.29-12.34-.29-.3-.3-5-3.24-5.58-4.41a7,7,0,0,1-.89-6.17c5.59-4.12,5.29-5.58,9.7-10.29,4.41-5.28,5-5.58,5.88-11.16,0-.29,1.47-22,1.47-22.63v-14.1c0-2.06.29-4.41.29-6.76v-7L785.4,107.7V99.77c0-2.65-.29-5.58-.29-8.23l1.47-22.62c-.59-8.52.58-37.91-9.7-46.13-3.53-2.65-12-3.24-12-9.7-.29-3.82.59-3.53,4.12-5.58,10.57-7.06,22.33.88,33.49,0l9.41-2.35a39.46,39.46,0,0,1,10.28,0c1.18.58,8.52,1.17,9.7,1.17,5.29,1.47,5.29,3.53,5.29,8.23C818.9,35.13,819.19,29,819.78,49.52Z" style="fill: rgb(245, 245, 245);"/>
      <path d="M904.69,5.74l3.53.88c2.35,0,5.29.89,7.93.89A7.48,7.48,0,0,1,920,6.92a28.16,28.16,0,0,1,3.82-1.18c2.06,0,5.29-.88,7.94-.88,10.87-.88,20,1.76,30.85,2.94l2,1.18c12.93-2.06,20-5,29.09,5.28,3.24,3.53,3.82,10.88,4.41,17.63.59,5.59.59,7.64.3,8.53,0,2.64,0,6.75-5.29,8.52h-1.47c-9.7-11.76-5-12-20.28-20-9.11-5-15-9.7-25-8.53,0,.3-5,2.65-5.88,2.65a11.69,11.69,0,0,1-6.17-2.94C930.55,18.38,927,16.91,922,17.2c-4.11.3-9.4.59-11.46,5.88-1.17,2.94,1.76,16.75,1.47,20,0,2.64.29,2.06-.29,5-1.18,3.24-1.47,2.06-1.47,5.29a28.36,28.36,0,0,0-1.47,10L910.86,68c.89,4.11-1.76,21.74,3.53,26.15,1.17.88,9.4,3.23,10.87,2.64,2.35-1.47,8.82-4.11,11.46-4.11l4.41-2.94c.59-1.76,1.17-2.06,3.52-4.11a15.85,15.85,0,0,1,6.18-8.82c2.64,0,7.34-1.47,9.1,4.41.3.88,1.18,3.23.88,8.81,0,1.47.89,4.12-2.64,9.11v4.7c2.06,3.53,2.06,2.35,2.06,6.47,0,2.35-.3,4.7-.3,6.76,0,1.46.3,12.34-.58,13.81-1.18,1.46-3.24,2.64-6.47,2.35-1.47-.89-1.76-.59-2.94-.59a9.9,9.9,0,0,1-3.23-2.94c-.59-2.06-2.06-3.53-3.23-6.76-6.17-7-6.76-2.35-13.22-5a31.1,31.1,0,0,1-6.76-4.7,15.46,15.46,0,0,1-6.76-2.94c-1.76-.59-8.23.29-10,2.05,1.18,10.88,2.35,9.41,2.65,16.75v8.52c-2.06,3.24-2.06,3.82-2.06,8.52v9.41c1.17,8.22-2.06,26.74,6.17,35.26,4.11,3.82,16.75,7,22.62,5.58h1.18l1.17-.88,1.18-.3,1.18-.29c2-2.06,2.35-2.35,5-2.35h9.7c5.87-4.41,7.64-5.88,9.4-7.93,4.11-2.35,4.7-4.7,6.46-10,1.77-2.94,3.53-7.06,5.59-10.29,3.23-3.82,6.46-3.82,10.28-5l3.23,2.05v8.23c0,9.11-.88,10.29-.29,17V203.2c-1.18,2.94-.3,2.64-3.82,5.29-5.88.88-8.52,1.47-12,1.17-1.17,0-10.58-2.64-12.34-2.64h-4.41c-5,0-7.64,1.76-15.28,1.76h-9.1l-1.47.88H928.2l-1.76-1.17a10.25,10.25,0,0,1-6.76.29l-24.09-1.47c-.59,0-2.06-.29-3.24-.29h-1.47l-1.76,1.47H885c-16.75.29-17.34.58-34.38-2.94v-5c22.92-14.39,20.86-20,21.74-44.07V138.26c0-1.17,0-7.93.59-9.4V118.57c0-3.52.29-2.93,1.76-6.17L873,93a68.2,68.2,0,0,1,.29-9.11l1.47-8.81,3.53-13.23c.29-2.64-2.06-15-2.35-18.21-1.18-7.94-.88-12.34-6.47-18.51-3.82-2.94-5-5.88-9.4-7.64-3.52-2.65-6.46-6.17-6.46-9.41a5.27,5.27,0,0,1,2.64-1.76c1.77-.88,1.47,0,2.94-1.17,3.53-.89,2.64,0,6.17-.3C867.08,4,868.85,4,871.2,4a7.19,7.19,0,0,1,3.23.88,4.21,4.21,0,0,1,2.94.59h5.87a15.63,15.63,0,0,1,6.17,2.64c5.88,1.77,5.88,0,11.46-2.35Z" style="fill: rgb(245, 245, 245);"/>
      <path d="M1074.52,4.27l7.94,2.06c2,12.93-3.82,20-.3,26.15,1.18,2.94,2.35,3.23,5.88,5.88,2.94,3.23,2.06,3.53,3.82,6.76,1.18,1.17,1.18,1.76,2.06,3.23l.88,1.17,1.17,2.06a49.23,49.23,0,0,1,3.82,6.76c5.88,11.16,3.53,16.16,15.58,25,1.17,7.63,5.87,16.45,8.52,24.09l2,5.58c.59,2.35,5,26.74,16.75,30.85,2.35.88,10,.59,11.76-.88,6.17-4.4,2.94-7.64,3.82-12.63.29-1.18,1.17-4.12,4.7-12.64l2.94-7.93c1.46-5,1.76-4.41,1.76-9.4l1.76-7.64c.88-5.88,1.47-9.7,3.53-14.11a19.31,19.31,0,0,1,4.7-7c1.17-1.76,1.47-4.7,2.94-7l11.75-23.21c2.06-5,4.7-15.87,6.47-21.45l2-6.76c1.47-3.53,1.77-6.17,4.41-8.82h24.39l6.76,1.18a25,25,0,0,0,7,2.06c4.11.29,9.4-2.65,12.63,3.52,1.18,2.35.59,7.35-1.76,10.29a35.42,35.42,0,0,0-4.41,2.64c-.88,1.18-1.47,2.94-3.82,3.82-1.47,1.76-2.64,4.41-3.82,9.4-1.76,10.29,0,8.23,0,19.1v5.58c0,2.36,0,2.65-1.47,6.18,0,1.76-.29,4.4-.29,6.46v6.17c0,.59-.29,5.29-.88,6.47V99.77c0,6.46-.88,10-.59,11.75,0,0,1.47,5.29,1.47,5.59a22.71,22.71,0,0,1,1.17,6.17v4.11c-11.46,22.92,2.35,28.5-1.17,55.83,2.64,3.82,2.64,3.23,7,7.93,1.76,2.64,1.47,1.47,3.53,2.94l1.17,1.47.88,1.17.3,1.18v2.64c-.88,1.47-3.82,2.65-5.88,2.65h-10.87c-5,.88-2.94,1.47-8.23,3.82h-21.74l-13.81.29c-3.53-2.06-3.23-8.23-2.65-10.58,2.35-6.76,4.12-3.23,8.82-8.52,3.82-4.4,5.29-10.87,4.11-17.33-2-10.29-2.64-7.06-1.17-17.34l2.35-14.4c.88-5.87-.3-7.34.29-17.92V101.83c0-.59-.29-2.36-.29-3.53,1.17-1.47.29-1.18,1.17-3.23.88-3.23-.29-3.82,1.18-7.35V83.61c-1.18-3.23,0-5,0-8.23v-4.7c.59-6.17,1.47-3.53,1.76-10,.3-.88,1.18-7.64-3.23-9.7-3.23,1.18-2.64,2.06-4.7,5.29-1.47,3.53-.88,3.23-1.76,6.47a6.3,6.3,0,0,0-.59,3.23,6.83,6.83,0,0,0-1.77,3.23,21.37,21.37,0,0,0-1.46,3.53V76c-2.06,7.35-2.65,4.7-7.35,12.93-1.18,2.64-3.23,10.28-4.11,13.22l-2.94,9.4-2.35,3.82s0,1.47-1.77,3.82c-.88,2.94-2,4.41-3.52,7.94l-12,22.91c-.29,1.18-5.58,12.93-7.34,18.22l-3.24,10.58a47.92,47.92,0,0,0-3.52,6.76l-.88,1.17-1.47,1.77a11.42,11.42,0,0,0-2.06,3.82c-1.47,2.93-2.06,5-2.94,7a8.24,8.24,0,0,1-3.52,6.76c-8.82-13.81-14.4-20.87-17.63-36.44l2.35-2.94c0-1.76,0-2-3.24-5.29,0,0-5-4.11-5.58-4.7-2.64-1.76-3.82-3.23-3.82-5.58,0-3.53.59-2.35-.88-6.17-.29,0-2.64-2.65-5-4.41-3.23-3.23-4.4-4.7-5.28-6.17a38.43,38.43,0,0,1-5.59-12l-3.52-11.16c-2.94-7.35-5.59-9.7-12-20.86l-7-11.17c-3.23-4.11-2.94-6.46-4.41-11.16-1.17-3.53-2.35-5-7-10.58-2.65,2-2.65,7.05-2.06,9.11,1.18,5,1.77,5,1.77,10.28,0,2.35.58,7.35.29,9.7,0,2.64-.59,1.76-1.47,5-.29,2.94,0,2.35,0,5.29l3.82,53.48c0,1.47.29,3.23.29,4.7v9.4c-.58,6.76-4.11,8.23,0,15.58,2.35,3.82,4.41,3.82,6.76,7.63a29.85,29.85,0,0,0,5.29,7.64c3.53,5,4.11,5,4.11,10.29l-1.76,1.76h-7.93c-2.06,0-5.29-.29-7.94-.29h-37l-1.47-1.77V202c11.75-7.64,14.4-7.93,17-22.62.89-5.29,0-9.41,0-15.28-.29-6.17,0-8.82,1.47-15.28,1.47-8.23,3.24-13.22,3.24-15.57,0-2.06-.59-5-.59-7.64V100.36l-.59-7,1.76-11.17c-1.47-3.53-2.64-4.41-3.82-7.93-1.47-3.53-1.76-3.82,1.18-8.23.88-4.41,2.35-12.05,1.76-16.46a7.45,7.45,0,0,0-2.35-5.58l-3.82-6.17c-.88-2.35-.59-9.4-.59-12.05a15.78,15.78,0,0,0-3.23-3.23c-1.47-.59-1.17,0-3.23-1.47a16.16,16.16,0,0,0-6.76-4.11c-.59-.88-2.35-1.47-3.52-2.65a10.09,10.09,0,0,0-1.47-3.52,12.14,12.14,0,0,1-2.06-6.47c10.58-2.64,8.81-1.17,18.22,0h25.85c1.47,0,4.12,1.18,6.47,1.18h7.93Z" style="fill: rgb(245, 245, 245);"/>
      <path d="M320.57,364.88c13.46,10.51,14.77,15.43,16.74,29.88l2.63,17.4c2,9.2,2,12.81,4.92,23,3.62,10.83,6.24,12.14,18.06,13.46,3.61,2,2.3,3.28,1.64,6.24-.32,1-2.95,5.58-3.94,7.22-3.28,6.24-5.58,9.85-10.5,13.13-5.58,3.29-12.81,4.93-19.05,1.65-12.8-6.57-27.25-42.36-29.55-59.43v-4.93c-.65-12.81,0-14.12-2.3-19.7-3-6.9-11.82-17.73-15.76-20.36-3.61-2.3-12.47-2.95-19-.33-5.58,2.63-5.58,2.63-6.24,8.21,0,1,4.6,15.76,4.6,18.72-.33,1-.33,3.28-.66,4.59l-1,5.26c-.33.65-.33,3.28-1.32,4.59-1,2-2.95,2.3-4.27,3.95v2l6.57,1.64c0,1.64,0,22,2.3,28.89,2.95,7.88,3.61,6.9,10.51,11.49,3.28,2.3,4.92,3,7.22,4.93,3.28,2.3,4.6,3.94,3.61,7.88H271c-2,.65-2.63.33-7.88.33a6.6,6.6,0,0,0-3.62.65c-2,0-2.62-1.64-4.26-1H230.6c-15.43,1.64-13.79,3.94-29.22,0v-4.6c1.31-5.25,4.92-4.92,8.54-7.55,3.94-3.28,6.23-5.91,7.55-9.52.65-1.32,2.95-18.72,2.95-20v-4.6l-.65-11.49v-9.85c0-2.3,1.31-4.93,1.31-7.55V313.66c-.33-6.24,1-11.49-.66-26.6,0-2.3-.33-4.59-.33-6.89a14.45,14.45,0,0,1-1.31-6.9c-.66-2.3-.66-2.95-4.92-6.24l-6.57-4.26c-2.63-3.29-1-9.85-.66-13.47l1.64-.65h1.32l1.31-.33a11.93,11.93,0,0,0,4.6-.66c2.95,0,6.24-.33,9.19-.33,2,0,4.93,0,9.52.33,4.6.66,4.27,1.31,9.52,1.31h7.56c21.67-2.29,67-.32,89,21,16.09,16.09,24,39.73,19.7,55.49-1.32,3.94-7.23,13.79-16.09,23.64A45.39,45.39,0,0,1,332.39,358c-2.3,1.31-8.54.65-11.82,5.25Zm-57.79-55.16v5.91c.33,5.25-2,25.94,4.59,31.19,5.26,4.27,23.32,3.28,29.88,1.31A25.4,25.4,0,0,0,312,338c3-3,3.61-6.9,3.94-7.56.66-1,4.27-6.23,4.92-7.88,2.3-6.56-1.31-8.53-2.95-15.43-2-8.21,1.64-7.55-2.3-16.09-2.3-4.59-12.15-16.09-15.43-18.71s-11.82-4.27-19.37-5.58c-5.91-1-8.21-2.3-13.47,3.28-4.26,4.92-4.59,9.52-6.56,20-1,3.61-1,6.24-2.3,9.85-1,3.94-5.58,6.56-2.3,9.85Z" style="fill: rgb(245, 245, 245);"/>
      <path d="M439.43,249.3l3.94,1c2.62,0,5.91,1,8.86,1a8.45,8.45,0,0,1,4.27-.65c2.3-1,2.3-.66,4.27-1.32,2.3,0,5.91-1,8.86-1,12.15-1,22.33,2,34.48,3.28l2.3,1.32c14.45-2.3,22.33-5.59,32.5,5.91,3.62,3.94,4.27,12.14,4.93,19.7.66,6.23.66,8.53.33,9.52,0,2.95,0,7.55-5.91,9.52h-1.64C525.78,284.44,531,284.11,514,275.24c-10.18-5.58-16.75-10.83-27.91-9.52,0,.33-5.58,3-6.57,3a13,13,0,0,1-6.89-3.29c-4.27-2-8.21-3.61-13.79-3.28-4.6.33-10.51.66-12.81,6.57-1.31,3.28,2,18.71,1.64,22.32,0,3,.33,2.3-.32,5.59-1.32,3.61-1.65,2.29-1.65,5.91A31.8,31.8,0,0,0,444,313.66l2.3,5.25c1,4.6-2,24.3,3.94,29.22,1.32,1,10.51,3.62,12.15,3,2.63-1.64,9.85-4.6,12.81-4.6l4.92-3.28c.66-2,1.31-2.3,3.94-4.6a17.67,17.67,0,0,1,6.9-9.85c2.95,0,8.2-1.64,10.17,4.93.33,1,1.32,3.61,1,9.85,0,1.64,1,4.59-3,10.18V359c2.3,3.94,2.3,2.63,2.3,7.22,0,2.63-.33,5.26-.33,7.56,0,1.64.33,13.79-.65,15.43-1.32,1.64-3.61,2.95-7.23,2.62-1.64-1-2-.65-3.28-.65a11.12,11.12,0,0,1-3.61-3.29c-.66-2.29-2.3-3.94-3.61-7.55-6.9-7.88-7.55-2.62-14.78-5.58a34.76,34.76,0,0,1-7.55-5.25c-1.64,0-6.24-2-7.55-3.29-2-.65-9.2.33-11.17,2.3,1.32,12.15,2.63,10.51,3,18.72v9.52c-2.3,3.61-2.3,4.27-2.3,9.52v10.51c1.31,9.19-2.3,29.88,6.9,39.4,4.59,4.27,18.71,7.88,25.28,6.24h1.31l1.32-1,1.31-.33,1.31-.32c2.3-2.3,2.63-2.63,5.58-2.63h10.84c6.57-4.93,8.54-6.57,10.51-8.87,4.59-2.62,5.25-5.25,7.22-11.16,2-3.28,3.94-7.88,6.24-11.49,3.61-4.27,7.22-4.27,11.49-5.58l3.61,2.3v9.19c0,10.18-1,11.49-.33,19V470c-1.31,3.28-.32,2.95-4.26,5.91-6.57,1-9.53,1.64-13.47,1.31-1.31,0-11.82-2.95-13.79-2.95h-4.92c-5.58,0-8.54,2-17.08,2H471.28l-1.65,1h-3.94l-2-1.31a11.38,11.38,0,0,1-7.55.33l-26.92-1.64c-.66,0-2.3-.33-3.61-.33H424l-2,1.64h-4.59c-18.72.33-19.37.66-38.42-3.28V467c25.61-16.08,23.31-22.32,24.3-49.25V397.39c0-1.32,0-8.87.66-10.51V375.39c0-3.94.32-3.29,2-6.9l-2-21.67a77.12,77.12,0,0,1,.32-10.18l1.65-9.85L409.88,312c.32-3-2.3-16.75-2.63-20.36-1.31-8.87-1-13.79-7.22-20.69-4.27-3.28-5.59-6.56-10.51-8.53-3.94-3-7.22-6.9-7.22-10.51a5.86,5.86,0,0,1,2.95-2c2-1,1.64,0,3.28-1.31,3.94-1,3,0,6.9-.33,2-1,3.94-1,6.57-1a8,8,0,0,1,3.61,1,4.68,4.68,0,0,1,3.28.65h6.57c1.31,0,5.25,1.65,6.89,3,6.57,2,6.57,0,12.81-2.63Z" style="fill: rgb(245, 245, 245);"/>
      <path d="M649.12,254.89c-21.35,19-20.36,22.32-20.69,46.29v8.21c-1,12.15-2.3,15.43-5.58,28.57h4.92v17.4c-.32,2.95-1,15.43-1,19.37,0,2.63.33,6.57.33,9.52l3.61,10.18c.33,2.3-.33,17.07-.66,20-.65,8.87-1.31,16.74-.65,19.37,1,4.6,7.55,14.12,13.46,16.42,3.61,1.31,47.61,4.27,55.82.66,7.88-3,7.88-7.88,11.16-13.79,1-2,2.3-3.29,4.27-7.89.33-1.64.66-6.23,3-7.55a85.72,85.72,0,0,1,11.5-.65l2,2.62-1,7.55v5.59c.66,1.64.66,2.62.66,7.55v19c0,4.93.33,3.94-1,7.55-4.27,4.27-7.22.33-11.82,2.3-4.27,0-8.54,1-12.8,1H693.44c-2-.66-1.64-.33-3.61-.33,0,0-3,.33-3.61.33H665.86c-3.61,0-7.22.33-10.83.33-5.91,0-6.57,0-11.5-.33l-21.34-2c-3.28-.33-14.12,1.64-17.73,2H579.84l-6.57,1a6.24,6.24,0,0,1-6.24-3.61v-5.25c1.64-3,10.51-9.85,12.81-12.48,6.23-6.24,6.23-5.91,7.22-13.46V428.25c.33-2.63.66-3.94,1.31-7.22,1.64-2,1.32-5.26,1.32-6.24,0-3,.32-3.61-1-7.23-2-11.49-3.61-14.44-1.64-28.23V336c0-2.3,1.64-2.3,2.63-4.6v-9.85l.32-9.19c0-1-.65-7.88-1-9.53V289.36c0-5.25,0-12.48-1-15.1-3.94-9.52-5.58-5.58-12.8-11.49-5.91-4.6-3.94-6.57-3.61-12.81,4.27-2.63,6.89-1,9.52-1,1,0,3-.32,4.6-.32S589,249,591,249c10.83,1,12.15,1.65,19.37,1,18.72-2.3,18.06-3.61,38.75-.66Z" style="fill: rgb(245, 245, 245);"/>
      <path d="M826.24,298.23v106c0,2.3,1,17.08,1,17.73v14.12c1,13.46,2,20,15.11,34.15v3.61c-9.52,1.31-22.33,1-29.22.33h-7.88a26.13,26.13,0,0,0-6.9,1.64c-1.64,0-4.6.33-7.22.33-2.3.33-5.59.33-13.79-.33-.33-.33-5.59-3.61-6.24-4.93a7.76,7.76,0,0,1-1-6.89c6.24-4.6,5.91-6.24,10.84-11.49,4.92-5.91,5.58-6.24,6.56-12.48,0-.33,1.65-24.63,1.65-25.28V399c0-2.3.32-4.93.32-7.55V383.6l-1.64-20.36v-8.87c0-2.95-.33-6.24-.33-9.19l1.65-25.28c-.66-9.53.65-42.36-10.84-51.55-3.94-3-13.46-3.61-13.46-10.84-.33-4.27.66-3.94,4.6-6.24,11.82-7.88,24.95,1,37.43,0l10.5-2.62a44.39,44.39,0,0,1,11.5,0c1.31.65,9.52,1.31,10.83,1.31,5.91,1.64,5.91,3.94,5.91,9.19C825.25,282.14,825.58,275.24,826.24,298.23Z" style="fill: rgb(245, 245, 245);"/>
      <path d="M1059.66,312c-3,2.62-4.59,2-7.55,2-2.3-.66-4.59-2-7.55-6.24-1-2.3-2.3-6.24-4.27-8.87-3.94-5.25-3.28-2.95-8.53-7.22-1-1.64-5.26-5.25-7.89-7.22-2-2-3-2.3-4.26-3.94-1.32-2.3-1.64-2.63-3-4.6-4.59-3.94-29.88-12.48-35.13-13.46-7.22-1-5.25-.33-12.81,1-3,0-4.27-.33-6.89.66l-6.9,3.61c-16.09,5.58-10.83-.33-25.94,14.12-17.07,16.75-18.05,25.61-20.68,42.68-3.94,21.67-5.58,24-3,44l1.65,24c-.33,13.13-.66,26.6,17.4,42.69,28.56,25.28,35.13,19.37,64.68,19.7h9.85c10.51,0,28.24-6.24,37.43-20.36a47.91,47.91,0,0,0,5.58-9.52,58,58,0,0,1,4.27-9.53c.33-.32,5.58-8.53,6.24-9.19,2.63-.66,6.57-1.64,9.85.33,2.3,12.81.33,13.13,2.3,21.67,2.63,11.16,2.3,15.1,2,22.33-6.9,5.58-8.54,7.88-15.76,10.83l-9.19,3c-23.32,8.21-29.88,11.49-57.14,13.13-29.22,2-27.9,1.32-57.78-12.48-38.42-18-56.81-42.35-63.05-71.25C862,385.89,862,348.13,863,338c1-5.91,17.4-48.93,23.31-55.82,8.21-9.2,13.79-2.3,21-11.82.33,0,3.62-6.9,4.27-7.88,2.3-2.63,6.24-4.27,8.54-5.91,3.28-2,6.89-4.27,16.74-6.57,19.71-5.25,18.72-3.28,33.5-3.94h19.37c3.28,0,10.83.33,15.1.33h12.48c10.83,1,18.39,4.92,37.76,13.13l4.59,2.63Z" style="fill: rgb(245, 245, 245);"/>
      <path d="M1245.76,277.54c4.59,6.9,6.23,9.85,6.23,15.76,0,1.31,0,4.93-.32,7.88-.66,1.64.32,4.6-3.94,7.55h-3.29l-3.28-1.64c-.66-.33-3-2-5.91-5.91-1-1-2.3-3.28-3.94-6.57,0-1.64-1.31-4.26-3.61-6.89-3-1-8.21-4.6-11.17-6.24-1-1-3.61-3.28-4.92-4.6l-1.31-1-1.65-1.64-1-1.32-1.64-1.31c-5.91-4.27-12.81-5.25-22.33-5.91-8.87-.33-27.58,0-37.43,12.48-3.94,5.58-7.23,22.65-5.58,29.55,3.28,14.12,36.77,27.58,40,29.55l6.57,3.28a34.06,34.06,0,0,0,5.91,3.29l8.87,4.59c18.38,2,22,7.55,35.13,26.6,4.27,4.27,5.58,7.88,9.85,11.82,1.64,2.63,2.3,4.27,4.92,12.8,2.63,8.87,3.94,13.79,1.32,24.3-2.63,14.12-13.46,33.82-29.88,41.7-12.48,6.24-24.3,7.22-50.24,11.17-30.86,4.59-19.37,2.62-50.23-5.92l-6.57-1.64c-25.61-4.59-20.36-16.41-21-41.37V415.44l.66-6.56c3.29,0,10.51-.66,13.46,1.64a21.69,21.69,0,0,1,4.6,6.24c1.31,3.94,0,2.63,4.27,6.57l8.87,8.2c12.14,9.53,15.1,18.72,25.93,22.33,2.3,1,25.29,3.61,27.58,3.61,13.79-1.64,25-3.94,32.84-21.34,4.27-8.54.66-19.37,0-28.57L1210,403.3a54.57,54.57,0,0,0-6.24-3.29,39.31,39.31,0,0,0-6.9-2.95c-3.28-2-2.62-3-5.91-5.58a41.81,41.81,0,0,0-6.56-4.93c-15.44-10.18-17.08-6.24-22-18.06h-10.18l-9.85-2c-10.18-1-11.82-2.95-20.69-9.85-3.28,1.32-6.56-2.95-7.55-5.58l-3.28-9.19c-3.61-8.21-7.23-10.51-7.88-18.72-.66-3.28,2-25.28,3-28.24,0,0,16.42-28.56,17.08-29.22,19.37-21.34,51.87-20.36,79.78-20h5.59c10.17.33,25.61,3.94,36.44,7.23C1247.73,267.36,1247.4,263.42,1245.76,277.54Z" style="fill: rgb(245, 245, 245);"/>
      <path d="M87.68,260.35c5.2,8,8.52,9.59,11.85,17.31.14.4,2.93,7.06,2.93,8.79a26.08,26.08,0,0,1-.53,4.4,20.84,20.84,0,0,0-.27,4.39v3.86c-.26,10-7,24-16,30.89-14,11.19-19.7,10.13-33.82,10.52h-6c-10.39-.79-21.44-2.53-30.1-15C8.32,314.81,2.06,308.82,2.46,293.91V291c.4-9.86-2.13-6.79,2.93-16.65,1.2-2.26,8.65-14.25,11.18-16.64,7.59-7.19,18.65-10.52,26.24-11.32C52.13,245.44,75.7,242.37,87.68,260.35Zm-7.06,50.34c1.2-5.33,3.73-6.66,2.93-11.86L82,294.17c-.14-1.46.4-1.19.53-2.26a11.72,11.72,0,0,0-.13-2.13,22.24,22.24,0,0,1,.13-4,18,18,0,0,1,.8-4.26c1.2-2.79,1.86-2.66.8-4.12-.8-3.2-4-4.93-6.53-7.19-2.26-2.27-2.26-1.2-3.06-3.87l-1.07-2c-.26-.27-1.46-1.74-1.59-1.87l-1.2-1.2A15.18,15.18,0,0,1,68.77,259c-.8-.8-1.59-1.6-2.13-2.26-1.6-1.47-1.2-.8-1.6-2.14a5.52,5.52,0,0,0-1.59-2.13c-.67-.53-7.33-1.59-9.32-1.59C48,250.5,38.55,253,33,259.15c-1.2,1.87-.53,1.33-2.26,3.07a17.26,17.26,0,0,0-2.53,2.92c-1.6,2.14-1.33,2.53-2.8,6a12.67,12.67,0,0,1-1.6,2.93A32.88,32.88,0,0,1,21.63,277c-1.59,2.66-1.46,3.59-2.26,6l2,1.6c.26,2.53-.14,8.25-.27,14v4.79c.27,2.8-.13,8.92.8,11.45s4.53,8.53,7.72,10.39a11.22,11.22,0,0,1,2.53,1.2l2.4.4c.8,0,1.73,1.2,2.26,1.86,1.2,1.2,1.47,1.2,2.4,1.2a19.19,19.19,0,0,1,4.93.67,6.68,6.68,0,0,1,4.79,2.26c8.52.53,26.9-4.66,30.5-17.44Z" style="fill: rgb(245, 245, 245);"/>
      <path d="M147.74,248h8.66l5.86.26h1.86c.13,0,5.86-.93,6.26-.93a7.11,7.11,0,0,1,2.93.27,5.65,5.65,0,0,1,3.06,2.13l-.93.8c0,1.59-.27,3.19-.27,4.79a12.11,12.11,0,0,1-1.2,4.93,3,3,0,0,0,.4,2.39v7.33a4.41,4.41,0,0,1-2.93,1.06,4.63,4.63,0,0,1-2.93-1.73l-1.33-4.13a9.24,9.24,0,0,0-1.59-1.86l-.27-.53-.53-.53-.14-.4-.26-.54c-2-2.79-3.47-3.46-7.59-5.19-4.4-1.73-14.92-2.93-19.18.4-1.6,1.2-2.53,2.93-2.8,6.12,0,1.07-.13,2-.13,3.07-.27,1.6-.66,1.46-1.2,3.33v1.86c-.4,2.53,1.07,12.12,1.87,15.05a35.87,35.87,0,0,0,9,.26c1.87,0,2.53.54,4.53-.79.53-.94.53-1.2,1.86-1.74l.54-.53.4-.66c.13-.14.26-.8.53-1.2.53-1.07,1.2-1.47,2.8-1.47a8.2,8.2,0,0,1,3.06.27c.93,4.26.66,6.12.26,10.52v3.19c0,.94.27,4.93.27,6.53v4.93l-.93,1.06c-2.53,0-2.4.13-3.86-1.46a18.12,18.12,0,0,1-4-3.2c-.93-2.4-.66-1.46-2.93-3.59a17.52,17.52,0,0,0-4-3.07c-1.47-.66-5.73-1.06-7.46.14-2,1.46-2.13,9.32-2.53,11.31l-1.06,8.26c3.59,9.72-.94,11.19,4.12,16.51a33.52,33.52,0,0,0,3.86,3.07c1.6,1.59,1.34,2.26,1.2,4a6.41,6.41,0,0,1-3.46.67h-1.86c-5.6-.14-6.93.26-9.46,0h-4.79c-7.06.66-3.73.93-11.05-.8v-1.47a24,24,0,0,0,4.92-6.66c.4-.66,1.6-2.66,1.87-3.32a17.44,17.44,0,0,0-.27-3.6V316c.13-.93-.13-5.46,0-7.85.27-3.33,1.33-7.46,1.2-8.13l-.8-7.85c0-2.4.27-6,.53-8.66l1.33-7.19c.27-2.13-.79-9.59-1.06-12v-4.13a10.08,10.08,0,0,0-2.66-6.26c-1.2-1.33-2-1.2-3.07-2.26s-1.86-1.74-1.2-3.2a20.37,20.37,0,0,1,4.13-.53c1.2,0,2.8-.94,4.26-.94h3.47c5.72.8,8.12-.53,14.38,2.27C141.62,248.77,143.48,248,147.74,248Z" style="fill: rgb(245, 245, 245);"/>
    </g>
  </g>
</svg>