<svg width="38" height="38" viewBox="0 0 38 38" fill="none" xmlns="http://www.w3.org/2000/svg">
<rect width="38" height="38" rx="19" fill="black"/>
<path d="M14.1728 25C13.5149 25 13 24.4702 13 23.8115C13 23.4964 13.1144 23.1957 13.3433 22.9808L17.3051 19L13.3433 15.0334C13.1144 14.8043 13 14.5179 13 14.2029C13 13.5298 13.5149 13.0286 14.1728 13.0286C14.5018 13.0286 14.7592 13.1432 14.9881 13.358L18.9785 17.3389L22.9976 13.3437C23.2407 13.1002 23.4982 13 23.8128 13C24.4707 13 25 13.5155 25 14.1742C25 14.5036 24.8998 14.7613 24.6423 15.0191L20.6663 19L24.6281 22.9666C24.8713 23.1814 24.9856 23.482 24.9856 23.8115C24.9856 24.4702 24.4565 25 23.7842 25C23.4553 25 23.1549 24.8855 22.9403 24.6563L18.9785 20.6754L15.031 24.6563C14.8021 24.8855 14.5018 25 14.1728 25Z" fill="white"/>
</svg>
