<svg width="35" height="35" viewBox="0 0 35 35" fill="none" xmlns="http://www.w3.org/2000/svg">
<rect width="35" height="35" rx="17.5" fill="#F04438"/>
<path d="M12.6728 23.5C12.0149 23.5 11.5 22.9702 11.5 22.3115C11.5 21.9964 11.6144 21.6957 11.8433 21.4808L15.8051 17.5L11.8433 13.5334C11.6144 13.3043 11.5 13.0179 11.5 12.7029C11.5 12.0298 12.0149 11.5286 12.6728 11.5286C13.0018 11.5286 13.2592 11.6432 13.4881 11.858L17.4785 15.8389L21.4976 11.8437C21.7407 11.6002 21.9982 11.5 22.3128 11.5C22.9707 11.5 23.5 12.0155 23.5 12.6742C23.5 13.0036 23.3998 13.2613 23.1423 13.5191L19.1663 17.5L23.1281 21.4666C23.3713 21.6814 23.4856 21.982 23.4856 22.3115C23.4856 22.9702 22.9565 23.5 22.2842 23.5C21.9553 23.5 21.6549 23.3855 21.4403 23.1563L17.4785 19.1754L13.531 23.1563C13.3021 23.3855 13.0018 23.5 12.6728 23.5Z" fill="white"/>
</svg>
