<svg width="33" height="32" viewBox="0 0 33 32" fill="none" xmlns="http://www.w3.org/2000/svg">
<path d="M32.8862 16.0006C32.8862 24.0816 26.8979 30.7623 19.1185 31.8464C18.3911 31.9473 17.6469 32 16.8915 32C16.0195 32 15.1633 31.9305 14.3294 31.796C6.71366 30.5695 0.89679 23.9638 0.89679 16.0006C0.89679 7.16393 8.05861 0 16.8926 0C25.7267 0 32.8885 7.16393 32.8885 16.0006H32.8862Z" fill="#1C1C1B"/>
<path d="M7.38391 7.0563L14.7609 16.9221L7.33795 24.9437H9.00905L15.5085 17.921L20.7594 24.9437H26.4451L18.6534 14.5229L25.563 7.0563H23.8919L17.907 13.524L13.0708 7.0563H7.38502H7.38391ZM9.84066 8.28728H12.4521L23.9861 23.7127H21.3747L9.84066 8.28728Z" fill="white"/>
</svg>
