<svg width="96" height="80" viewBox="0 0 96 80" fill="none" xmlns="http://www.w3.org/2000/svg">
<path d="M93.0821 40.8557L87.302 39.5564C84.2595 38.8725 81.1516 39.1589 78.3341 40.3456C78.4376 39.6899 78.524 39.0449 78.5946 38.4117L82.0292 37.9928C90.1542 37.0015 95.9292 29.6237 94.9374 21.4972C94.7395 19.8732 93.2599 18.7185 91.6385 18.9157C85.7112 19.6388 83.5343 19.6462 80.4416 21.3372C82.7582 16.2156 82.0525 9.98602 78.123 5.48019L74.2291 1.01528C73.1536 -0.217538 71.2826 -0.345467 70.0496 0.7298C63.895 6.09743 63.2546 15.4718 68.6222 21.6268L72.0465 25.553C72.349 26.8363 72.7891 29.1585 72.9 32.1545C72.7117 33.4334 72.6884 34.7446 72.8433 36.0625C71.8117 51.7243 61.7552 62.3931 48.0004 70.3426C34.3322 62.4434 24.1599 51.755 23.1576 36.0574C23.3114 34.7449 23.2887 33.439 23.102 32.1651C23.2135 29.1751 23.6554 26.8393 23.9583 25.5483L27.3783 21.6268C32.7583 15.4577 32.1205 6.11058 25.9507 0.7298C24.7173 -0.345652 22.8464 -0.217538 21.7713 1.01528L17.8771 5.48019C13.9475 9.98602 13.2419 16.2156 15.5585 21.3372C12.4606 19.6434 10.3062 19.641 4.3617 18.9157C2.73954 18.717 1.26068 19.8734 1.06277 21.4972C0.0711829 29.6222 5.84426 37.0012 13.971 37.9928L17.4056 38.4119C17.4761 39.0451 17.5626 39.6901 17.6661 40.3458C14.8487 39.1593 11.741 38.8727 8.69813 39.5566L2.91801 40.8559C1.32288 41.2145 0.318709 42.7994 0.677502 44.3957C2.46647 52.3539 10.399 57.3909 18.3759 55.5977L22.6812 54.63C23.0572 55.2892 23.1404 55.4155 23.2961 55.6713C20.3541 55.7558 17.4093 56.7094 14.8774 58.6009L10.1311 62.1465C8.82032 63.1256 8.55169 64.9816 9.53068 66.2924C14.4288 72.8495 23.6991 74.1956 30.2601 69.294L33.1764 67.1153C36.0663 69.6376 39.0566 71.7846 41.8309 73.5558C40.8125 74.0264 40.2082 74.2719 40.1752 74.2851C38.6553 74.8903 37.9138 76.613 38.519 78.1329C39.1251 79.6553 40.8491 80.3934 42.3669 79.7891C42.6368 79.6818 44.8286 78.7946 48.0002 77.1323C51.1715 78.7946 53.3635 79.6818 53.6335 79.7891C55.1521 80.3938 56.8733 79.6536 57.4795 78.1346C58.0854 76.6159 57.3453 74.893 55.827 74.286C55.7936 74.2727 55.1886 74.0268 54.1693 73.5558C56.9435 71.7848 59.9336 69.6376 62.8236 67.1155L65.7399 69.294C72.2957 74.1916 81.5671 72.8547 86.4693 66.2924C87.4483 64.9816 87.1796 63.1256 85.8689 62.1465L81.1226 58.6009C78.5908 56.7096 75.6461 55.7558 72.7039 55.6715C72.8607 55.4144 72.9401 55.2946 73.3187 54.6301L77.6241 55.5979C85.6075 57.3926 93.5352 52.3469 95.3225 44.3957C95.6811 42.8004 94.6782 41.2145 93.0821 40.8557ZM17.0766 49.8176C13.308 50.6645 9.55142 48.9707 7.6025 45.8749L9.99722 45.3365C13.8395 44.4731 17.5696 46.238 19.4756 49.2782L17.0766 49.8176ZM22.3421 9.37415L23.9555 7.52427C25.7506 10.7119 25.4514 14.8223 22.913 17.7328L21.2996 19.5829C19.5045 16.395 19.8037 12.2847 22.3421 9.37415ZM14.688 32.1119C10.7781 31.6348 7.85835 28.7197 7.08393 25.216L9.52476 25.5137C13.4332 25.9906 16.3546 28.905 17.1288 32.4096L14.688 32.1119ZM26.7146 64.5477C23.5586 66.9052 19.4334 66.8156 16.4527 64.8185L18.4227 63.3469C21.5169 61.0358 25.6378 61.0479 28.6809 63.0786L26.7146 64.5477ZM86.4752 25.5139L88.916 25.2162C88.1422 28.7169 85.2246 31.6347 81.312 32.1121L78.8711 32.4098C79.6437 28.9124 82.5596 25.9917 86.4752 25.5139ZM72.0417 7.52094L73.6577 9.37415C76.1961 12.2847 76.4953 16.395 74.7002 19.5829L73.0868 17.733C70.4989 14.7651 70.2749 10.6449 72.0417 7.52094ZM79.5471 64.8185C76.5718 66.8121 72.446 66.9089 69.2852 64.5477L67.3189 63.0786C70.3619 61.0479 74.4832 61.0356 77.577 63.3469L79.5471 64.8185ZM78.9233 49.8176L76.5244 49.2782C78.4322 46.235 82.1638 44.4732 86.0027 45.3365L88.3977 45.8749C86.4486 48.9709 82.6918 50.6642 78.9233 49.8176Z" fill="white"/>
<path d="M28.1527 34.4387L35.9241 42.0139L34.0896 52.7103C33.6751 55.1274 36.2194 56.973 38.3875 55.8329L47.9935 50.7828L57.5994 55.8329C59.7511 56.9645 62.3143 55.1422 61.8973 52.7103L60.0628 42.0139L67.8343 34.4387C69.589 32.7282 68.6189 29.7387 66.1927 29.3862L55.453 27.8257L50.65 18.0938C49.5655 15.8963 46.4224 15.8953 45.3375 18.0938L40.5346 27.8257L29.7948 29.3862C27.3694 29.7385 26.3971 32.7273 28.1527 34.4387ZM42.9271 33.4645C43.8918 33.3244 44.726 32.7184 45.1574 31.8442L47.9933 26.098L50.8292 31.8442C51.2606 32.7184 52.0948 33.3246 53.0595 33.4645L59.4006 34.3859L54.8122 38.8586C54.1141 39.5392 53.7954 40.5197 53.9602 41.4805L55.0434 47.7962L49.3716 44.8144C48.9403 44.5876 48.4667 44.4741 47.9933 44.4741C47.0182 44.4741 47.1158 44.5512 40.9431 47.7962L42.0264 41.4805C42.1913 40.5197 41.8727 39.5392 41.1744 38.8586L36.586 34.3859L42.9271 33.4645Z" fill="white"/>
</svg>
